<?xml version="1.0" encoding="utf-8"?>
<!-- Generator: Adobe Adobe Illustrator 24.2.0, SVG Export Plug-In . SVG Version: 6.00 Build 0)  -->
<svg version="1.1" xmlns="http://www.w3.org/2000/svg" xmlns:xlink="http://www.w3.org/1999/xlink" x="0px" y="0px"
	 viewBox="0 0 500 500" style="enable-background:new 0 0 500 500;" xml:space="preserve">
<style type="text/css">
	.st0{fill:#706767;stroke:#000000;stroke-width:0.333;stroke-miterlimit:10;}
	.st1{fill:#706767;stroke:#000000;stroke-width:0.7548;stroke-miterlimit:10;}
	.st2{fill:#2C0078;}
	.st3{fill:url(#SVGID_1_);stroke:#000000;stroke-width:0.4554;stroke-miterlimit:10;}
	.st4{display:none;}
	.st5{display:inline;fill:none;stroke:#000000;stroke-width:0.4633;stroke-miterlimit:10;}
	.st6{display:inline;fill:none;stroke:#000000;stroke-width:0.177;stroke-miterlimit:10;}
	.st7{fill:#3D3C3C;stroke:#471343;stroke-width:2.0135;stroke-miterlimit:10;}
	.st8{fill:url(#SVGID_2_);stroke:#000000;stroke-width:0.4633;stroke-miterlimit:10;}
	.st9{fill:#3D3C3C;}
	.st10{fill:url(#SVGID_3_);stroke:#000000;stroke-width:0.163;stroke-miterlimit:10;}
	.st11{fill:#706767;stroke:#471343;stroke-width:0.4302;stroke-miterlimit:10;}
	.st12{fill:url(#SVGID_4_);}
	.st13{fill:#8838B0;}
	.st14{display:inline;}
	.st15{fill:#EFC75E;}
	.st16{fill:#CC9933;}
	.st17{fill:#EFC75E;stroke:#916D23;stroke-width:1.1346;stroke-miterlimit:10;}
	.st18{fill:#CC9933;stroke:#916D23;stroke-width:1.0819;stroke-miterlimit:10;}
	.st19{fill:#EFC75E;stroke:#916D23;stroke-width:1.0049;stroke-miterlimit:10;}
	.st20{fill:#CC9933;stroke:#916D23;stroke-width:1.1346;stroke-miterlimit:10;}
	.st21{display:none;fill:#3D3C3C;stroke:#471343;stroke-width:4.9765;stroke-miterlimit:10;}
	.st22{display:none;fill:#CC9933;}
	.st23{opacity:0.3098;fill:#CC9933;}
	.st24{opacity:0.3098;fill:#EFC75E;}
	.st25{clip-path:url(#SVGID_6_);}
	.st26{clip-path:url(#SVGID_8_);}
	.st27{fill:#CC9933;stroke:#CC9933;stroke-width:4.183;stroke-linecap:round;stroke-miterlimit:10;}
	.st28{fill:none;stroke:#EFC75E;stroke-width:7.1111;stroke-linecap:round;stroke-miterlimit:10;}
	.st29{fill:none;stroke:#EFC75E;stroke-width:22.535;stroke-linecap:round;stroke-miterlimit:10;}
	.st30{display:inline;fill:none;stroke:#000000;stroke-width:0.333;stroke-linecap:round;stroke-miterlimit:10;}
	.st31{fill:#FFFFFF;stroke:#FFFFFF;stroke-width:2.0135;stroke-miterlimit:10;}
	.st32{fill:#FFFFFF;stroke:#FFFFFF;stroke-miterlimit:10;}
	.st33{fill:#2C0078;stroke:#FFFFFF;stroke-miterlimit:10;}
	.st34{fill:#FFFFFF;stroke:#FFFFFF;stroke-width:0.4302;stroke-miterlimit:10;}
	.st35{fill:#FFFFFF;stroke:#4E4D4F;stroke-width:2.0135;stroke-miterlimit:10;}
	.st36{fill:#5B00F7;stroke:#4E4D4F;stroke-miterlimit:10;}
	.st37{fill:#FFFFFF;stroke:#4E4D4F;stroke-miterlimit:10;}
	.st38{fill:#2C0078;stroke:#4E4D4F;stroke-miterlimit:10;}
	.st39{fill:#FFFFFF;stroke:#4E4D4F;stroke-width:0.4302;stroke-miterlimit:10;}
	.st40{fill:url(#SVGID_9_);}
	.st41{fill:url(#SVGID_10_);}
	.st42{fill:#5B00F7;}
	.st43{display:none;fill:#2C0078;}
	.st44{fill:url(#SVGID_11_);}
	.st45{fill:#EFC75E;stroke:#916D23;stroke-width:2.7068;stroke-miterlimit:10;}
	.st46{fill:#CC9933;stroke:#916D23;stroke-width:2.5811;stroke-miterlimit:10;}
	.st47{fill:#EFC75E;stroke:#916D23;stroke-width:2.3974;stroke-miterlimit:10;}
	.st48{fill:#CC9933;stroke:#916D23;stroke-width:2.7068;stroke-miterlimit:10;}
	.st49{clip-path:url(#SVGID_13_);}
	.st50{clip-path:url(#SVGID_15_);}
	.st51{fill:none;stroke:#EFC75E;stroke-width:16.9656;stroke-linecap:round;stroke-miterlimit:10;}
	.st52{fill:#3D3C3C;stroke:#471343;stroke-width:2.1323;stroke-miterlimit:10;}
	.st53{fill:url(#SVGID_16_);}
	.st54{fill:url(#SVGID_17_);}
	.st55{fill:#706767;stroke:#000000;stroke-width:0.8357;stroke-miterlimit:10;}
	.st56{fill:#EFC75E;stroke:#916D23;stroke-width:3.5954;stroke-miterlimit:10;}
	.st57{fill:#CC9933;stroke:#916D23;stroke-width:3.4285;stroke-miterlimit:10;}
	.st58{fill:#EFC75E;stroke:#916D23;stroke-width:3.1845;stroke-miterlimit:10;}
	.st59{fill:#CC9933;stroke:#916D23;stroke-width:3.5954;stroke-miterlimit:10;}
	.st60{clip-path:url(#SVGID_19_);}
	.st61{clip-path:url(#SVGID_21_);}
	.st62{fill:#3D3C3C;stroke:#471343;stroke-width:4.5562;stroke-miterlimit:10;}
	.st63{fill:url(#SVGID_22_);}
	.st64{fill:#706767;stroke:#471343;stroke-width:0.9734;stroke-miterlimit:10;}
	.st65{fill:#471343;}
	.st66{fill:url(#SVGID_23_);}
	.st67{fill:#706767;stroke:#471343;stroke-width:0.7529;stroke-miterlimit:10;}
	.st68{fill:url(#SVGID_24_);}
	.st69{fill:url(#SVGID_25_);}
	.st70{fill:#3D3C3C;stroke:#471343;stroke-width:8.4594;stroke-miterlimit:10;}
	.st71{fill:url(#SVGID_26_);}
	.st72{fill:#706767;stroke:#471343;stroke-width:1.8072;stroke-miterlimit:10;}
	.st73{fill:#3D3C3C;stroke:#471343;stroke-width:5.4379;stroke-miterlimit:10;}
	.st74{fill:url(#SVGID_27_);}
	.st75{fill:#3D3C3C;stroke:#471343;stroke-width:15.7679;stroke-miterlimit:10;}
	.st76{fill:url(#SVGID_28_);}
	.st77{fill:#706767;stroke:#471343;stroke-width:3.3686;stroke-miterlimit:10;}
	.st78{fill:url(#SVGID_29_);}
	.st79{fill:url(#SVGID_30_);}
	.st80{fill:url(#SVGID_31_);}
	.st81{fill:#706767;stroke:#471343;stroke-width:1.1617;stroke-miterlimit:10;}
	.st82{fill:url(#SVGID_32_);}
	.st83{fill:url(#SVGID_33_);}
	.st84{fill:url(#SVGID_34_);}
	.st85{fill:#3D3C3C;stroke:#471343;stroke-width:1.2154;stroke-miterlimit:10;}
	.st86{fill:url(#SVGID_35_);}
	.st87{fill:#3D3C3C;stroke:#471343;stroke-width:8.4302;stroke-miterlimit:10;}
	.st88{fill:url(#SVGID_36_);}
	.st89{fill:#3D3C3C;stroke:#471343;stroke-width:2.9073;stroke-miterlimit:10;}
	.st90{fill:url(#SVGID_37_);}
	.st91{fill:#706767;stroke:#471343;stroke-width:1.801;stroke-miterlimit:10;}
	.st92{fill:url(#SVGID_38_);}
	.st93{fill:url(#SVGID_39_);}
	.st94{fill:#3D3C3C;stroke:#471343;stroke-width:8.6171;stroke-miterlimit:10;}
	.st95{fill:url(#SVGID_40_);}
	.st96{fill:#3D3C3C;stroke:#471343;stroke-width:2.9718;stroke-miterlimit:10;}
	.st97{fill:url(#SVGID_41_);}
	.st98{fill:url(#SVGID_42_);}
	.st99{fill:url(#SVGID_43_);}
	.st100{fill:#706767;stroke:#471543;stroke-width:4;stroke-miterlimit:10;}
	.st101{fill:#3D3C3C;stroke:#471343;stroke-width:4.5349;stroke-miterlimit:10;}
	.st102{fill:url(#SVGID_44_);}
	.st103{fill:#706767;stroke:#471343;stroke-width:0.9688;stroke-miterlimit:10;}
	.st104{fill:#706767;stroke:#471543;stroke-width:9.009;stroke-miterlimit:10;}
	.st105{fill:#706767;stroke:#471543;stroke-width:5.7674;stroke-miterlimit:10;}
	.st106{fill:#242424;}
	.st107{fill:url(#SVGID_45_);}
	.st108{fill:url(#SVGID_46_);}
	.st109{fill:url(#SVGID_47_);}
	.st110{display:none;fill:#706767;stroke:#471543;stroke-width:2.2223;stroke-miterlimit:10;}
	.st111{fill:#706767;stroke:#471543;stroke-width:3;stroke-miterlimit:10;}
	.st112{fill:#A3A3A3;}
	.st113{fill:url(#SVGID_48_);}
	.st114{fill:none;stroke:#706867;stroke-width:30;stroke-linecap:round;stroke-linejoin:round;stroke-miterlimit:10;}
	.st115{fill:none;stroke:#706767;stroke-width:30;stroke-linecap:round;stroke-miterlimit:10;stroke-dasharray:0,6,0,6,0,6;}
	.st116{fill:#706767;}
	.st117{fill:#706767;stroke:#471343;stroke-width:5.7547;stroke-miterlimit:10;}
	.st118{display:none;fill:#2C0078;stroke:#000000;stroke-width:2.0203;stroke-miterlimit:10;}
	.st119{fill:url(#SVGID_49_);stroke:#736337;stroke-width:1.5717;stroke-miterlimit:10;}
	.st120{fill:#736337;stroke:#40381D;stroke-width:1.3853;stroke-miterlimit:10;}
	.st121{fill:url(#SVGID_50_);}
	.st122{fill:#736337;stroke:#40371F;stroke-width:1.3853;stroke-miterlimit:10;}
	.st123{fill:#63542C;}
	.st124{fill:#736337;}
	.st125{fill:url(#SVGID_51_);}
	.st126{fill:#9C874E;}
	.st127{fill:none;stroke:#706867;stroke-width:12.747;stroke-linecap:round;stroke-linejoin:round;stroke-miterlimit:10;}
	.st128{fill:url(#SVGID_52_);}
	.st129{fill:url(#SVGID_53_);}
	.st130{fill:url(#SVGID_54_);}
	.st131{fill:#3D3C3C;stroke:#471343;stroke-width:1.7015;stroke-miterlimit:10;}
	.st132{fill:url(#SVGID_55_);}
	.st133{fill:#706767;stroke:#471343;stroke-width:1.054;stroke-miterlimit:10;}
	.st134{fill:url(#SVGID_56_);}
	.st135{fill:#471543;}
	.st136{fill:#736337;stroke:#3F371F;stroke-width:2;stroke-miterlimit:10;}
	.st137{fill:url(#SVGID_57_);stroke:#5B00F7;stroke-width:1.7215;stroke-miterlimit:10;}
	.st138{fill:#736337;stroke:#412E3C;stroke-width:2;stroke-miterlimit:10;}
	.st139{fill:none;stroke:#5B00F7;stroke-width:1.7215;stroke-miterlimit:10;}
	.st140{fill:#4D00D2;stroke:#736337;stroke-width:3;stroke-miterlimit:10;}
	.st141{fill:url(#SVGID_58_);}
	.st142{fill:#4B383B;}
	.st143{fill:#2C0078;stroke:#000000;stroke-width:0.8056;stroke-miterlimit:10;}
	.st144{display:none;fill:#4E2249;}
	.st145{fill:#5C4D2E;stroke:#471343;stroke-width:2.0135;stroke-miterlimit:10;}
	.st146{fill:url(#SVGID_59_);}
	.st147{fill:#5C4D2E;}
	.st148{fill:#5C4D2E;stroke:#471343;stroke-width:0.4302;stroke-miterlimit:10;}
	.st149{display:none;opacity:0.3098;fill:#EFC75E;}
	.st150{fill:url(#SVGID_60_);}
	.st151{fill:url(#SVGID_61_);stroke:#4D4A4A;stroke-width:1.1346;stroke-miterlimit:10;}
	.st152{fill:#4D4A4A;}
	.st153{fill:url(#SVGID_62_);}
	.st154{fill:url(#SVGID_63_);}
	.st155{fill:#4900C8;}
	.st156{display:inline;fill:url(#SVGID_64_);stroke:#EFC75E;stroke-width:7.1111;stroke-linecap:round;stroke-miterlimit:10;}
	.st157{display:inline;fill:url(#SVGID_65_);stroke:#EFC75E;stroke-width:7.1111;stroke-linecap:round;stroke-miterlimit:10;}
	.st158{display:inline;fill:url(#SVGID_66_);stroke:#EFC75E;stroke-width:7.1111;stroke-linecap:round;stroke-miterlimit:10;}
	.st159{display:inline;fill:url(#SVGID_67_);stroke:#EFC75E;stroke-width:7.1111;stroke-linecap:round;stroke-miterlimit:10;}
	.st160{display:inline;fill:#9C874E;}
	.st161{fill:url(#SVGID_68_);stroke:#736337;stroke-width:1.8958;stroke-miterlimit:10;}
	.st162{fill:#736337;stroke:#40381D;stroke-width:1.671;stroke-miterlimit:10;}
	.st163{fill:url(#SVGID_69_);}
	.st164{fill:#736337;stroke:#40371F;stroke-width:1.671;stroke-miterlimit:10;}
	.st165{fill:url(#SVGID_70_);}
	.st166{fill:url(#SVGID_71_);}
	.st167{fill:url(#SVGID_72_);stroke:#5B00F7;stroke-width:1.7215;stroke-miterlimit:10;}
	.st168{fill:url(#SVGID_73_);}
	.st169{fill:#3D3C3C;stroke:#471343;stroke-width:1.7247;stroke-miterlimit:10;}
	.st170{fill:url(#SVGID_74_);}
	.st171{fill:#3D3C3C;stroke:#3D3C3C;stroke-width:2;stroke-miterlimit:10;}
	.st172{fill:#706767;stroke:#471543;stroke-width:1.931;stroke-miterlimit:10;}
	.st173{opacity:0.8314;fill:#3B3149;stroke:#471543;stroke-width:2.0833;stroke-miterlimit:10;}
	.st174{fill:#706767;stroke:#471343;stroke-width:0.3685;stroke-miterlimit:10;}
	.st175{fill:#706767;stroke:#471543;stroke-width:7.0949;stroke-miterlimit:10;}
	.st176{fill:#3D3C3C;stroke:#471343;stroke-width:3.6008;stroke-miterlimit:10;}
	.st177{fill:url(#SVGID_75_);}
	.st178{fill:#3D3C3C;stroke:#3D3C3C;stroke-width:4.1756;stroke-miterlimit:10;}
	.st179{fill:#706767;stroke:#471543;stroke-width:4.0317;stroke-miterlimit:10;}
	.st180{opacity:0.8314;fill:#3B3149;stroke:#471543;stroke-width:4.1382;stroke-miterlimit:10;}
	.st181{fill:#706767;stroke:#471343;stroke-width:0.7693;stroke-miterlimit:10;}
	.st182{fill:#3D3C3C;stroke:#471343;stroke-width:1.7656;stroke-miterlimit:10;}
	.st183{fill:url(#SVGID_76_);}
	.st184{fill:#706767;stroke:#471343;stroke-width:0.7957;stroke-miterlimit:10;}
	.st185{display:inline;opacity:0.8314;fill:#3B3149;stroke:#471543;stroke-width:4.2227;stroke-miterlimit:10;}
	.st186{display:inline;fill:#5B00F7;}
	.st187{display:inline;fill:#706767;stroke:#471343;stroke-width:0.785;stroke-miterlimit:10;}
	.st188{fill:#706767;stroke:#471543;stroke-width:7.2397;stroke-miterlimit:10;}
	.st189{fill:url(#SVGID_77_);}
	.st190{fill:#3D3C3C;stroke:#3D3C3C;stroke-width:4.191;stroke-miterlimit:10;}
	.st191{fill:#706767;stroke:#471543;stroke-width:4.0465;stroke-miterlimit:10;}
	.st192{fill:#3D3C3C;stroke:#471343;stroke-width:1.7721;stroke-miterlimit:10;}
	.st193{fill:url(#SVGID_78_);}
	.st194{fill:#706767;stroke:#471343;stroke-width:0.7986;stroke-miterlimit:10;}
	.st195{fill:#3D3C3C;stroke:#471343;stroke-width:4.0788;stroke-miterlimit:10;}
	.st196{fill:url(#SVGID_79_);}
	.st197{fill:#3D3C3C;stroke:#3D3C3C;stroke-width:4.7299;stroke-miterlimit:10;}
	.st198{fill:#706767;stroke:#471543;stroke-width:4.5668;stroke-miterlimit:10;}
	.st199{opacity:0.8314;fill:#3B3149;stroke:#471543;stroke-width:4.6875;stroke-miterlimit:10;}
	.st200{fill:#706767;stroke:#471343;stroke-width:0.8714;stroke-miterlimit:10;}
	.st201{fill:#3D3C3C;stroke:#471343;stroke-width:2;stroke-miterlimit:10;}
	.st202{fill:url(#SVGID_80_);}
	.st203{fill:#706767;stroke:#471343;stroke-width:0.9013;stroke-miterlimit:10;}
	.st204{opacity:0.8314;fill:#3B3149;stroke:#471543;stroke-width:4.927;stroke-miterlimit:10;}
	.st205{fill:url(#SVGID_81_);}
	.st206{fill:url(#SVGID_82_);}
	.st207{fill:none;stroke:#3D3C3C;stroke-width:2;stroke-miterlimit:10;}
	.st208{fill:none;stroke:#3D3C3C;stroke-width:1.3702;stroke-miterlimit:10;}
</style>
<g id="Background">
</g>
<g id="Logo">
</g>
<g id="LogoGreen">
</g>
<g id="Layer_2" class="st4">
</g>
<g id="Coin">
</g>
<g id="LogoSymb">
</g>
<g id="Mors">
</g>
<g id="Clock">
</g>
<g id="Text">
</g>
<g id="LineGrid" class="st4">
</g>
<g id="Light">
</g>
<g id="LogoSimpleTest">
</g>
<g id="TheLogo">
	<rect x="-1112.64" y="-1827.19" class="st43" width="4154.38" height="4154.38"/>
</g>
<g id="LogoSimple">
	<g>
		<g>
			<path class="st116" d="M250,494.99c-65.44,0-126.97-25.48-173.24-71.76S5,315.44,5,249.99S30.48,123.03,76.76,76.75
				S184.56,4.99,250,4.99s126.97,25.48,173.24,71.76S495,184.55,495,249.99s-25.48,126.97-71.76,173.24S315.44,494.99,250,494.99z"
				/>
			<g>
				<path class="st65" d="M250,9.99c32.4,0,63.83,6.34,93.42,18.86c28.58,12.09,54.25,29.39,76.29,51.44s39.35,47.71,51.44,76.29
					c12.51,29.58,18.86,61.01,18.86,93.42s-6.34,63.83-18.86,93.42c-12.09,28.58-29.39,54.25-51.44,76.29s-47.71,39.35-76.29,51.44
					c-29.58,12.51-61.01,18.86-93.42,18.86s-63.83-6.34-93.42-18.86c-28.58-12.09-54.25-29.39-76.29-51.44
					c-22.04-22.04-39.35-47.71-51.44-76.29C16.34,313.83,10,282.4,10,249.99s6.34-63.83,18.86-93.42
					C40.94,128,58.25,102.33,80.29,80.29c22.04-22.04,47.71-39.35,76.29-51.44C186.17,16.34,217.6,9.99,250,9.99 M250-0.01
					c-138.07,0-250,111.93-250,250c0,138.07,111.93,250,250,250c138.07,0,250-111.93,250-250C500,111.92,388.07-0.01,250-0.01
					L250-0.01z"/>
			</g>
		</g>
		<g>
			<g>
				<path class="st42" d="M241.57,479.1c-34.52-1.27-68.47-10.35-98.85-26.45l79.4-137.51c1.59-2.75,0.65-6.26-2.1-7.86l-4.62-2.68
					c-0.88-0.51-1.88-0.78-2.89-0.78c-0.5,0-1,0.06-1.49,0.2c-1.48,0.39-2.73,1.36-3.5,2.68l-79.39,137.51
					c-29.18-18.34-54.03-43.2-72.37-72.37l137.51-79.38c1.32-0.76,2.29-2.02,2.68-3.5c0.39-1.48,0.19-3.05-0.58-4.37l-2.68-4.62
					c-1.07-1.84-3-2.87-4.98-2.87c-0.98,0-1.97,0.25-2.87,0.77l-137.51,79.4c-16.1-30.38-25.18-64.33-26.45-98.87h158.75
					c3.18,0,5.75-2.58,5.75-5.75v-5.34c0-3.18-2.58-5.75-5.75-5.75H20.89c1.27-34.52,10.35-68.47,26.45-98.85l137.51,79.4
					c0.88,0.51,1.88,0.77,2.88,0.77c0.5,0,1-0.07,1.49-0.2c1.47-0.39,2.73-1.36,3.49-2.68l2.68-4.64c0.76-1.32,0.97-2.89,0.58-4.37
					c-0.4-1.47-1.36-2.73-2.68-3.49l-137.5-79.38c18.34-29.17,43.19-54.02,72.36-72.36l79.38,137.5c0.76,1.32,2.02,2.29,3.5,2.68
					c0.49,0.13,0.99,0.2,1.48,0.2c1,0,2-0.26,2.89-0.78l4.62-2.68c2.75-1.59,3.69-5.11,2.1-7.86l-79.39-137.5
					c30.37-16.09,64.31-25.17,98.86-26.44v158.73c0,3.18,2.58,5.75,5.75,5.75h5.34c3.18,0,5.75-2.58,5.75-5.75V20.89
					c34.51,1.26,68.45,10.34,98.84,26.44l-79.39,137.5c-0.76,1.32-0.97,2.89-0.58,4.37c0.4,1.47,1.36,2.73,2.68,3.49l4.64,2.68
					c0.91,0.52,1.9,0.77,2.87,0.77c1.99,0,3.92-1.03,4.99-2.88l79.38-137.48c29.17,18.34,54.01,43.18,72.35,72.35L306.73,207.5
					c-2.75,1.59-3.69,5.1-2.11,7.85l2.66,4.64c0.76,1.33,2.02,2.29,3.49,2.69c0.49,0.13,1,0.2,1.5,0.2c1,0,1.99-0.26,2.88-0.77
					l137.52-79.39c16.09,30.39,25.17,64.33,26.44,98.84H320.38c-3.18,0-5.75,2.58-5.75,5.75v5.34c0,3.18,2.58,5.75,5.75,5.75h158.73
					c-1.26,34.54-10.34,68.49-26.44,98.86l-137.52-79.39c-0.88-0.51-1.88-0.77-2.88-0.77c-0.5,0-1,0.07-1.49,0.2
					c-1.48,0.4-2.73,1.36-3.5,2.69l-2.66,4.62c-1.58,2.75-0.64,6.27,2.11,7.86l137.5,79.38c-18.34,29.17-43.19,54.02-72.36,72.36
					l-79.38-137.5c-1.07-1.85-3-2.88-4.99-2.88c-0.98,0-1.96,0.25-2.87,0.77l-4.64,2.68c-1.32,0.76-2.29,2.02-2.68,3.5
					c-0.4,1.47-0.19,3.04,0.58,4.37l79.4,137.51c-30.38,16.1-64.33,25.18-98.85,26.45V320.35c0-3.18-2.58-5.75-5.75-5.75h-5.36
					c-3.18,0-5.75,2.58-5.75,5.75V479.1z"/>
			</g>
			<path class="st65" d="M235.83,26.94v152.68c0,6.36,5.15,11.51,11.51,11.51h5.34c6.36,0,11.51-5.15,11.51-11.51V26.94
				c29.59,1.88,58.61,9.64,85.08,22.75L272.9,181.95c-3.18,5.5-1.29,12.54,4.21,15.72l4.64,2.68c1.77,1.02,3.75,1.54,5.76,1.54
				c1,0,2-0.13,2.98-0.39c2.95-0.79,5.46-2.72,6.99-5.36L373.82,63.9c24.61,16.42,45.85,37.66,62.27,62.27l-132.24,76.35
				c-5.49,3.17-7.39,10.19-4.23,15.69l2.66,4.64c1.52,2.65,4.04,4.59,6.99,5.39c0.98,0.27,1.99,0.4,2.99,0.4
				c2,0,3.99-0.52,5.75-1.54l132.28-76.36c13.11,26.47,20.87,55.49,22.75,85.08H320.38c-6.36,0-11.51,5.15-11.51,11.51v5.34
				c0,6.36,5.15,11.51,11.51,11.51h152.68c-1.88,29.62-9.64,58.65-22.75,85.1L318.03,272.9c-1.77-1.02-3.75-1.54-5.75-1.54
				c-1,0-2,0.13-2.99,0.39c-2.95,0.79-5.46,2.73-6.99,5.37l-2.66,4.62c-3.17,5.5-1.28,12.53,4.22,15.71l132.25,76.36
				c-16.42,24.62-37.67,45.87-62.28,62.28l-76.35-132.26c-1.53-2.64-4.04-4.57-6.99-5.36c-0.98-0.26-1.98-0.39-2.98-0.39
				c-2,0-3.99,0.52-5.76,1.54l-4.64,2.68c-2.64,1.53-4.57,4.04-5.36,6.99c-0.79,2.95-0.38,6.09,1.15,8.73l76.37,132.27
				c-26.46,13.12-55.49,20.88-85.09,22.76v-152.7c0-6.36-5.15-11.51-11.51-11.51h-5.36c-6.36,0-11.51,5.15-11.51,11.51v152.7
				c-29.6-1.88-58.63-9.64-85.09-22.76l76.37-132.27c3.17-5.5,1.3-12.53-4.2-15.71l-4.62-2.68c-1.77-1.02-3.76-1.55-5.77-1.55
				c-0.99,0-1.99,0.13-2.97,0.39c-2.95,0.79-5.47,2.72-7,5.37L126.19,436.1c-24.63-16.42-45.87-37.67-62.29-62.29l132.27-76.36
				c2.65-1.53,4.58-4.05,5.37-7s0.37-6.1-1.16-8.74l-2.68-4.62c-2.13-3.68-6-5.74-9.97-5.74c-1.95,0-3.93,0.5-5.74,1.54L49.7,349.27
				c-13.12-26.46-20.88-55.5-22.76-85.11h152.7c6.36,0,11.51-5.15,11.51-11.51v-5.34c0-6.36-5.15-11.51-11.51-11.51H26.94
				c1.88-29.6,9.64-58.63,22.76-85.09l132.27,76.37c1.77,1.02,3.75,1.54,5.76,1.54c1,0,2-0.13,2.98-0.39
				c2.95-0.79,5.46-2.72,6.99-5.36l2.68-4.64c1.53-2.64,1.94-5.79,1.15-8.73s-2.72-5.46-5.36-6.99L63.9,126.17
				c16.42-24.62,37.66-45.87,62.28-62.28l76.36,132.25c1.53,2.65,4.05,4.58,7,5.36c0.98,0.26,1.98,0.39,2.97,0.39
				c2.01,0,4-0.53,5.77-1.55l4.62-2.68c5.49-3.18,7.37-10.21,4.2-15.71L150.73,49.69C177.18,36.58,206.22,28.81,235.83,26.94
				 M62.76,367.82L62.76,367.82L62.76,367.82 M252.68,14.99v164.62h-5.34V14.99c-40.85,0.46-79.21,11.32-112.54,30.1l2,3.47
				l80.33,139.14l-4.62,2.68L132.18,51.24l-2-3.47C96.3,67.89,67.91,96.27,47.8,130.16l3.45,2l139.16,80.33l-2.68,4.64L48.57,136.77
				l-3.45-2C26.34,168.1,15.45,206.47,15,247.32h164.64v5.34H15c0.45,40.87,11.34,79.23,30.12,112.56l3.45-2l139.16-80.35l2.68,4.62
				L51.25,367.82v0.02l-3.47,1.98c20.11,33.88,48.52,62.29,82.4,82.4l1.98-3.47h0.02l80.33-139.16l4.62,2.68l-80.35,139.16l-2,3.45
				c33.32,18.78,71.69,29.67,112.54,30.12V320.35h5.36v164.64c40.85-0.46,79.21-11.34,112.54-30.12l-2-3.45l-80.35-139.16l4.64-2.68
				l80.33,139.16l2,3.45c33.88-20.11,62.27-48.5,82.38-82.38l-3.47-2l-139.14-80.33l2.66-4.62l139.16,80.33l3.47,2
				c18.78-33.32,29.65-71.69,30.1-112.54H320.38v-5.34H485c-0.46-40.85-11.34-79.2-30.1-112.52l-3.47,2l-139.16,80.33l-2.66-4.64
				l139.14-80.33l3.45-2c-20.11-33.87-48.5-62.25-82.36-82.36l-2,3.45l-80.33,139.14l-4.64-2.68L363.2,48.56l2-3.47
				C331.87,26.34,293.53,15.45,252.68,14.99L252.68,14.99z M485,252.65L485,252.65L485,252.65z"/>
		</g>
		<g>
			<ellipse class="st116" cx="250" cy="249.99" rx="88.21" ry="87.49"/>
		</g>
		<g>
			<g>
				<path class="st42" d="M253.82,274.75c0-1.59-1.29-2.88-2.88-2.88h-1.88c-1.59,0-2.88,1.29-2.88,2.88v54.97
					c-11.42-0.55-22.63-3.55-32.75-8.76l27.5-47.62c0.79-1.37,0.32-3.13-1.05-3.93l-1.63-0.94c-0.44-0.26-0.94-0.39-1.44-0.39
					c-0.25,0-0.5,0.03-0.74,0.1c-0.74,0.2-1.37,0.68-1.75,1.34l-27.49,47.62c-9.59-6.18-17.8-14.39-23.98-23.98l47.62-27.49
					c0.66-0.38,1.14-1.01,1.34-1.75c0.2-0.74,0.09-1.52-0.29-2.18l-0.94-1.63c-0.53-0.92-1.5-1.44-2.49-1.44
					c-0.49,0-0.98,0.12-1.44,0.39l-47.62,27.5c-5.22-10.12-8.22-21.33-8.76-32.76h54.97c1.59,0,2.88-1.29,2.88-2.88v-1.88
					c0-1.59-1.29-2.88-2.88-2.88h-54.97c0.55-11.42,3.55-22.63,8.76-32.75l47.62,27.5c0.45,0.26,0.95,0.39,1.44,0.39
					c0.99,0,1.96-0.52,2.49-1.44l0.94-1.63c0.38-0.66,0.49-1.45,0.29-2.18c-0.2-0.74-0.68-1.37-1.34-1.75l-47.61-27.49
					c6.18-9.59,14.38-17.8,23.97-23.97l27.49,47.61c0.38,0.66,1.01,1.14,1.75,1.34c0.24,0.06,0.49,0.1,0.74,0.1
					c0.5,0,1-0.13,1.44-0.39l1.63-0.94c1.37-0.8,1.84-2.55,1.05-3.93l-27.49-47.62c10.11-5.21,21.33-8.21,32.75-8.76v54.96
					c0,1.59,1.29,2.88,2.88,2.88h1.88c1.59,0,2.88-1.29,2.88-2.88v-54.96c11.42,0.55,22.63,3.54,32.75,8.76l-27.49,47.61
					c-0.79,1.38-0.32,3.14,1.05,3.93l1.63,0.94c0.44,0.25,0.94,0.38,1.44,0.38c0.25,0,0.5-0.03,0.74-0.1
					c0.74-0.2,1.37-0.68,1.75-1.34l27.49-47.61c9.58,6.18,17.79,14.38,23.97,23.97l-47.61,27.49c-1.37,0.79-1.85,2.55-1.06,3.92
					l0.94,1.63c0.38,0.66,1.01,1.15,1.75,1.35c0.25,0.07,0.5,0.1,0.75,0.1c0.5,0,1-0.13,1.44-0.38l47.62-27.49
					c5.21,10.12,8.21,21.33,8.76,32.75h-54.97c-1.59,0-2.88,1.29-2.88,2.88v1.88c0,1.59,1.29,2.88,2.88,2.88h54.97
					c-0.54,11.43-3.54,22.64-8.76,32.75l-47.62-27.49c-0.44-0.25-0.94-0.38-1.44-0.38c-0.25,0-0.5,0.03-0.75,0.1
					c-0.74,0.2-1.37,0.68-1.75,1.34l-0.94,1.63c-0.79,1.38-0.32,3.13,1.06,3.93l47.61,27.49c-6.18,9.59-14.39,17.79-23.97,23.97
					l-27.49-47.61c-0.38-0.66-1.01-1.14-1.75-1.34c-0.24-0.07-0.5-0.1-0.74-0.1c-0.5,0-1,0.13-1.44,0.39l-1.63,0.94
					c-1.38,0.79-1.85,2.55-1.05,3.93l27.5,47.62c-10.12,5.22-21.33,8.22-32.75,8.76V274.75z"/>
			</g>
			<path class="st65" d="M243.31,173.34v51.67l-25.84-44.76C225.58,176.47,234.35,174.12,243.31,173.34 M256.7,173.34
				c8.95,0.78,17.72,3.13,25.84,6.91L256.7,225V173.34 M205.88,186.95l25.84,44.75l-44.75-25.83
				C192.11,198.52,198.53,192.1,205.88,186.95 M294.13,186.96c7.34,5.15,13.76,11.57,18.91,18.91l-44.74,25.83L294.13,186.96
				 M180.26,217.46l44.75,25.84h-51.66C174.13,234.34,176.47,225.57,180.26,217.46 M319.74,217.46c3.78,8.12,6.13,16.89,6.91,25.84
				h-51.66L319.74,217.46 M244.19,228.28c1.02,1.62,2.82,2.7,4.88,2.7h1.88c2.05,0,3.85-1.07,4.87-2.69
				c0.02,0.43,0.08,0.85,0.19,1.27c0.4,1.47,1.36,2.73,2.68,3.49l1.63,0.94c0.91,0.52,1.9,0.77,2.87,0.77c0.94,0,1.87-0.23,2.7-0.67
				c-0.89,1.69-0.92,3.78,0.1,5.55l0.94,1.63c0.76,1.33,2.02,2.3,3.49,2.69c0.42,0.11,0.86,0.18,1.29,0.19
				c-1.62,1.02-2.69,2.82-2.69,4.87v1.88c0,2.06,1.08,3.86,2.7,4.88c-0.43,0.02-0.87,0.08-1.29,0.19c-1.48,0.4-2.73,1.36-3.49,2.69
				l-0.94,1.63c-1.02,1.78-0.99,3.87-0.1,5.56c-0.38-0.2-0.78-0.36-1.2-0.47c-0.49-0.13-0.99-0.2-1.49-0.2c-1,0-2,0.26-2.88,0.77
				l-1.63,0.94c-1.32,0.76-2.29,2.02-2.68,3.49c-0.11,0.42-0.18,0.85-0.19,1.27c-1.02-1.62-2.82-2.69-4.87-2.69h-1.88
				c-2.05,0-3.85,1.07-4.87,2.69c-0.07-1.91-1.09-3.73-2.87-4.76l-1.63-0.94c-0.88-0.51-1.88-0.78-2.89-0.78c-0.5,0-1,0.06-1.48,0.2
				c-0.42,0.11-0.83,0.27-1.21,0.47c0.2-0.38,0.36-0.79,0.47-1.21c0.39-1.48,0.19-3.05-0.58-4.37l-0.94-1.63
				c-1.03-1.77-2.86-2.79-4.77-2.87c1.62-1.02,2.7-2.82,2.7-4.88v-1.88c0-2.05-1.07-3.85-2.69-4.87c1.91-0.07,3.74-1.1,4.77-2.87
				l0.94-1.63c0.76-1.32,0.97-2.89,0.58-4.37c-0.11-0.42-0.27-0.82-0.47-1.2c0.38,0.2,0.79,0.36,1.21,0.47
				c0.49,0.13,0.99,0.2,1.48,0.2c1,0,2-0.26,2.89-0.78l1.63-0.94C243.09,232.03,244.11,230.19,244.19,228.28 M326.65,256.69
				c-0.78,8.96-3.12,17.73-6.91,25.84l-44.77-25.84H326.65 M225.02,256.69l-44.76,25.85c-3.78-8.12-6.13-16.89-6.91-25.85H225.02
				 M268.29,268.28l44.75,25.84c-5.15,7.34-11.57,13.76-18.92,18.91L268.29,268.28 M231.71,268.28l-25.84,44.75
				c-7.35-5.15-13.77-11.57-18.92-18.92L231.71,268.28 M256.7,274.98l25.84,44.75c-8.12,3.78-16.89,6.13-25.84,6.91V274.98
				 M243.3,274.98v51.66c-8.95-0.78-17.73-3.13-25.84-6.91L243.3,274.98 M185.82,291.45L185.82,291.45L185.82,291.45 M250.94,167.3
				v57.93h-1.88V167.3c-14.37,0.16-27.87,3.98-39.6,10.59l0.7,1.22l28.27,48.96l-1.63,0.94l-28.27-48.96l-0.7-1.22
				c-11.92,7.08-21.91,17.07-28.99,28.99l1.21,0.7l48.97,28.27l-0.94,1.63l-48.97-28.27l-1.21-0.7
				c-6.61,11.73-10.44,25.23-10.6,39.6h57.93v1.88h-57.93c0.16,14.38,3.99,27.88,10.6,39.61l1.21-0.7l48.97-28.27l0.94,1.63
				l-48.97,28.27v0.01l-1.22,0.7c7.08,11.92,17.07,21.92,29,29l0.7-1.22h0.01l28.27-48.97l1.63,0.94l-28.27,48.97l-0.7,1.21
				c11.73,6.61,25.23,10.44,39.6,10.6v-57.93h1.88v57.93c14.37-0.16,27.87-3.99,39.6-10.6l-0.7-1.21l-28.27-48.97l1.63-0.94
				l28.27,48.97l0.7,1.21c11.92-7.08,21.91-17.07,28.99-28.99l-1.22-0.7l-48.96-28.27l0.94-1.63l48.97,28.27l1.22,0.7
				c6.61-11.73,10.43-25.23,10.59-39.6h-57.93v-1.88h57.93c-0.16-14.37-3.99-27.87-10.59-39.59l-1.22,0.7l-48.97,28.27l-0.94-1.63
				l48.96-28.27l1.21-0.7c-7.08-11.92-17.07-21.91-28.98-28.98l-0.7,1.21l-28.27,48.96l-1.63-0.94l28.27-48.96l0.7-1.22
				C278.81,171.29,265.32,167.46,250.94,167.3L250.94,167.3z M332.69,250.93L332.69,250.93L332.69,250.93z"/>
		</g>
		<circle class="st117" cx="250" cy="249.99" r="22.75"/>
	</g>
</g>
<g id="CTMDiagram">
</g>
<g id="CTMtoken">
</g>
<g id="LogoOnText">
</g>
</svg>
