<?xml version="1.0" encoding="utf-8"?>
<!-- Generator: Adobe Adobe Illustrator 24.2.0, SVG Export Plug-In . SVG Version: 6.00 Build 0)  -->
<svg version="1.1" xmlns="http://www.w3.org/2000/svg" xmlns:xlink="http://www.w3.org/1999/xlink" x="0px" y="0px"
	 viewBox="0 0 500 500" style="enable-background:new 0 0 500 500;" xml:space="preserve">
<style type="text/css">
	.st0{fill:#706767;stroke:#000000;stroke-width:0.333;stroke-miterlimit:10;}
	.st1{fill:#706767;stroke:#000000;stroke-width:0.7548;stroke-miterlimit:10;}
	.st2{fill:#2C0078;}
	.st3{fill:url(#SVGID_1_);stroke:#000000;stroke-width:0.4554;stroke-miterlimit:10;}
	.st4{display:none;}
	.st5{display:inline;fill:none;stroke:#000000;stroke-width:0.4633;stroke-miterlimit:10;}
	.st6{display:inline;fill:none;stroke:#000000;stroke-width:0.177;stroke-miterlimit:10;}
	.st7{fill:#3D3C3C;stroke:#471343;stroke-width:2.0135;stroke-miterlimit:10;}
	.st8{fill:url(#SVGID_2_);stroke:#000000;stroke-width:0.4633;stroke-miterlimit:10;}
	.st9{fill:#3D3C3C;}
	.st10{fill:url(#SVGID_3_);stroke:#000000;stroke-width:0.163;stroke-miterlimit:10;}
	.st11{fill:#706767;stroke:#471343;stroke-width:0.4302;stroke-miterlimit:10;}
	.st12{fill:url(#SVGID_4_);}
	.st13{fill:#8838B0;}
	.st14{display:inline;}
	.st15{fill:#EFC75E;}
	.st16{fill:#CC9933;}
	.st17{fill:#EFC75E;stroke:#916D23;stroke-width:1.1346;stroke-miterlimit:10;}
	.st18{fill:#CC9933;stroke:#916D23;stroke-width:1.0819;stroke-miterlimit:10;}
	.st19{fill:#EFC75E;stroke:#916D23;stroke-width:1.0049;stroke-miterlimit:10;}
	.st20{fill:#CC9933;stroke:#916D23;stroke-width:1.1346;stroke-miterlimit:10;}
	.st21{display:none;fill:#3D3C3C;stroke:#471343;stroke-width:4.9765;stroke-miterlimit:10;}
	.st22{display:none;fill:#CC9933;}
	.st23{opacity:0.3098;fill:#CC9933;}
	.st24{opacity:0.3098;fill:#EFC75E;}
	.st25{clip-path:url(#SVGID_6_);}
	.st26{clip-path:url(#SVGID_8_);}
	.st27{fill:#CC9933;stroke:#CC9933;stroke-width:4.183;stroke-linecap:round;stroke-miterlimit:10;}
	.st28{fill:none;stroke:#EFC75E;stroke-width:7.1111;stroke-linecap:round;stroke-miterlimit:10;}
	.st29{fill:none;stroke:#EFC75E;stroke-width:22.535;stroke-linecap:round;stroke-miterlimit:10;}
	.st30{display:inline;fill:none;stroke:#000000;stroke-width:0.333;stroke-linecap:round;stroke-miterlimit:10;}
	.st31{fill:#FFFFFF;stroke:#FFFFFF;stroke-width:2.0135;stroke-miterlimit:10;}
	.st32{fill:#FFFFFF;stroke:#FFFFFF;stroke-miterlimit:10;}
	.st33{fill:#2C0078;stroke:#FFFFFF;stroke-miterlimit:10;}
	.st34{fill:#FFFFFF;stroke:#FFFFFF;stroke-width:0.4302;stroke-miterlimit:10;}
	.st35{fill:#FFFFFF;stroke:#4E4D4F;stroke-width:2.0135;stroke-miterlimit:10;}
	.st36{fill:#5B00F7;stroke:#4E4D4F;stroke-miterlimit:10;}
	.st37{fill:#FFFFFF;stroke:#4E4D4F;stroke-miterlimit:10;}
	.st38{fill:#2C0078;stroke:#4E4D4F;stroke-miterlimit:10;}
	.st39{fill:#FFFFFF;stroke:#4E4D4F;stroke-width:0.4302;stroke-miterlimit:10;}
	.st40{fill:url(#SVGID_9_);}
	.st41{fill:url(#SVGID_10_);}
	.st42{fill:#5B00F7;}
	.st43{display:none;fill:#2C0078;}
	.st44{fill:url(#SVGID_11_);}
	.st45{fill:#EFC75E;stroke:#916D23;stroke-width:2.7068;stroke-miterlimit:10;}
	.st46{fill:#CC9933;stroke:#916D23;stroke-width:2.5811;stroke-miterlimit:10;}
	.st47{fill:#EFC75E;stroke:#916D23;stroke-width:2.3974;stroke-miterlimit:10;}
	.st48{fill:#CC9933;stroke:#916D23;stroke-width:2.7068;stroke-miterlimit:10;}
	.st49{clip-path:url(#SVGID_13_);}
	.st50{clip-path:url(#SVGID_15_);}
	.st51{fill:none;stroke:#EFC75E;stroke-width:16.9656;stroke-linecap:round;stroke-miterlimit:10;}
	.st52{fill:#3D3C3C;stroke:#471343;stroke-width:2.1323;stroke-miterlimit:10;}
	.st53{fill:url(#SVGID_16_);}
	.st54{fill:url(#SVGID_17_);}
	.st55{fill:#706767;stroke:#000000;stroke-width:0.8357;stroke-miterlimit:10;}
	.st56{fill:#EFC75E;stroke:#916D23;stroke-width:3.5954;stroke-miterlimit:10;}
	.st57{fill:#CC9933;stroke:#916D23;stroke-width:3.4285;stroke-miterlimit:10;}
	.st58{fill:#EFC75E;stroke:#916D23;stroke-width:3.1845;stroke-miterlimit:10;}
	.st59{fill:#CC9933;stroke:#916D23;stroke-width:3.5954;stroke-miterlimit:10;}
	.st60{clip-path:url(#SVGID_19_);}
	.st61{clip-path:url(#SVGID_21_);}
	.st62{fill:#3D3C3C;stroke:#471343;stroke-width:4.5562;stroke-miterlimit:10;}
	.st63{fill:url(#SVGID_22_);}
	.st64{fill:#706767;stroke:#471343;stroke-width:0.9734;stroke-miterlimit:10;}
	.st65{fill:#3D3C3C;stroke:#471343;stroke-width:3.6743;stroke-miterlimit:10;}
	.st66{fill:url(#SVGID_23_);}
	.st67{fill:#706767;stroke:#471343;stroke-width:0.785;stroke-miterlimit:10;}
	.st68{fill:#471343;}
	.st69{fill:url(#SVGID_24_);}
	.st70{fill:#706767;stroke:#471343;stroke-width:0.7529;stroke-miterlimit:10;}
	.st71{fill:url(#SVGID_25_);}
	.st72{fill:#3D3C3C;stroke:#471343;stroke-width:8.4594;stroke-miterlimit:10;}
	.st73{fill:url(#SVGID_26_);}
	.st74{fill:#706767;stroke:#471343;stroke-width:1.8072;stroke-miterlimit:10;}
	.st75{fill:#3D3C3C;stroke:#471343;stroke-width:5.4379;stroke-miterlimit:10;}
	.st76{fill:url(#SVGID_27_);}
	.st77{fill:#3D3C3C;stroke:#471343;stroke-width:15.7679;stroke-miterlimit:10;}
	.st78{fill:url(#SVGID_28_);}
	.st79{fill:#706767;stroke:#471343;stroke-width:3.3686;stroke-miterlimit:10;}
	.st80{fill:url(#SVGID_29_);}
	.st81{fill:url(#SVGID_30_);}
	.st82{fill:url(#SVGID_31_);}
	.st83{fill:#706767;stroke:#471343;stroke-width:1.1617;stroke-miterlimit:10;}
	.st84{fill:url(#SVGID_32_);}
	.st85{fill:url(#SVGID_33_);}
	.st86{fill:url(#SVGID_34_);}
	.st87{fill:#3D3C3C;stroke:#471343;stroke-width:1.2672;stroke-miterlimit:10;}
	.st88{fill:url(#SVGID_35_);}
	.st89{fill:#3D3C3C;stroke:#471343;stroke-width:8.4302;stroke-miterlimit:10;}
	.st90{fill:url(#SVGID_36_);}
	.st91{fill:#3D3C3C;stroke:#471343;stroke-width:2.9073;stroke-miterlimit:10;}
	.st92{fill:url(#SVGID_37_);}
	.st93{fill:#706767;stroke:#471343;stroke-width:1.801;stroke-miterlimit:10;}
	.st94{fill:url(#SVGID_38_);}
	.st95{fill:url(#SVGID_39_);}
	.st96{fill:#3D3C3C;stroke:#471343;stroke-width:8.6171;stroke-miterlimit:10;}
	.st97{fill:url(#SVGID_40_);}
	.st98{fill:#3D3C3C;stroke:#471343;stroke-width:2.9718;stroke-miterlimit:10;}
	.st99{fill:url(#SVGID_41_);}
	.st100{fill:url(#SVGID_42_);}
	.st101{fill:url(#SVGID_43_);}
	.st102{fill:#706767;stroke:#471543;stroke-width:4;stroke-miterlimit:10;}
	.st103{fill:#3D3C3C;stroke:#471343;stroke-width:4.5349;stroke-miterlimit:10;}
	.st104{fill:url(#SVGID_44_);}
	.st105{fill:#706767;stroke:#471343;stroke-width:0.9688;stroke-miterlimit:10;}
	.st106{fill:#706767;stroke:#471543;stroke-width:9.009;stroke-miterlimit:10;}
	.st107{fill:#706767;stroke:#471543;stroke-width:5.7674;stroke-miterlimit:10;}
	.st108{fill:#242424;}
	.st109{fill:url(#SVGID_45_);}
	.st110{fill:url(#SVGID_46_);}
	.st111{fill:url(#SVGID_47_);}
	.st112{display:none;fill:#706767;stroke:#471543;stroke-width:2.2223;stroke-miterlimit:10;}
	.st113{fill:#706767;stroke:#471543;stroke-width:3;stroke-miterlimit:10;}
	.st114{fill:#A3A3A3;}
	.st115{fill:url(#SVGID_48_);}
	.st116{fill:none;stroke:#706867;stroke-width:30;stroke-linecap:round;stroke-linejoin:round;stroke-miterlimit:10;}
	.st117{fill:none;stroke:#706767;stroke-width:30;stroke-linecap:round;stroke-miterlimit:10;stroke-dasharray:0,6,0,6,0,6;}
	.st118{fill:#706767;stroke:#471343;stroke-width:6;stroke-miterlimit:10;}
	.st119{display:none;fill:#2C0078;stroke:#000000;stroke-width:2.0203;stroke-miterlimit:10;}
	.st120{fill:#5E5C5C;}
	.st121{fill:#3D3C3C;stroke:#471343;stroke-width:7.392;stroke-miterlimit:10;}
	.st122{fill:url(#SVGID_49_);}
	.st123{fill:#3D3C3C;stroke:#471343;stroke-width:2.5493;stroke-miterlimit:10;}
	.st124{fill:url(#SVGID_50_);}
	.st125{fill:#706767;stroke:#471343;stroke-width:1.5792;stroke-miterlimit:10;}
	.st126{fill:url(#SVGID_51_);}
	.st127{fill:#3D3C3C;stroke:#471343;stroke-width:2.8089;stroke-miterlimit:10;}
	.st128{fill:url(#SVGID_52_);}
	.st129{fill:#706767;stroke:#471343;stroke-width:0.6001;stroke-miterlimit:10;}
	.st130{fill:url(#SVGID_53_);stroke:#736337;stroke-width:1.5717;stroke-miterlimit:10;}
	.st131{fill:#736337;stroke:#40381D;stroke-width:1.3853;stroke-miterlimit:10;}
	.st132{fill:url(#SVGID_54_);}
	.st133{fill:#736337;stroke:#40371F;stroke-width:1.3853;stroke-miterlimit:10;}
	.st134{fill:#63542C;}
	.st135{fill:#736337;}
	.st136{fill:url(#SVGID_55_);}
	.st137{fill:#9C874E;}
	.st138{fill:none;stroke:#706867;stroke-width:12.747;stroke-linecap:round;stroke-linejoin:round;stroke-miterlimit:10;}
	.st139{fill:#706767;}
	.st140{fill:none;stroke:#706867;stroke-width:8.2304;stroke-linecap:round;stroke-linejoin:round;stroke-miterlimit:10;}
	.st141{fill:#2C0078;stroke:#000000;stroke-width:0.8056;stroke-miterlimit:10;}
	.st142{display:none;fill:#4E2249;}
	.st143{fill:#5C4D2E;stroke:#471343;stroke-width:2.0135;stroke-miterlimit:10;}
	.st144{fill:url(#SVGID_56_);}
	.st145{fill:#5C4D2E;}
	.st146{fill:#5C4D2E;stroke:#471343;stroke-width:0.4302;stroke-miterlimit:10;}
	.st147{display:none;opacity:0.3098;fill:#EFC75E;}
	.st148{display:none;fill:url(#SVGID_57_);}
	.st149{fill:url(#SVGID_58_);stroke:#4D4A4A;stroke-width:1.1346;stroke-miterlimit:10;}
	.st150{fill:#4D4A4A;}
	.st151{fill:url(#SVGID_59_);}
	.st152{fill:url(#SVGID_60_);}
	.st153{fill:#4900C8;}
	.st154{display:inline;fill:url(#SVGID_61_);stroke:#EFC75E;stroke-width:7.1111;stroke-linecap:round;stroke-miterlimit:10;}
	.st155{display:inline;fill:url(#SVGID_62_);stroke:#EFC75E;stroke-width:7.1111;stroke-linecap:round;stroke-miterlimit:10;}
	.st156{display:inline;fill:url(#SVGID_63_);stroke:#EFC75E;stroke-width:7.1111;stroke-linecap:round;stroke-miterlimit:10;}
	.st157{display:inline;fill:url(#SVGID_64_);stroke:#EFC75E;stroke-width:7.1111;stroke-linecap:round;stroke-miterlimit:10;}
	.st158{display:inline;fill:#9C874E;}
	.st159{fill:url(#SVGID_65_);stroke:#736337;stroke-width:1.8958;stroke-miterlimit:10;}
	.st160{fill:#736337;stroke:#40381D;stroke-width:1.671;stroke-miterlimit:10;}
	.st161{fill:url(#SVGID_66_);}
	.st162{fill:#736337;stroke:#40371F;stroke-width:1.671;stroke-miterlimit:10;}
	.st163{fill:url(#SVGID_67_);}
	.st164{fill:url(#SVGID_68_);stroke:#5B00F7;stroke-width:1.7989;stroke-miterlimit:10;}
	.st165{fill:none;stroke:#5B00F7;stroke-width:1.5856;stroke-miterlimit:10;}
	.st166{fill:#2A0073;stroke:#5B00F7;stroke-width:1.5856;stroke-miterlimit:10;}
	.st167{fill:#4D00D2;}
	.st168{fill:#3D3C3C;stroke:#471343;stroke-width:1.7247;stroke-miterlimit:10;}
	.st169{fill:url(#SVGID_69_);}
	.st170{fill:#3D3C3C;stroke:#3D3C3C;stroke-width:2;stroke-miterlimit:10;}
	.st171{fill:#706767;stroke:#471543;stroke-width:1.931;stroke-miterlimit:10;}
	.st172{opacity:0.8314;fill:#3B3149;stroke:#471543;stroke-width:2.0833;stroke-miterlimit:10;}
	.st173{fill:#706767;stroke:#471343;stroke-width:0.3685;stroke-miterlimit:10;}
	.st174{fill:#706767;stroke:#471543;stroke-width:7.0949;stroke-miterlimit:10;}
	.st175{fill:#3D3C3C;stroke:#471343;stroke-width:3.6008;stroke-miterlimit:10;}
	.st176{fill:url(#SVGID_70_);}
	.st177{fill:#3D3C3C;stroke:#3D3C3C;stroke-width:4.1756;stroke-miterlimit:10;}
	.st178{fill:#706767;stroke:#471543;stroke-width:4.0317;stroke-miterlimit:10;}
	.st179{opacity:0.8314;fill:#3B3149;stroke:#471543;stroke-width:4.1382;stroke-miterlimit:10;}
	.st180{fill:#706767;stroke:#471343;stroke-width:0.7693;stroke-miterlimit:10;}
	.st181{fill:#3D3C3C;stroke:#471343;stroke-width:1.7656;stroke-miterlimit:10;}
	.st182{fill:url(#SVGID_71_);}
	.st183{fill:#706767;stroke:#471343;stroke-width:0.7957;stroke-miterlimit:10;}
	.st184{fill:#706767;stroke:#471543;stroke-width:7.2397;stroke-miterlimit:10;}
	.st185{fill:url(#SVGID_72_);}
	.st186{fill:#3D3C3C;stroke:#3D3C3C;stroke-width:4.2609;stroke-miterlimit:10;}
	.st187{fill:#706767;stroke:#471543;stroke-width:4.1139;stroke-miterlimit:10;}
	.st188{opacity:0.8314;fill:#3B3149;stroke:#471543;stroke-width:4.2227;stroke-miterlimit:10;}
	.st189{fill:#3D3C3C;stroke:#471343;stroke-width:1.8017;stroke-miterlimit:10;}
	.st190{fill:url(#SVGID_73_);}
	.st191{fill:#706767;stroke:#471343;stroke-width:0.812;stroke-miterlimit:10;}
	.st192{fill:#3D3C3C;stroke:#471343;stroke-width:4.0788;stroke-miterlimit:10;}
	.st193{fill:url(#SVGID_74_);}
	.st194{fill:#3D3C3C;stroke:#3D3C3C;stroke-width:4.7299;stroke-miterlimit:10;}
	.st195{fill:#706767;stroke:#471543;stroke-width:4.5668;stroke-miterlimit:10;}
	.st196{opacity:0.8314;fill:#3B3149;stroke:#471543;stroke-width:4.6875;stroke-miterlimit:10;}
	.st197{fill:#706767;stroke:#471343;stroke-width:0.8714;stroke-miterlimit:10;}
	.st198{fill:#3D3C3C;stroke:#471343;stroke-width:2;stroke-miterlimit:10;}
	.st199{fill:url(#SVGID_75_);}
	.st200{fill:#706767;stroke:#471343;stroke-width:0.9013;stroke-miterlimit:10;}
	.st201{opacity:0.8314;fill:#3B3149;stroke:#471543;stroke-width:4.927;stroke-miterlimit:10;}
	.st202{fill:url(#SVGID_76_);}
	.st203{fill:url(#SVGID_77_);}
	.st204{fill:none;stroke:#3D3C3C;stroke-width:2;stroke-miterlimit:10;}
	.st205{fill:none;stroke:#3D3C3C;stroke-width:1.3702;stroke-miterlimit:10;}
</style>
<g id="Background">
</g>
<g id="Logo">
</g>
<g id="LogoGreen">
</g>
<g id="Layer_2" class="st4">
</g>
<g id="Coin">
</g>
<g id="LogoSymb">
</g>
<g id="Mors">
</g>
<g id="Clock">
</g>
<g id="Text">
</g>
<g id="LineGrid" class="st4">
</g>
<g id="Light">
</g>
<g id="LogoSimpleTest">
</g>
<g id="TheLogo">
	<rect x="-1824.95" y="-2436.47" class="st43" width="4154.38" height="4154.38"/>
	<g id="BoldConture">
		<g>
			<path class="st9" d="M250,495c-65.44,0-126.97-25.48-173.24-71.76C30.48,376.97,5,315.44,5,250S30.48,123.03,76.76,76.76
				C123.03,30.48,184.56,5,250,5c65.44,0,126.97,25.48,173.24,71.76S495,184.56,495,250c0,65.44-25.48,126.97-71.76,173.24
				C376.97,469.52,315.44,495,250,495z"/>
			<path class="st68" d="M250,10c32.4,0,63.83,6.34,93.42,18.86c28.58,12.09,54.25,29.39,76.29,51.44s39.35,47.71,51.44,76.29
				C483.66,186.17,490,217.6,490,250s-6.34,63.83-18.86,93.42c-12.09,28.58-29.39,54.25-51.44,76.29s-47.71,39.35-76.29,51.44
				C313.83,483.66,282.4,490,250,490s-63.83-6.34-93.42-18.86c-28.58-12.09-54.25-29.39-76.29-51.44s-39.35-47.71-51.44-76.29
				C16.34,313.83,10,282.4,10,250s6.34-63.83,18.86-93.42c12.09-28.58,29.39-54.25,51.44-76.29s47.71-39.35,76.29-51.44
				C186.17,16.34,217.6,10,250,10 M250,0C111.93,0,0,111.93,0,250s111.93,250,250,250s250-111.93,250-250S388.07,0,250,0L250,0z"/>
		</g>
		
			<radialGradient id="SVGID_1_" cx="249.9043" cy="250" r="245.0182" gradientTransform="matrix(0.9591 0 0 0.9591 10.3137 10.222)" gradientUnits="userSpaceOnUse">
			<stop  offset="0" style="stop-color:#5B00F7"/>
			<stop  offset="0.3419" style="stop-color:#5A00F5"/>
			<stop  offset="0.5095" style="stop-color:#5700ED"/>
			<stop  offset="0.6393" style="stop-color:#5300E0"/>
			<stop  offset="0.7495" style="stop-color:#4C00CD"/>
			<stop  offset="0.8475" style="stop-color:#4300B5"/>
			<stop  offset="0.9353" style="stop-color:#380098"/>
			<stop  offset="1" style="stop-color:#2E007D"/>
		</radialGradient>
		<path style="fill:url(#SVGID_1_);" d="M320.38,252.66v-5.34H485c-0.46-40.85-11.34-79.2-30.1-112.52l-3.47,2l-139.16,80.33
			l-2.66-4.64l139.14-80.33l3.45-2c-20.11-33.87-48.5-62.25-82.36-82.36l-2,3.45l-80.33,139.14l-4.64-2.68L363.2,48.57l2-3.47
			C331.87,26.34,293.53,15.46,252.68,15v164.62h-5.34V15c-40.85,0.46-79.21,11.32-112.54,30.1l2,3.47l80.33,139.14l-4.62,2.68
			L132.18,51.25l-2-3.47C96.3,67.89,67.91,96.28,47.8,130.16l3.45,2l139.16,80.33l-2.68,4.64L48.57,136.78l-3.45-2
			C26.34,168.11,15.45,206.47,15,247.32h164.64v5.34H15c0.45,40.87,11.34,79.23,30.12,112.56l3.45-2l139.16-80.35l2.68,4.62
			L51.25,367.82v0.02l-3.47,1.98c20.11,33.88,48.52,62.29,82.4,82.4l1.98-3.47h0.02l80.33-139.16l4.62,2.68l-80.35,139.16l-2,3.45
			c33.32,18.78,71.69,29.67,112.54,30.12V320.36h5.36V485c40.85-0.46,79.21-11.34,112.54-30.12l-2-3.45l-80.35-139.16l4.64-2.68
			l80.33,139.16l2,3.45c33.88-20.11,62.27-48.5,82.38-82.38l-3.47-2l-139.14-80.33l2.66-4.62l139.16,80.33l3.47,2
			c18.78-33.32,29.65-71.69,30.1-112.54H320.38z"/>
		<ellipse class="st9" cx="250" cy="250" rx="88.21" ry="87.49"/>
		<path class="st42" d="M274.76,250.94v-1.88h57.93c-0.16-14.37-3.99-27.87-10.59-39.59l-1.22,0.7l-48.97,28.27l-0.94-1.63
			l48.96-28.27l1.21-0.7c-7.08-11.92-17.07-21.91-28.98-28.98l-0.7,1.21l-28.27,48.96l-1.63-0.94l28.27-48.96l0.7-1.22
			c-11.73-6.6-25.22-10.43-39.59-10.59v57.93h-1.88v-57.93c-14.37,0.16-27.87,3.98-39.6,10.59l0.7,1.22l28.27,48.96l-1.63,0.94
			l-28.27-48.96l-0.7-1.22c-11.92,7.08-21.91,17.07-28.99,28.99l1.21,0.7l48.97,28.27l-0.94,1.63l-48.97-28.27l-1.21-0.7
			c-6.61,11.73-10.44,25.23-10.6,39.6h57.93v1.88h-57.93c0.16,14.38,3.99,27.88,10.6,39.61l1.21-0.7l48.97-28.27l0.94,1.63
			l-48.97,28.27v0.01l-1.22,0.7c7.08,11.92,17.07,21.92,29,29l0.7-1.22h0.01l28.27-48.97l1.63,0.94l-28.27,48.97l-0.7,1.21
			c11.73,6.61,25.23,10.44,39.6,10.6v-57.93h1.88v57.93c14.37-0.16,27.87-3.99,39.6-10.6l-0.7-1.21l-28.27-48.97l1.63-0.94
			l28.27,48.97l0.7,1.21c11.92-7.08,21.91-17.07,28.99-28.99l-1.22-0.7l-48.96-28.27l0.94-1.63l48.97,28.27l1.22,0.7
			c6.61-11.73,10.43-25.23,10.59-39.6H274.76z"/>
		<circle class="st70" cx="250" cy="250" r="22.75"/>
	</g>
</g>
<g id="LogoSimple">
</g>
<g id="CTMDiagram">
</g>
<g id="CTMtoken">
</g>
<g id="LogoOnText">
</g>
</svg>
