<?xml version="1.0" encoding="utf-8"?>
<!-- Generator: Adobe Adobe Illustrator 24.2.0, SVG Export Plug-In . SVG Version: 6.00 Build 0)  -->
<svg version="1.1" xmlns="http://www.w3.org/2000/svg" xmlns:xlink="http://www.w3.org/1999/xlink" x="0px" y="0px"
	 viewBox="0 0 500 500" style="enable-background:new 0 0 500 500;" xml:space="preserve">
<style type="text/css">
	.st0{fill:#706767;stroke:#000000;stroke-width:0.333;stroke-miterlimit:10;}
	.st1{fill:#706767;stroke:#000000;stroke-width:0.7548;stroke-miterlimit:10;}
	.st2{fill:#2C0078;}
	.st3{fill:url(#SVGID_1_);stroke:#000000;stroke-width:0.4554;stroke-miterlimit:10;}
	.st4{display:none;}
	.st5{display:inline;fill:none;stroke:#000000;stroke-width:0.4633;stroke-miterlimit:10;}
	.st6{display:inline;fill:none;stroke:#000000;stroke-width:0.177;stroke-miterlimit:10;}
	.st7{fill:#3D3C3C;stroke:#471343;stroke-width:2.0135;stroke-miterlimit:10;}
	.st8{fill:url(#SVGID_2_);stroke:#000000;stroke-width:0.4633;stroke-miterlimit:10;}
	.st9{fill:#3D3C3C;}
	.st10{fill:url(#SVGID_3_);stroke:#000000;stroke-width:0.163;stroke-miterlimit:10;}
	.st11{fill:#706767;stroke:#471343;stroke-width:0.4302;stroke-miterlimit:10;}
	.st12{fill:url(#SVGID_4_);}
	.st13{fill:#8838B0;}
	.st14{display:inline;}
	.st15{fill:#EFC75E;}
	.st16{fill:#CC9933;}
	.st17{fill:#EFC75E;stroke:#916D23;stroke-width:1.1346;stroke-miterlimit:10;}
	.st18{fill:#CC9933;stroke:#916D23;stroke-width:1.0819;stroke-miterlimit:10;}
	.st19{fill:#EFC75E;stroke:#916D23;stroke-width:1.0049;stroke-miterlimit:10;}
	.st20{fill:#CC9933;stroke:#916D23;stroke-width:1.1346;stroke-miterlimit:10;}
	.st21{display:none;fill:#3D3C3C;stroke:#471343;stroke-width:4.9765;stroke-miterlimit:10;}
	.st22{display:none;fill:#CC9933;}
	.st23{opacity:0.3098;fill:#CC9933;}
	.st24{opacity:0.3098;fill:#EFC75E;}
	.st25{clip-path:url(#SVGID_6_);}
	.st26{clip-path:url(#SVGID_8_);}
	.st27{fill:#CC9933;stroke:#CC9933;stroke-width:4.183;stroke-linecap:round;stroke-miterlimit:10;}
	.st28{fill:none;stroke:#EFC75E;stroke-width:7.1111;stroke-linecap:round;stroke-miterlimit:10;}
	.st29{fill:none;stroke:#EFC75E;stroke-width:22.535;stroke-linecap:round;stroke-miterlimit:10;}
	.st30{display:inline;fill:none;stroke:#000000;stroke-width:0.333;stroke-linecap:round;stroke-miterlimit:10;}
	.st31{fill:#FFFFFF;stroke:#FFFFFF;stroke-width:2.0135;stroke-miterlimit:10;}
	.st32{fill:#FFFFFF;stroke:#FFFFFF;stroke-miterlimit:10;}
	.st33{fill:#2C0078;stroke:#FFFFFF;stroke-miterlimit:10;}
	.st34{fill:#FFFFFF;stroke:#FFFFFF;stroke-width:0.4302;stroke-miterlimit:10;}
	.st35{fill:#FFFFFF;stroke:#4E4D4F;stroke-width:2.0135;stroke-miterlimit:10;}
	.st36{fill:#5B00F7;stroke:#4E4D4F;stroke-miterlimit:10;}
	.st37{fill:#FFFFFF;stroke:#4E4D4F;stroke-miterlimit:10;}
	.st38{fill:#2C0078;stroke:#4E4D4F;stroke-miterlimit:10;}
	.st39{fill:#FFFFFF;stroke:#4E4D4F;stroke-width:0.4302;stroke-miterlimit:10;}
	.st40{fill:url(#SVGID_9_);}
	.st41{fill:url(#SVGID_10_);}
	.st42{fill:#5B00F7;}
	.st43{display:none;fill:#2C0078;}
	.st44{fill:url(#SVGID_11_);}
	.st45{fill:#EFC75E;stroke:#916D23;stroke-width:2.7068;stroke-miterlimit:10;}
	.st46{fill:#CC9933;stroke:#916D23;stroke-width:2.5811;stroke-miterlimit:10;}
	.st47{fill:#EFC75E;stroke:#916D23;stroke-width:2.3974;stroke-miterlimit:10;}
	.st48{fill:#CC9933;stroke:#916D23;stroke-width:2.7068;stroke-miterlimit:10;}
	.st49{clip-path:url(#SVGID_13_);}
	.st50{clip-path:url(#SVGID_15_);}
	.st51{fill:none;stroke:#EFC75E;stroke-width:16.9656;stroke-linecap:round;stroke-miterlimit:10;}
	.st52{fill:#3D3C3C;stroke:#471343;stroke-width:2.1323;stroke-miterlimit:10;}
	.st53{fill:url(#SVGID_16_);}
	.st54{fill:url(#SVGID_17_);}
	.st55{fill:#706767;stroke:#000000;stroke-width:0.8357;stroke-miterlimit:10;}
	.st56{fill:#EFC75E;stroke:#916D23;stroke-width:3.5954;stroke-miterlimit:10;}
	.st57{fill:#CC9933;stroke:#916D23;stroke-width:3.4285;stroke-miterlimit:10;}
	.st58{fill:#EFC75E;stroke:#916D23;stroke-width:3.1845;stroke-miterlimit:10;}
	.st59{fill:#CC9933;stroke:#916D23;stroke-width:3.5954;stroke-miterlimit:10;}
	.st60{clip-path:url(#SVGID_19_);}
	.st61{clip-path:url(#SVGID_21_);}
	.st62{fill:#3D3C3C;stroke:#471343;stroke-width:4.5562;stroke-miterlimit:10;}
	.st63{fill:url(#SVGID_22_);}
	.st64{fill:#706767;stroke:#471343;stroke-width:0.9734;stroke-miterlimit:10;}
	.st65{fill:#471343;}
	.st66{fill:url(#SVGID_23_);}
	.st67{fill:#706767;stroke:#471343;stroke-width:0.7529;stroke-miterlimit:10;}
	.st68{fill:url(#SVGID_24_);}
	.st69{fill:url(#SVGID_25_);}
	.st70{fill:#3D3C3C;stroke:#471343;stroke-width:8.4594;stroke-miterlimit:10;}
	.st71{fill:url(#SVGID_26_);}
	.st72{fill:#706767;stroke:#471343;stroke-width:1.8072;stroke-miterlimit:10;}
	.st73{fill:#3D3C3C;stroke:#471343;stroke-width:5.4379;stroke-miterlimit:10;}
	.st74{fill:url(#SVGID_27_);}
	.st75{fill:#3D3C3C;stroke:#471343;stroke-width:15.7679;stroke-miterlimit:10;}
	.st76{fill:url(#SVGID_28_);}
	.st77{fill:#706767;stroke:#471343;stroke-width:3.3686;stroke-miterlimit:10;}
	.st78{fill:url(#SVGID_29_);}
	.st79{fill:url(#SVGID_30_);}
	.st80{fill:url(#SVGID_31_);}
	.st81{fill:#706767;stroke:#471343;stroke-width:1.1617;stroke-miterlimit:10;}
	.st82{fill:url(#SVGID_32_);}
	.st83{fill:url(#SVGID_33_);}
	.st84{fill:url(#SVGID_34_);}
	.st85{fill:#3D3C3C;stroke:#471343;stroke-width:1.2154;stroke-miterlimit:10;}
	.st86{fill:url(#SVGID_35_);}
	.st87{fill:#3D3C3C;stroke:#471343;stroke-width:8.4302;stroke-miterlimit:10;}
	.st88{fill:url(#SVGID_36_);}
	.st89{fill:#3D3C3C;stroke:#471343;stroke-width:2.9073;stroke-miterlimit:10;}
	.st90{fill:url(#SVGID_37_);}
	.st91{fill:#706767;stroke:#471343;stroke-width:1.801;stroke-miterlimit:10;}
	.st92{fill:url(#SVGID_38_);}
	.st93{fill:url(#SVGID_39_);}
	.st94{fill:#3D3C3C;stroke:#471343;stroke-width:8.6171;stroke-miterlimit:10;}
	.st95{fill:url(#SVGID_40_);}
	.st96{fill:#3D3C3C;stroke:#471343;stroke-width:2.9718;stroke-miterlimit:10;}
	.st97{fill:url(#SVGID_41_);}
	.st98{fill:url(#SVGID_42_);}
	.st99{fill:url(#SVGID_43_);}
	.st100{fill:#706767;stroke:#471543;stroke-width:4;stroke-miterlimit:10;}
	.st101{fill:#3D3C3C;stroke:#471343;stroke-width:4.5349;stroke-miterlimit:10;}
	.st102{fill:url(#SVGID_44_);}
	.st103{fill:#706767;stroke:#471343;stroke-width:0.9688;stroke-miterlimit:10;}
	.st104{fill:#706767;stroke:#471543;stroke-width:9.009;stroke-miterlimit:10;}
	.st105{fill:#706767;stroke:#471543;stroke-width:5.7674;stroke-miterlimit:10;}
	.st106{fill:#242424;}
	.st107{fill:url(#SVGID_45_);}
	.st108{fill:url(#SVGID_46_);}
	.st109{fill:url(#SVGID_47_);}
	.st110{display:none;fill:#706767;stroke:#471543;stroke-width:2.2223;stroke-miterlimit:10;}
	.st111{fill:#706767;stroke:#471543;stroke-width:3;stroke-miterlimit:10;}
	.st112{fill:#A3A3A3;}
	.st113{fill:url(#SVGID_48_);}
	.st114{fill:none;stroke:#706867;stroke-width:30;stroke-linecap:round;stroke-linejoin:round;stroke-miterlimit:10;}
	.st115{fill:none;stroke:#706767;stroke-width:30;stroke-linecap:round;stroke-miterlimit:10;stroke-dasharray:0,6,0,6,0,6;}
	.st116{fill:#706767;}
	.st117{fill:#706767;stroke:#471343;stroke-width:5.7547;stroke-miterlimit:10;}
	.st118{display:none;fill:#2C0078;stroke:#000000;stroke-width:2.0203;stroke-miterlimit:10;}
	.st119{fill:url(#SVGID_49_);stroke:#736337;stroke-width:1.5717;stroke-miterlimit:10;}
	.st120{fill:#736337;stroke:#40381D;stroke-width:1.3853;stroke-miterlimit:10;}
	.st121{fill:url(#SVGID_50_);}
	.st122{fill:#736337;stroke:#40371F;stroke-width:1.3853;stroke-miterlimit:10;}
	.st123{fill:#63542C;}
	.st124{fill:#736337;}
	.st125{fill:url(#SVGID_51_);}
	.st126{fill:#9C874E;}
	.st127{fill:none;stroke:#706867;stroke-width:12.747;stroke-linecap:round;stroke-linejoin:round;stroke-miterlimit:10;}
	.st128{fill:url(#SVGID_52_);}
	.st129{fill:url(#SVGID_53_);}
	.st130{fill:url(#SVGID_54_);}
	.st131{fill:#3D3C3C;stroke:#471343;stroke-width:1.7015;stroke-miterlimit:10;}
	.st132{fill:url(#SVGID_55_);}
	.st133{fill:#706767;stroke:#471343;stroke-width:1.054;stroke-miterlimit:10;}
	.st134{fill:url(#SVGID_56_);}
	.st135{fill:#471543;}
	.st136{fill:#736337;stroke:#3F371F;stroke-width:2;stroke-miterlimit:10;}
	.st137{fill:url(#SVGID_57_);stroke:#5B00F7;stroke-width:1.7215;stroke-miterlimit:10;}
	.st138{fill:#736337;stroke:#412E3C;stroke-width:2;stroke-miterlimit:10;}
	.st139{fill:none;stroke:#5B00F7;stroke-width:1.7215;stroke-miterlimit:10;}
	.st140{fill:#4D00D2;stroke:#736337;stroke-width:3;stroke-miterlimit:10;}
	.st141{fill:url(#SVGID_58_);}
	.st142{fill:#4B383B;}
	.st143{fill:#2C0078;stroke:#000000;stroke-width:0.8056;stroke-miterlimit:10;}
	.st144{display:none;fill:#4E2249;}
	.st145{fill:#5C4D2E;stroke:#471343;stroke-width:2.0135;stroke-miterlimit:10;}
	.st146{fill:url(#SVGID_59_);}
	.st147{fill:#5C4D2E;}
	.st148{fill:#5C4D2E;stroke:#471343;stroke-width:0.4302;stroke-miterlimit:10;}
	.st149{display:none;opacity:0.3098;fill:#EFC75E;}
	.st150{fill:url(#SVGID_60_);}
	.st151{fill:url(#SVGID_61_);stroke:#4D4A4A;stroke-width:1.1346;stroke-miterlimit:10;}
	.st152{fill:#4D4A4A;}
	.st153{fill:url(#SVGID_62_);}
	.st154{fill:url(#SVGID_63_);}
	.st155{fill:#4900C8;}
	.st156{display:inline;fill:url(#SVGID_64_);stroke:#EFC75E;stroke-width:7.1111;stroke-linecap:round;stroke-miterlimit:10;}
	.st157{display:inline;fill:url(#SVGID_65_);stroke:#EFC75E;stroke-width:7.1111;stroke-linecap:round;stroke-miterlimit:10;}
	.st158{display:inline;fill:url(#SVGID_66_);stroke:#EFC75E;stroke-width:7.1111;stroke-linecap:round;stroke-miterlimit:10;}
	.st159{display:inline;fill:url(#SVGID_67_);stroke:#EFC75E;stroke-width:7.1111;stroke-linecap:round;stroke-miterlimit:10;}
	.st160{display:inline;fill:#9C874E;}
	.st161{fill:url(#SVGID_68_);stroke:#736337;stroke-width:1.8958;stroke-miterlimit:10;}
	.st162{fill:#736337;stroke:#40381D;stroke-width:1.671;stroke-miterlimit:10;}
	.st163{fill:url(#SVGID_69_);}
	.st164{fill:#736337;stroke:#40371F;stroke-width:1.671;stroke-miterlimit:10;}
	.st165{fill:url(#SVGID_70_);}
	.st166{fill:url(#SVGID_71_);}
	.st167{fill:url(#SVGID_72_);stroke:#5B00F7;stroke-width:1.7215;stroke-miterlimit:10;}
	.st168{fill:url(#SVGID_73_);}
	.st169{fill:#3D3C3C;stroke:#471343;stroke-width:1.7247;stroke-miterlimit:10;}
	.st170{fill:url(#SVGID_74_);}
	.st171{fill:#3D3C3C;stroke:#3D3C3C;stroke-width:2;stroke-miterlimit:10;}
	.st172{fill:#706767;stroke:#471543;stroke-width:1.931;stroke-miterlimit:10;}
	.st173{opacity:0.8314;fill:#3B3149;stroke:#471543;stroke-width:2.0833;stroke-miterlimit:10;}
	.st174{fill:#706767;stroke:#471343;stroke-width:0.3685;stroke-miterlimit:10;}
	.st175{fill:#706767;stroke:#471543;stroke-width:7.0949;stroke-miterlimit:10;}
	.st176{fill:#3D3C3C;stroke:#471343;stroke-width:3.6008;stroke-miterlimit:10;}
	.st177{fill:url(#SVGID_75_);}
	.st178{fill:#3D3C3C;stroke:#3D3C3C;stroke-width:4.1756;stroke-miterlimit:10;}
	.st179{fill:#706767;stroke:#471543;stroke-width:4.0317;stroke-miterlimit:10;}
	.st180{opacity:0.8314;fill:#3B3149;stroke:#471543;stroke-width:4.1382;stroke-miterlimit:10;}
	.st181{fill:#706767;stroke:#471343;stroke-width:0.7693;stroke-miterlimit:10;}
	.st182{fill:#3D3C3C;stroke:#471343;stroke-width:1.7656;stroke-miterlimit:10;}
	.st183{fill:url(#SVGID_76_);}
	.st184{fill:#706767;stroke:#471343;stroke-width:0.7957;stroke-miterlimit:10;}
	.st185{display:inline;opacity:0.8314;fill:#3B3149;stroke:#471543;stroke-width:4.2227;stroke-miterlimit:10;}
	.st186{display:inline;fill:#5B00F7;}
	.st187{display:inline;fill:#706767;stroke:#471343;stroke-width:0.785;stroke-miterlimit:10;}
	.st188{fill:#706767;stroke:#471543;stroke-width:7.2397;stroke-miterlimit:10;}
	.st189{fill:url(#SVGID_77_);}
	.st190{fill:#3D3C3C;stroke:#3D3C3C;stroke-width:4.191;stroke-miterlimit:10;}
	.st191{fill:#706767;stroke:#471543;stroke-width:4.0465;stroke-miterlimit:10;}
	.st192{fill:#3D3C3C;stroke:#471343;stroke-width:1.7721;stroke-miterlimit:10;}
	.st193{fill:url(#SVGID_78_);}
	.st194{fill:#706767;stroke:#471343;stroke-width:0.7986;stroke-miterlimit:10;}
	.st195{fill:#3D3C3C;stroke:#471343;stroke-width:4.0788;stroke-miterlimit:10;}
	.st196{fill:url(#SVGID_79_);}
	.st197{fill:#3D3C3C;stroke:#3D3C3C;stroke-width:4.7299;stroke-miterlimit:10;}
	.st198{fill:#706767;stroke:#471543;stroke-width:4.5668;stroke-miterlimit:10;}
	.st199{opacity:0.8314;fill:#3B3149;stroke:#471543;stroke-width:4.6875;stroke-miterlimit:10;}
	.st200{fill:#706767;stroke:#471343;stroke-width:0.8714;stroke-miterlimit:10;}
	.st201{fill:#3D3C3C;stroke:#471343;stroke-width:2;stroke-miterlimit:10;}
	.st202{fill:url(#SVGID_80_);}
	.st203{fill:#706767;stroke:#471343;stroke-width:0.9013;stroke-miterlimit:10;}
	.st204{opacity:0.8314;fill:#3B3149;stroke:#471543;stroke-width:4.927;stroke-miterlimit:10;}
	.st205{fill:url(#SVGID_81_);}
	.st206{fill:url(#SVGID_82_);}
	.st207{fill:none;stroke:#3D3C3C;stroke-width:2;stroke-miterlimit:10;}
	.st208{fill:none;stroke:#3D3C3C;stroke-width:1.3702;stroke-miterlimit:10;}
</style>
<g id="Background">
</g>
<g id="Logo">
</g>
<g id="LogoGreen">
</g>
<g id="Layer_2" class="st4">
</g>
<g id="Coin">
</g>
<g id="LogoSymb">
</g>
<g id="Mors">
</g>
<g id="Clock">
</g>
<g id="Text">
</g>
<g id="LineGrid" class="st4">
</g>
<g id="Light">
</g>
<g id="LogoSimpleTest">
</g>
<g id="TheLogo">
	<rect x="-2431.07" y="-1825.82" class="st43" width="4154.38" height="4154.38"/>
	<g id="LogoMeeting">
		<g>
			<path class="st9" d="M250,495c-65.44,0-126.97-25.48-173.24-71.76S5,315.44,5,250S30.48,123.03,76.76,76.76S184.56,5,250,5
				c65.44,0,126.97,25.48,173.24,71.76C469.52,123.03,495,184.56,495,250s-25.48,126.97-71.76,173.24
				C376.97,469.52,315.44,495,250,495z"/>
			<path class="st65" d="M250,10c32.4,0,63.83,6.34,93.42,18.86c28.58,12.09,54.25,29.39,76.29,51.44s39.35,47.71,51.44,76.29
				C483.66,186.17,490,217.6,490,250s-6.34,63.83-18.86,93.42c-12.09,28.58-29.39,54.25-51.44,76.29s-47.71,39.35-76.29,51.44
				C313.83,483.66,282.4,490,250,490s-63.83-6.34-93.42-18.86c-28.58-12.09-54.25-29.39-76.29-51.44s-39.35-47.71-51.44-76.29
				C16.34,313.83,10,282.4,10,250s6.34-63.83,18.86-93.42c12.09-28.58,29.39-54.25,51.44-76.29s47.71-39.35,76.29-51.44
				C186.17,16.34,217.6,10,250,10 M250,0C111.93,0,0,111.93,0,250c0,138.07,111.93,250,250,250s250-111.93,250-250
				C500,111.93,388.07,0,250,0L250,0z"/>
		</g>
		
			<radialGradient id="SVGID_1_" cx="15.3375" cy="-410.9902" r="199.5081" gradientTransform="matrix(1.1779 0 0 1.1779 231.9341 734.1042)" gradientUnits="userSpaceOnUse">
			<stop  offset="0" style="stop-color:#5B00F7"/>
			<stop  offset="0.3419" style="stop-color:#5A00F5"/>
			<stop  offset="0.5095" style="stop-color:#5700ED"/>
			<stop  offset="0.6393" style="stop-color:#5300E0"/>
			<stop  offset="0.7495" style="stop-color:#4C00CD"/>
			<stop  offset="0.8475" style="stop-color:#4300B5"/>
			<stop  offset="0.9353" style="stop-color:#380098"/>
			<stop  offset="1" style="stop-color:#2E007D"/>
		</radialGradient>
		<path style="fill:url(#SVGID_1_);" d="M320.38,252.66v-5.34H485c-0.46-40.85-11.34-79.2-30.1-112.52l-3.47,2l-139.16,80.33
			l-2.66-4.64l139.14-80.33l3.45-2c-20.11-33.87-48.5-62.25-82.36-82.36l-2,3.45l-80.33,139.14l-4.64-2.68L363.2,48.57l2-3.47
			C331.87,26.34,293.53,15.46,252.68,15v164.62h-5.34V15c-40.85,0.46-79.21,11.32-112.54,30.1l2,3.47l80.33,139.14l-4.62,2.68
			L132.18,51.25l-2-3.47C96.3,67.89,67.91,96.28,47.8,130.16l3.45,2l139.16,80.33l-2.68,4.64L48.57,136.78l-3.45-2
			C26.34,168.11,15.46,206.47,15,247.32h164.64v5.34H15c0.45,40.87,11.34,79.23,30.12,112.56l3.45-2l139.16-80.35l2.68,4.62
			L51.25,367.82v0.02l-3.47,1.98c20.11,33.88,48.52,62.29,82.4,82.4l1.98-3.47h0.02l80.33-139.16l4.62,2.68l-80.35,139.16l-2,3.45
			c33.32,18.78,71.69,29.67,112.54,30.12V320.36h5.36V485c40.85-0.46,79.21-11.34,112.54-30.12l-2-3.45l-80.35-139.16l4.64-2.68
			l80.33,139.16l2,3.45c33.88-20.11,62.27-48.5,82.38-82.38l-3.47-2l-139.14-80.33l2.66-4.62l139.16,80.33l3.47,2
			c18.78-33.32,29.65-71.69,30.1-112.54H320.38z"/>
		<g>
			<circle class="st85" cx="250" cy="250" r="82.69"/>
			
				<radialGradient id="SVGID_2_" cx="2187.634" cy="-52.1271" r="136.5841" gradientTransform="matrix(0.5934 0 0 0.5934 -1048.0746 280.9306)" gradientUnits="userSpaceOnUse">
				<stop  offset="0" style="stop-color:#5B00F7"/>
				<stop  offset="0.3419" style="stop-color:#5A00F5"/>
				<stop  offset="0.5095" style="stop-color:#5700ED"/>
				<stop  offset="0.6393" style="stop-color:#5300E0"/>
				<stop  offset="0.7495" style="stop-color:#4C00CD"/>
				<stop  offset="0.8475" style="stop-color:#4300B5"/>
				<stop  offset="0.9353" style="stop-color:#380098"/>
				<stop  offset="1" style="stop-color:#2E007D"/>
			</radialGradient>
			<path style="fill:url(#SVGID_2_);" d="M274.27,250.92v-1.84h56.77c-0.16-14.09-3.91-27.31-10.38-38.81l-1.2,0.69l-47.99,27.71
				l-0.92-1.6l47.99-27.71l1.19-0.69c-6.94-11.68-16.73-21.47-28.41-28.41l-0.69,1.19l-27.71,47.99l-1.6-0.92l27.7-47.99l0.69-1.2
				c-11.49-6.47-24.72-10.22-38.81-10.38v56.77h-1.84v-56.77c-14.09,0.16-27.32,3.91-38.81,10.38l0.69,1.2l27.71,47.99l-1.59,0.92
				l-27.71-47.99l-0.69-1.2c-11.69,6.94-21.48,16.73-28.41,28.41l1.19,0.69l47.99,27.71l-0.92,1.6l-47.99-27.71l-1.19-0.69
				c-6.48,11.49-10.23,24.72-10.39,38.81h56.78v1.84h-56.78c0.16,14.09,3.91,27.32,10.39,38.82l1.19-0.69l47.99-27.71l0.92,1.59
				l-47.99,27.71v0.01l-1.2,0.68c6.94,11.69,16.73,21.48,28.42,28.42l0.68-1.2h0.01l27.71-47.99l1.59,0.92l-27.71,47.99l-0.69,1.19
				c11.49,6.48,24.72,10.23,38.81,10.39v-56.78h1.85v56.78c14.09-0.16,27.32-3.91,38.81-10.39l-0.69-1.19l-27.71-47.99l1.6-0.92
				l27.71,47.99l0.69,1.19c11.69-6.94,21.48-16.73,28.41-28.41l-1.2-0.69l-47.99-27.71l0.92-1.59l47.99,27.71l1.2,0.69
				c6.48-11.49,10.22-24.72,10.38-38.81H274.27z"/>
			<circle class="st67" cx="250" cy="250" r="22.75"/>
		</g>
	</g>
</g>
<g id="LogoSimple">
</g>
<g id="CTMDiagram">
</g>
<g id="CTMtoken">
</g>
<g id="LogoOnText">
</g>
</svg>
