<?xml version="1.0" encoding="utf-8"?>
<!-- Generator: Adobe Adobe Illustrator 24.2.0, SVG Export Plug-In . SVG Version: 6.00 Build 0)  -->
<svg version="1.1" xmlns="http://www.w3.org/2000/svg" xmlns:xlink="http://www.w3.org/1999/xlink" x="0px" y="0px"
	 viewBox="0 0 487.03 487.03" style="enable-background:new 0 0 487.03 487.03;" xml:space="preserve">
<style type="text/css">
	.st0{fill:#706767;stroke:#000000;stroke-width:0.333;stroke-miterlimit:10;}
	.st1{fill:#706767;stroke:#000000;stroke-width:0.7548;stroke-miterlimit:10;}
	.st2{fill:#2C0078;}
	.st3{fill:url(#SVGID_1_);stroke:#000000;stroke-width:0.4554;stroke-miterlimit:10;}
	.st4{display:none;}
	.st5{display:inline;fill:none;stroke:#000000;stroke-width:0.4633;stroke-miterlimit:10;}
	.st6{display:inline;fill:none;stroke:#000000;stroke-width:0.177;stroke-miterlimit:10;}
	.st7{fill:#3D3C3C;stroke:#471343;stroke-width:2.0135;stroke-miterlimit:10;}
	.st8{fill:url(#SVGID_2_);stroke:#000000;stroke-width:0.4633;stroke-miterlimit:10;}
	.st9{fill:#3D3C3C;}
	.st10{fill:url(#SVGID_3_);stroke:#000000;stroke-width:0.163;stroke-miterlimit:10;}
	.st11{fill:#706767;stroke:#471343;stroke-width:0.4302;stroke-miterlimit:10;}
	.st12{fill:url(#SVGID_4_);}
	.st13{fill:#8838B0;}
	.st14{display:inline;}
	.st15{fill:#EFC75E;}
	.st16{fill:#CC9933;}
	.st17{fill:#EFC75E;stroke:#916D23;stroke-width:1.1346;stroke-miterlimit:10;}
	.st18{fill:#CC9933;stroke:#916D23;stroke-width:1.0819;stroke-miterlimit:10;}
	.st19{fill:#EFC75E;stroke:#916D23;stroke-width:1.0049;stroke-miterlimit:10;}
	.st20{fill:#CC9933;stroke:#916D23;stroke-width:1.1346;stroke-miterlimit:10;}
	.st21{display:none;fill:#3D3C3C;stroke:#471343;stroke-width:4.9765;stroke-miterlimit:10;}
	.st22{display:none;fill:#CC9933;}
	.st23{opacity:0.3098;fill:#CC9933;}
	.st24{opacity:0.3098;fill:#EFC75E;}
	.st25{clip-path:url(#SVGID_6_);}
	.st26{clip-path:url(#SVGID_8_);}
	.st27{fill:#CC9933;stroke:#CC9933;stroke-width:4.183;stroke-linecap:round;stroke-miterlimit:10;}
	.st28{fill:none;stroke:#EFC75E;stroke-width:7.1111;stroke-linecap:round;stroke-miterlimit:10;}
	.st29{fill:none;stroke:#EFC75E;stroke-width:22.535;stroke-linecap:round;stroke-miterlimit:10;}
	.st30{display:inline;fill:none;stroke:#000000;stroke-width:0.333;stroke-linecap:round;stroke-miterlimit:10;}
	.st31{fill:#FFFFFF;stroke:#FFFFFF;stroke-width:2.0135;stroke-miterlimit:10;}
	.st32{fill:#FFFFFF;stroke:#FFFFFF;stroke-miterlimit:10;}
	.st33{fill:#2C0078;stroke:#FFFFFF;stroke-miterlimit:10;}
	.st34{fill:#FFFFFF;stroke:#FFFFFF;stroke-width:0.4302;stroke-miterlimit:10;}
	.st35{fill:#FFFFFF;stroke:#4E4D4F;stroke-width:2.0135;stroke-miterlimit:10;}
	.st36{fill:#5B00F7;stroke:#4E4D4F;stroke-miterlimit:10;}
	.st37{fill:#FFFFFF;stroke:#4E4D4F;stroke-miterlimit:10;}
	.st38{fill:#2C0078;stroke:#4E4D4F;stroke-miterlimit:10;}
	.st39{fill:#FFFFFF;stroke:#4E4D4F;stroke-width:0.4302;stroke-miterlimit:10;}
	.st40{fill:url(#SVGID_9_);}
	.st41{fill:url(#SVGID_10_);}
	.st42{fill:#5B00F7;}
	.st43{display:none;fill:#2C0078;}
	.st44{fill:url(#SVGID_11_);}
	.st45{fill:#EFC75E;stroke:#916D23;stroke-width:2.7068;stroke-miterlimit:10;}
	.st46{fill:#CC9933;stroke:#916D23;stroke-width:2.5811;stroke-miterlimit:10;}
	.st47{fill:#EFC75E;stroke:#916D23;stroke-width:2.3974;stroke-miterlimit:10;}
	.st48{fill:#CC9933;stroke:#916D23;stroke-width:2.7068;stroke-miterlimit:10;}
	.st49{clip-path:url(#SVGID_13_);}
	.st50{clip-path:url(#SVGID_15_);}
	.st51{fill:none;stroke:#EFC75E;stroke-width:16.9656;stroke-linecap:round;stroke-miterlimit:10;}
	.st52{fill:#3D3C3C;stroke:#471343;stroke-width:2.1323;stroke-miterlimit:10;}
	.st53{fill:url(#SVGID_16_);}
	.st54{fill:url(#SVGID_17_);}
	.st55{fill:#706767;stroke:#000000;stroke-width:0.8357;stroke-miterlimit:10;}
	.st56{fill:#EFC75E;stroke:#916D23;stroke-width:3.5954;stroke-miterlimit:10;}
	.st57{fill:#CC9933;stroke:#916D23;stroke-width:3.4285;stroke-miterlimit:10;}
	.st58{fill:#EFC75E;stroke:#916D23;stroke-width:3.1845;stroke-miterlimit:10;}
	.st59{fill:#CC9933;stroke:#916D23;stroke-width:3.5954;stroke-miterlimit:10;}
	.st60{clip-path:url(#SVGID_19_);}
	.st61{clip-path:url(#SVGID_21_);}
	.st62{fill:#3D3C3C;stroke:#471343;stroke-width:4.5562;stroke-miterlimit:10;}
	.st63{fill:url(#SVGID_22_);}
	.st64{fill:#706767;stroke:#471343;stroke-width:0.9734;stroke-miterlimit:10;}
	.st65{fill:#3D3C3C;stroke:#471343;stroke-width:3.6743;stroke-miterlimit:10;}
	.st66{fill:url(#SVGID_23_);}
	.st67{fill:#706767;stroke:#471343;stroke-width:0.785;stroke-miterlimit:10;}
	.st68{fill:url(#SVGID_24_);}
	.st69{fill:#3D3C3C;stroke:#471343;stroke-width:8.4594;stroke-miterlimit:10;}
	.st70{fill:url(#SVGID_25_);}
	.st71{fill:#706767;stroke:#471343;stroke-width:1.8072;stroke-miterlimit:10;}
	.st72{fill:#3D3C3C;stroke:#471343;stroke-width:5.4379;stroke-miterlimit:10;}
	.st73{fill:url(#SVGID_26_);}
	.st74{fill:#3D3C3C;stroke:#471343;stroke-width:15.7679;stroke-miterlimit:10;}
	.st75{fill:url(#SVGID_27_);}
	.st76{fill:#706767;stroke:#471343;stroke-width:3.3686;stroke-miterlimit:10;}
	.st77{fill:url(#SVGID_28_);}
	.st78{fill:url(#SVGID_29_);}
	.st79{fill:url(#SVGID_30_);}
	.st80{fill:#706767;stroke:#471343;stroke-width:1.1617;stroke-miterlimit:10;}
	.st81{fill:url(#SVGID_31_);}
	.st82{fill:url(#SVGID_32_);}
	.st83{fill:url(#SVGID_33_);}
	.st84{fill:#3D3C3C;stroke:#471343;stroke-width:1.2672;stroke-miterlimit:10;}
	.st85{fill:url(#SVGID_34_);}
	.st86{fill:#3D3C3C;stroke:#471343;stroke-width:8.4302;stroke-miterlimit:10;}
	.st87{fill:url(#SVGID_35_);}
	.st88{fill:#3D3C3C;stroke:#471343;stroke-width:2.9073;stroke-miterlimit:10;}
	.st89{fill:url(#SVGID_36_);}
	.st90{fill:#706767;stroke:#471343;stroke-width:1.801;stroke-miterlimit:10;}
	.st91{fill:url(#SVGID_37_);}
	.st92{fill:url(#SVGID_38_);}
	.st93{fill:#3D3C3C;stroke:#471343;stroke-width:8.6171;stroke-miterlimit:10;}
	.st94{fill:url(#SVGID_39_);}
	.st95{fill:#3D3C3C;stroke:#471343;stroke-width:2.9718;stroke-miterlimit:10;}
	.st96{fill:url(#SVGID_40_);}
	.st97{fill:url(#SVGID_41_);}
	.st98{fill:url(#SVGID_42_);}
	.st99{fill:#706767;stroke:#471543;stroke-width:4;stroke-miterlimit:10;}
	.st100{fill:#3D3C3C;stroke:#471343;stroke-width:4.5349;stroke-miterlimit:10;}
	.st101{fill:url(#SVGID_43_);}
	.st102{fill:#706767;stroke:#471343;stroke-width:0.9688;stroke-miterlimit:10;}
	.st103{fill:#706767;stroke:#471543;stroke-width:9.009;stroke-miterlimit:10;}
	.st104{fill:#706767;stroke:#471543;stroke-width:5.7674;stroke-miterlimit:10;}
	.st105{fill:#242424;}
	.st106{fill:url(#SVGID_44_);}
	.st107{fill:url(#SVGID_45_);}
	.st108{fill:url(#SVGID_46_);}
	.st109{display:none;fill:#706767;stroke:#471543;stroke-width:2.2223;stroke-miterlimit:10;}
	.st110{fill:#706767;stroke:#471543;stroke-width:3;stroke-miterlimit:10;}
	.st111{fill:#A3A3A3;}
	.st112{fill:url(#SVGID_47_);}
	.st113{fill:none;stroke:#706867;stroke-width:30;stroke-linecap:round;stroke-linejoin:round;stroke-miterlimit:10;}
	.st114{fill:none;stroke:#706767;stroke-width:30;stroke-linecap:round;stroke-miterlimit:10;stroke-dasharray:0,6,0,6,0,6;}
	.st115{fill:#5B00F7;stroke:#ABA4A4;stroke-width:3.6743;stroke-miterlimit:10;}
	.st116{fill:#ABA4A4;}
	.st117{fill:#5B00F7;stroke:#ABA4A4;stroke-width:2;stroke-miterlimit:10;}
	.st118{fill:none;stroke:#ABA4A4;stroke-width:2;stroke-linecap:round;stroke-linejoin:round;stroke-miterlimit:10;}
	.st119{fill:#F0EBEB;stroke:#ABA4A4;stroke-width:2;stroke-miterlimit:10;}
	.st120{display:none;fill:#2C0078;stroke:#000000;stroke-width:2.0203;stroke-miterlimit:10;}
	.st121{fill:#5E5C5C;}
	.st122{fill:#3D3C3C;stroke:#471343;stroke-width:7.392;stroke-miterlimit:10;}
	.st123{fill:url(#SVGID_48_);}
	.st124{fill:#3D3C3C;stroke:#471343;stroke-width:2.5493;stroke-miterlimit:10;}
	.st125{fill:url(#SVGID_49_);}
	.st126{fill:#706767;stroke:#471343;stroke-width:1.5792;stroke-miterlimit:10;}
	.st127{fill:url(#SVGID_50_);}
	.st128{fill:#3D3C3C;stroke:#471343;stroke-width:2.8089;stroke-miterlimit:10;}
	.st129{fill:url(#SVGID_51_);}
	.st130{fill:#706767;stroke:#471343;stroke-width:0.6001;stroke-miterlimit:10;}
	.st131{fill:url(#SVGID_52_);stroke:#736337;stroke-width:1.5717;stroke-miterlimit:10;}
	.st132{fill:#736337;stroke:#40381D;stroke-width:1.3853;stroke-miterlimit:10;}
	.st133{fill:url(#SVGID_53_);}
	.st134{fill:#736337;stroke:#40371F;stroke-width:1.3853;stroke-miterlimit:10;}
	.st135{fill:#63542C;}
	.st136{fill:#736337;}
	.st137{fill:url(#SVGID_54_);}
	.st138{fill:#9C874E;}
	.st139{fill:none;stroke:#706867;stroke-width:12.747;stroke-linecap:round;stroke-linejoin:round;stroke-miterlimit:10;}
	.st140{fill:#706767;}
	.st141{fill:none;stroke:#706867;stroke-width:8.2304;stroke-linecap:round;stroke-linejoin:round;stroke-miterlimit:10;}
	.st142{fill:#2C0078;stroke:#000000;stroke-width:0.8056;stroke-miterlimit:10;}
	.st143{display:none;fill:#4E2249;}
	.st144{fill:#5C4D2E;stroke:#471343;stroke-width:2.0135;stroke-miterlimit:10;}
	.st145{fill:url(#SVGID_55_);}
	.st146{fill:#5C4D2E;}
	.st147{fill:#5C4D2E;stroke:#471343;stroke-width:0.4302;stroke-miterlimit:10;}
	.st148{display:none;opacity:0.3098;fill:#EFC75E;}
	.st149{display:none;fill:url(#SVGID_56_);}
	.st150{fill:url(#SVGID_57_);stroke:#4D4A4A;stroke-width:1.1346;stroke-miterlimit:10;}
	.st151{fill:#4D4A4A;}
	.st152{fill:url(#SVGID_58_);}
	.st153{fill:url(#SVGID_59_);}
	.st154{fill:#4900C8;}
	.st155{display:inline;fill:url(#SVGID_60_);stroke:#EFC75E;stroke-width:7.1111;stroke-linecap:round;stroke-miterlimit:10;}
	.st156{display:inline;fill:url(#SVGID_61_);stroke:#EFC75E;stroke-width:7.1111;stroke-linecap:round;stroke-miterlimit:10;}
	.st157{display:inline;fill:url(#SVGID_62_);stroke:#EFC75E;stroke-width:7.1111;stroke-linecap:round;stroke-miterlimit:10;}
	.st158{display:inline;fill:url(#SVGID_63_);stroke:#EFC75E;stroke-width:7.1111;stroke-linecap:round;stroke-miterlimit:10;}
	.st159{display:inline;fill:#9C874E;}
	.st160{fill:url(#SVGID_64_);stroke:#736337;stroke-width:1.8958;stroke-miterlimit:10;}
	.st161{fill:#736337;stroke:#40381D;stroke-width:1.671;stroke-miterlimit:10;}
	.st162{fill:url(#SVGID_65_);}
	.st163{fill:#736337;stroke:#40371F;stroke-width:1.671;stroke-miterlimit:10;}
	.st164{fill:url(#SVGID_66_);}
	.st165{fill:url(#SVGID_67_);stroke:#5B00F7;stroke-width:1.7989;stroke-miterlimit:10;}
	.st166{fill:none;stroke:#5B00F7;stroke-width:1.5856;stroke-miterlimit:10;}
	.st167{fill:#2A0073;stroke:#5B00F7;stroke-width:1.5856;stroke-miterlimit:10;}
	.st168{fill:#4D00D2;}
	.st169{fill:#3D3C3C;stroke:#471343;stroke-width:1.7247;stroke-miterlimit:10;}
	.st170{fill:url(#SVGID_68_);}
	.st171{fill:#3D3C3C;stroke:#3D3C3C;stroke-width:2;stroke-miterlimit:10;}
	.st172{fill:#706767;stroke:#471543;stroke-width:1.931;stroke-miterlimit:10;}
	.st173{opacity:0.8314;fill:#3B3149;stroke:#471543;stroke-width:2.0833;stroke-miterlimit:10;}
	.st174{fill:#706767;stroke:#471343;stroke-width:0.3685;stroke-miterlimit:10;}
	.st175{fill:#706767;stroke:#471543;stroke-width:7.0949;stroke-miterlimit:10;}
	.st176{fill:#3D3C3C;stroke:#471343;stroke-width:3.6008;stroke-miterlimit:10;}
	.st177{fill:url(#SVGID_69_);}
	.st178{fill:#3D3C3C;stroke:#3D3C3C;stroke-width:4.1756;stroke-miterlimit:10;}
	.st179{fill:#706767;stroke:#471543;stroke-width:4.0317;stroke-miterlimit:10;}
	.st180{opacity:0.8314;fill:#3B3149;stroke:#471543;stroke-width:4.1382;stroke-miterlimit:10;}
	.st181{fill:#706767;stroke:#471343;stroke-width:0.7693;stroke-miterlimit:10;}
	.st182{fill:#3D3C3C;stroke:#471343;stroke-width:1.7656;stroke-miterlimit:10;}
	.st183{fill:url(#SVGID_70_);}
	.st184{fill:#706767;stroke:#471343;stroke-width:0.7957;stroke-miterlimit:10;}
	.st185{fill:#706767;stroke:#471543;stroke-width:7.2397;stroke-miterlimit:10;}
	.st186{fill:url(#SVGID_71_);}
	.st187{fill:#3D3C3C;stroke:#3D3C3C;stroke-width:4.2609;stroke-miterlimit:10;}
	.st188{fill:#706767;stroke:#471543;stroke-width:4.1139;stroke-miterlimit:10;}
	.st189{opacity:0.8314;fill:#3B3149;stroke:#471543;stroke-width:4.2227;stroke-miterlimit:10;}
	.st190{fill:#3D3C3C;stroke:#471343;stroke-width:1.8017;stroke-miterlimit:10;}
	.st191{fill:url(#SVGID_72_);}
	.st192{fill:#706767;stroke:#471343;stroke-width:0.812;stroke-miterlimit:10;}
	.st193{fill:#3D3C3C;stroke:#471343;stroke-width:4.0788;stroke-miterlimit:10;}
	.st194{fill:url(#SVGID_73_);}
	.st195{fill:#3D3C3C;stroke:#3D3C3C;stroke-width:4.7299;stroke-miterlimit:10;}
	.st196{fill:#706767;stroke:#471543;stroke-width:4.5668;stroke-miterlimit:10;}
	.st197{opacity:0.8314;fill:#3B3149;stroke:#471543;stroke-width:4.6875;stroke-miterlimit:10;}
	.st198{fill:#706767;stroke:#471343;stroke-width:0.8714;stroke-miterlimit:10;}
	.st199{fill:#3D3C3C;stroke:#471343;stroke-width:2;stroke-miterlimit:10;}
	.st200{fill:url(#SVGID_74_);}
	.st201{fill:#706767;stroke:#471343;stroke-width:0.9013;stroke-miterlimit:10;}
	.st202{opacity:0.8314;fill:#3B3149;stroke:#471543;stroke-width:4.927;stroke-miterlimit:10;}
	.st203{fill:url(#SVGID_75_);}
	.st204{fill:url(#SVGID_76_);}
	.st205{fill:none;stroke:#3D3C3C;stroke-width:2;stroke-miterlimit:10;}
	.st206{fill:none;stroke:#3D3C3C;stroke-width:1.3702;stroke-miterlimit:10;}
</style>
<g id="Background">
</g>
<g id="Logo">
</g>
<g id="LogoGreen">
</g>
<g id="Layer_2" class="st4">
</g>
<g id="Coin">
</g>
<g id="LogoSymb">
</g>
<g id="Mors">
</g>
<g id="Clock">
</g>
<g id="Text">
</g>
<g id="LineGrid" class="st4">
</g>
<g id="Light">
</g>
<g id="LogoSimpleTest">
</g>
<g id="TheLogo">
</g>
<g id="LogoSimple">
</g>
<g id="CTMDiagram">
</g>
<g id="CTMtoken">
	<g>
		<g>
			
				<radialGradient id="SVGID_1_" cx="250.43" cy="250.4921" r="240.7414" gradientTransform="matrix(1.5107 0 0 1.5107 -134.9095 -135.0033)" gradientUnits="userSpaceOnUse">
				<stop  offset="0" style="stop-color:#5800EE"/>
				<stop  offset="0.2278" style="stop-color:#5700EB"/>
				<stop  offset="0.407" style="stop-color:#5300E1"/>
				<stop  offset="0.5697" style="stop-color:#4D00D0"/>
				<stop  offset="0.7225" style="stop-color:#4400B9"/>
				<stop  offset="0.8671" style="stop-color:#39009B"/>
				<stop  offset="1" style="stop-color:#2C0078"/>
			</radialGradient>
			
				<circle style="fill:url(#SVGID_1_);stroke:#736337;stroke-width:1.8958;stroke-miterlimit:10;" cx="243.41" cy="243.41" r="242.66"/>
			<circle class="st161" cx="243.41" cy="243.41" r="231.4"/>
			
				<radialGradient id="SVGID_2_" cx="250.43" cy="250.4921" r="220.363" gradientTransform="matrix(1.5107 0 0 1.5107 -134.9095 -135.0033)" gradientUnits="userSpaceOnUse">
				<stop  offset="0" style="stop-color:#5700EB"/>
				<stop  offset="0.2896" style="stop-color:#5600E8"/>
				<stop  offset="0.4658" style="stop-color:#5300E0"/>
				<stop  offset="0.6117" style="stop-color:#4E00D2"/>
				<stop  offset="0.741" style="stop-color:#4600BD"/>
				<stop  offset="0.8594" style="stop-color:#3C00A3"/>
				<stop  offset="0.9683" style="stop-color:#300083"/>
				<stop  offset="1" style="stop-color:#2C0078"/>
			</radialGradient>
			<circle style="fill:url(#SVGID_2_);" cx="243.41" cy="243.41" r="214.93"/>
			<circle class="st163" cx="243.41" cy="243.41" r="199.68"/>
			<circle class="st135" cx="242.88" cy="246.22" r="16.58"/>
			<g>
				<g>
					<g>
						<g>
							<path class="st42" d="M35.42,331.73c-0.64,0-1.24-0.42-1.52-1.08c-1.71-3.97-4.77-12-6.07-16.76
								c-0.36-1.31-0.27-1.56,0.7-1.89l5.8-1.83c0.13-0.04,0.29-0.06,0.45-0.06c0.45,0,0.85,0.18,0.93,0.41l0.99,2.91
								c1.71,5.04,2.56,7.57,5.33,14.87c0.16,0.43-0.07,0.92-0.51,1.09l-5.54,2.23C35.8,331.69,35.61,331.73,35.42,331.73z"/>
							<path class="st136" d="M34.78,310.95c0.08,0,0.15,0.01,0.2,0.02l0.93,2.74c1.71,5.05,2.57,7.58,5.34,14.87
								c0,0-0.01,0.03-0.04,0.04l-5.54,2.23c-0.08,0.03-0.17,0.05-0.25,0.05c-0.3,0-0.6-0.23-0.75-0.57
								c-1.7-3.95-4.74-11.93-6.03-16.65c-0.11-0.41-0.15-0.63-0.16-0.74c0.06-0.03,0.15-0.08,0.29-0.12l5.82-1.83
								C34.61,310.96,34.67,310.95,34.78,310.95 M34.78,309.27c-0.24,0-0.48,0.03-0.7,0.1l-5.82,1.83c-1.71,0.58-1.6,1.59-1.24,2.9
								c1.3,4.74,4.31,12.69,6.11,16.87c0.41,0.96,1.32,1.58,2.29,1.58c0.29,0,0.58-0.05,0.87-0.17c0,0,4.16-1.67,5.54-2.23
								c0.85-0.34,1.3-1.31,0.98-2.17c-3.25-8.56-3.87-10.58-6.31-17.75C36.27,309.59,35.52,309.27,34.78,309.27L34.78,309.27z"/>
						</g>
						<g>
							<path class="st42" d="M98.9,417.86c-0.39,0-0.79-0.14-1.12-0.4c-3.4-2.67-9.92-8.26-13.34-11.82c-0.94-0.98-0.98-1.24-0.29-2
								l4.22-4.38c0.26-0.27,0.69-0.46,1.03-0.46c0.15,0,0.27,0.04,0.34,0.11L92,401c3.91,3.61,5.87,5.43,11.79,10.51
								c0.35,0.3,0.38,0.84,0.08,1.2l-3.8,4.6C99.78,417.67,99.36,417.86,98.9,417.86z"/>
							<path class="st136" d="M89.31,399.66l2.12,1.95c3.92,3.62,5.88,5.44,11.8,10.52c0,0,0.01,0.03-0.01,0.05l-3.8,4.6
								c-0.13,0.16-0.31,0.24-0.52,0.24c-0.21,0-0.42-0.08-0.6-0.22c-3.38-2.66-9.86-8.21-13.26-11.74
								c-0.3-0.31-0.43-0.48-0.49-0.58c0.03-0.06,0.09-0.14,0.19-0.25l4.23-4.39C89.05,399.76,89.2,399.69,89.31,399.66
								 M89.4,397.97c-0.59,0-1.23,0.29-1.63,0.72l-4.23,4.39c-1.22,1.33-0.64,2.16,0.3,3.14c3.41,3.54,9.85,9.08,13.43,11.9
								c0.49,0.38,1.07,0.58,1.64,0.58c0.68,0,1.34-0.28,1.81-0.85c0,0,2.85-3.45,3.8-4.6c0.59-0.71,0.52-1.77-0.18-2.37
								c-6.95-5.97-8.46-7.44-14.03-12.57C90.06,398.07,89.74,397.97,89.4,397.97L89.4,397.97z"/>
						</g>
						<g>
							<path class="st42" d="M57.09,371.9c-0.54,0-1.06-0.29-1.4-0.77c-2.5-3.53-7.17-10.74-9.44-15.12c-0.63-1.21-0.59-1.47,0.29-2
								l5.29-3c0.21-0.12,0.5-0.19,0.77-0.19c0.24,0,0.54,0.06,0.65,0.24l1.57,2.64c2.72,4.57,4.09,6.87,8.32,13.43
								c0.25,0.38,0.13,0.91-0.27,1.18l-4.95,3.34C57.67,371.81,57.39,371.9,57.09,371.9z"/>
							<path class="st136" d="M52.6,351.65c0.01,0,0.02,0,0.03,0l1.47,2.47c2.73,4.58,4.1,6.89,8.33,13.44c0,0,0,0.03-0.03,0.04
								l-4.95,3.34c-0.11,0.08-0.23,0.11-0.36,0.11c-0.26,0-0.54-0.16-0.72-0.42c-2.49-3.51-7.13-10.68-9.38-15.02
								c-0.2-0.38-0.28-0.58-0.31-0.69c0.05-0.04,0.13-0.11,0.25-0.18l5.3-3.01C52.32,351.7,52.46,351.65,52.6,351.65 M52.6,349.98
								c-0.41,0-0.84,0.11-1.18,0.3l-5.31,3.01c-1.55,0.92-1.23,1.89-0.6,3.1c2.26,4.36,6.86,11.5,9.5,15.22
								c0.5,0.71,1.29,1.12,2.09,1.12c0.44,0,0.89-0.13,1.3-0.4c0,0,3.71-2.5,4.95-3.34c0.76-0.51,1-1.55,0.5-2.32
								c-4.97-7.69-6-9.54-9.88-16.04C53.69,350.18,53.16,349.98,52.6,349.98L52.6,349.98z"/>
						</g>
						<g>
							<path class="st42" d="M123.07,436.18c-0.33,0-0.65-0.09-0.95-0.27c-3.71-2.22-10.9-6.93-14.74-10.02
								c-1.06-0.85-1.13-1.11-0.54-1.94l3.63-4.88c0.25-0.33,0.72-0.59,1.07-0.59c0.1,0,0.19,0.02,0.25,0.07l2.5,1.78
								c4.34,3.08,6.52,4.63,13.04,8.92c0.38,0.25,0.48,0.78,0.23,1.18l-3.18,5.05C124.09,435.92,123.62,436.18,123.07,436.18z"/>
							<path class="st136" d="M111.46,419.33l2.34,1.67c4.35,3.09,6.53,4.64,13.06,8.93c0,0,0.01,0.03-0.01,0.05l-3.18,5.05
								c-0.16,0.26-0.41,0.31-0.6,0.31c-0.18,0-0.36-0.05-0.52-0.15c-3.69-2.2-10.83-6.89-14.65-9.95
								c-0.33-0.27-0.49-0.42-0.56-0.51c0.03-0.06,0.07-0.15,0.16-0.27l3.64-4.9C111.22,419.47,111.35,419.38,111.46,419.33
								 M111.54,417.64c-0.64,0-1.35,0.41-1.74,0.93l-3.64,4.89c-1.04,1.47-0.36,2.23,0.7,3.08c3.83,3.08,10.93,7.75,14.84,10.08
								c0.43,0.26,0.91,0.39,1.38,0.39c0.79,0,1.55-0.37,2.01-1.09c0,0,2.39-3.79,3.18-5.05c0.49-0.78,0.29-1.82-0.48-2.33
								c-7.65-5.03-9.34-6.3-15.52-10.68C112.05,417.71,111.8,417.64,111.54,417.64L111.54,417.64z"/>
						</g>
						<g>
							<path class="st42" d="M162.92,456.13c-0.21,0-0.42-0.04-0.62-0.11c-4.08-1.42-12.08-4.57-16.47-6.81
								c-1.21-0.62-1.33-0.85-0.93-1.79l2.56-5.52c0.2-0.43,0.69-0.81,1.04-0.81c0.05,0,0.1,0.01,0.14,0.03l2.82,1.23
								c4.87,2.14,7.32,3.21,14.57,6.08c0.42,0.17,0.63,0.67,0.47,1.11l-2.09,5.59C164.19,455.75,163.62,456.13,162.92,456.13z"/>
							<path class="st136" d="M148.49,441.97l2.62,1.15c4.89,2.14,7.35,3.22,14.61,6.09c0,0,0.01,0.02,0,0.05l-2.09,5.59
								c-0.15,0.41-0.58,0.45-0.71,0.45c-0.12,0-0.23-0.02-0.35-0.06c-4.06-1.41-12.01-4.54-16.36-6.77
								c-0.38-0.19-0.56-0.31-0.66-0.38c0.01-0.06,0.04-0.16,0.1-0.3l2.57-5.53C148.28,442.14,148.39,442.03,148.49,441.97
								 M148.5,440.26c-0.73,0-1.48,0.61-1.8,1.3l-2.57,5.53c-0.72,1.65,0.1,2.25,1.31,2.87c4.38,2.23,12.28,5.37,16.58,6.86
								c0.3,0.1,0.6,0.15,0.9,0.15c0.99,0,1.91-0.55,2.27-1.53c0,0,1.57-4.2,2.09-5.59c0.32-0.86-0.09-1.84-0.94-2.18
								c-8.51-3.37-10.43-4.27-17.36-7.3C148.83,440.29,148.67,440.26,148.5,440.26L148.5,440.26z"/>
						</g>
						<g>
							<path class="st42" d="M43.4,345.86c-1.71,0-3.19-0.99-3.69-2.46c-0.67-1.96,0.56-4.16,2.74-4.9
								c0.48-0.16,0.98-0.25,1.47-0.25c1.71,0,3.19,0.99,3.69,2.46c0.32,0.94,0.22,1.96-0.29,2.88c-0.52,0.94-1.39,1.66-2.46,2.03
								C44.39,345.78,43.89,345.86,43.4,345.86z"/>
							<path class="st136" d="M43.92,339.08c1.35,0,2.52,0.76,2.9,1.89c0.24,0.71,0.16,1.5-0.23,2.21c-0.42,0.76-1.12,1.34-2,1.64
								c-0.39,0.13-0.8,0.2-1.2,0.2c-1.35,0-2.52-0.76-2.9-1.89c-0.52-1.53,0.48-3.25,2.22-3.84
								C43.11,339.15,43.52,339.08,43.92,339.08 M43.92,337.41c-0.57,0-1.16,0.09-1.74,0.29c-2.62,0.89-4.08,3.56-3.27,5.96
								c0.64,1.87,2.47,3.03,4.48,3.03c0.57,0,1.16-0.09,1.74-0.29c2.62-0.89,4.08-3.56,3.27-5.96
								C47.77,338.57,45.94,337.41,43.92,337.41L43.92,337.41z"/>
						</g>
						<g>
							<path class="st42" d="M66.88,383.76c-1.71,0-3.19-0.99-3.69-2.46c-0.32-0.94-0.22-1.96,0.29-2.88
								c0.52-0.94,1.39-1.66,2.46-2.03c0.48-0.16,0.98-0.25,1.47-0.25c1.71,0,3.19,0.99,3.69,2.46c0.32,0.94,0.22,1.96-0.29,2.88
								c-0.52,0.94-1.39,1.66-2.46,2.03C67.87,383.68,67.37,383.76,66.88,383.76z"/>
							<path class="st136" d="M67.41,376.99c1.35,0,2.51,0.76,2.9,1.89c0.52,1.53-0.48,3.25-2.22,3.84c-0.39,0.13-0.8,0.2-1.2,0.2
								c-1.35,0-2.52-0.76-2.9-1.89c-0.52-1.53,0.48-3.25,2.22-3.84C66.59,377.05,67,376.99,67.41,376.99 M67.4,375.32
								c-0.57,0-1.16,0.09-1.74,0.29c-2.62,0.89-4.08,3.56-3.27,5.96c0.64,1.87,2.47,3.03,4.48,3.03c0.57,0,1.16-0.09,1.74-0.29
								c2.62-0.89,4.08-3.56,3.27-5.96C71.25,376.47,69.42,375.32,67.4,375.32L67.4,375.32z"/>
						</g>
					</g>
					<g>
						<g>
							<g>
								<path class="st42" d="M349.16,51.56c-0.13,0-0.25-0.03-0.36-0.09c-6.96-3.53-9.39-4.65-14.22-6.88l-2.79-1.29
									c-0.32-0.15-0.42-0.88-0.2-1.41l2.44-5.59c0.36-0.78,0.66-0.78,0.83-0.78c0.31,0,0.72,0.15,1.12,0.3
									c4.59,1.8,12.25,5.7,16.02,7.81c0.83,0.47,1.15,1.4,0.74,2.17l-2.8,5.27C349.78,51.37,349.48,51.56,349.16,51.56
									L349.16,51.56z"/>
								<path class="st136" d="M334.95,36.37c0.12,0.02,0.34,0.08,0.72,0.24c4.55,1.79,12.17,5.66,15.91,7.77
									c0.36,0.2,0.63,0.64,0.41,1.05l-2.8,5.27c-0.01,0.02-0.03,0.03-0.03,0.03c-6.97-3.53-9.4-4.66-14.24-6.89l-2.61-1.21
									c-0.01-0.11-0.01-0.27,0.05-0.39l2.43-5.55C334.86,36.52,334.91,36.42,334.95,36.37 M334.86,34.68
									c-0.62,0-1.15,0.32-1.59,1.28l-2.44,5.59c-0.37,0.84-0.23,2.11,0.61,2.5c6.87,3.19,8.81,4.02,16.98,8.16
									c0.24,0.12,0.49,0.18,0.74,0.18c0.61,0,1.21-0.34,1.52-0.92c0.7-1.32,2.8-5.27,2.8-5.27c0.64-1.2,0.12-2.62-1.07-3.29
									c-3.97-2.23-11.55-6.07-16.12-7.86C335.77,34.84,335.29,34.68,334.86,34.68L334.86,34.68z"/>
							</g>
							<g>
								<path class="st42" d="M425.67,122.07c-0.29,0-0.54-0.13-0.69-0.35c-4.43-6.43-6.02-8.57-9.2-12.84l-1.83-2.46
									c-0.21-0.28,0.05-0.98,0.5-1.33l4.81-3.74c0.32-0.24,0.61-0.37,0.82-0.37c0.31,0,0.67,0.35,1.12,0.88
									c3.17,3.78,8.04,10.86,10.33,14.52c0.51,0.81,0.34,1.78-0.39,2.26l-4.98,3.29C426.02,122.02,425.85,122.07,425.67,122.07
									L425.67,122.07z"/>
								<path class="st136" d="M420.04,101.84c0.09,0.07,0.25,0.23,0.52,0.55c3.15,3.75,7.98,10.79,10.27,14.43
									c0.22,0.35,0.25,0.86-0.14,1.12l-5.02,3.31c-4.43-6.44-6.03-8.58-9.21-12.86l-1.72-2.31c0.04-0.1,0.13-0.24,0.23-0.32
									l4.79-3.72C419.88,101.92,419.98,101.87,420.04,101.84 M420.08,100.14c-0.38,0-0.81,0.16-1.33,0.55l-4.81,3.74
									c-0.73,0.57-1.21,1.75-0.66,2.49c4.51,6.08,5.82,7.74,11.01,15.28c0.32,0.47,0.85,0.72,1.38,0.72
									c0.33,0,0.66-0.09,0.96-0.29c1.25-0.82,4.98-3.29,4.98-3.29c1.14-0.75,1.36-2.25,0.63-3.4c-2.42-3.86-7.24-10.85-10.4-14.61
									C421.28,100.65,420.76,100.14,420.08,100.14L420.08,100.14z"/>
							</g>
							<g>
								<path class="st42" d="M385.68,76.77c-0.13,0-0.33-0.03-0.51-0.18c-6.07-4.9-8.21-6.51-12.46-9.7l-2.46-1.84
									c-0.28-0.21-0.23-0.95,0.1-1.42l3.55-4.96c0.46-0.61,0.73-0.61,0.82-0.61c0.31,0,0.75,0.26,1.18,0.55
									c4.11,2.72,10.79,8.13,14.03,10.99c0.72,0.63,0.83,1.61,0.27,2.28l-3.84,4.57C386.19,76.65,385.94,76.77,385.68,76.77z"/>
								<path class="st136" d="M374.79,58.93c0.11,0.04,0.3,0.15,0.66,0.38c4.08,2.7,10.72,8.07,13.94,10.92
									c0.31,0.27,0.48,0.76,0.19,1.11l-3.88,4.6c-6.08-4.91-8.22-6.52-12.49-9.72l-2.3-1.73c0.01-0.11,0.05-0.27,0.13-0.37
									l3.53-4.93C374.66,59.06,374.73,58.97,374.79,58.93 M374.72,57.23c-0.49,0-0.98,0.26-1.5,0.96l-3.55,4.96
									c-0.54,0.75-0.66,2.02,0.08,2.57c6.05,4.55,7.78,5.77,14.9,11.52c0.31,0.25,0.67,0.36,1.04,0.36c0.49,0,0.98-0.21,1.32-0.62
									c0.96-1.14,3.84-4.57,3.84-4.57c0.88-1.04,0.66-2.54-0.36-3.44c-3.41-3.01-10.03-8.35-14.12-11.06
									C375.78,57.53,375.25,57.23,374.72,57.23L374.72,57.23z"/>
							</g>
							<g>
								<path class="st42" d="M440.87,147.45c-0.33,0-0.62-0.17-0.76-0.45c-3.57-6.94-4.88-9.27-7.48-13.91l-1.5-2.68
									c-0.17-0.31,0.17-0.97,0.66-1.25l5.25-3.1c0.31-0.17,0.59-0.27,0.79-0.27c0.31,0,0.59,0.27,1.07,1.02
									c2.66,4.15,6.59,11.8,8.4,15.72c0.4,0.87,0.11,1.81-0.67,2.19l-5.36,2.63C441.14,147.42,441.01,147.45,440.87,147.45
									L440.87,147.45z"/>
								<path class="st136" d="M437.75,126.66c0.08,0.08,0.22,0.26,0.45,0.61c2.64,4.12,6.54,11.72,8.34,15.62
									c0.17,0.38,0.13,0.89-0.28,1.09l-5.4,2.64c-3.57-6.95-4.88-9.28-7.49-13.93l-1.41-2.52c0.05-0.1,0.16-0.23,0.27-0.29
									l5.22-3.08C437.58,126.72,437.69,126.68,437.75,126.66 M437.83,124.96c-0.34,0-0.74,0.12-1.21,0.38l-5.25,3.1
									c-0.79,0.47-1.42,1.58-0.97,2.38c3.7,6.61,4.78,8.42,8.97,16.56c0.3,0.58,0.89,0.9,1.5,0.9c0.26,0,0.52-0.06,0.76-0.18
									c1.34-0.66,5.36-2.63,5.36-2.63c1.22-0.6,1.63-2.06,1.06-3.29c-1.91-4.13-5.8-11.69-8.45-15.82
									C439.1,125.57,438.61,124.96,437.83,124.96L437.83,124.96z"/>
							</g>
							<g>
								<path class="st42" d="M455.92,188.15c-0.39,0-0.73-0.25-0.83-0.61c-2.08-7.52-2.89-10.06-4.5-15.14l-0.93-2.93
									c-0.11-0.34,0.37-0.91,0.91-1.09l5.77-1.96c0.24-0.08,0.47-0.12,0.65-0.12c0.38,0,0.61,0.17,1.02,1.23
									c1.76,4.6,4.05,12.89,5.02,17.1c0.21,0.93-0.26,1.79-1.1,2.01l-5.78,1.48C456.07,188.14,456,188.15,455.92,188.15z"/>
								<path class="st136" d="M456.92,167.13c0.06,0.1,0.16,0.3,0.31,0.69c1.75,4.57,4.02,12.8,4.99,16.99
									c0.09,0.4-0.05,0.9-0.5,1.01l-5.83,1.49c-2.09-7.54-2.9-10.09-4.51-15.18l-0.87-2.74c0.07-0.08,0.2-0.19,0.32-0.23
									l5.74-1.95C456.74,167.16,456.85,167.14,456.92,167.13 M456.99,165.46c-0.26,0-0.56,0.05-0.92,0.16l-5.77,1.96
									c-0.87,0.3-1.71,1.26-1.43,2.14c2.28,7.22,2.97,9.22,5.42,18.04c0.21,0.74,0.9,1.22,1.64,1.22c0.14,0,0.29-0.02,0.43-0.05
									c1.45-0.37,5.78-1.48,5.78-1.48c1.32-0.34,2.02-1.68,1.71-3.01c-1.03-4.44-3.3-12.62-5.06-17.21
									C458.41,166.22,458,165.46,456.99,165.46L456.99,165.46z"/>
							</g>
							<g>
								<path class="st42" d="M361.99,58.66c-0.5,0-0.99-0.11-1.45-0.32c-0.9-0.42-1.57-1.2-1.89-2.19
									c-0.33-1.02-0.24-2.15,0.23-3.18c0.71-1.53,2.17-2.53,3.72-2.53c0.5,0,0.99,0.11,1.45,0.32c1.88,0.87,2.62,3.28,1.65,5.37
									C365,57.67,363.54,58.66,361.99,58.66C361.99,58.66,361.99,58.66,361.99,58.66z"/>
								<path class="st136" d="M362.61,51.28c0.38,0,0.75,0.08,1.09,0.24c0.68,0.32,1.19,0.92,1.44,1.69
									c0.26,0.82,0.19,1.74-0.19,2.57c-0.57,1.24-1.74,2.04-2.96,2.04c-0.38,0-0.75-0.08-1.09-0.24
									c-0.68-0.32-1.19-0.92-1.44-1.69c-0.26-0.82-0.19-1.74,0.19-2.57C360.22,52.08,361.39,51.28,362.61,51.28 M362.61,49.61
									c-1.81,0-3.61,1.13-4.48,3.01c-1.16,2.51-0.24,5.41,2.06,6.48c0.58,0.27,1.19,0.4,1.8,0.4c1.81,0,3.61-1.13,4.48-3.01
									c1.17-2.51,0.24-5.41-2.06-6.48C363.83,49.74,363.22,49.61,362.61,49.61L362.61,49.61z"/>
							</g>
							<g>
								<path class="st42" d="M397.19,86.04c-0.5,0-0.99-0.11-1.45-0.32c-0.9-0.42-1.57-1.2-1.89-2.19
									c-0.33-1.02-0.24-2.15,0.23-3.18c0.71-1.53,2.17-2.53,3.72-2.53c0.5,0,0.99,0.11,1.45,0.32c1.88,0.87,2.62,3.28,1.65,5.37
									C400.2,85.04,398.74,86.04,397.19,86.04C397.19,86.04,397.19,86.04,397.19,86.04z"/>
								<path class="st136" d="M397.81,78.66c0.38,0,0.75,0.08,1.09,0.24c0.68,0.32,1.19,0.92,1.44,1.69
									c0.26,0.82,0.19,1.74-0.19,2.57c-0.58,1.24-1.74,2.04-2.97,2.04c-0.38,0-0.75-0.08-1.09-0.24
									c-0.68-0.32-1.19-0.92-1.44-1.69c-0.26-0.82-0.19-1.74,0.19-2.57C395.42,79.46,396.58,78.66,397.81,78.66 M397.81,76.99
									c-1.81,0-3.61,1.13-4.48,3.01c-1.16,2.51-0.24,5.41,2.06,6.48c0.58,0.27,1.19,0.4,1.8,0.4c1.81,0,3.61-1.13,4.48-3.01
									c1.16-2.51,0.24-5.41-2.06-6.48C399.03,77.11,398.42,76.99,397.81,76.99L397.81,76.99z"/>
							</g>
						</g>
					</g>
				</g>
				<g>
					<g>
						<g>
							<path class="st42" d="M347.5,444.11c-0.13,0-0.42,0-0.83-0.75l-2.78-5.41c-0.26-0.51-0.2-1.25,0.11-1.42l2.71-1.47
								c4.68-2.53,7.03-3.8,13.75-7.76c0.13-0.07,0.26-0.11,0.41-0.11c0.3,0,0.59,0.16,0.75,0.43l3.13,5.08
								c0.46,0.74,0.2,1.69-0.6,2.21c-3.63,2.35-11.03,6.73-15.49,8.81C348.24,443.93,347.81,444.11,347.5,444.11z"/>
							<path class="st136" d="M360.87,428.03c0.01,0,0.03,0.01,0.04,0.03l3.13,5.08c0.24,0.39,0,0.85-0.35,1.07
								c-3.6,2.34-10.96,6.68-15.39,8.76c-0.39,0.18-0.6,0.25-0.71,0.28c-0.04-0.05-0.1-0.13-0.17-0.26l-2.79-5.42
								c-0.06-0.11-0.08-0.28-0.07-0.39l2.53-1.37C351.79,433.27,354.14,432,360.87,428.03 M360.86,426.36
								c-0.28,0-0.57,0.07-0.83,0.23c-7.89,4.65-9.77,5.6-16.43,9.22c-0.81,0.44-0.87,1.71-0.45,2.53l2.79,5.42
								c0.48,0.88,0.99,1.18,1.56,1.18c0.46,0,0.96-0.2,1.51-0.45c4.45-2.08,11.78-6.39,15.59-8.87c1.14-0.74,1.57-2.19,0.86-3.35
								c0,0-2.35-3.81-3.13-5.08C362.01,426.66,361.44,426.36,360.86,426.36L360.86,426.36z"/>
						</g>
						<g>
							<path class="st42" d="M428.44,373.4c-0.21,0-0.49-0.11-0.83-0.33l-5.03-3.42c-0.47-0.32-0.77-1-0.58-1.29l1.67-2.58
								c2.9-4.46,4.36-6.7,8.37-13.39c0.15-0.25,0.42-0.4,0.73-0.4c0.16,0,0.31,0.04,0.45,0.12l5.18,2.97
								c0.76,0.43,0.98,1.39,0.53,2.23c-2.06,3.8-6.47,11.18-9.4,15.15C429.02,373.14,428.72,373.4,428.44,373.4z"/>
							<path class="st136" d="M432.77,351.15l0.03,1.68l5.18,2.97c0.4,0.23,0.41,0.74,0.21,1.11c-2.05,3.78-6.43,11.11-9.33,15.05
								c-0.25,0.34-0.4,0.51-0.49,0.58c-0.06-0.02-0.15-0.07-0.27-0.15l-5.04-3.43c-0.11-0.07-0.2-0.21-0.25-0.31l1.56-2.4
								c2.91-4.48,4.37-6.72,8.38-13.42c0,0,0.01,0,0.02,0V351.15 M432.77,351.15c-0.57,0-1.13,0.28-1.44,0.81
								c-4.71,7.85-5.91,9.59-10.02,15.95c-0.5,0.77,0.05,1.92,0.81,2.44l5.04,3.43c0.5,0.33,0.92,0.46,1.28,0.46
								c0.73,0,1.23-0.56,1.77-1.29c2.92-3.96,7.29-11.24,9.46-15.24c0.65-1.2,0.33-2.68-0.85-3.35c0,0-3.89-2.23-5.18-2.97
								C433.36,351.22,433.06,351.15,432.77,351.15L432.77,351.15z"/>
						</g>
						<g>
							<path class="st42" d="M385.88,419.09c-0.23,0-0.51-0.19-0.84-0.57l-3.85-4.71c-0.36-0.44-0.46-1.18-0.19-1.41l2.34-2
								c4.05-3.46,6.08-5.19,11.83-10.47c0.19-0.18,0.41-0.21,0.56-0.21c0.24,0,0.48,0.1,0.65,0.28l4.12,4.32
								c0.6,0.63,0.55,1.61-0.13,2.29c-3.05,3.06-9.38,8.88-13.31,11.85C386.63,418.79,386.19,419.09,385.88,419.09z"/>
							<path class="st136" d="M395.72,398.89l0.04,1.69l4.12,4.32c0.32,0.33,0.18,0.83-0.11,1.12c-3.04,3.04-9.32,8.83-13.22,11.78
								c-0.36,0.27-0.55,0.38-0.63,0.43c-0.05-0.04-0.13-0.11-0.23-0.22l-3.86-4.72c-0.08-0.1-0.13-0.26-0.15-0.37l2.19-1.87
								c4.06-3.46,6.09-5.2,11.84-10.48c0,0,0,0,0,0V398.89 M395.72,398.89c-0.4,0-0.8,0.14-1.12,0.43
								c-6.74,6.19-8.39,7.52-14.14,12.44c-0.7,0.6-0.5,1.86,0.09,2.57l3.86,4.72c0.53,0.62,1.01,0.86,1.47,0.86
								c0.56,0,1.09-0.35,1.68-0.79c3.92-2.96,10.18-8.71,13.4-11.93c0.96-0.96,1.08-2.47,0.14-3.46c0,0-3.09-3.24-4.12-4.32
								C396.63,399.08,396.18,398.89,395.72,398.89L395.72,398.89z"/>
						</g>
						<g>
							<path class="st42" d="M444.57,347.5c-0.2,0-0.46-0.08-0.78-0.23l-5.42-2.75c-0.51-0.26-0.9-0.89-0.74-1.21l1.33-2.77
								c2.31-4.8,3.46-7.21,6.59-14.36c0.13-0.3,0.44-0.5,0.78-0.5c0.12,0,0.23,0.02,0.34,0.07l5.52,2.28
								c0.8,0.33,1.15,1.26,0.81,2.14c-1.56,4.03-4.99,11.91-7.38,16.22C445.1,347.33,444.86,347.5,444.57,347.5z"/>
							<path class="st136" d="M446.33,324.86l0.02,1.68l5.52,2.28c0.43,0.18,0.5,0.68,0.35,1.07c-1.55,4.01-4.96,11.84-7.34,16.12
								c-0.21,0.37-0.33,0.55-0.41,0.64c-0.06-0.02-0.16-0.05-0.29-0.11l-5.44-2.76c-0.11-0.06-0.23-0.18-0.28-0.27l1.25-2.6
								c2.31-4.8,3.47-7.22,6.59-14.36c0,0,0.01-0.01,0.03-0.01V324.86 M446.33,324.86c-0.65,0-1.27,0.37-1.55,1
								c-3.67,8.39-4.63,10.27-7.91,17.1c-0.4,0.83,0.29,1.9,1.12,2.32l5.44,2.76c0.45,0.21,0.82,0.31,1.14,0.31
								c0.84,0,1.3-0.66,1.78-1.52c2.39-4.3,5.79-12.08,7.43-16.33c0.49-1.27-0.01-2.7-1.27-3.22c0,0-4.14-1.71-5.52-2.28
								C446.78,324.9,446.55,324.86,446.33,324.86L446.33,324.86z"/>
						</g>
						<g>
							<path class="st42" d="M461.09,305.88c-0.17,0-0.36-0.03-0.59-0.08l-5.87-1.59c-0.55-0.15-1.06-0.69-0.97-1.03l0.74-2.98
								c1.28-5.17,1.93-7.76,3.53-15.39c0.08-0.38,0.44-0.66,0.85-0.66c0.06,0,0.11,0.01,0.17,0.02l5.87,1.11
								c0.86,0.16,1.38,0.99,1.23,1.94c-0.71,4.26-2.46,12.68-3.93,17.38C461.74,305.75,461.52,305.88,461.09,305.88z"/>
							<path class="st136" d="M458.78,283.29l0.01,1.67l5.87,1.11c0.45,0.09,0.63,0.57,0.56,0.98c-0.7,4.24-2.45,12.6-3.91,17.27
								c-0.13,0.41-0.21,0.61-0.27,0.71c-0.07,0-0.17-0.02-0.31-0.05l-5.89-1.6c-0.12-0.03-0.26-0.13-0.33-0.21l0.69-2.8
								c1.29-5.18,1.93-7.77,3.53-15.41c0,0,0.02-0.01,0.04-0.01V283.29 M458.78,283.29c-0.79,0-1.5,0.54-1.67,1.33
								c-1.88,8.96-2.45,11-4.27,18.35c-0.22,0.9,0.67,1.8,1.56,2.04l5.89,1.6c0.3,0.07,0.56,0.11,0.79,0.11
								c1.11,0,1.48-0.81,1.82-1.89c1.46-4.69,3.22-13.01,3.96-17.5c0.22-1.34-0.56-2.64-1.9-2.89c0,0-4.4-0.84-5.87-1.11
								C459,283.3,458.89,283.29,458.78,283.29L458.78,283.29z"/>
						</g>
						<g>
							<path class="st42" d="M374.08,427.46c-1.48,0-2.88-0.88-3.65-2.29c-0.54-0.99-0.69-2.11-0.43-3.16
								c0.25-1.02,0.87-1.84,1.74-2.31c0.51-0.28,1.06-0.42,1.65-0.42c1.48,0,2.88,0.88,3.65,2.29c1.1,2.02,0.51,4.48-1.31,5.47
								C375.23,427.32,374.67,427.46,374.08,427.46z"/>
							<path class="st136" d="M373.39,420.12L373.39,420.12c1.16,0,2.3,0.73,2.92,1.86c0.44,0.81,0.57,1.72,0.36,2.56
								c-0.2,0.79-0.67,1.42-1.33,1.78c-0.38,0.21-0.8,0.31-1.25,0.31c-1.16,0-2.3-0.73-2.92-1.85c-0.88-1.62-0.44-3.56,0.98-4.33
								C372.53,420.23,372.95,420.12,373.39,420.12 M373.39,418.45c-0.7,0-1.4,0.17-2.05,0.52c-2.23,1.21-2.97,4.17-1.65,6.6
								c0.94,1.73,2.66,2.73,4.38,2.73c0.7,0,1.4-0.17,2.05-0.52c2.23-1.21,2.97-4.17,1.65-6.6
								C376.84,419.45,375.11,418.45,373.39,418.45L373.39,418.45z"/>
						</g>
						<g>
							<path class="st42" d="M407.48,397.92c-1.48,0-2.88-0.88-3.65-2.29c-1.1-2.02-0.51-4.48,1.31-5.47
								c0.51-0.28,1.06-0.42,1.65-0.42c1.48,0,2.88,0.88,3.65,2.29c0.54,0.99,0.69,2.11,0.43,3.16c-0.25,1.02-0.87,1.84-1.74,2.31
								C408.62,397.78,408.07,397.92,407.48,397.92z"/>
							<path class="st136" d="M406.79,390.58L406.79,390.58c1.16,0,2.3,0.73,2.92,1.86c0.44,0.81,0.57,1.72,0.36,2.56
								c-0.2,0.79-0.67,1.42-1.33,1.78c-0.38,0.21-0.8,0.31-1.25,0.31c-1.16,0-2.3-0.73-2.92-1.86c-0.88-1.62-0.44-3.56,0.97-4.33
								C405.92,390.69,406.34,390.58,406.79,390.58 M406.79,388.91c-0.7,0-1.4,0.17-2.05,0.52c-2.23,1.21-2.97,4.17-1.65,6.6
								c0.94,1.73,2.66,2.73,4.38,2.73c0.7,0,1.4-0.17,2.05-0.52c2.23-1.21,2.97-4.17,1.65-6.6
								C410.23,389.91,408.51,388.91,406.79,388.91L406.79,388.91z"/>
						</g>
					</g>
					<g>
						<g>
							<g>
								<path class="st42" d="M29.61,190.3c-0.12,0-0.24-0.01-0.35-0.04l-5.92-1.46c-0.97-0.26-1.08-0.5-0.8-1.84
									c1-4.83,3.55-13.04,5-17.11c0.25-0.7,0.87-1.17,1.54-1.17c0.16,0,0.32,0.03,0.47,0.08l5.67,1.87
									c0.45,0.15,0.71,0.62,0.58,1.06c-2.3,7.46-3,10.04-4.38,15.18l-0.8,2.96C30.55,190.09,30.1,190.3,29.61,190.3L29.61,190.3z"
									/>
								<path class="st136" d="M29.08,169.51c0.07,0,0.14,0.01,0.21,0.04l5.67,1.87c0.02,0.01,0.03,0.03,0.04,0.03c0,0,0,0,0,0
									c-2.3,7.46-3,10.04-4.39,15.19l-0.75,2.79c-0.06,0.02-0.15,0.04-0.25,0.04c-0.07,0-0.12-0.01-0.14-0.01L23.59,188
									c-0.16-0.04-0.27-0.09-0.33-0.12c0-0.12,0.02-0.33,0.11-0.75c0.99-4.79,3.52-12.95,4.97-17
									C28.46,169.76,28.77,169.51,29.08,169.51 M29.08,167.84c-1.03,0-1.96,0.69-2.33,1.73c-1.53,4.29-4.03,12.41-5.03,17.22
									c-0.28,1.33-0.32,2.35,1.42,2.82l5.92,1.46c0.17,0.04,0.36,0.06,0.54,0.06c0.79,0,1.62-0.37,1.81-1.09
									c1.98-7.31,2.47-9.36,5.17-18.11c0.27-0.88-0.24-1.81-1.11-2.1c-1.42-0.47-5.67-1.87-5.67-1.87
									C29.57,167.88,29.33,167.84,29.08,167.84L29.08,167.84z"/>
							</g>
							<g>
								<path class="st42" d="M78.56,98.32c-0.34,0-0.74-0.16-1-0.4l-4.5-4.11c-0.73-0.7-0.71-0.96,0.18-2
									c3.18-3.76,9.34-9.76,12.57-12.64c0.34-0.31,0.77-0.47,1.2-0.47c0.3,0,0.73,0.08,1.1,0.47l4.09,4.36
									c0.33,0.35,0.32,0.89,0,1.21c-5.59,5.45-7.43,7.38-11.1,11.23l-2.12,2.22C78.86,98.3,78.69,98.32,78.56,98.32
									C78.56,98.32,78.56,98.32,78.56,98.32z"/>
								<path class="st136" d="M87,79.54c0.19,0,0.36,0.07,0.49,0.21l4.08,4.35c0.02,0.02,0.02,0.04,0.02,0.04
									c-5.6,5.46-7.45,7.4-11.13,11.26l-1.98,2.08c-0.12-0.02-0.27-0.09-0.36-0.17l-4.47-4.09c-0.12-0.12-0.19-0.2-0.23-0.26
									c0.06-0.1,0.18-0.28,0.46-0.61c3.16-3.74,9.28-9.69,12.49-12.56C86.55,79.63,86.78,79.54,87,79.54 M87,77.86
									c-0.62,0-1.25,0.24-1.75,0.69c-3.39,3.03-9.47,8.97-12.65,12.72c-0.88,1.04-1.4,1.91-0.1,3.15l4.5,4.11
									c0.4,0.37,1.01,0.61,1.56,0.61c0.38,0,0.74-0.12,1-0.39c5.23-5.47,6.65-7.04,13.2-13.44c0.66-0.64,0.66-1.7,0.03-2.38
									c-1.02-1.09-4.09-4.36-4.09-4.36C88.24,78.1,87.63,77.86,87,77.86L87,77.86z"/>
							</g>
							<g>
								<path class="st42" d="M44.83,148.54c-0.24,0-0.49-0.05-0.68-0.15l-5.48-2.67c-0.89-0.46-0.95-0.72-0.4-1.97
									c1.99-4.51,6.19-12.01,8.46-15.69c0.33-0.53,0.88-0.86,1.45-0.86c0.26,0,0.52,0.07,0.75,0.21l5.15,3.02
									c0.41,0.24,0.56,0.76,0.34,1.16c-3.81,6.81-5.03,9.19-7.46,13.93l-1.4,2.73C45.47,148.43,45.19,148.54,44.83,148.54
									C44.83,148.54,44.83,148.54,44.83,148.54z"/>
								<path class="st136" d="M48.17,128.05c0.11,0,0.22,0.03,0.33,0.09l5.15,3.02c0.02,0.01,0.03,0.03,0.03,0.03l0,0
									c-3.82,6.82-5.04,9.21-7.47,13.95l-1.31,2.56c-0.02,0-0.05,0-0.07,0c-0.14,0-0.26-0.03-0.32-0.06l-5.45-2.65
									c-0.15-0.08-0.24-0.14-0.3-0.18c0.03-0.11,0.09-0.32,0.27-0.71c1.97-4.48,6.15-11.93,8.41-15.58
									C47.61,128.23,47.9,128.05,48.17,128.05 M48.17,126.38c-0.85,0-1.67,0.47-2.16,1.26c-2.39,3.87-6.53,11.29-8.51,15.79
									c-0.55,1.24-0.81,2.23,0.8,3.05l5.48,2.67c0.31,0.15,0.68,0.23,1.05,0.23c0.61,0,1.21-0.23,1.47-0.74
									c3.46-6.73,4.37-8.64,8.84-16.63c0.45-0.8,0.15-1.82-0.65-2.29c-1.29-0.75-5.15-3.02-5.15-3.02
									C48.97,126.48,48.57,126.38,48.17,126.38L48.17,126.38z"/>
							</g>
							<g>
								<path class="st42" d="M99.42,77.29c-0.35,0-0.8-0.23-1.06-0.53l-3.94-4.66c-0.63-0.78-0.58-1.04,0.43-1.96
									c3.64-3.32,10.51-8.48,14.08-10.93c0.32-0.22,0.67-0.33,1.04-0.33c0.51,0,0.95,0.22,1.24,0.62l3.5,4.84
									c0.28,0.39,0.21,0.92-0.16,1.2c-6.23,4.69-8.31,6.37-12.44,9.72l-2.39,1.94C99.69,77.23,99.61,77.29,99.42,77.29
									C99.42,77.29,99.42,77.29,99.42,77.29z"/>
								<path class="st136" d="M109.97,59.73c0.16,0,0.39,0.05,0.56,0.28l3.5,4.84c0.01,0.02,0.01,0.04,0.02,0.04
									c-6.24,4.69-8.32,6.38-12.46,9.73l-2.25,1.82c-0.1-0.03-0.25-0.12-0.33-0.21l-3.92-4.63c-0.11-0.13-0.17-0.23-0.2-0.29
									c0.07-0.09,0.22-0.26,0.53-0.54c3.61-3.3,10.44-8.42,13.99-10.86C109.58,59.79,109.78,59.73,109.97,59.73 M109.97,58.05
									c-0.52,0-1.05,0.16-1.51,0.48c-3.75,2.58-10.54,7.69-14.17,11c-1,0.92-1.64,1.71-0.5,3.12l3.94,4.65
									c0.4,0.47,1.08,0.82,1.69,0.82c0.3,0,0.58-0.08,0.82-0.27c5.89-4.76,7.49-6.14,14.81-11.64c0.74-0.55,0.87-1.61,0.33-2.35
									c-0.87-1.21-3.5-4.84-3.5-4.84C111.42,58.38,110.71,58.05,109.97,58.05L109.97,58.05z"/>
							</g>
							<g>
								<path class="st42" d="M134.9,52.38c-0.35,0-0.84-0.34-1.06-0.75l-2.91-5.36c-0.46-0.89-0.35-1.14,0.82-1.83
									c4.24-2.51,12.02-6.17,16.01-7.84c0.24-0.1,0.48-0.15,0.73-0.15c0.65,0,1.19,0.34,1.44,0.9l2.44,5.45
									c0.19,0.43,0.02,0.95-0.4,1.14c-7.06,3.32-9.43,4.55-14.16,6.99l-2.73,1.41C135.03,52.37,134.97,52.38,134.9,52.38z"/>
								<path class="st136" d="M148.49,37.29c0.15,0,0.51,0.04,0.67,0.4l2.44,5.45c0.01,0.02,0,0.04,0.01,0.04
									c-7.08,3.33-9.46,4.56-14.2,7.01l-2.55,1.31c-0.1-0.06-0.22-0.16-0.28-0.28l-2.89-5.33c-0.08-0.15-0.12-0.26-0.14-0.32
									c0.09-0.08,0.26-0.21,0.63-0.42c4.21-2.5,11.94-6.13,15.9-7.79C148.22,37.32,148.35,37.29,148.49,37.29 M148.49,35.62
									c-0.35,0-0.71,0.07-1.05,0.21c-4.2,1.76-11.88,5.38-16.11,7.89c-1.17,0.69-1.95,1.34-1.13,2.95l2.91,5.36
									c0.35,0.64,1.09,1.18,1.79,1.18c0.19,0,0.38-0.04,0.55-0.13c6.73-3.46,8.58-4.48,16.87-8.39c0.83-0.39,1.18-1.4,0.8-2.24
									c-0.61-1.36-2.44-5.45-2.44-5.45C150.29,36.11,149.42,35.62,148.49,35.62L148.49,35.62z"/>
							</g>
							<g>
								<path class="st42" d="M36.79,161.64c-0.4,0-0.81-0.05-1.2-0.16c-2.22-0.6-3.59-2.72-3.05-4.72c0.43-1.59,2-2.7,3.81-2.7
									c0.4,0,0.81,0.05,1.2,0.16c2.22,0.6,3.59,2.72,3.05,4.72C40.17,160.53,38.6,161.64,36.79,161.64
									C36.79,161.64,36.79,161.64,36.79,161.64z"/>
								<path class="st136" d="M36.34,154.9c0.33,0,0.66,0.04,0.99,0.13c0.89,0.24,1.63,0.78,2.09,1.51
									c0.43,0.68,0.56,1.46,0.37,2.19c-0.33,1.23-1.57,2.08-3,2.08c-0.33,0-0.66-0.04-0.99-0.13c-0.89-0.24-1.63-0.78-2.09-1.51
									c-0.43-0.68-0.56-1.46-0.37-2.19C33.67,155.75,34.91,154.9,36.34,154.9 M36.34,153.23c-2.15,0-4.07,1.3-4.62,3.32
									c-0.66,2.45,0.96,5.02,3.64,5.75c0.48,0.13,0.96,0.19,1.42,0.19c2.15,0,4.07-1.3,4.62-3.32c0.66-2.45-0.96-5.02-3.64-5.75
									C37.29,153.29,36.81,153.23,36.34,153.23L36.34,153.23z"/>
							</g>
							<g>
								<path class="st42" d="M57.82,122.33c-0.4,0-0.81-0.05-1.2-0.16c-1.09-0.3-2.01-0.96-2.58-1.87
									c-0.56-0.89-0.73-1.9-0.47-2.85c0.43-1.59,2-2.7,3.81-2.7c0.4,0,0.81,0.05,1.2,0.16c1.09,0.3,2.01,0.96,2.58,1.87
									c0.56,0.89,0.73,1.9,0.47,2.85C61.2,121.22,59.64,122.33,57.82,122.33C57.82,122.33,57.82,122.33,57.82,122.33z"/>
								<path class="st136" d="M57.38,115.59c0.33,0,0.66,0.04,0.99,0.13c0.89,0.24,1.63,0.78,2.09,1.51
									c0.43,0.68,0.56,1.46,0.37,2.19c-0.33,1.23-1.57,2.08-3,2.08c-0.33,0-0.66-0.04-0.99-0.13c-1.78-0.48-2.88-2.14-2.46-3.7
									C54.71,116.44,55.94,115.59,57.38,115.59 M57.38,113.91c-2.15,0-4.07,1.3-4.62,3.32c-0.66,2.45,0.96,5.02,3.64,5.75
									c0.48,0.13,0.96,0.19,1.42,0.19c2.15,0,4.07-1.3,4.62-3.32c0.66-2.45-0.96-5.02-3.64-5.75
									C58.33,113.98,57.85,113.91,57.38,113.91L57.38,113.91z"/>
							</g>
						</g>
					</g>
				</g>
			</g>
			
				<radialGradient id="SVGID_3_" cx="856.0471" cy="294.3875" r="322.1393" gradientTransform="matrix(1.036 0 0 1.036 -643.9993 -61.5774)" gradientUnits="userSpaceOnUse">
				<stop  offset="0" style="stop-color:#5B00F7"/>
				<stop  offset="0.2043" style="stop-color:#5300E2"/>
				<stop  offset="0.6228" style="stop-color:#4000AD"/>
				<stop  offset="1" style="stop-color:#2C0078"/>
			</radialGradient>
			<path style="fill:url(#SVGID_3_);" d="M297.93,245.49v-4.18h128.76c-0.36-31.95-8.87-61.94-23.55-88.01l-2.71,1.56L291.59,217.7
				l-2.08-3.63l108.83-62.83l2.7-1.56c-15.73-26.49-37.93-48.69-64.42-64.42l-1.56,2.7l-62.83,108.83l-3.63-2.09l62.83-108.83
				l1.56-2.71c-26.06-14.67-56.06-23.19-88.01-23.55v128.76h-4.18V59.61c-31.95,0.36-61.96,8.86-88.02,23.55l1.56,2.71l62.83,108.83
				l-3.61,2.09L150.72,87.96l-1.56-2.71c-26.5,15.73-48.71,37.93-64.44,64.44l2.7,1.56l108.84,62.83l-2.09,3.63L85.33,154.86
				l-2.7-1.56c-14.69,26.06-23.2,56.07-23.56,88.02h128.78v4.18H59.07c0.36,31.96,8.87,61.97,23.56,88.04l2.7-1.56l108.84-62.85
				l2.09,3.61L87.43,335.57v0.01l-2.71,1.55c15.73,26.5,37.95,48.72,64.45,64.45l1.55-2.71h0.01l62.83-108.84l3.61,2.09
				l-62.85,108.84l-1.56,2.7c26.06,14.69,56.07,23.2,88.02,23.56V298.44h4.19v128.78c31.95-0.36,61.96-8.87,88.02-23.56l-1.56-2.7
				l-62.85-108.84l3.63-2.09l62.83,108.84l1.56,2.7c26.5-15.73,48.71-37.93,64.44-64.44l-2.71-1.56l-108.83-62.83l2.08-3.61
				l108.84,62.83l2.71,1.56c14.69-26.06,23.19-56.07,23.55-88.02H297.93z"/>
			<g>
				<path class="st138" d="M214.92,257.68c-8.59,0-13.56-6.27-13.56-14.39c0-7.69,5.05-14.15,13.56-14.15
					c5.64,0,10.25,2.56,10.25,5.95c0,1.89-0.95,3.27-3.04,3.27c-2.48,0-3.07-2.6-7.02-2.6c-4.38,0-7.25,3.43-7.25,7.49
					c0,4.53,2.96,7.84,7.29,7.84c4.18,0,5.05-2.37,7.33-2.37c1.89,0,2.92,1.3,2.92,3.15C225.41,255.32,220.87,257.68,214.92,257.68z
					"/>
				<path class="st138" d="M237.23,236.16h-4.77c-1.97,0-3.15-1.46-3.15-3.19c0-1.73,1.18-3.19,3.15-3.19h15.77
					c1.97,0,3.15,1.46,3.15,3.19c0,1.73-1.18,3.19-3.15,3.19h-4.69v17.93c0,2.09-1.46,3.15-3.19,3.15c-1.7,0-3.11-1.06-3.11-3.15
					V236.16z"/>
				<path class="st138" d="M280.78,239.79c0-2.88-1.46-4.38-4.18-4.38c-2.64,0-4.14,1.77-4.14,4.45v14.35c0,2.01-1.3,3.03-3,3.03
					c-1.73,0-3-1.02-3-3.03v-14.35c0-2.68-1.46-4.45-4.1-4.45c-2.72,0-4.18,1.5-4.18,4.38v14.35c0,1.97-1.46,3.11-3.11,3.11
					c-1.73,0-3.19-1.14-3.19-3.11v-14.15c0-7.29,3.19-10.84,9.14-10.84c4.53,0,7.29,2.01,8.44,4.73c1.14-2.72,3.86-4.73,8.36-4.73
					c5.95,0,9.3,3.55,9.3,10.84v14.15c0,1.97-1.46,3.11-3.19,3.11c-1.66,0-3.15-1.14-3.15-3.11V239.79z"/>
			</g>
		</g>
	</g>
</g>
<g id="LogoOnText">
</g>
</svg>
