<?xml version="1.0" encoding="utf-8"?>
<svg viewBox="546.399 -558.35 469.612 385.126" xmlns="http://www.w3.org/2000/svg">
  <g transform="matrix(-1, 0, 0, 1, 1185.447144, 23.706789)">
    <title>Layer 1</title>
    <g stroke="null" id="svg_33" transform="matrix(1, 0, 0, 1, 151.653015, -649.305298)">
      <path stroke="null" id="svg_34" d="m161.33749,213.22208c-7.10682,1.65089 -9.21255,7.42899 -12.89756,11.55621c-17.10901,18.9852 -33.42838,39.34614 -55.80171,52.00294c-22.89976,13.2071 -46.85238,18.15976 -74.75323,4.95266c14.21364,-9.07988 26.05834,-17.05917 38.42948,-24.21301c9.21255,-5.50296 15.79294,-12.93195 16.8458,-23.93786c5.26431,-65.21004 36.85018,-112.26032 91.59903,-142.52658c77.91182,-42.92306 173.72229,-26.13905 229.78722,39.89644c12.89756,15.40828 23.42619,32.46745 31.84909,54.20413c-15.79294,-3.85207 -27.90085,-4.40237 -36.58697,-19.26035c-25.79513,-43.74851 -66.06711,-62.45856 -113.44592,-69.06211c-49.22132,-6.8787 -92.91511,4.67751 -130.81815,38.79585c-17.63544,15.95857 -28.6905,36.59466 -38.95591,61.63312c51.32704,-49.80176 101.86444,-93.82541 173.98551,-50.90235c-24.74227,7.15384 -47.37881,17.88461 -65.27747,37.69525c-33.6916,37.42011 -42.64093,101.25441 0.52643,132.89641c8.4229,6.3284 18.16188,8.80473 28.16407,11.83136c-23.42619,11.00591 -45.79951,11.28106 -65.01425,-4.12722c-10.00219,-7.97929 -19.47795,-18.9852 -22.89976,-33.56804c-5.0011,-22.56212 -5.0011,-44.8491 3.94823,-66.31063c1.84251,-3.85207 1.84251,-7.15384 1.31608,-11.55621z" fill="#ffffff" transform="rotate(-0.0434195 222.14 202.041)"/>
      <path transform="rotate(-0.0434195 280.157 314.8)" stroke="null" id="svg_35" d="M 192.482 442.927 C 137.734 425.867 101.147 388.172 77.984 334.794 C 95.882 333.693 107.464 341.122 118.782 357.906 C 155.632 412.385 209.855 429.72 270.921 423.666 C 320.668 418.989 360.94 395.051 386.472 348.276 C 389.894 342.222 393.579 336.169 393.842 327.64 C 344.621 374.415 294.61 414.036 225.121 374.14 C 228.28 368.912 233.018 368.362 237.755 367.261 C 291.188 354.604 325.933 302.601 317.247 248.397 C 312.509 218.131 295.926 201.072 261.445 190.616 C 299.348 168.879 342.252 190.066 350.938 233.539 C 355.676 256.652 350.149 278.663 345.411 302.601 C 358.571 289.119 369.89 277.012 381.998 265.456 C 403.318 244.82 425.912 223.358 456.181 223.358 C 465.131 223.358 490.393 226.943 486.979 229.966 C 478.306 237.645 486.904 230.164 465.226 248.673 C 453.602 258.598 455.698 257.752 452.013 260.504 C 439.642 269.033 432.535 280.039 430.956 296.548 C 426.218 342.773 404.634 379.918 369.89 408.533 C 359.098 417.613 346.99 425.042 334.356 431.095 C 329.091 430.27 324.617 431.37 319.616 433.572 C 284.081 449.53 246.968 449.805 209.591 444.577 C 203.537 444.577 198.8 437.974 192.482 442.927 Z" fill="#ffffff"/>
      <path stroke="null" id="svg_36" d="m253.50675,293.267c-18.16188,0 -35.00767,-15.95857 -33.16517,-34.39348c1.57929,-15.95857 13.16078,-33.01774 32.63873,-32.46745c18.16188,0.27515 32.1123,14.85798 32.1123,33.84318c-0.26322,18.15976 -14.47686,33.01774 -31.58587,33.01774z" fill="#ffffff" transform="rotate(-0.0434195 252.648 259.83)"/>
      <path transform="rotate(-0.0434195 108.238 294.943)" stroke="null" id="svg_37" d="m67.96632,309.05988c27.37442,-8.80473 48.69489,-26.96449 71.06821,-47.60058c0,20.36094 -1.31608,39.07099 9.47576,54.75442c-29.74336,18.43491 -57.90743,15.95857 -80.54397,-7.15384z" fill="#ffffff"/>
      <path transform="rotate(-0.0434195 396.802 225.658)" stroke="null" id="svg_38" d="m365.61074,259.86486c1.57929,-22.28698 0,-40.17159 -8.94933,-56.40531c29.21693,-18.15976 60.01316,-15.68343 80.28076,7.15384c-27.63764,7.97929 -50.01096,24.76331 -71.33143,49.25146z" fill="#ffffff"/>
      <path transform="rotate(-0.0434195 263.252 441.853)" stroke="null" id="svg_39" d="M 192.579 442.939 C 198.896 437.987 204.191 437.699 209.718 438.25 C 247.095 443.477 281.174 444.854 316.708 428.895 C 321.446 426.694 328.661 430.833 333.925 431.658 C 288.126 454.496 241.01 458.623 192.579 442.939 Z" fill="#ffffff"/>
    </g>
  </g>
</svg>