<?xml version="1.0" encoding="utf-8"?>
<svg width="512" height="512" enable-background="new 0 0 712 430" version="1.1" xmlns="http://www.w3.org/2000/svg">
  <g transform="matrix(-0.069756, 0.997564, 0.997564, 0.069756, 1197.425171, -742.850891)">
    <title>Layer 1</title>
    <g stroke="null" id="svg_33" transform="matrix(1, 0, 0, 1, 151.653015, -649.305298)">
      <path stroke="null" id="svg_34" d="m161.33749,213.22208c-7.10682,1.65089 -9.21255,7.42899 -12.89756,11.55621c-17.10901,18.9852 -33.42838,39.34614 -55.80171,52.00294c-22.89976,13.2071 -46.85238,18.15976 -74.75323,4.95266c14.21364,-9.07988 26.05834,-17.05917 38.42948,-24.21301c9.21255,-5.50296 15.79294,-12.93195 16.8458,-23.93786c5.26431,-65.21004 36.85018,-112.26032 91.59903,-142.52658c77.91182,-42.92306 173.72229,-26.13905 229.78722,39.89644c12.89756,15.40828 23.42619,32.46745 31.84909,54.20413c-15.79294,-3.85207 -27.90085,-4.40237 -36.58697,-19.26035c-25.79513,-43.74851 -66.06711,-62.45856 -113.44592,-69.06211c-49.22132,-6.8787 -92.91511,4.67751 -130.81815,38.79585c-17.63544,15.95857 -28.6905,36.59466 -38.95591,61.63312c51.32704,-49.80176 101.86444,-93.82541 173.98551,-50.90235c-24.74227,7.15384 -47.37881,17.88461 -65.27747,37.69525c-33.6916,37.42011 -42.64093,101.25441 0.52643,132.89641c8.4229,6.3284 18.16188,8.80473 28.16407,11.83136c-23.42619,11.00591 -45.79951,11.28106 -65.01425,-4.12722c-10.00219,-7.97929 -19.47795,-18.9852 -22.89976,-33.56804c-5.0011,-22.56212 -5.0011,-44.8491 3.94823,-66.31063c1.84251,-3.85207 1.84251,-7.15384 1.31608,-11.55621z" fill="#ffffff" transform="rotate(-0.0434195 222.14 202.041)"/>
      <path stroke="null" id="svg_36" d="m253.50675,293.267c-18.16188,0 -35.00767,-15.95857 -33.16517,-34.39348c1.57929,-15.95857 13.16078,-33.01774 32.63873,-32.46745c18.16188,0.27515 32.1123,14.85798 32.1123,33.84318c-0.26322,18.15976 -14.47686,33.01774 -31.58587,33.01774z" fill="#ffffff" transform="rotate(-0.0434195 252.648 259.83)"/>
      <path transform="rotate(-0.0434195 108.238 294.943)" stroke="null" id="svg_37" d="m67.96632,309.05988c27.37442,-8.80473 48.69489,-26.96449 71.06821,-47.60058c0,20.36094 -1.31608,39.07099 9.47576,54.75442c-29.74336,18.43491 -57.90743,15.95857 -80.54397,-7.15384z" fill="#ffffff"/>
      <path transform="rotate(-0.0434195 396.802 225.658)" stroke="null" id="svg_38" d="m365.61074,259.86486c1.57929,-22.28698 0,-40.17159 -8.94933,-56.40531c29.21693,-18.15976 60.01316,-15.68343 80.28076,7.15384c-27.63764,7.97929 -50.01096,24.76331 -71.33143,49.25146z" fill="#ffffff"/>
    </g>
  </g>
  <g transform="matrix(-0.069756, 0.997564, 0.997564, 0.069756, 946.749329, -499.080017)">
    <title>Layer 1</title>
    <g stroke="null" id="g-1" transform="matrix(1, 0, 0, 1, 151.653015, -649.305298)">
      <path stroke="null" id="path-1" d="M -36.764 561.551 C -43.871 563.202 -45.977 568.98 -49.662 573.107 C -66.771 592.092 -83.09 612.453 -105.464 625.11 C -128.364 638.317 -152.316 643.27 -180.217 630.063 C -166.003 620.983 -154.159 613.004 -141.788 605.85 C -132.575 600.347 -125.995 592.918 -124.942 581.912 C -119.677 516.702 -88.092 469.652 -33.343 439.385 C 44.569 396.462 140.38 413.246 196.445 479.282 C 209.342 494.69 219.871 511.749 228.294 533.486 C 212.501 529.634 200.393 529.084 191.707 514.226 C 165.912 470.477 125.64 451.767 78.261 445.164 C 29.039 438.285 -14.654 449.841 -52.557 483.959 C -70.193 499.918 -81.248 520.554 -91.513 545.593 C -40.186 495.791 10.351 451.767 82.472 494.69 C 57.73 501.844 35.093 512.575 17.195 532.385 C -16.497 569.806 -25.446 633.64 17.721 665.282 C 26.144 671.61 35.883 674.087 45.885 677.113 C 22.459 688.119 0.086 688.394 -19.129 672.986 C -29.131 665.007 -38.607 654.001 -42.029 639.418 C -47.03 616.856 -47.03 594.569 -38.081 573.107 C -36.238 569.255 -36.238 565.953 -36.764 561.551 Z" fill="#ffffff" transform="matrix(-1, 0.00006, -0.00006, -1, 48.110018, 1100.738364)"/>
    </g>
  </g>
</svg>