<?xml version="1.0" encoding="utf-8"?>
<!-- Generator: Adobe Illustrator 18.0.0, SVG Export Plug-In . SVG Version: 6.00 Build 0)  -->
<!DOCTYPE svg PUBLIC "-//W3C//DTD SVG 1.1//EN" "http://www.w3.org/Graphics/SVG/1.1/DTD/svg11.dtd">
<svg version="1.1" id="Layer_1" xmlns="http://www.w3.org/2000/svg" xmlns:xlink="http://www.w3.org/1999/xlink" x="0px" y="0px"
	 viewBox="0 0 712 430" enable-background="new 0 0 712 430" xml:space="preserve">
<g>
	<g>
		<path fill="#FFFFFF" d="M457.9-410.5L457.9-410.5c-2.1,0.1-3.9-1.4-4-3.5L447-522.3c-0.1-2.1,1.4-3.9,3.5-4h0
			c21.8-1.4,40.5,15.1,41.9,36.9l2.4,36.9C496.2-430.7,479.7-411.9,457.9-410.5z"/>
		<path fill="#371A45" d="M457.6-409.8c-2.4,0-4.3-1.8-4.5-4.2l-6.9-108.2c-0.2-2.5,1.7-4.6,4.2-4.8c22.2-1.4,41.3,15.4,42.7,37.6
			l2.4,36.9c0.7,10.7-2.8,21.1-9.9,29.1c-7.1,8.1-16.9,12.9-27.6,13.6l0,0C457.8-409.8,457.7-409.8,457.6-409.8z M457.9-410.5
			L457.9-410.5L457.9-410.5z M453.1-525.6c-0.8,0-1.7,0-2.5,0.1c-0.8,0.1-1.5,0.4-2.1,1c-0.5,0.6-0.8,1.4-0.7,2.2l6.9,108.2
			c0.1,1.7,1.5,2.9,3.2,2.8c10.3-0.7,19.8-5.3,26.6-13.1c6.8-7.8,10.2-17.7,9.6-28.1l-2.4-36.9c-0.7-10.3-5.3-19.8-13.1-26.6
			C471.5-522.2,462.5-525.6,453.1-525.6z"/>
	</g>
	<g>
		<path fill="#371A45" d="M457.6-403.6c-5.6,0-10.3-4.4-10.7-10.1L440-521.8c-0.4-5.9,4.1-11,10-11.4c12.4-0.8,24.3,3.3,33.7,11.5
			c9.3,8.2,14.9,19.5,15.7,31.9l2.4,36.9c0.8,12.4-3.3,24.3-11.5,33.7c-8.2,9.3-19.5,14.9-31.9,15.7c0,0,0,0,0,0
			C458.1-403.6,457.9-403.6,457.6-403.6z M457.9-410.5L457.9-410.5L457.9-410.5z M454.2-519.3l6.5,101.5
			c16.3-2.7,28.2-17.3,27.2-34.2l-2.4-36.9c-0.6-8.7-4.4-16.6-11-22.3C468.8-516.3,461.7-519.1,454.2-519.3z"/>
	</g>
	<g>
		<path fill="#FFFFFF" d="M93.4-503.4L93.4-503.4c2.1-0.1,3.9,1.4,4,3.5l6.9,108.2c0.1,2.1-1.4,3.9-3.5,4h0
			c-21.8,1.4-40.5-15.1-41.9-36.9l-2.4-36.9C55.1-483.3,71.6-502,93.4-503.4z"/>
		<path fill="#371A45" d="M98.2-386.9c-9.8,0-19.1-3.5-26.5-10c-8.1-7.1-12.9-16.9-13.6-27.6l-2.4-36.9c-0.7-10.7,2.8-21.1,9.9-29.1
			c7.1-8.1,16.9-12.9,27.6-13.6l0,0c2.5-0.1,4.6,1.7,4.8,4.2l6.9,108.2c0.1,1.2-0.3,2.4-1.1,3.3c-0.8,0.9-1.9,1.4-3.1,1.5
			C99.9-386.9,99.1-386.9,98.2-386.9z M93.4-502.7c-10.3,0.7-19.8,5.3-26.6,13.1c-6.8,7.8-10.2,17.7-9.6,28.1l2.4,36.9
			c0.7,10.3,5.3,19.8,13.1,26.6c7.8,6.8,17.7,10.2,28.1,9.6c0.8-0.1,1.5-0.4,2.1-1c0.5-0.6,0.8-1.4,0.7-2.2l-6.9-108.2
			C96.5-501.5,95.1-502.8,93.4-502.7L93.4-502.7z"/>
	</g>
	<g opacity="0.35">
		<path fill="#371A45" d="M102.4-421.7l1.9,30c0.1,2.1-1.5,3.9-3.5,4c-11.4,0.7-22-3.5-29.7-10.8c-7-6.6-11.5-15.8-12.2-26.1
			l-1-15.5c7,13.2,21.4,21.9,37.4,20.8l3.9-0.3C100.6-419.6,101.8-420.5,102.4-421.7z"/>
	</g>
	<g>
		<path fill="#371A45" d="M98.2-380.7c-24.3,0-44.8-18.9-46.3-43.5l-2.4-36.9c-0.8-12.4,3.3-24.3,11.5-33.7
			c8.2-9.3,19.5-14.9,31.9-15.7c0,0,0,0,0,0c5.9-0.4,11,4.1,11.4,10l6.9,108.2c0.2,2.9-0.8,5.6-2.7,7.8c-1.9,2.2-4.5,3.4-7.4,3.6
			C100.2-380.7,99.2-380.7,98.2-380.7z M90.6-496.1c-16.3,2.7-28.2,17.3-27.2,34.2l2.4,36.9c0.6,8.7,4.4,16.6,11,22.3
			c5.7,5,12.8,7.8,20.3,8.1L90.6-496.1z"/>
	</g>
	<g>
		<circle fill="#FFFFFF" cx="275.7" cy="-457" r="184.7"/>
		<path fill="#371A45" d="M275.7-271.5c-0.5,0-0.9,0-1.3,0C172.1-272.2,89.4-356,90.2-458.3c0.7-101.8,83.8-184.2,185.5-184.2
			c0.5,0,0.9,0,1.3,0c49.5,0.4,96,20,130.8,55.3c34.8,35.3,53.7,82,53.4,131.5C460.4-353.8,377.3-271.5,275.7-271.5z M275.6-641
			c-48.6,0-94.5,18.8-129.1,53c-35,34.5-54.5,80.6-54.8,129.7c-0.4,49.1,18.5,95.5,53,130.5c34.5,35,80.6,54.5,129.7,54.8
			c49.1,0.3,95.5-18.5,130.5-53c35-34.5,54.5-80.6,54.8-129.7c0.4-49.1-18.5-95.5-53-130.5c-34.5-35-80.6-54.5-129.7-54.8
			C276.5-641,276.1-641,275.6-641z"/>
	</g>
	<g opacity="0.35">
		<path fill="#371A45" d="M458.8-481.3c1.1,8.4,1.7,16.9,1.6,25.6c-0.7,102-84,184.1-186.1,183.4c-102-0.7-184.1-84-183.4-186.1
			c0-2.9,0.1-5.9,0.3-8.8c11.8,90,88.5,159.8,181.8,160.5C372.1-305.9,453.5-383.3,458.8-481.3z"/>
	</g>
	<g>
		<path fill="#371A45" d="M275.7-265.3c-0.5,0-0.9,0-1.4,0c-51.2-0.4-99.2-20.7-135.2-57.1s-55.5-84.8-55.2-136
			c0.4-51.2,20.7-99.2,57.1-135.2c36.5-36,84.8-55.6,136-55.2c51.2,0.4,99.2,20.7,135.2,57.1c36,36.5,55.5,84.8,55.2,136
			c-0.4,51.2-20.7,99.2-57.1,135.2C374.1-284.8,326.4-265.3,275.7-265.3z M275.6-634.8c-47,0-91.3,18.1-124.8,51.2
			c-33.8,33.3-52.6,77.8-53,125.3s17.8,92.3,51.2,126.1c33.3,33.8,77.8,52.6,125.3,53c47.5,0.3,92.3-17.8,126.1-51.2
			c33.8-33.3,52.6-77.8,53-125.3c0.3-47.5-17.8-92.3-51.2-126.1c-33.3-33.8-77.8-52.6-125.3-53C276.5-634.8,276.1-634.8,275.6-634.8
			z"/>
	</g>
	<g>
		<path fill="#371A45" d="M459.8-450.9c0.3,36.2-11.2,69.8-31,97.7c-14.9,20.9-76.4,57.9-152.8,59.2c-70.8,1.2-135.5-36-150.8-56.7
			c-20.3-27.6-32.3-61.1-32.6-97.2c-0.8-95.7,81.1-136,182.5-136.8C376.5-585.6,459-546.6,459.8-450.9z"/>
	</g>
	<g>
		<path fill="#371A45" d="M272.5-289.8c-71.7,0-135-37.2-150.7-58.5c-21.6-29.3-33.1-63.8-33.4-99.7c-0.4-46.7,18.1-82.9,54.8-107.5
			c32.1-21.5,77.7-33.1,131.8-33.5c54.2-0.4,99.9,10.4,132.4,31.4c37.1,24,56.1,59.9,56.5,106.6l0,0c0.3,35.9-10.7,70.5-31.8,100.2
			c-14.6,20.6-75.4,59.5-156.1,60.9C274.8-289.9,273.7-289.8,272.5-289.8z M277.9-580.6c-0.9,0-1.8,0-2.7,0
			C221.2-580.2,95.8-566.4,96.8-448c0.3,34.1,11.3,66.9,31.8,94.8c14.3,19.5,76,55.1,144,55.1c1.1,0,2.2,0,3.3,0
			c76.8-1.3,136.2-38.6,149.5-57.4c20.1-28.2,30.5-61.2,30.3-95.3l0,0C454.7-567.3,333.2-580.6,277.9-580.6z"/>
	</g>
	<g opacity="0.7">
		
			<ellipse transform="matrix(-0.9854 -0.1705 0.1705 -0.9854 873.1466 -851.927)" fill="#FFFFFF" cx="400" cy="-463.4" rx="23.7" ry="32.7"/>
	</g>
	<g opacity="0.35">
		<path fill="#121A28" d="M423.4-539.9c22.6,21.2,36.1,50.5,36.4,89c0.3,36.2-11.2,69.8-31,97.7c-14.9,20.9-76.5,57.9-152.8,59.2
			c-27,0.5-53-4.7-75.8-12.3c93.8-3.6,168.8-48.9,187.3-74.9c25.2-35.4,39.7-78.2,39.4-124C426.6-517.5,425.5-529.1,423.4-539.9z"/>
	</g>
	<g>
		<path fill="#371A45" d="M111.3-525.4l-11-8.6l5.1,4.1l-5.5-3.7c32.4-48.6,95.8-76.8,173.9-77.4c77.6-0.6,141.2,25.6,175,72
			c2,2.6,1.9,6.2-0.2,8.8c-2.5,2.9-6.9,3.3-9.8,0.8c-0.4-0.4-0.8-0.8-1.1-1.2c-31-42.8-90.7-67-163.7-66.4
			c-73.4,0.6-132.6,26.5-162.4,71.2C111.5-525.7,111.4-525.5,111.3-525.4z M105.8-529.7L105.8-529.7L105.8-529.7z"/>
	</g>
	<g opacity="0.7">
		<path fill="#FFFFFF" d="M134.3-391.4c0,0-30.4-94.1,20.2-132.2s123.7-38.4,122.1-33.7c0,0-80.9,20.3-112,84.6
			C140.4-423.2,134.3-391.4,134.3-391.4z"/>
	</g>
</g>
<g>
	<path fill="#113F62" d="M266.7,208.9c4.9,4.1,10.1,7.9,15.7,11.1c4.6,2.7,9.4,5,14.7,6.1c3.4,0.7,6.8,0.5,10-0.9
		c4.8-2.1,9.6-4.2,14.7-5.5c8.8-2.3,17-0.2,24.9,3.5c-3.8-0.5-7.6-0.7-11.4-0.6c-5,0.2-9.7,2.8-12.4,6.7c9.2,5.7,26.3,7.4,44.1-5.3
		c-1.6,2.9-3.7,5.1-6,7c-5.8,4.7-12.5,7.2-19.7,8.8c-13.5,3-26.8,2.6-39.8-2.3c-8.5-3.2-16-8-22.3-14.6c-3.8-3.9-7.5-7.8-11-11.9
		c-0.6-0.7-1.1-1.4-1.7-2.1C266.5,209,266.6,209,266.7,208.9z"/>
	<path fill="#113F62" d="M326.5,173.9c4,0.4,7.9,0.7,11.9,0.5c5.1-0.3,8.9-2.8,12.1-6.6c-10.5-6.4-27.5-6.7-44.2,5.3
		c0.6-1.3,1.3-2.2,2-3.1c4.8-5.8,11.1-9.2,18.1-11.3c16.7-5,33.2-4.8,49.4,2.4c6.5,2.9,12.3,6.9,17.4,12c4.3,4.4,8.6,8.8,12.6,13.6
		c0.4,0.4,0.7,0.9,0.8,1.6c-1.7-1.3-3.3-2.6-5-3.9c-6.7-5-13.6-9.5-21.5-12.3c-5.4-1.9-10.7-2-16,0.7c-4.5,2.2-9.2,4-14.2,5
		c-7,1.5-13.6,0.2-20-2.3c-0.9-0.4-1.8-0.7-2.7-1.1C326.9,174.2,326.7,174,326.5,173.9z"/>
	<path fill="#113F62" d="M336.6,215.3c-9.3,0-16.8-7.5-16.8-16.8c0-9.2,7.6-16.8,16.8-16.8c9.2,0,16.8,7.6,16.8,16.7
		C353.4,207.8,345.9,215.3,336.6,215.3z M331.4,187.1c-3.1,0-5.7,2.4-5.7,5.5c0,3,2.5,5.7,5.6,5.7c3.1,0,5.6-2.5,5.7-5.6
		C336.9,189.6,334.5,187.1,331.4,187.1z"/>
	<path fill="#90C643" d="M410.2,196.9c-6.5-5.1-13.1-9.9-20.3-13.9c-7.6-4.2-15.6-5.2-24-3.5c-0.7,0.1-1.4,0.3-2.1,0.8
		c5.9,7.8,9.2,16.4,7.5,26.3c-1.1,6.7-4.4,12.3-9.3,17c-10.2,9.8-24.1,10.6-33,6.5c14,1.2,25.2-3.8,31.8-16.5
		c6.4-12.1,4.5-23.8-3.9-34.7c2.2-2,5-3.2,7.8-4c7.6-2.2,14.9-1.3,21.8,2.3c8.8,4.6,16.5,10.6,23,18.2c0.3,0.3,0.5,0.7,0.8,1.1
		C410.3,196.7,410.3,196.8,410.2,196.9z"/>
	<path fill="#90C643" d="M344.3,167c-13.2-1.3-24.1,3.1-31.1,14.7c-7.5,12.5-5.9,24.8,2.9,36.4c-0.4,0.8-1.3,1.1-2,1.6
		c-8.1,4.6-16.5,4.9-24.8,1.3c-10.4-4.5-19-11.5-26.3-20.2c-0.2-0.2-0.3-0.4-0.2-0.8c1.2,0.9,2.4,1.9,3.6,2.8
		c6.3,4.8,12.7,9.5,19.9,12.8c7.1,3.3,14.5,3.6,22.1,1.8c0.2,0,0.4-0.1,0.6-0.2c0.1-0.1,0.3-0.2,0.5-0.3c-5.9-7.9-9.2-16.5-7.5-26.5
		c1.2-6.8,4.6-12.5,9.6-17.2C321.9,163.4,335.8,163.1,344.3,167z"/>
	<path fill="#90C643" d="M411,197.2C411,197.3,411.1,197.4,411,197.2C411,197.4,411,197.3,411,197.2L411,197.2z"/>
	<path fill="#90C643" d="M411,197.2c-0.2,0.2-0.4,0.1-0.5-0.1c0.1-0.1,0.1-0.1,0.2-0.2C410.8,197,410.9,197.1,411,197.2
		C411,197.2,411,197.2,411,197.2z"/>
	<path fill="#90C643" d="M410.4,196.6c0.1,0.1,0.2,0.2,0.3,0.3c-0.1,0.1-0.1,0.1-0.2,0.2c-0.1-0.1-0.2-0.2-0.3-0.3
		C410.3,196.8,410.3,196.7,410.4,196.6z"/>
	<path fill="#FFFFFF" d="M331.4,187.1c3.1,0,5.6,2.5,5.5,5.7c0,3.1-2.6,5.6-5.7,5.6c-3.1,0-5.6-2.7-5.6-5.7
		C325.7,189.6,328.2,187.1,331.4,187.1z"/>
</g>
</svg>
