<svg width="512" height="512" xmlns="http://www.w3.org/2000/svg" xml:space="preserve" enable-background="new 0 0 712 430" version="1.1">

 <g>
  <title>Layer 1</title>
  <g id="svg_1">
   <g id="svg_2">
    <path id="svg_3" d="m457.9,-410.5l0,0c-2.1,0.1 -3.9,-1.4 -4,-3.5l-6.9,-108.3c-0.1,-2.1 1.4,-3.9 3.5,-4l0,0c21.8,-1.4 40.5,15.1 41.9,36.9l2.4,36.9c1.4,21.8 -15.1,40.6 -36.9,42z" fill="#FFFFFF"/>
    <path id="svg_4" d="m457.6,-409.8c-2.4,0 -4.3,-1.8 -4.5,-4.2l-6.9,-108.2c-0.2,-2.5 1.7,-4.6 4.2,-4.8c22.2,-1.4 41.3,15.4 42.7,37.6l2.4,36.9c0.7,10.7 -2.8,21.1 -9.9,29.1c-7.1,8.1 -16.9,12.9 -27.6,13.6l0,0c-0.2,0 -0.3,0 -0.4,0zm0.3,-0.7l0,0l0,0zm-4.8,-115.1c-0.8,0 -1.7,0 -2.5,0.1c-0.8,0.1 -1.5,0.4 -2.1,1c-0.5,0.6 -0.8,1.4 -0.7,2.2l6.9,108.2c0.1,1.7 1.5,2.9 3.2,2.8c10.3,-0.7 19.8,-5.3 26.6,-13.1c6.8,-7.8 10.2,-17.7 9.6,-28.1l-2.4,-36.9c-0.7,-10.3 -5.3,-19.8 -13.1,-26.6c-7.1,-6.2 -16.1,-9.6 -25.5,-9.6z" fill="#ffffff"/>
   </g>
   <g id="svg_5">
    <path id="svg_6" d="m457.6,-403.6c-5.6,0 -10.3,-4.4 -10.7,-10.1l-6.9,-108.1c-0.4,-5.9 4.1,-11 10,-11.4c12.4,-0.8 24.3,3.3 33.7,11.5c9.3,8.2 14.9,19.5 15.7,31.9l2.4,36.9c0.8,12.4 -3.3,24.3 -11.5,33.7c-8.2,9.3 -19.5,14.9 -31.9,15.7c0,0 0,0 0,0c-0.3,-0.1 -0.5,-0.1 -0.8,-0.1zm0.3,-6.9l0,0l0,0zm-3.7,-108.8l6.5,101.5c16.3,-2.7 28.2,-17.3 27.2,-34.2l-2.4,-36.9c-0.6,-8.7 -4.4,-16.6 -11,-22.3c-5.7,-5.1 -12.8,-7.9 -20.3,-8.1z" fill="#ffffff"/>
   </g>
   <g id="svg_7">
    <path id="svg_8" d="m93.4,-503.4l0,0c2.1,-0.1 3.9,1.4 4,3.5l6.9,108.2c0.1,2.1 -1.4,3.9 -3.5,4l0,0c-21.8,1.4 -40.5,-15.1 -41.9,-36.9l-2.4,-36.9c-1.4,-21.8 15.1,-40.5 36.9,-41.9z" fill="#FFFFFF"/>
    <path id="svg_9" d="m98.2,-386.9c-9.8,0 -19.1,-3.5 -26.5,-10c-8.1,-7.1 -12.9,-16.9 -13.6,-27.6l-2.4,-36.9c-0.7,-10.7 2.8,-21.1 9.9,-29.1c7.1,-8.1 16.9,-12.9 27.6,-13.6l0,0c2.5,-0.1 4.6,1.7 4.8,4.2l6.9,108.2c0.1,1.2 -0.3,2.4 -1.1,3.3c-0.8,0.9 -1.9,1.4 -3.1,1.5c-0.8,0 -1.6,0 -2.5,0zm-4.8,-115.8c-10.3,0.7 -19.8,5.3 -26.6,13.1c-6.8,7.8 -10.2,17.7 -9.6,28.1l2.4,36.9c0.7,10.3 5.3,19.8 13.1,26.6c7.8,6.8 17.7,10.2 28.1,9.6c0.8,-0.1 1.5,-0.4 2.1,-1c0.5,-0.6 0.8,-1.4 0.7,-2.2l-6.9,-108.2c-0.2,-1.7 -1.6,-3 -3.3,-2.9l0,0z" fill="#ffffff"/>
   </g>
   <g id="svg_10" opacity="0.35">
    <path id="svg_11" d="m102.4,-421.7l1.9,30c0.1,2.1 -1.5,3.9 -3.5,4c-11.4,0.7 -22,-3.5 -29.7,-10.8c-7,-6.6 -11.5,-15.8 -12.2,-26.1l-1,-15.5c7,13.2 21.4,21.9 37.4,20.8l3.9,-0.3c1.4,0 2.6,-0.9 3.2,-2.1z" fill="#ffffff"/>
   </g>
   <g id="svg_12">
    <path id="svg_13" d="m98.2,-380.7c-24.3,0 -44.8,-18.9 -46.3,-43.5l-2.4,-36.9c-0.8,-12.4 3.3,-24.3 11.5,-33.7c8.2,-9.3 19.5,-14.9 31.9,-15.7c0,0 0,0 0,0c5.9,-0.4 11,4.1 11.4,10l6.9,108.2c0.2,2.9 -0.8,5.6 -2.7,7.8c-1.9,2.2 -4.5,3.4 -7.4,3.6c-0.9,0.2 -1.9,0.2 -2.9,0.2zm-7.6,-115.4c-16.3,2.7 -28.2,17.3 -27.2,34.2l2.4,36.9c0.6,8.7 4.4,16.6 11,22.3c5.7,5 12.8,7.8 20.3,8.1l-6.5,-101.5z" fill="#FFFFFF"/>
   </g>
   <g id="svg_14">
    <circle id="svg_15" r="184.7" cy="-457" cx="275.7" fill="#FFFFFF"/>
    <path id="svg_16" d="m275.7,-271.5c-0.5,0 -0.9,0 -1.3,0c-102.3,-0.7 -185,-84.5 -184.2,-186.8c0.7,-101.8 83.8,-184.2 185.5,-184.2c0.5,0 0.9,0 1.3,0c49.5,0.4 96,20 130.8,55.3c34.8,35.3 53.7,82 53.4,131.5c-0.8,101.9 -83.9,184.2 -185.5,184.2zm-0.1,-369.5c-48.6,0 -94.5,18.8 -129.1,53c-35,34.5 -54.5,80.6 -54.8,129.7c-0.4,49.1 18.5,95.5 53,130.5c34.5,35 80.6,54.5 129.7,54.8c49.1,0.3 95.5,-18.5 130.5,-53c35,-34.5 54.5,-80.6 54.8,-129.7c0.4,-49.1 -18.5,-95.5 -53,-130.5c-34.5,-35 -80.6,-54.5 -129.7,-54.8c-0.5,0 -0.9,0 -1.4,0z" fill="#ffffff"/>
   </g>
   <g id="svg_17" opacity="0.35">
    <path id="svg_18" d="m458.8,-481.3c1.1,8.4 1.7,16.9 1.6,25.6c-0.7,102 -84,184.1 -186.1,183.4c-102,-0.7 -184.1,-84 -183.4,-186.1c0,-2.9 0.1,-5.9 0.3,-8.8c11.8,90 88.5,159.8 181.8,160.5c99.1,0.8 180.5,-76.6 185.8,-174.6z" fill="#ffffff"/>
   </g>
   <g id="svg_19">
    <path id="svg_20" d="m275.7,-265.3c-0.5,0 -0.9,0 -1.4,0c-51.2,-0.4 -99.2,-20.7 -135.2,-57.1s-55.5,-84.8 -55.2,-136c0.4,-51.2 20.7,-99.2 57.1,-135.2c36.5,-36 84.8,-55.6 136,-55.2c51.2,0.4 99.2,20.7 135.2,57.1c36,36.5 55.5,84.8 55.2,136c-0.4,51.2 -20.7,99.2 -57.1,135.2c-36.2,35.7 -83.9,55.2 -134.6,55.2zm-0.1,-369.5c-47,0 -91.3,18.1 -124.8,51.2c-33.8,33.3 -52.6,77.8 -53,125.3s17.8,92.3 51.2,126.1c33.3,33.8 77.8,52.6 125.3,53c47.5,0.3 92.3,-17.8 126.1,-51.2c33.8,-33.3 52.6,-77.8 53,-125.3c0.3,-47.5 -17.8,-92.3 -51.2,-126.1c-33.3,-33.8 -77.8,-52.6 -125.3,-53c-0.4,0 -0.8,0 -1.3,0z" fill="#ffffff"/>
   </g>
   <g id="svg_21">
    <path id="svg_22" d="m459.8,-450.9c0.3,36.2 -11.2,69.8 -31,97.7c-14.9,20.9 -76.4,57.9 -152.8,59.2c-70.8,1.2 -135.5,-36 -150.8,-56.7c-20.3,-27.6 -32.3,-61.1 -32.6,-97.2c-0.8,-95.7 81.1,-136 182.5,-136.8c101.4,-0.9 183.9,38.1 184.7,133.8z" fill="#ffffff"/>
   </g>
   <g id="svg_23">
    <path id="svg_24" d="m272.5,-289.8c-71.7,0 -135,-37.2 -150.7,-58.5c-21.6,-29.3 -33.1,-63.8 -33.4,-99.7c-0.4,-46.7 18.1,-82.9 54.8,-107.5c32.1,-21.5 77.7,-33.1 131.8,-33.5c54.2,-0.4 99.9,10.4 132.4,31.4c37.1,24 56.1,59.9 56.5,106.6l0,0c0.3,35.9 -10.7,70.5 -31.8,100.2c-14.6,20.6 -75.4,59.5 -156.1,60.9c-1.2,0 -2.3,0.1 -3.5,0.1zm5.4,-290.8c-0.9,0 -1.8,0 -2.7,0c-54,0.4 -179.4,14.2 -178.4,132.6c0.3,34.1 11.3,66.9 31.8,94.8c14.3,19.5 76,55.1 144,55.1c1.1,0 2.2,0 3.3,0c76.8,-1.3 136.2,-38.6 149.5,-57.4c20.1,-28.2 30.5,-61.2 30.3,-95.3l0,0c-1,-116.5 -122.5,-129.8 -177.8,-129.8z" fill="#ffffff"/>
   </g>
   <g id="svg_25" opacity="0.7">
    <ellipse id="svg_26" ry="32.7" rx="23.7" cy="-463.4" cx="400" fill="#FFFFFF" transform="matrix(-0.9854 -0.1705 0.1705 -0.9854 873.1466 -851.927)"/>
   </g>
   <g id="svg_27" opacity="0.35">
    <path id="svg_28" d="m423.4,-539.9c22.6,21.2 36.1,50.5 36.4,89c0.3,36.2 -11.2,69.8 -31,97.7c-14.9,20.9 -76.5,57.9 -152.8,59.2c-27,0.5 -53,-4.7 -75.8,-12.3c93.8,-3.6 168.8,-48.9 187.3,-74.9c25.2,-35.4 39.7,-78.2 39.4,-124c-0.3,-12.3 -1.4,-23.9 -3.5,-34.7z" fill="#121A28"/>
   </g>
   <g id="svg_29">
    <path id="svg_30" d="m111.3,-525.4l-11,-8.6l5.1,4.1l-5.5,-3.7c32.4,-48.6 95.8,-76.8 173.9,-77.4c77.6,-0.6 141.2,25.6 175,72c2,2.6 1.9,6.2 -0.2,8.8c-2.5,2.9 -6.9,3.3 -9.8,0.8c-0.4,-0.4 -0.8,-0.8 -1.1,-1.2c-31,-42.8 -90.7,-67 -163.7,-66.4c-73.4,0.6 -132.6,26.5 -162.4,71.2c-0.1,0.1 -0.2,0.3 -0.3,0.4zm-5.5,-4.3l0,0l0,0z" fill="#ffffff"/>
   </g>
   <g id="svg_31" opacity="0.7">
    <path id="svg_32" d="m134.3,-391.4c0,0 -30.4,-94.1 20.2,-132.2s123.7,-38.4 122.1,-33.7c0,0 -80.9,20.3 -112,84.6c-24.2,49.5 -30.3,81.3 -30.3,81.3z" fill="#FFFFFF"/>
   </g>
  </g>
  <g stroke="null" id="svg_33">
   <path transform="rotate(-0.0434195 222.14 202.041)" stroke="null" id="svg_34" d="m161.33749,213.22208c-7.10682,1.65089 -9.21255,7.42899 -12.89756,11.55621c-17.10901,18.9852 -33.42838,39.34614 -55.80171,52.00294c-22.89976,13.2071 -46.85238,18.15976 -74.75323,4.95266c14.21364,-9.07988 26.05834,-17.05917 38.42948,-24.21301c9.21255,-5.50296 15.79294,-12.93195 16.8458,-23.93786c5.26431,-65.21004 36.85018,-112.26032 91.59903,-142.52658c77.91182,-42.92306 173.72229,-26.13905 229.78722,39.89644c12.89756,15.40828 23.42619,32.46745 31.84909,54.20413c-15.79294,-3.85207 -27.90085,-4.40237 -36.58697,-19.26035c-25.79513,-43.74851 -66.06711,-62.45856 -113.44592,-69.06211c-49.22132,-6.8787 -92.91511,4.67751 -130.81815,38.79585c-17.63544,15.95857 -28.6905,36.59466 -38.95591,61.63312c51.32704,-49.80176 101.86444,-93.82541 173.98551,-50.90235c-24.74227,7.15384 -47.37881,17.88461 -65.27747,37.69525c-33.6916,37.42011 -42.64093,101.25441 0.52643,132.89641c8.4229,6.3284 18.16188,8.80473 28.16407,11.83136c-23.42619,11.00591 -45.79951,11.28106 -65.01425,-4.12722c-10.00219,-7.97929 -19.47795,-18.9852 -22.89976,-33.56804c-5.0011,-22.56212 -5.0011,-44.8491 3.94823,-66.31063c1.84251,-3.85207 1.84251,-7.15384 1.31608,-11.55621z" fill="#ffffff"/>
   <path transform="rotate(-0.0434195 280.157 314.8)" stroke="null" id="svg_35" d="m192.4824,442.9266c-54.74884,-17.05917 -91.33581,-54.75442 -114.49878,-108.1331c17.89866,-1.10059 29.48015,6.3284 40.79842,23.11242c36.85018,54.47927 91.0726,71.81359 152.13861,65.76033c49.74775,-4.67751 90.01973,-28.61538 115.55165,-75.39051c3.4218,-6.05325 7.10682,-12.10651 7.37004,-20.63609c-49.22132,46.77513 -99.23228,86.39642 -168.7212,46.49999c3.15859,-5.22781 7.89647,-5.7781 12.63435,-6.8787c53.43277,-12.6568 88.17722,-64.65974 79.49111,-118.86387c-4.73788,-30.26626 -21.32046,-47.32543 -55.80171,-57.78105c37.90305,-21.73668 80.80719,-0.5503 89.4933,42.92306c4.73788,23.11242 -0.78965,45.12425 -5.52753,69.06211c13.16078,-13.48224 24.47905,-25.58875 36.58697,-37.14496c21.32046,-20.63609 45.00987,-36.59466 75.27966,-36.59466c8.94933,0 22.11011,-2.47633 24.74227,9.35503c2.63216,11.28106 -12.10792,9.63017 -17.89866,15.95857c-2.89537,3.30177 -8.4229,3.57692 -12.10792,6.3284c-12.37113,8.52958 -19.47795,19.5355 -21.05725,36.04437c-4.73788,46.22484 -26.32156,83.3698 -61.06602,111.98517c-10.79184,9.07988 -22.89976,16.50887 -35.53411,22.56212c-5.26431,-0.82544 -9.73898,0.27515 -14.74007,2.47633c-35.53411,15.95857 -72.6475,16.23372 -110.02412,11.00591c-6.05396,0 -10.79184,-6.60355 -17.10901,-1.65089z" fill="#ffffff"/>
   <path transform="rotate(-0.0434195 252.648 259.83)" stroke="null" id="svg_36" d="m253.50675,293.267c-18.16188,0 -35.00767,-15.95857 -33.16517,-34.39348c1.57929,-15.95857 13.16078,-33.01774 32.63873,-32.46745c18.16188,0.27515 32.1123,14.85798 32.1123,33.84318c-0.26322,18.15976 -14.47686,33.01774 -31.58587,33.01774z" fill="#ffffff"/>
   <path transform="rotate(-0.0434195 108.238 294.943)" stroke="null" id="svg_37" d="m67.96632,309.05988c27.37442,-8.80473 48.69489,-26.96449 71.06821,-47.60058c0,20.36094 -1.31608,39.07099 9.47576,54.75442c-29.74336,18.43491 -57.90743,15.95857 -80.54397,-7.15384z" fill="#ffffff"/>
   <path transform="rotate(-0.0434195 396.802 225.658)" stroke="null" id="svg_38" d="m365.61074,259.86486c1.57929,-22.28698 0,-40.17159 -8.94933,-56.40531c29.21693,-18.15976 60.01316,-15.68343 80.28076,7.15384c-27.63764,7.97929 -50.01096,24.76331 -71.33143,49.25146z" fill="#ffffff"/>
   <path transform="rotate(-0.0434195 263.252 441.853)" stroke="null" id="svg_39" d="m192.57868,442.93945c6.31717,-4.95266 11.05506,1.65089 16.58258,2.20118c37.37661,5.22781 74.49001,4.95266 110.02412,-11.00591c4.73788,-2.20118 9.47576,-3.30177 14.74007,-2.47633c-45.79951,22.83727 -92.91511,26.96449 -141.34678,11.28106z" fill="#ffffff"/>
  </g>
 </g>
</svg>