<?xml version="1.0" encoding="utf-8"?>
<!-- Generator: Adobe Illustrator 18.0.0, SVG Export Plug-In . SVG Version: 6.00 Build 0)  -->
<!DOCTYPE svg PUBLIC "-//W3C//DTD SVG 1.1//EN" "http://www.w3.org/Graphics/SVG/1.1/DTD/svg11.dtd">
<svg version="1.1" id="Layer_1" xmlns="http://www.w3.org/2000/svg" xmlns:xlink="http://www.w3.org/1999/xlink" x="0px" y="0px"
	 viewBox="0 0 712 430" enable-background="new 0 0 712 430" xml:space="preserve">
<g>
	<g>
		<path fill="#FFFFFF" d="M457.9-410.5L457.9-410.5c-2.1,0.1-3.9-1.4-4-3.5L447-522.3c-0.1-2.1,1.4-3.9,3.5-4h0
			c21.8-1.4,40.5,15.1,41.9,36.9l2.4,36.9C496.2-430.7,479.7-411.9,457.9-410.5z"/>
		<path fill="#371A45" d="M457.6-409.8c-2.4,0-4.3-1.8-4.5-4.2l-6.9-108.2c-0.2-2.5,1.7-4.6,4.2-4.8c22.2-1.4,41.3,15.4,42.7,37.6
			l2.4,36.9c0.7,10.7-2.8,21.1-9.9,29.1c-7.1,8.1-16.9,12.9-27.6,13.6l0,0C457.8-409.8,457.7-409.8,457.6-409.8z M457.9-410.5
			L457.9-410.5L457.9-410.5z M453.1-525.6c-0.8,0-1.7,0-2.5,0.1c-0.8,0.1-1.5,0.4-2.1,1c-0.5,0.6-0.8,1.4-0.7,2.2l6.9,108.2
			c0.1,1.7,1.5,2.9,3.2,2.8c10.3-0.7,19.8-5.3,26.6-13.1c6.8-7.8,10.2-17.7,9.6-28.1l-2.4-36.9c-0.7-10.3-5.3-19.8-13.1-26.6
			C471.5-522.2,462.5-525.6,453.1-525.6z"/>
	</g>
	<g>
		<path fill="#371A45" d="M457.6-403.6c-5.6,0-10.3-4.4-10.7-10.1L440-521.8c-0.4-5.9,4.1-11,10-11.4c12.4-0.8,24.3,3.3,33.7,11.5
			c9.3,8.2,14.9,19.5,15.7,31.9l2.4,36.9c0.8,12.4-3.3,24.3-11.5,33.7c-8.2,9.3-19.5,14.9-31.9,15.7c0,0,0,0,0,0
			C458.1-403.6,457.9-403.6,457.6-403.6z M457.9-410.5L457.9-410.5L457.9-410.5z M454.2-519.3l6.5,101.5
			c16.3-2.7,28.2-17.3,27.2-34.2l-2.4-36.9c-0.6-8.7-4.4-16.6-11-22.3C468.8-516.3,461.7-519.1,454.2-519.3z"/>
	</g>
	<g>
		<path fill="#FFFFFF" d="M93.4-503.4L93.4-503.4c2.1-0.1,3.9,1.4,4,3.5l6.9,108.2c0.1,2.1-1.4,3.9-3.5,4h0
			c-21.8,1.4-40.5-15.1-41.9-36.9l-2.4-36.9C55.1-483.3,71.6-502,93.4-503.4z"/>
		<path fill="#371A45" d="M98.2-386.9c-9.8,0-19.1-3.5-26.5-10c-8.1-7.1-12.9-16.9-13.6-27.6l-2.4-36.9c-0.7-10.7,2.8-21.1,9.9-29.1
			c7.1-8.1,16.9-12.9,27.6-13.6l0,0c2.5-0.1,4.6,1.7,4.8,4.2l6.9,108.2c0.1,1.2-0.3,2.4-1.1,3.3c-0.8,0.9-1.9,1.4-3.1,1.5
			C99.9-386.9,99.1-386.9,98.2-386.9z M93.4-502.7c-10.3,0.7-19.8,5.3-26.6,13.1c-6.8,7.8-10.2,17.7-9.6,28.1l2.4,36.9
			c0.7,10.3,5.3,19.8,13.1,26.6c7.8,6.8,17.7,10.2,28.1,9.6c0.8-0.1,1.5-0.4,2.1-1c0.5-0.6,0.8-1.4,0.7-2.2l-6.9-108.2
			C96.5-501.5,95.1-502.8,93.4-502.7L93.4-502.7z"/>
	</g>
	<g opacity="0.35">
		<path fill="#371A45" d="M102.4-421.7l1.9,30c0.1,2.1-1.5,3.9-3.5,4c-11.4,0.7-22-3.5-29.7-10.8c-7-6.6-11.5-15.8-12.2-26.1
			l-1-15.5c7,13.2,21.4,21.9,37.4,20.8l3.9-0.3C100.6-419.6,101.8-420.5,102.4-421.7z"/>
	</g>
	<g>
		<path fill="#371A45" d="M98.2-380.7c-24.3,0-44.8-18.9-46.3-43.5l-2.4-36.9c-0.8-12.4,3.3-24.3,11.5-33.7
			c8.2-9.3,19.5-14.9,31.9-15.7c0,0,0,0,0,0c5.9-0.4,11,4.1,11.4,10l6.9,108.2c0.2,2.9-0.8,5.6-2.7,7.8c-1.9,2.2-4.5,3.4-7.4,3.6
			C100.2-380.7,99.2-380.7,98.2-380.7z M90.6-496.1c-16.3,2.7-28.2,17.3-27.2,34.2l2.4,36.9c0.6,8.7,4.4,16.6,11,22.3
			c5.7,5,12.8,7.8,20.3,8.1L90.6-496.1z"/>
	</g>
	<g>
		<circle fill="#FFFFFF" cx="275.7" cy="-457" r="184.7"/>
		<path fill="#371A45" d="M275.7-271.5c-0.5,0-0.9,0-1.3,0C172.1-272.2,89.4-356,90.2-458.3c0.7-101.8,83.8-184.2,185.5-184.2
			c0.5,0,0.9,0,1.3,0c49.5,0.4,96,20,130.8,55.3c34.8,35.3,53.7,82,53.4,131.5C460.4-353.8,377.3-271.5,275.7-271.5z M275.6-641
			c-48.6,0-94.5,18.8-129.1,53c-35,34.5-54.5,80.6-54.8,129.7c-0.4,49.1,18.5,95.5,53,130.5c34.5,35,80.6,54.5,129.7,54.8
			c49.1,0.3,95.5-18.5,130.5-53c35-34.5,54.5-80.6,54.8-129.7c0.4-49.1-18.5-95.5-53-130.5c-34.5-35-80.6-54.5-129.7-54.8
			C276.5-641,276.1-641,275.6-641z"/>
	</g>
	<g opacity="0.35">
		<path fill="#371A45" d="M458.8-481.3c1.1,8.4,1.7,16.9,1.6,25.6c-0.7,102-84,184.1-186.1,183.4c-102-0.7-184.1-84-183.4-186.1
			c0-2.9,0.1-5.9,0.3-8.8c11.8,90,88.5,159.8,181.8,160.5C372.1-305.9,453.5-383.3,458.8-481.3z"/>
	</g>
	<g>
		<path fill="#371A45" d="M275.7-265.3c-0.5,0-0.9,0-1.4,0c-51.2-0.4-99.2-20.7-135.2-57.1s-55.5-84.8-55.2-136
			c0.4-51.2,20.7-99.2,57.1-135.2c36.5-36,84.8-55.6,136-55.2c51.2,0.4,99.2,20.7,135.2,57.1c36,36.5,55.5,84.8,55.2,136
			c-0.4,51.2-20.7,99.2-57.1,135.2C374.1-284.8,326.4-265.3,275.7-265.3z M275.6-634.8c-47,0-91.3,18.1-124.8,51.2
			c-33.8,33.3-52.6,77.8-53,125.3s17.8,92.3,51.2,126.1c33.3,33.8,77.8,52.6,125.3,53c47.5,0.3,92.3-17.8,126.1-51.2
			c33.8-33.3,52.6-77.8,53-125.3c0.3-47.5-17.8-92.3-51.2-126.1c-33.3-33.8-77.8-52.6-125.3-53C276.5-634.8,276.1-634.8,275.6-634.8
			z"/>
	</g>
	<g>
		<path fill="#371A45" d="M459.8-450.9c0.3,36.2-11.2,69.8-31,97.7c-14.9,20.9-76.4,57.9-152.8,59.2c-70.8,1.2-135.5-36-150.8-56.7
			c-20.3-27.6-32.3-61.1-32.6-97.2c-0.8-95.7,81.1-136,182.5-136.8C376.5-585.6,459-546.6,459.8-450.9z"/>
	</g>
	<g>
		<path fill="#371A45" d="M272.5-289.8c-71.7,0-135-37.2-150.7-58.5c-21.6-29.3-33.1-63.8-33.4-99.7c-0.4-46.7,18.1-82.9,54.8-107.5
			c32.1-21.5,77.7-33.1,131.8-33.5c54.2-0.4,99.9,10.4,132.4,31.4c37.1,24,56.1,59.9,56.5,106.6l0,0c0.3,35.9-10.7,70.5-31.8,100.2
			c-14.6,20.6-75.4,59.5-156.1,60.9C274.8-289.9,273.7-289.8,272.5-289.8z M277.9-580.6c-0.9,0-1.8,0-2.7,0
			C221.2-580.2,95.8-566.4,96.8-448c0.3,34.1,11.3,66.9,31.8,94.8c14.3,19.5,76,55.1,144,55.1c1.1,0,2.2,0,3.3,0
			c76.8-1.3,136.2-38.6,149.5-57.4c20.1-28.2,30.5-61.2,30.3-95.3l0,0C454.7-567.3,333.2-580.6,277.9-580.6z"/>
	</g>
	<g opacity="0.7">
		
			<ellipse transform="matrix(-0.9854 -0.1705 0.1705 -0.9854 873.1466 -851.927)" fill="#FFFFFF" cx="400" cy="-463.4" rx="23.7" ry="32.7"/>
	</g>
	<g opacity="0.35">
		<path fill="#121A28" d="M423.4-539.9c22.6,21.2,36.1,50.5,36.4,89c0.3,36.2-11.2,69.8-31,97.7c-14.9,20.9-76.5,57.9-152.8,59.2
			c-27,0.5-53-4.7-75.8-12.3c93.8-3.6,168.8-48.9,187.3-74.9c25.2-35.4,39.7-78.2,39.4-124C426.6-517.5,425.5-529.1,423.4-539.9z"/>
	</g>
	<g>
		<path fill="#371A45" d="M111.3-525.4l-11-8.6l5.1,4.1l-5.5-3.7c32.4-48.6,95.8-76.8,173.9-77.4c77.6-0.6,141.2,25.6,175,72
			c2,2.6,1.9,6.2-0.2,8.8c-2.5,2.9-6.9,3.3-9.8,0.8c-0.4-0.4-0.8-0.8-1.1-1.2c-31-42.8-90.7-67-163.7-66.4
			c-73.4,0.6-132.6,26.5-162.4,71.2C111.5-525.7,111.4-525.5,111.3-525.4z M105.8-529.7L105.8-529.7L105.8-529.7z"/>
	</g>
	<g opacity="0.7">
		<path fill="#FFFFFF" d="M134.3-391.4c0,0-30.4-94.1,20.2-132.2s123.7-38.4,122.1-33.7c0,0-80.9,20.3-112,84.6
			C140.4-423.2,134.3-391.4,134.3-391.4z"/>
	</g>
</g>
<g>
	<path fill="#F7A320" d="M266.9,174.2c0.9,3.9,1.7,7.9,2.6,11.8c2.3,10.1,7.1,19,13.2,27.1c4.6,6,10,11.3,16.2,15.7
		c10.6,7.5,22.3,12.1,35.3,13.9c12.4,1.7,24.4,0.3,36-3.9c17.9-6.5,31.7-18,41.2-34.7c4.9-8.5,7.7-17.7,9.4-27.3
		c0.1-0.5,0.1-1,0.6-1.3c0.2,10.2-2.1,20-6.3,29.2c-11.9,25.8-32,41.3-60,45.7c-37.6,5.9-74.5-17.9-85.2-54.5
		C267.8,188.9,266.4,181.7,266.9,174.2z"/>
	<polygon fill="#F7A320" points="266.8,164.7 266.8,164.7 266.8,164.7 	"/>
	<path fill="#F7A320" d="M404.4,159.9c-1.6-4.1-2.1-8.5-3.9-12.5c-1.9-4.3-4.1-8.3-6.7-12.1c-4.1-6.1-9.4-11.2-15.4-15.2
		c-7.5-5.1-15.7-8.7-25-9.8c-9.4-1.1-18.6-0.8-27.7,2c-4.9,1.5-9.4,3.8-13.7,6.5c-10.7,6.8-18.9,15.8-23.8,27.6
		c-1.8,4.2-2.8,8.7-3.8,13.1c-0.2,0.7,0,1.4-1,1.5c1-11.5,5.1-21.8,11.9-31c7-9.5,16.1-16.5,27.2-20.6c9.9-3.7,20.1-4.9,30.7-3.3
		c6.8,1.1,13.1,3.5,19.4,5.9c0.3,0.3,0.6,0.6,0.9,0.8c7,4,13.3,9,18.2,15.5c0.3,0.5,0.9,0.7,1.4,1.1c0.4,1.4,1.2,2.4,2.1,3.5
		c1.5,2.6,3,5.1,4.5,7.7c1.1,4,3.1,7.6,3.8,11.7C403.9,154.8,404.5,157.3,404.4,159.9z"/>
	<path fill="#FDD91B" d="M393.1,129.3c-0.5-0.4-1-0.6-1.4-1.1c-4.9-6.6-11.2-11.5-18.2-15.5c-0.4-0.2-0.6-0.6-0.9-0.8
		c2.9-2.8,5.7-5.5,8.5-8.3c1.1-1.1,2.1-1.3,3.4-0.5c6.4,4.1,12,9.2,17.1,14.8c1.1,1.2,0.8,2.3-0.3,3.3
		C398.5,123.9,395.8,126.6,393.1,129.3z"/>
	<path fill="#FDD91B" d="M399.7,140.5c-1.5-2.6-3-5.1-4.5-7.7c2.9-3.6,6.4-6.5,9.7-10c1.7,2.1,3.1,4.1,4.3,6.2
		c0.7,1.2,0,1.9-0.7,2.6C405.5,134.6,402.6,137.5,399.7,140.5z"/>
	<path fill="#FDD91B" d="M310.4,217.5c2.5,1.2,5,2.5,7.6,3.7c0.2,0.9-0.5,1.4-1.1,1.9c-2.4,2.4-4.8,4.8-7.2,7.2
		c-0.9,1-1.9,1.5-3.1,0.6c-1.8-1.2-3.7-2.4-5.8-3.8C303.9,223.6,307,220.5,310.4,217.5z"/>
	<path fill="#F7A320" d="M283.3,161.9c0.1,0.1,0.1,0.2,0.2,0.3c0,0-0.1,0.1-0.2,0.1C283.3,162.2,283.3,162.1,283.3,161.9z"/>
	<path fill="#F7A320" d="M328.5,211.8c7.9,2.3,15.8,3.1,23.9,1.7c4.4-0.8,8.5-2.3,12.6-4c0.8,0.6,1.6,1.2,2.8,2
		c-2.9,1.5-5.5,3-8.3,4c-4.7,1.7-9.7,2.3-14.7,2.4c-5.4,0.1-11-0.5-16.1-2.6C327.1,214.7,327.4,213.1,328.5,211.8z"/>
	<path fill="#F7A320" d="M296.2,164.2c0.1,0.6,0.3,1.1,0.5,2c4.8-2.7,9.4-5.4,14-8c7.7-4.4,15.4-8.8,23.1-13.2
		c0.2,0.9,1.4,1,1.7,2.5c-12.8,7.4-25.8,14.9-39,22.5C295.8,167.7,296.1,165.9,296.2,164.2z"/>
	<path fill="#FDD91B" d="M266.9,174.2c0-3.2,0-6.3,0-9.5l0,0c0.2-19.8,7.3-36.9,20.7-51.3c12.4-13.4,27.9-21.7,46-23.9
		c30.3-3.6,55,7,73.4,31.4c10,13.2,14.7,28.4,14.6,45.1c0,3.2,0.5,6.5-0.1,9.7c-0.5,0.3-0.5,0.8-0.6,1.3c-1.7,9.6-4.5,18.8-9.4,27.3
		c-9.5,16.6-23.3,28.2-41.2,34.7c-11.6,4.2-23.6,5.6-36,3.9c-13-1.8-24.7-6.4-35.3-13.9c-6.2-4.4-11.6-9.7-16.2-15.7
		c-6.2-8.2-10.9-17.1-13.2-27.1C268.5,182.1,267.7,178.1,266.9,174.2z M399.7,140.5c2.9-3,5.8-5.9,8.7-8.9c0.7-0.8,1.4-1.4,0.7-2.6
		c-1.2-2.1-2.6-4.1-4.3-6.2c-3.3,3.5-6.8,6.4-9.7,10c-0.9-1-1.8-2.1-2.1-3.5c2.7-2.7,5.4-5.4,8.1-8.1c1.1-1,1.4-2.1,0.3-3.3
		c-5.1-5.6-10.7-10.7-17.1-14.8c-1.3-0.8-2.3-0.6-3.4,0.5c-2.8,2.8-5.7,5.6-8.5,8.3c-6.3-2.4-12.6-4.9-19.4-5.9
		c-10.6-1.7-20.8-0.4-30.7,3.3c-11.1,4.1-20.2,11.1-27.2,20.6c-6.8,9.2-10.9,19.5-11.9,31c0,0.4,0,0.7,0,1.1c0,0.1,0,0.3,0,0.4
		c-0.6,11.6,1.7,22.5,7.1,32.7c-0.7-0.1-1.3,0.1-1.8,0.6c-2.6,2.6-5.2,5.2-7.8,7.8c-0.8,0.8-0.8,1.6-0.2,2.5
		c4.3,6.6,9.3,12.5,15.4,17.6c1.2,1,1.9,0.6,2.8-0.3c2.8-2.8,5.6-5.5,8.3-8.3c1.2,0.6,2.6,1.1,3.2,2.5c-3.3,3-6.5,6.1-9.6,9.7
		c2.2,1.4,4,2.6,5.8,3.8c1.3,0.8,2.2,0.3,3.1-0.6c2.4-2.4,4.8-4.8,7.2-7.2c0.5-0.5,1.3-1,1.1-1.9c7.6,3.6,15.6,5.6,24,6
		c6.8,0.3,13.4-0.8,20-2.8c14.1-4.3,25.1-12.8,33.2-24.9c5.1-7.6,8.1-16.1,9.3-25.2c0.6-4.8,0.9-9.6,0-14.4c0.1-2.6-0.5-5.1-0.9-7.7
		C402.8,148.1,400.8,144.4,399.7,140.5z"/>
	<path fill="#FCBE16" d="M310.4,217.5c-0.6-1.4-2-1.9-3.2-2.5c-0.4-0.3-0.7-0.7-1.1-1c-6.5-5.2-11.8-11.4-15.7-18.9
		c-5.5-10.2-7.8-21.2-7.1-32.7c0.1,0,0.2-0.1,0.2-0.1c0-0.1-0.1-0.2-0.2-0.3c0-0.4,0-0.7,0-1.1c1-0.1,0.9-0.8,1-1.5
		c1.1-4.4,2.1-8.8,3.8-13.1c4.9-11.8,13.1-20.8,23.8-27.6c4.3-2.7,8.8-5,13.7-6.5c9.1-2.8,18.3-3.1,27.7-2c9.2,1.1,17.5,4.7,25,9.8
		c6,4.1,11.3,9.1,15.4,15.2c2.6,3.9,4.8,7.9,6.7,12.1c1.8,4.1,2.3,8.5,3.9,12.5c0.9,4.8,0.6,9.6,0,14.4c-1.2,9.1-4.2,17.6-9.3,25.2
		c-8.2,12.1-19.1,20.6-33.2,24.9c-6.5,2-13.2,3.1-20,2.8c-8.3-0.4-16.4-2.4-24-6C315.4,220,312.9,218.8,310.4,217.5z M320,207.4
		c0-15,0-30,0-45c-1.2-0.1-1.7,0.5-2.4,0.9c-5.8,3.3-11.4,6.7-17.3,9.8c-2.3,1.2-3.7,2.5-2.8,5.2c-0.8,0.6-0.4,1.3-0.3,2.1
		c2.7,11.6,8.9,20.9,18.2,28.2c1.2,0.9,2.4,2.1,4.2,2.4C320.3,209.7,320,208.5,320,207.4z M354.5,191.3c-2.1,2-2.1,2,0.4,3.6
		c6.1,3.7,12.1,7.2,18.2,10.9c1.2,0.7,2.3,0.7,3.4-0.4c6.1-6,11-12.8,13.3-21.1c0.9-3.1,2-6.2,1.4-9.6c0.1-0.4,0.2-0.8,0.2-1.2
		c0.1-0.1,0.1-0.2,0.1-0.4c-0.2-2,0.8-4-0.1-6.2c-13.1,7.6-26.1,15-39.2,22.6C353.2,190.3,353.8,190.8,354.5,191.3z M333.8,145
		c0.6-0.5,1.3-1,2.2-1.7c-6.9-4-13.6-7.7-20.2-11.7c-2-1.2-3.1-1.1-4.8,0.5c-8.4,8.3-13,18.3-14.6,29.9c-0.3,0.3-0.3,0.5,0,0.8
		c0,0.5-0.1,0.9-0.1,1.4c-0.2,1.7-0.4,3.5,0.3,5.7c13.2-7.6,26.2-15.1,39-22.5C335.2,145.9,334,145.8,333.8,145z M390.5,158.6
		c0.7-0.7,0.4-1.5,0.2-2.4c-2.6-11.2-8.4-20.4-17.5-27.4c-1.5-1.1-2.8-2.6-5-2.9c0,15.1,0,30.1,0,45.1c-0.1,1-0.4,2,0.2,2.9
		c0.6,0.3,1.2,0.3,1.7-0.1c6.4-3.7,12.8-7.3,19.1-11C391,161.8,391.7,160.4,390.5,158.6z M360.4,147.5c0-7.9-0.1-15.8-0.1-23.7
		c0-1.7-0.5-2.4-2.1-2.9c-7.8-2.4-15.7-2.7-23.7-1.1c-4.8,1-9.4,2.5-13.8,5.3c1,0.7,1.7,1.2,2.5,1.7c-0.5,1-2.1,0.8-2.4,2.2
		c13.1,7.6,26.2,15.1,39.4,22.7C360.6,150,360.4,148.8,360.4,147.5z M365,209.6c0.8-0.5,1.5-1,2.6-1.7
		c-13.3-7.7-26.3-15.2-39.7-22.9c0,9,0,17.2,0,25.5c0,0.5,0.3,0.9,0.5,1.4c-1.1,1.3-1.4,2.9,0.2,3.6c5.1,2.1,10.7,2.6,16.1,2.6
		c4.9-0.1,9.9-0.7,14.7-2.4c2.8-1,5.4-2.4,8.3-4C366.7,210.7,365.9,210.2,365,209.6z"/>
	<path fill="#FDD91B" d="M290.4,195.1c3.9,7.4,9.2,13.7,15.7,18.9c0.4,0.3,0.7,0.7,1.1,1c-2.8,2.7-5.6,5.5-8.3,8.3
		c-0.9,0.9-1.6,1.3-2.8,0.3c-6.1-5-11.1-11-15.4-17.6c-0.6-0.9-0.6-1.7,0.2-2.5c2.6-2.6,5.2-5.2,7.8-7.8
		C289.1,195.2,289.7,195,290.4,195.1z"/>
	<path fill="#F7A320" d="M297.6,178.3c2.5,7.9,6.1,15.2,12,21.2c3.1,3.1,6.2,6.2,10.4,7.9c0.1,1.2,0.3,2.3-0.3,3.6
		c-1.8-0.3-3-1.4-4.2-2.4c-9.3-7.3-15.5-16.6-18.2-28.2C297.2,179.6,296.8,178.9,297.6,178.3z"/>
	<path fill="#F7A320" d="M368.3,171c5.8-2.7,11.1-6.3,16.7-9.3c1.9-1,3.7-2,5.6-3.1c1.2,1.9,0.5,3.3-1.2,4.2
		c-6.4,3.7-12.7,7.4-19.1,11c-0.6,0.3-1.1,0.4-1.7,0.1C367.9,173,368.2,172,368.3,171z"/>
	<path fill="#F7A320" d="M296.4,162c0,0.3,0,0.6,0,0.8C296.1,162.5,296.1,162.2,296.4,162z"/>
	<path fill="#F7A320" d="M391.5,173.5l-0.1-0.2c0,0,0.2-0.2,0.2-0.2C391.6,173.2,391.5,173.4,391.5,173.5z"/>
	<ellipse fill="#FCBE16" cx="344.2" cy="166.2" rx="50.4" ry="57.3"/>
</g>
<g>
	<path fill="#0B0A0B" d="M378,149.8c-1.9-4-4.1-6.9-6.8-9.3c-8.5-7.6-18.8-11.1-30-11.8c-13.8-0.9-26.7,2.5-38.5,9.9
		c-0.4,0.3-0.8,0.8-1.7,0.2c6.9-10.5,16.2-17.9,28.3-21.5c27.5-8.2,56.2,7,64,35.5c3.3,12.2-2,24.5-12.8,31.6
		c-20.6,13.4-48.7,12.8-68.6-1.6c-0.3-0.2-0.7-0.4-1.2-0.7c2.2,5.9,8.9,12.5,16.4,15.9c19.7,8.7,38.7,6.5,57.1-3.8
		c0.9-0.5,1.6-1.5,2.8-1.3c-1.8,4.4-6.8,9.9-13.3,14.6c-27.9,20.3-68.6,6.4-78-26.6c-4.2-14.7,1-27.6,15.6-35.2
		c22.2-11.5,44.2-10.7,65.3,3.4C376.8,149.1,377,149.2,378,149.8z M362,154.4c2.6,8.6,0.2,15-6.6,19.6c-6.6,4.5-13.8,4.6-20.6,0.5
		c-7.2-4.5-9.9-11.2-7.6-19.9c-5,1.9-8.9,5.1-12.8,8.1c-2.8,2.2-2.8,4,0,6.3c19.3,16.2,42.1,15.4,61.1-0.4c2-1.6,2.2-3.6,0.2-5.3
		C371.8,159.8,367.5,156.8,362,154.4z M349.4,167.3c4.8-1.6,9.2-9.2,8.1-13.4c-0.2-0.9-0.7-1.4-1.5-1.5c-1.9-0.3-3.7-1.3-5.8-0.7
		C351.4,156.9,351.8,161.9,349.4,167.3z"/>
	<path fill="#00AEEF" d="M362,154.4c5.5,2.4,9.8,5.4,13.8,8.9c1.9,1.7,1.7,3.7-0.2,5.3c-19,15.9-41.8,16.6-61.1,0.4
		c-2.8-2.4-2.8-4.2,0-6.3c3.9-3,7.8-6.2,12.8-8.1c-2.3,8.7,0.4,15.4,7.6,19.9c6.8,4.2,13.9,4,20.6-0.5
		C362.2,169.4,364.6,163,362,154.4z"/>
</g>
<path fill="#F6F6F6" d="M348.8,167.1c2.1-4.7,1.8-9.3,0.8-13.9c1.9-0.6,3.5,0.3,5.1,0.6c0.7,0.1,1.1,0.6,1.3,1.3
	C357,158.9,353.1,165.7,348.8,167.1z"/>
</svg>
