<?xml version="1.0" encoding="utf-8"?>
<!-- Generator: Adobe Adobe Illustrator 24.2.0, SVG Export Plug-In . SVG Version: 6.00 Build 0)  -->
<svg version="1.1" xmlns="http://www.w3.org/2000/svg" xmlns:xlink="http://www.w3.org/1999/xlink" x="0px" y="0px"
	 viewBox="0 0 750 1000" style="enable-background:new 0 0 750 1000;" xml:space="preserve">
<style type="text/css">
	.st0{fill:none;stroke:#000000;stroke-miterlimit:10;}
	.st1{fill:#2C0078;}
	.st2{fill:#EDA514;}
	.st3{display:none;fill:#2C0078;}
	.st4{display:none;}
	.st5{display:inline;}
	.st6{display:inline;fill:#EDA514;}
	.st7{fill:none;}
	.st8{fill:#EDCF9F;}
	.st9{display:inline;fill:none;stroke:#000000;stroke-width:8.1928;stroke-miterlimit:10;stroke-dasharray:0,0,0,0,0,0;}
	.st10{display:inline;fill:none;stroke:#000000;stroke-miterlimit:10;stroke-dasharray:0,0,0,0,0,0;}
	.st11{fill:none;stroke:#000000;stroke-width:8.1928;stroke-miterlimit:10;stroke-dasharray:0,0,0,0,0,0;}
	.st12{display:inline;fill:#EDCF9F;}
	.st13{fill:none;stroke:#380A0A;stroke-miterlimit:10;}
	.st14{fill:#A6720A;}
	.st15{fill:#A6720A;stroke:#A6720A;stroke-miterlimit:10;}
	.st16{fill:none;stroke:#A6720A;stroke-width:2.2221;stroke-miterlimit:10;}
	.st17{fill:none;stroke:#A6720A;stroke-miterlimit:10;}
	.st18{fill:#998F40;}
	.st19{fill:#380A0A;}
	.st20{fill:#B35095;}
	.st21{fill:#B37B50;}
	.st22{fill:none;stroke:#380A0A;stroke-width:0.4744;stroke-miterlimit:10;}
	.st23{fill:#380A0A;stroke:#000000;stroke-width:0.4744;stroke-miterlimit:10;}
	.st24{fill:#2C0078;stroke:#380A0A;stroke-width:7;stroke-miterlimit:10;}
	.st25{display:inline;fill:#A6720A;stroke:#A6720A;stroke-miterlimit:10;}
	.st26{fill:#2C0078;stroke:#A6720A;stroke-width:2.2221;stroke-miterlimit:10;}
	.st27{opacity:0;fill:none;stroke:#EDA514;stroke-width:2.2221;stroke-miterlimit:10;}
</style>

<g id="LandingPage">
	<rect id="BG_2_" y="0" class="st1" width="750" height="1000"/>
	<g id="Features_4_">
		<g id="Lock_5_">
			<g>
				<g>
					<g>
						<path class="st14" d="M171.79,114.22c1.59-8.33,1.64-16.87,2.69-25.26c0.5-3.96,1.16-7.95,2.53-11.72
							c1-2.76,2.49-5.62,5.01-7.23c2.72-1.73,6.39-1.96,9.46-1.16c3.01,0.78,5.46,2.71,7.34,5.15c4.44,5.77,5.98,13.62,7.06,20.66
							c1.14,7.45,1.3,14.99,2.34,22.44c0.1,0.71,1.23,0.1,1.49-0.09c0.54-0.39,1.1-1.09,1-1.8c-0.97-6.92-1.14-13.93-2.11-20.85
							c-1.04-7.48-2.56-15.62-7-21.93c-1.85-2.63-4.35-4.8-7.43-5.83c-3.3-1.1-7.17-0.93-10.36,0.45
							c-7.32,3.16-9.91,11.54-11.2,18.75c-1.76,9.86-1.5,19.97-3.37,29.81c-0.14,0.75,0.81,0.56,1.19,0.37
							C171.1,115.64,171.65,114.95,171.79,114.22L171.79,114.22z"/>
					</g>
				</g>
				<g>
					<g>
						<path class="st14" d="M184.22,109.8c0-5.37,0.05-10.76,0.51-16.12c0.21-2.52,0.5-5.07,1.05-7.54
							c0.37-1.65,0.81-3.56,1.87-4.93c0.17-0.21,0.27-0.37,0.7-0.42c0.58-0.07,1.16,0.08,1.67,0.37c1.22,0.71,2,2.12,2.55,3.37
							c1.8,4.04,2.39,8.67,2.86,13.03c0.51,4.72,0.71,9.48,0.71,14.22c0,1.3,2.27-0.33,2.27-1.24c0-4.55-0.2-9.11-0.64-13.65
							c-0.46-4.75-1.03-9.87-3.06-14.25c-1.3-2.82-3.99-5.54-7.14-3.28c-3.52,2.53-4.21,7.96-4.73,11.91
							c-0.86,6.54-0.9,13.18-0.9,19.77C181.96,112.34,184.22,110.72,184.22,109.8L184.22,109.8z"/>
					</g>
				</g>
			</g>
			<g id="LogoBase_35_">
				<g id="Ring1_104_">
					<g>
						<path class="st14" d="M151.59,148.59c0.07-15.59,9.79-29.78,24.65-34.84c14.92-5.09,31.81-0.07,41.73,12.11
							c9.94,12.2,11.36,29.89,3.19,43.39c-8.12,13.41-24.46,19.91-39.65,16.54c-15.1-3.35-26.96-15.92-29.43-31.19
							C151.75,152.6,151.6,150.6,151.59,148.59c-0.01-1.31-2.29,0.33-2.28,1.25c0.07,16.46,10.53,31.48,26.13,36.94
							c15.86,5.56,33.64,0.02,44.22-12.84c10.58-12.86,12.12-31.43,3.48-45.72c-8.61-14.23-25.76-21.39-41.96-17.83
							c-16.01,3.52-28.75,17.05-31.38,33.21c-0.33,2.06-0.49,4.14-0.5,6.23C149.3,151.15,151.59,149.51,151.59,148.59z"/>
					</g>
				</g>
				<g id="Ring2_104_">
					<g>
						<path class="st14" d="M166.19,148.67c0.07-9.56,5.96-18.21,15.14-21.2c9.17-3,19.45,0.22,25.46,7.71
							c5.96,7.42,6.83,18.14,1.93,26.33c-4.95,8.28-15.1,12.15-24.4,9.96C173.83,169,166.27,159.44,166.19,148.67
							c-0.01-1.14-1.99,0.28-1.98,1.08c0.07,10.29,6.58,19.66,16.38,23.01c9.93,3.4,20.95-0.19,27.55-8.18
							c6.6-8,7.65-19.56,2.3-28.49c-5.35-8.93-16.09-13.38-26.21-11.13c-11.43,2.55-19.94,13.1-20.03,24.79
							C164.2,150.89,166.18,149.47,166.19,148.67z"/>
					</g>
				</g>
				<g id="Ring3_100_">
					<g>
						<path class="st14" d="M175.23,148.71c0.07-5.81,3.56-10.99,9.2-12.73c5.56-1.71,11.71,0.32,15.32,4.82
							c3.63,4.52,4.22,11.12,1.17,16.1c-3.06,5-9.29,7.14-14.88,5.69C179.74,160.97,175.3,155.19,175.23,148.71
							c-0.01-1.05-1.84,0.26-1.83,1c0.08,6.53,4.2,12.43,10.48,14.44c6.26,2.01,13.11-0.4,17.2-5.42
							c4.14-5.07,4.85-12.34,1.42-17.98c-3.41-5.6-10.19-8.28-16.53-6.78c-7.16,1.7-12.49,8.39-12.57,15.73
							C173.39,150.76,175.22,149.45,175.23,148.71z"/>
					</g>
				</g>
				<g id="Ring4_109_">
					<circle class="st14" cx="189.06" cy="149.21" r="5.66"/>
				</g>
			</g>
		</g>
		<g id="Cam_4_" class="st4">
			<path class="st25" d="M591.32,198.32c-0.5-0.64-1.37-1.03-2.08-1.37c-1.06-0.49-2.16-0.9-3.25-1.31
				c-2.53-0.96-5.17-1.91-7.35-3.55c-0.95-0.71-1.88-1.59-2.38-2.69c-0.59-1.27-0.49-2.63-0.4-3.99c0.04-0.66,0.09-1.32,0.16-1.98
				c0.07-0.68,0.15-1.37,0.25-2.06c-0.73,0.32-1.47,0.62-2.22,0.89c-0.1,0.69-0.2,1.39-0.26,2.08c-0.04,0.32-0.08,0.65-0.1,0.97
				c-0.14,1.48-0.34,3.11-0.06,4.58c0.47,2.47,2.6,4.16,4.68,5.34c2.34,1.33,4.89,2.21,7.38,3.18c0.91,0.36,1.87,0.71,2.7,1.22
				c0.29,0.18,0.59,0.38,0.82,0.64c0.14,0.15,0.16,0.25,0.17,0.33v0.01c-0.02,0.01-0.03,0.02-0.04,0.03
				c-0.01,0.01-0.03,0.02-0.04,0.03c-0.03,0.03-0.06,0.04-0.09,0.06c-0.01,0.01-0.02,0.02-0.03,0.02c-0.03,0.03-0.07,0.04-0.1,0.06
				c-0.79,0.43-1.25,0.63-2.18,0.95c-2.24,0.76-4.57,1.21-6.9,1.57c-6.52,1.02-13.16,1.34-19.75,1.33
				c-6.66-0.01-13.4-0.35-19.97-1.56c-2.5-0.45-5.01-1.03-7.36-2c-0.78-0.32-1.56-0.67-2.27-1.14c0.91-0.23,1.83-0.42,2.74-0.64
				c2.36-0.58,4.74-1.32,6.82-2.59c2.39-1.46,4.43-3.59,5.26-6.31c0.49-1.63,0.48-3.29,0.43-4.97c-0.01-0.4-0.03-0.81-0.05-1.21
				c-0.05-1.03-0.14-2.07-0.26-3.1c-0.91-0.42-1.81-0.87-2.68-1.36c0.2,1.13,0.35,2.26,0.46,3.4c0.17,1.71,0.26,3.42,0.26,5.15
				c0.01,2.65-0.86,4.81-2.86,6.23c-1.9,1.35-4.32,2.04-6.59,2.59c-1.65,0.4-3.57,0.57-5.05,1.43c-0.74,0.43-1.78,1.39-1.54,2.35
				c0.15,0.62,0.85,1.01,1.35,1.31c1.91,1.16,4.08,1.85,6.24,2.4c6.3,1.59,12.91,2.06,19.38,2.25c6.95,0.21,13.93,0.01,20.83-0.79
				c2.78-0.32,5.55-0.76,8.27-1.42c1.89-0.47,3.87-1.04,5.54-2.08C590.43,201.79,592.58,199.92,591.32,198.32z M529.12,200.37
				c0.01,0,0.02-0.01,0.03-0.01C529.01,200.54,528.96,200.44,529.12,200.37z M529.85,199.29c-0.01,0-0.01,0-0.02-0.01
				C529.84,199.29,529.87,199.24,529.85,199.29z"/>
			<g id="LogoBase_12_" class="st5">
				<g id="Ring1_100_">
					<g>
						<path class="st14" d="M523.44,146.34c0.07-15.59,9.79-29.78,24.65-34.84c14.92-5.09,31.81-0.07,41.73,12.11
							c9.94,12.2,11.36,29.89,3.19,43.39c-8.12,13.41-24.46,19.91-39.65,16.54c-15.1-3.35-26.96-15.92-29.43-31.19
							C523.6,150.36,523.45,148.36,523.44,146.34c-0.01-1.31-2.29,0.33-2.28,1.25c0.07,16.46,10.53,31.48,26.13,36.94
							c15.86,5.56,33.64,0.02,44.22-12.84c10.58-12.86,12.12-31.43,3.48-45.72c-8.61-14.23-25.76-21.39-41.96-17.83
							c-16.01,3.52-28.75,17.05-31.38,33.21c-0.33,2.06-0.49,4.14-0.5,6.23C521.15,148.9,523.44,147.27,523.44,146.34z"/>
					</g>
				</g>
				<g id="Ring2_101_">
					<g>
						<path class="st14" d="M538.04,146.43c0.07-9.56,5.96-18.21,15.14-21.2c9.17-3,19.45,0.22,25.46,7.71
							c5.96,7.42,6.83,18.14,1.93,26.33c-4.95,8.28-15.1,12.15-24.4,9.96C545.68,166.76,538.12,157.19,538.04,146.43
							c-0.01-1.14-1.99,0.28-1.98,1.08c0.07,10.29,6.58,19.66,16.38,23.01c9.93,3.4,20.95-0.19,27.55-8.18
							c6.6-8,7.65-19.56,2.3-28.49c-5.35-8.93-16.09-13.38-26.21-11.13c-11.43,2.55-19.94,13.1-20.03,24.79
							C536.05,148.64,538.03,147.23,538.04,146.43z"/>
					</g>
				</g>
				<g id="Ring3_97_">
					<g>
						<path class="st14" d="M547.08,146.47c0.07-5.81,3.56-10.99,9.2-12.73c5.56-1.71,11.71,0.32,15.32,4.82
							c3.63,4.52,4.22,11.12,1.17,16.1c-3.06,5-9.29,7.14-14.88,5.69C551.59,158.72,547.15,152.94,547.08,146.47
							c-0.01-1.05-1.84,0.26-1.83,1c0.08,6.53,4.2,12.43,10.48,14.44c6.26,2.01,13.11-0.4,17.2-5.42
							c4.14-5.07,4.85-12.34,1.42-17.98c-3.41-5.6-10.19-8.28-16.53-6.78c-7.16,1.7-12.49,8.39-12.57,15.73
							C545.24,148.51,547.07,147.21,547.08,146.47z"/>
					</g>
				</g>
				<g id="Ring4_106_">
					<circle class="st14" cx="560.91" cy="146.97" r="5.66"/>
				</g>
			</g>
		</g>
		<g id="Token_6_" class="st4">
			<g id="Ring1_80_" class="st5">
				<g>
					<path class="st14" d="M337.52,152.45c0.07-15.59,9.79-29.78,24.65-34.84c14.92-5.09,31.81-0.07,41.73,12.11
						c9.94,12.2,11.36,29.89,3.19,43.39c-8.12,13.41-24.46,19.91-39.65,16.54c-15.1-3.35-26.96-15.92-29.43-31.19
						C337.68,156.47,337.53,154.46,337.52,152.45c-0.01-1.31-2.29,0.33-2.28,1.25c0.07,16.46,10.53,31.48,26.13,36.94
						c15.86,5.56,33.64,0.02,44.22-12.84c10.58-12.86,12.12-31.43,3.48-45.72c-8.61-14.23-25.76-21.39-41.96-17.83
						c-16.01,3.52-28.75,17.05-31.38,33.21c-0.33,2.06-0.49,4.14-0.5,6.23C335.23,155.01,337.51,153.37,337.52,152.45z"/>
				</g>
			</g>
			<g id="Ring2_94_" class="st5">
				<g>
					<path class="st14" d="M352.11,152.54c0.07-9.56,5.96-18.21,15.14-21.2c9.17-3,19.45,0.22,25.46,7.71
						c5.96,7.42,6.83,18.14,1.93,26.33c-4.95,8.28-15.1,12.15-24.4,9.96C359.75,172.86,352.19,163.3,352.11,152.54
						c-0.01-1.14-1.99,0.28-1.98,1.08c0.07,10.29,6.58,19.66,16.38,23.01c9.93,3.4,20.95-0.19,27.55-8.18
						c6.6-8,7.65-19.56,2.3-28.49c-5.35-8.93-16.09-13.38-26.21-11.13c-11.43,2.55-19.94,13.1-20.03,24.79
						C350.12,154.75,352.11,153.33,352.11,152.54z"/>
				</g>
			</g>
			<g id="Ring3_89_" class="st5">
				<g>
					<path class="st14" d="M361.15,152.58c0.07-5.81,3.56-10.99,9.2-12.73c5.56-1.71,11.71,0.32,15.32,4.82
						c3.63,4.52,4.22,11.12,1.17,16.1c-3.06,5-9.29,7.14-14.88,5.69C365.67,164.83,361.23,159.05,361.15,152.58
						c-0.01-1.05-1.84,0.26-1.83,1c0.08,6.53,4.2,12.43,10.48,14.44c6.26,2.01,13.11-0.4,17.2-5.42c4.14-5.07,4.85-12.34,1.42-17.98
						c-3.41-5.6-10.19-8.28-16.53-6.78c-7.16,1.7-12.49,8.39-12.57,15.73C359.31,154.62,361.14,153.32,361.15,152.58z"/>
				</g>
			</g>
			<g id="Ring4_99_" class="st5">
				<circle class="st14" cx="374.98" cy="153.08" r="5.66"/>
			</g>
		</g>
		<g id="Token_2_">
			<g id="CtmToken_1_">
				<g id="Ring1_30_">
					<g>
						<path class="st14" d="M337.95,147.71c0.07-15.63,9.77-29.88,24.64-35.04c15.06-5.22,32.14-0.2,42.2,12.1
							c10.03,12.27,11.47,30.09,3.27,43.69c-8.18,13.57-24.7,20.13-40.05,16.69c-15.21-3.4-27.11-16.09-29.58-31.47
							C338.11,151.71,337.96,149.71,337.95,147.71c-0.01-1.32-2.31,0.33-2.3,1.26c0.07,16.63,10.67,31.8,26.45,37.26
							c15.93,5.52,33.76-0.05,44.39-12.94c10.7-12.98,12.25-31.76,3.48-46.17c-8.67-14.25-25.87-21.43-42.12-17.89
							c-16.19,3.53-29.08,17.19-31.7,33.54c-0.33,2.05-0.48,4.13-0.49,6.21C335.64,150.28,337.95,148.63,337.95,147.71z"/>
					</g>
				</g>
				<g>
					<g>
						<path class="st14" d="M390.39,142.11c-3.93-9.47-16.1-12.13-24.09-6.01c-2.35,1.8-4.1,4.2-5.24,6.92
							c-0.2,0.48,0.18,0.67,0.58,0.58c0.53-0.12,0.97-0.7,1.17-1.17c2.18-5.21,7.4-8.04,12.94-7.83c5.65,0.21,10.66,3.65,12.83,8.87
							C388.92,144.31,390.69,142.83,390.39,142.11L390.39,142.11z"/>
					</g>
				</g>
				<g>
					<g>
						<path class="st14" d="M361.4,155.47c2.66,5.38,8.18,8.48,14.14,8.34c6.01-0.14,11.54-3.63,14.26-8.99
							c0.69-1.36-1.15-0.65-1.55,0.12c-2.4,4.73-7.32,7.17-12.53,7.03c-5.28-0.15-10.16-3.12-12.51-7.87
							C362.81,153.28,361.07,154.79,361.4,155.47L361.4,155.47z"/>
					</g>
				</g>
				<g>
					<g>
						<path class="st14" d="M352.09,135.01c7.3-13.03,25.67-17.1,38.03-8.9c4.3,2.85,7.72,6.9,9.89,11.58
							c0.48,1.04,2.68-0.85,2.28-1.73c-3.82-8.23-11.29-14.42-20.3-16c-7.85-1.37-16.02,0.6-22.58,5.07
							c-3.83,2.6-7.01,6.1-9.27,10.14c-0.26,0.46-0.29,1.04,0.34,1.08C351.11,136.29,351.82,135.49,352.09,135.01L352.09,135.01z"/>
					</g>
				</g>
				<g>
					<g>
						<path class="st14" d="M400.16,159.94c-6.53,13.91-25.26,19.09-38.24,11.04c-4.47-2.77-8.05-6.85-10.34-11.56
							c-0.5-1.03-2.7,0.87-2.28,1.73c4.07,8.36,11.88,14.51,21.18,15.73c8.06,1.06,16.39-1.31,22.82-6.25
							c3.73-2.86,6.81-6.57,8.81-10.83C402.92,158.06,400.63,158.95,400.16,159.94L400.16,159.94z"/>
					</g>
				</g>
				<g>
					<g>
						<path class="st14" d="M394.18,156.96c-4.93,10.61-18.77,13.99-28.64,8.22c-3.41-1.99-6.12-4.98-7.85-8.51
							c-0.38-0.78-2.03,0.65-1.71,1.3c3.07,6.28,9.04,10.61,15.97,11.56c6.03,0.83,12.29-0.81,17.13-4.51
							c2.81-2.15,5.07-4.96,6.56-8.17C396.24,155.55,394.53,156.22,394.18,156.96L394.18,156.96z"/>
					</g>
				</g>
				<g>
					<g>
						<path class="st14" d="M357.94,138.53c5.42-10.08,19.37-12.72,28.76-6.68c3.24,2.09,5.77,5.09,7.37,8.59
							c0.36,0.78,2.01-0.64,1.71-1.3c-2.88-6.27-8.55-10.72-15.35-11.92c-5.91-1.04-12.09,0.32-17.04,3.7
							c-2.89,1.97-5.26,4.64-6.91,7.72C355.8,139.91,357.56,139.25,357.94,138.53L357.94,138.53z"/>
					</g>
				</g>
				<g id="Ctm_1_">
					<g>
						<path class="st14" d="M374.32,145.05h-4.5v-2.3h12.19v2.3h-4.48v10.67h-3.2V145.05z"/>
					</g>
					<path class="st14" d="M355.57,150.49c-0.45,2.15-1.96,4.47-5.81,4.47c-4.02,0-6.09-2.78-6.09-6.66c0-3.81,2.33-6.85,6.26-6.85
						c4.35,0,5.56,3.12,5.63,4.58h-3.49c-0.22-1.05-0.82-1.79-2.21-1.79c-1.63,0-2.56,1.43-2.56,3.94c0,2.75,0.98,4,2.54,4
						c1.23,0,1.89-0.73,2.21-1.7H355.57z"/>
					<path class="st14" d="M394.5,145.79c0-0.94,0-1.86-0.02-2.79h2.86c0.04,0.26,0.1,0.87,0.12,1.29c0.55-0.81,1.42-1.54,3.01-1.54
						c1.55,0,2.41,0.8,2.79,1.65c0.63-0.88,1.57-1.65,3.33-1.65c1.88,0,3.43,1.16,3.43,3.97v7.1h-2.92v-6.73
						c0-0.98-0.35-1.93-1.58-1.93c-1.27,0-1.77,0.82-1.77,2.48v6.18h-2.94v-6.62c0-1.12-0.28-2.03-1.55-2.03
						c-1.22,0-1.79,0.75-1.79,2.6v6.04h-2.96V145.79z"/>
				</g>
			</g>
			<g>
				<path class="st14" d="M415.51,183.87c-2.43-3.53-6.96-5.52-11.03-6.89c-0.11-0.03-0.21-0.05-0.31-0.08
					c0,0.05-0.43-0.05-0.68-0.13c-0.29,0.44-0.6,0.87-0.95,1.24c-0.27,0.3-0.59,0.56-0.91,0.82c3.28,1.02,6.47,2.39,9.16,4.42
					c2.4,1.81,4.8,4.84,3.19,7.91c-0.72,1.37-2.08,2.46-3.49,3.36c-2.15,1.36-4.53,2.35-6.93,3.16c-6.5,2.2-13.41,3.18-20.24,3.56
					c-1.97,0.11-3.95,0.16-5.92,0.16c-7.33-0.01-14.71-0.69-21.83-2.48c-4.82-1.21-10.14-2.89-13.9-6.32
					c-2.34-2.13-3.6-5.25-1.55-7.89c1.07-1.38,2.8-2.49,4.43-3.36c1.58-0.85,3.25-1.53,4.94-2.12c-0.26-0.15-0.53-0.33-0.8-0.58
					c-0.29-0.27-0.52-0.54-0.72-0.83c-2.55,1.03-4.96,2.34-7.04,4.06c-2.84,2.36-5.42,6.1-3.58,9.85c2.01,4.11,7.01,6.31,11.06,7.79
					c6.83,2.49,14.19,3.56,21.42,3.99c2.1,0.13,4.2,0.18,6.31,0.19c7.81-0.01,15.68-0.77,23.24-2.79
					c5.13-1.37,10.78-3.38,14.57-7.28C416.6,190.9,417.82,187.22,415.51,183.87z"/>
				<g>
					<g>
						<path class="st14" d="M354.66,184.21c-1.85,1.25-3.25,2.78-3.07,5.13c0.11,1.46,1.02,2.67,2.12,3.58
							c3.6,3,8.84,4.08,13.35,4.73c6.31,0.91,12.84,0.89,19.13-0.17c4.47-0.75,9.44-1.96,12.98-4.97c1.36-1.15,2.67-2.75,2.77-4.61
							c0.15-2.79-2.52-4.57-4.68-5.72c-0.82-0.44-2.74,1.72-1.71,2.26c2.54,1.35,5.89,4.41,2.73,6.88
							c-3.01,2.37-7.35,3.27-11.03,3.87c-5.39,0.89-10.95,1.02-16.38,0.44c-4.29-0.46-8.76-1.3-12.65-3.24
							c-1.39-0.69-2.86-1.61-3.74-2.93c-0.33-0.49-0.56-1.06-0.6-1.66c-0.09-1.2,0.25-1.42,1.23-2.08c0.37-0.25,1.17-1.11,0.91-1.63
							C355.72,183.55,355.04,183.96,354.66,184.21L354.66,184.21z"/>
					</g>
				</g>
				<path class="st14" d="M391.48,185.22c-0.53,0.42-1.11,0.7-1.75,0.93c-0.34,0.24-0.73,0.42-1.15,0.54
					c0.07,0.05,0.15,0.09,0.22,0.14c0.78,0.53,2,1.55,1.59,2.63c-0.41,1.07-3.04,1.78-4.17,2.1c-2.86,0.81-5.87,1.06-8.84,1.08
					c-2.73-0.01-5.46-0.26-8.12-0.92c-1.74-0.43-3.65-1.01-5.06-2.18c-0.68-0.56-1.55-1.65-0.97-2.43c0.05-0.07,0.12-0.13,0.18-0.19
					c-0.53-0.11-1.05-0.25-1.54-0.47c-0.83,0.99-1.42,2.24-0.97,3.5c0.7,1.93,3.12,2.92,4.9,3.52c3.3,1.12,6.86,1.45,10.33,1.46
					c3.1-0.02,6.22-0.32,9.22-1.15c2.15-0.59,4.41-1.51,5.99-3.15c1.12-1.17,1.92-2.83,1.03-4.36
					C392.13,185.89,391.83,185.53,391.48,185.22z"/>
				<g id="Ring4_9_">
					<path class="st14" d="M376.76,190.45c3.15,0,5.22-1.47,5.78-2.46c0.1-0.17-4.92,0.65-5.82,0.59c-0.97,0-5.66-0.28-5.66-0.2
						C370.99,189.52,373.61,190.45,376.76,190.45z"/>
				</g>
				<g>
					<g id="Token_4_">
						<g id="Ring1_27_">
							<g>
								<path class="st14" d="M415.3,187.81c-0.06,2.1-0.2,4.19-0.3,6.29c-0.09,1.87-0.55,3.34-1.89,4.73
									c-2.05,2.12-4.89,3.48-7.59,4.54c-3.71,1.46-7.62,2.43-11.54,3.12c-9.59,1.68-19.56,1.85-29.22,0.65
									c-7.32-0.91-15.49-2.45-21.7-6.7c-2.01-1.37-4.11-3.29-4.46-5.84c-0.29-2.16-0.41-4.43-0.47-6.61
									c-0.02-0.8-1.41,0.2-1.39,0.76c0.06,2.21,0.23,4.46,0.47,6.65c0.23,2.11,1.59,3.86,3.17,5.2c2.47,2.1,5.54,3.48,8.56,4.57
									c4.1,1.48,8.4,2.41,12.7,3.05c10.08,1.49,20.51,1.46,30.57-0.18c7.05-1.15,15.19-2.98,20.72-7.84
									c1.76-1.55,3.23-3.54,3.41-5.95c0.18-2.39,0.28-4.81,0.35-7.21C416.71,186.26,415.32,187.25,415.3,187.81L415.3,187.81z"/>
							</g>
						</g>
					</g>
					<g id="Token_3_">
						<g id="Ring1_21_">
							<g>
								<path class="st14" d="M415.25,188.88c-0.03,2.21-0.11,4.42-0.16,6.64c-0.05,2.03,0.19,4.32-0.24,6.32
									c-0.58,2.69-3.25,4.5-5.49,5.74c-3.68,2.05-7.81,3.29-11.9,4.22c-10.96,2.48-22.64,2.72-33.76,1.21
									c-4.76-0.65-9.52-1.64-14.04-3.31c-3.19-1.17-6.52-2.69-8.93-5.16c-2-2.05-2.14-3.83-2.23-6.45
									c-0.09-2.75-0.22-5.5-0.26-8.24c-0.01-0.8-1.4,0.2-1.39,0.76c0.03,2.6,0.16,5.2,0.24,7.79c0.07,2.17-0.02,4.09,1.24,5.98
									c1.82,2.74,5.02,4.46,7.95,5.75c4.42,1.94,9.18,3.09,13.93,3.88c11.47,1.89,23.54,1.8,34.94-0.49
									c4.41-0.89,8.82-2.12,12.86-4.12c2.8-1.38,5.7-3.26,7.32-6.02c1.24-2.1,1.02-4.46,1.08-6.81c0.07-2.82,0.17-5.64,0.21-8.46
									C416.65,187.33,415.26,188.32,415.25,188.88L415.25,188.88z"/>
							</g>
						</g>
					</g>
				</g>
			</g>
		</g>
		<g id="Cam_3_">
			<path class="st14" d="M592.15,199.44c-0.52-0.66-1.4-1.06-2.14-1.41c-1.09-0.51-2.22-0.92-3.34-1.35
				c-2.6-0.98-7.07-1.97-9.32-3.65c-0.97-0.73-1.93-1.63-2.45-2.76c-0.61-1.31-0.5-2.7-0.41-4.11c0.04-0.68,0.1-1.36,0.17-2.04
				c0.01-0.14,0.04-0.28,0.05-0.42c-0.68,0.32-1.45,0.49-2.24,0.52c-0.03,0.28-0.08,0.56-0.11,0.83c-0.04,0.33-0.08,0.67-0.11,1
				c-0.14,1.53-0.35,3.19-0.06,4.71c0.48,2.54,2.68,4.27,4.81,5.49c2.4,1.37,6.78,2.27,9.35,3.27c0.94,0.37,1.92,0.73,2.78,1.25
				c0.3,0.18,0.61,0.39,0.84,0.66c0.14,0.16,0.17,0.25,0.18,0.34v0.01c-0.02,0.01-0.03,0.02-0.04,0.03
				c-0.01,0.01-0.03,0.02-0.04,0.04c-0.03,0.03-0.06,0.04-0.09,0.06c-0.01,0.01-0.02,0.02-0.03,0.02c-0.04,0.03-0.07,0.04-0.11,0.06
				c-0.81,0.45-1.29,0.65-2.24,0.97c-2.3,0.78-4.7,1.25-7.1,1.61c-6.7,1.05-13.53-7.4-20.32-7.41c-6.85-0.01-13.79,8.42-20.54,7.17
				c-2.57-0.46-5.15-1.06-7.57-2.05c-0.81-0.32-1.61-0.68-2.33-1.18c0.94-0.24,1.88-0.43,2.82-0.66c2.43-0.6,4.87-1.36,7.01-2.67
				c2.46-1.5,8.06-3.69,8.92-6.49c0.51-1.68,0.49-3.39,0.44-5.12c-0.01-0.33-0.02-0.67-0.04-1c-0.9-0.15-1.73-0.63-2.4-1.24
				c-0.07-0.06-0.11-0.14-0.17-0.2c0,0.03,0.01,0.07,0.01,0.1c0.18,1.76,0.27,3.52,0.27,5.29c0.01,2.73-4.4,4.95-6.45,6.41
				c-1.96,1.39-4.44,2.1-6.77,2.67c-1.69,0.41-3.67,0.59-5.2,1.47c-0.76,0.44-1.83,1.43-1.59,2.42c0.16,0.64,0.88,1.04,1.39,1.34
				c1.97,1.19,4.2,1.87,6.42,2.47c12.77,3.42,19.42-4.03,26.07-3.83c7.14,0.22,6.77,3.74,14.4,4.45c2.87,0.26,6.58,0.1,9.38-0.58
				c1.95-0.48,3.98-1.07,5.7-2.14C591.23,203.01,593.44,201.09,592.15,199.44z"/>
			<g id="LogoBase_3_">
				<g id="Ring1_36_">
					<g>
						<path class="st14" d="M522.33,145.99c0.07-16,10.03-30.57,25.26-35.81c15.38-5.28,32.8-0.11,43.03,12.45
							c10.21,12.53,11.65,30.72,3.27,44.59c-8.32,13.77-25.08,20.47-40.69,17.05c-15.59-3.42-27.84-16.38-30.38-32.14
							C522.49,150.09,522.34,148.04,522.33,145.99c-0.01-1.35-2.35,0.34-2.35,1.29c0.07,16.96,10.87,32.43,26.95,38.03
							c16.31,5.67,34.57-0.04,45.43-13.26c10.85-13.22,12.44-32.3,3.57-46.97c-8.87-14.67-26.54-22.03-43.23-18.34
							c-16.45,3.64-29.53,17.57-32.21,34.18c-0.34,2.11-0.5,4.24-0.51,6.37C519.98,148.62,522.33,146.93,522.33,145.99z"/>
					</g>
				</g>
				<g id="Ring2_17_">
					<g>
						<path class="st14" d="M537.34,146.07c0.07-9.81,6.1-18.68,15.51-21.79c9.42-3.11,19.99,0.16,26.2,7.83
							c6.22,7.69,7.11,18.86,1.93,27.34c-5.13,8.4-15.48,12.29-24.96,10.07C545.21,167,537.42,157.15,537.34,146.07
							c-0.01-1.17-2.04,0.29-2.04,1.12c0.07,10.68,6.9,20.39,17.11,23.76c10.23,3.38,21.53-0.41,28.23-8.69
							c6.71-8.29,7.68-20.16,2.11-29.29c-5.57-9.13-16.62-13.6-27-11.23c-11.68,2.66-20.36,13.51-20.44,25.46
							C535.3,148.35,537.34,146.89,537.34,146.07z"/>
					</g>
				</g>
				<g id="Ring3_15_">
					<g>
						<path class="st14" d="M546.64,146.11c0.07-5.96,3.64-11.28,9.42-13.08c5.71-1.78,12.04,0.29,15.77,4.91
							c3.75,4.64,4.36,11.4,1.26,16.54c-3.1,5.15-9.5,7.37-15.23,5.93C551.34,158.78,546.71,152.81,546.64,146.11
							c-0.01-1.08-1.89,0.27-1.88,1.03c0.08,6.7,4.3,12.77,10.74,14.85c6.5,2.1,13.58-0.43,17.81-5.66
							c4.19-5.18,4.89-12.6,1.42-18.34c-3.52-5.83-10.53-8.58-17.11-7.01c-7.33,1.76-12.77,8.65-12.86,16.16
							C544.75,148.22,546.63,146.87,546.64,146.11z"/>
					</g>
				</g>
				<g id="Ring4_21_">
					<circle class="st14" cx="560.87" cy="146.63" r="5.82"/>
				</g>
			</g>
		</g>
	</g>
	<g id="Text">
		<g id="Private">
			<path class="st2" d="M122.77,320.55v-49.01h20.58c9.8,0,15.33,7.28,15.33,15.75c0,8.4-5.6,15.33-15.33,15.33h-11.62v17.92H122.77
				z M141.95,295.56c4.69,0,7.56-3.43,7.56-8.33c0-5.04-2.87-8.47-7.56-8.47h-10.22v16.8H141.95z"/>
			<path class="st2" d="M231.41,302.07c0.84,5.25,3.5,11.48,8.68,11.48c2.1,0,4.06-0.91,5.39-2.17l3.15,6.16
				c-2.8,2.45-5.67,3.78-9.8,3.78c-11.55,0-15.12-13.16-15.61-18.76h-8.26v17.99H206v-49.01h21.14c9.73,0,15.26,7.35,15.26,15.75
				C242.41,294.44,238.27,300.32,231.41,302.07z M225.74,295.42c4.62,0,7.56-3.36,7.56-8.19c0-4.76-3.01-8.26-7.56-8.26h-10.78
				v16.45H225.74z"/>
			<path class="st2" d="M302.53,320.55h-8.96v-49.01h8.96V320.55z"/>
			<path class="st2" d="M349.36,271.55h9.31l12.18,37.59l12.18-37.59h9.31l-17.22,49.01h-8.61
				C360.84,304.24,355.03,287.86,349.36,271.55z"/>
			<path class="st2" d="M429.51,320.55l18.9-49.01h9.31l19.04,49.01h-9.17l-3.71-9.59h-21.56l-3.57,9.59H429.51z M453.1,280.65
				l-8.26,23.03h16.45L453.1,280.65z"/>
			<path class="st2" d="M551.31,271.55v7.21h-15.12v41.79h-8.96v-41.79h-14.98v-7.21H551.31z"/>
			<path class="st2" d="M598.28,320.55v-49.01h31.85v7.21h-22.89v14.21h19.95v7.14h-19.95v13.3h22.89v7.14H598.28z"/>
		</g>
		<g id="DirectPay">
			<path class="st2" d="M136.42,440.55h-17.36v-48.94h17.36c14.77,0,25.41,10.99,25.41,24.43
				C161.84,429.49,151.19,440.55,136.42,440.55z M136.42,398.76h-8.4v34.65h8.4c9.45,0,16.24-7.84,16.24-17.36
				C152.67,406.53,145.87,398.76,136.42,398.76z"/>
			<path class="st2" d="M194.03,440.55h-8.96v-49.01h8.96V440.55z"/>
			<path class="st2" d="M245.97,422.07c0.84,5.25,3.5,11.48,8.68,11.48c2.1,0,4.06-0.91,5.39-2.17l3.15,6.16
				c-2.8,2.45-5.67,3.78-9.8,3.78c-11.55,0-15.12-13.16-15.61-18.76h-8.26v17.99h-8.96v-49.01h21.14c9.73,0,15.26,7.35,15.26,15.75
				C256.96,414.44,252.83,420.32,245.97,422.07z M240.3,415.42c4.62,0,7.56-3.36,7.56-8.19c0-4.76-3.01-8.26-7.56-8.26h-10.78v16.45
				H240.3z"/>
			<path class="st2" d="M283.28,440.55v-49.01h31.85v7.21h-22.89v14.21h19.95v7.14h-19.95v13.3h22.89v7.14H283.28z"/>
			<path class="st2" d="M361.4,390.78c7.42,0,12.32,2.31,16.87,5.74l-3.57,6.72c-3.43-2.52-7.98-4.48-13.23-4.48
				c-11.13,0-17.64,7.77-17.64,17.29c0,9.52,6.51,17.29,17.64,17.29c5.25,0,9.8-1.89,13.23-4.48l3.57,6.79
				c-4.55,3.43-9.45,5.67-16.87,5.67c-16.59,0-26.74-11.62-26.74-25.27C334.66,402.4,344.81,390.78,361.4,390.78z"/>
			<path class="st2" d="M434.41,391.55v7.21h-15.12v41.79h-8.96v-41.79h-14.98v-7.21H434.41z"/>
			<path class="st2" d="M485.86,440.55v-49.01h20.58c9.8,0,15.33,7.28,15.33,15.75c0,8.4-5.6,15.33-15.33,15.33h-11.62v17.92H485.86
				z M505.04,415.56c4.69,0,7.56-3.43,7.56-8.33c0-5.04-2.87-8.47-7.56-8.47h-10.22v16.8H505.04z"/>
			<path class="st2" d="M534.58,440.55l18.9-49.01h9.31l19.04,49.01h-9.17l-3.71-9.59h-21.56l-3.57,9.59H534.58z M558.17,400.65
				l-8.26,23.03h16.45L558.17,400.65z"/>
			<path class="st2" d="M628.38,391.55h10.01v0.91l-18.69,28v20.09h-8.96v-20.02l-18.69-28.07v-0.91h10.01l13.09,21L628.38,391.55z"
				/>
		</g>
		<g id="VideoChat">
			<path class="st2" d="M120.57,511.55h9.31l12.18,37.59l12.18-37.59h9.31l-17.22,49.01h-8.61
				C132.05,544.24,126.24,527.86,120.57,511.55z"/>
			<path class="st2" d="M190.92,560.55h-8.96v-49.01h8.96V560.55z"/>
			<path class="st2" d="M231.38,560.55h-17.36v-48.94h17.36c14.77,0,25.41,10.99,25.41,24.43S246.15,560.55,231.38,560.55z
				 M231.38,518.76h-8.4v34.65h8.4c9.45,0,16.24-7.84,16.24-17.36S240.83,518.76,231.38,518.76z"/>
			<path class="st2" d="M276.53,560.55v-49.01h31.85v7.21h-22.89v14.21h19.95v7.14h-19.95v13.3h22.89v7.14H276.53z"/>
			<path class="st2" d="M349.96,510.78c14,0,25.62,11.34,25.62,25.27c0,13.93-11.62,25.27-25.62,25.27s-25.62-11.34-25.62-25.27
				C324.34,522.12,335.96,510.78,349.96,510.78z M349.96,553.2c9.03,0,16.52-7.28,16.52-17.15c0-9.87-7.49-17.15-16.52-17.15
				c-9.03,0-16.52,7.28-16.52,17.15C333.44,545.92,340.93,553.2,349.96,553.2z"/>
			<path class="st2" d="M446.91,510.78c7.42,0,12.32,2.31,16.87,5.74l-3.57,6.72c-3.43-2.52-7.98-4.48-13.23-4.48
				c-11.13,0-17.64,7.77-17.64,17.29s6.51,17.29,17.64,17.29c5.25,0,9.8-1.89,13.23-4.48l3.57,6.79c-4.55,3.43-9.45,5.67-16.87,5.67
				c-16.59,0-26.74-11.62-26.74-25.27C420.17,522.4,430.32,510.78,446.91,510.78z"/>
			<path class="st2" d="M511.94,560.55v-19.81h-20.72v19.81h-8.96v-49.01h8.96v22.05h20.72v-22.05h8.96v49.01H511.94z"/>
			<path class="st2" d="M538.32,560.55l18.9-49.01h9.31l19.04,49.01h-9.17l-3.71-9.59h-21.56l-3.57,9.59H538.32z M561.92,520.65
				l-8.26,23.03h16.45L561.92,520.65z"/>
			<path class="st2" d="M631.78,511.55v7.21h-15.12v41.79h-8.96v-41.79h-14.98v-7.21H631.78z"/>
		</g>
	</g>
	<g id="Buttons">
		<g id="Button2" class="svg-landing-button" 
            onclick="parent.open('https://app.cryptomeet.me')">
			<path id="Border_1_" class="st26  svg-button-border" d="M73.52,868.83L73.52,868.83c0-32.58,26.42-59,59-59h484.98c32.58,0,59,26.42,59,59v0
				c0,32.58-26.42,59-59,59H132.52C99.94,927.83,73.52,901.41,73.52,868.83z"/>
			<path id="BorderShine_1_" class="st27" d="M73.52,868.83L73.52,868.83c0-32.58,26.42-59,59-59h484.98c32.58,0,59,26.42,59,59v0
				c0,32.58-26.42,59-59,59H132.52C99.94,927.83,73.52,901.41,73.52,868.83z"/>
			<g id="CreeptoMeetNow">
				<path class="st2" d="M194.61,852.08c4.08,0,6.84,1.2,9.24,3l-1.56,3c-1.84-1.36-4.84-2.4-7.68-2.4c-7,0-11.04,4.96-11.04,10.84
					c0,5.88,4.04,10.84,11.04,10.84c2.84,0,5.84-1.04,7.68-2.4l1.56,3c-2.4,1.8-5.16,3-9.24,3c-9.52,0-15.12-6.64-15.12-14.44
					C179.5,858.72,185.1,852.08,194.61,852.08z"/>
				<path class="st2" d="M215.94,865.04c0.68-3.16,2.88-4.96,5.36-4.96c0.72,0,1.28,0.2,1.84,0.44v3.8
					c-0.64-0.36-1.4-0.52-2.12-0.52c-1.32,0-5.08,0.64-5.08,9.16v7.56h-3.88v-20h3.88V865.04z"/>
				<path class="st2" d="M244.57,860.52h4.52l-12.28,28.96h-3.76l3.72-9.64l-8.44-19.32h4.44l6.12,14.92L244.57,860.52z"/>
				<path class="st2" d="M267.97,880.96c-2.68,0-5.32-0.92-7.24-3.64v12.16h-3.88v-28.96h3.88v3.2c1.92-2.72,4.56-3.64,7.24-3.64
					c6,0,9.92,4.72,9.92,10.44S273.97,880.96,267.97,880.96z M267.49,877.52c4.16,0,6.52-3.2,6.52-7c0-3.8-2.36-7-6.52-7
					c-4.04,0-6.8,2.96-6.84,7C260.69,874.56,263.45,877.52,267.49,877.52z"/>
				<path class="st2" d="M291.13,874.48c0,2.2,1.08,3.08,2.4,3.08c1.24,0,2.44-0.72,2.44-2.2c0-0.28-0.04-1.04-0.32-1.64
					c1.16,0,2.24,0,3.4,0c0.36,0.8,0.36,2.16,0.36,2.16c0,2.84-2.04,5.08-5.92,5.08c-3.16,0-6.24-1.64-6.24-6.76v-10.64h-3.28v-3.04
					h3.28l0.88-5.76h3v5.76h6.36v3.04h-6.36V874.48z"/>
				<path class="st2" d="M316.01,860.08c5.8,0,10.52,4.72,10.52,10.44c0,5.76-4.72,10.44-10.52,10.44
					c-5.76,0-10.48-4.64-10.48-10.44C305.54,864.76,310.25,860.08,316.01,860.08z M316.01,877.52c3.68,0,6.64-3.12,6.64-6.96
					c0-3.88-2.96-7.04-6.64-7.04c-3.64,0-6.6,3.16-6.6,7.04C309.41,874.4,312.37,877.52,316.01,877.52z"/>
				<path class="st2" d="M355.29,858.44l-1.92,22.08h-4.04l2.64-28h4.48l9.32,22.32l9.32-22.32h4.48l2.64,28h-4.04l-1.92-22.08
					l-9,21.72h-2.96L355.29,858.44z"/>
				<path class="st2" d="M410.21,877.24c-2.56,2.88-5.8,3.72-8.76,3.72c-6.96,0-11.28-4.68-11.28-10.36
					c0-5.84,4.56-10.52,10.76-10.52c5.28,0,10.2,3.4,10.2,10.8h-17.08c-0.12,3.88,3,6.64,7.44,6.64c2.4,0,4.56-0.8,6.56-2.52
					L410.21,877.24z M394.41,867.88h12.72c-1.08-3.64-3.92-4.4-6.12-4.4C398.65,863.48,395.73,864.4,394.41,867.88z"/>
				<path class="st2" d="M438.01,877.24c-2.56,2.88-5.8,3.72-8.76,3.72c-6.96,0-11.28-4.68-11.28-10.36
					c0-5.84,4.56-10.52,10.76-10.52c5.28,0,10.2,3.4,10.2,10.8h-17.08c-0.12,3.88,3,6.64,7.44,6.64c2.4,0,4.56-0.8,6.56-2.52
					L438.01,877.24z M422.21,867.88h12.72c-1.08-3.64-3.92-4.4-6.12-4.4C426.45,863.48,423.53,864.4,422.21,867.88z"/>
				<path class="st2" d="M451.97,874.48c0,2.2,1.08,3.08,2.4,3.08c1.24,0,2.44-0.72,2.44-2.2c0-0.28-0.04-1.04-0.32-1.64
					c1.16,0,2.24,0,3.4,0c0.36,0.8,0.36,2.16,0.36,2.16c0,2.84-2.04,5.08-5.92,5.08c-3.16,0-6.24-1.64-6.24-6.76v-10.64h-3.28v-3.04
					h3.28l0.88-5.76h3v5.76h6.36v3.04h-6.36V874.48z"/>
				<path class="st2" d="M487.29,859.8v20.72h-4v-28h2.96l15.32,20.64v-20.64h4.04v28h-2.96L487.29,859.8z"/>
				<path class="st2" d="M525.17,860.08c5.8,0,10.52,4.72,10.52,10.44c0,5.76-4.72,10.44-10.52,10.44
					c-5.76,0-10.48-4.64-10.48-10.44C514.69,864.76,519.41,860.08,525.17,860.08z M525.17,877.52c3.68,0,6.64-3.12,6.64-6.96
					c0-3.88-2.96-7.04-6.64-7.04c-3.64,0-6.6,3.16-6.6,7.04C518.57,874.4,521.53,877.52,525.17,877.52z"/>
				<path class="st2" d="M555.37,861.12h3.28l4.56,14.2l5.2-14.8h4.04l-7.24,20h-3.68l-4.52-13.92l-4.52,13.92h-3.68l-7.24-20h4.04
					l5.2,14.8L555.37,861.12z"/>
			</g>
		</g>
		<g id="Button1" class="svg-landing-button"
        onclick="parent.location='#start'">
			<path id="Border" class="st26 svg-button-border" d="M73.49,702.83L73.49,702.83c0-32.58,26.42-59,59-59h484.98c32.58,0,59,26.42,59,59v0
				c0,32.58-26.42,59-59,59H132.49C99.91,761.83,73.49,735.41,73.49,702.83z"/>
			<path id="BorderShine" class="st27" d="M73.49,702.83L73.49,702.83c0-32.58,26.42-59,59-59h484.98c32.58,0,59,26.42,59,59v0
				c0,32.58-26.42,59-59,59H132.49C99.91,761.83,73.49,735.41,73.49,702.83z"/>
			<g id="Buy">
				<path class="st2" d="M143.17,699.43c4.48,0.44,6.72,3.4,6.72,6.88c0,4.48-3.76,7.44-9.32,7.44h-11.24v-28h9.96
					c5.32,0,9.24,2.72,9.24,7.2C148.52,695.87,146.84,698.51,143.17,699.43z M137.69,698.11c4.88,0,6.72-2.44,6.72-4.88
					c0-2.76-2.4-4.2-5.12-4.2h-5.96v9.08H137.69z M133.33,701.23v9.24h7.24c3,0,5.2-1.68,5.2-4.28c0-2.56-2.12-4.96-7.24-4.96
					H133.33z"/>
				<path class="st2" d="M162.37,705.03c0,4.24,1.96,5.72,4.08,5.72c2.08,0,6.44-1.4,6.44-7.72v-9.28h3.88v20h-3.88v-4
					c-0.84,2.84-3.44,4.44-6.72,4.44c-4.32,0-7.68-2.72-7.68-9.16v-11.28h3.88V705.03z"/>
				<path class="st2" d="M200.8,693.75h4.52l-12.28,28.96h-3.76l3.72-9.64l-8.44-19.32h4.44l6.12,14.92L200.8,693.75z"/>
				<path class="st2" d="M240.36,685.31c4.08,0,6.84,1.2,9.24,3l-1.56,3c-1.84-1.36-4.84-2.4-7.68-2.4c-7,0-11.04,4.96-11.04,10.84
					s4.04,10.84,11.04,10.84c2.84,0,5.84-1.04,7.68-2.4l1.56,3c-2.4,1.8-5.16,3-9.24,3c-9.52,0-15.12-6.64-15.12-14.44
					S230.85,685.31,240.36,685.31z"/>
				<path class="st2" d="M278.08,685.75v3.28h-9.32v24.72h-4v-24.72h-9.32v-3.28H278.08z"/>
				<path class="st2" d="M291.04,691.67l-1.92,22.08h-4.04l2.64-28h4.48l9.32,22.32l9.32-22.32h4.48l2.64,28h-4.04L312,691.67
					l-9,21.72h-2.96L291.04,691.67z"/>
				<path class="st2" d="M345.84,705.03c0,4.24,1.96,5.72,4.08,5.72c2.08,0,6.44-1.4,6.44-7.72v-9.28h3.88v20h-3.88v-4
					c-0.84,2.84-3.44,4.44-6.72,4.44c-4.32,0-7.68-2.72-7.68-9.16v-11.28h3.88V705.03z"/>
				<path class="st2" d="M375.24,707.71c0,2.2,1.08,3.08,2.4,3.08c1.24,0,2.44-0.72,2.44-2.2c0-0.28-0.04-1.04-0.32-1.64
					c1.16,0,2.24,0,3.4,0c0.36,0.8,0.36,2.16,0.36,2.16c0,2.84-2.04,5.08-5.92,5.08c-3.16,0-6.24-1.64-6.24-6.76v-10.64h-3.28v-3.04
					h3.28l0.88-5.76h3v5.76h6.36v3.04h-6.36V707.71z"/>
				<path class="st2" d="M393.2,684.59c1.52,0,2.72,1.2,2.72,2.72s-1.2,2.68-2.72,2.68s-2.68-1.16-2.68-2.68
					S391.68,684.59,393.2,684.59z M395.16,693.75h-3.88v20h3.88V693.75z"/>
				<path class="st2" d="M410.28,707.71c0,2.2,1.08,3.08,2.4,3.08c1.24,0,2.44-0.72,2.44-2.2c0-0.28-0.04-1.04-0.32-1.64
					c1.16,0,2.24,0,3.4,0c0.36,0.8,0.36,2.16,0.36,2.16c0,2.84-2.04,5.08-5.92,5.08c-3.16,0-6.24-1.64-6.24-6.76v-10.64h-3.28v-3.04
					h3.28l0.88-5.76h3v5.76h6.36v3.04h-6.36V707.71z"/>
				<path class="st2" d="M430.2,713.75h-3.88v-28.92h3.88V713.75z"/>
				<path class="st2" d="M445.32,707.71c0,2.2,1.08,3.08,2.4,3.08c1.24,0,2.44-0.72,2.44-2.2c0-0.28-0.04-1.04-0.32-1.64
					c1.16,0,2.24,0,3.4,0c0.36,0.8,0.36,2.16,0.36,2.16c0,2.84-2.04,5.08-5.92,5.08c-3.16,0-6.24-1.64-6.24-6.76v-10.64h-3.28v-3.04
					h3.28l0.88-5.76h3v5.76h6.36v3.04h-6.36V707.71z"/>
				<path class="st2" d="M474.52,693.75h4.52l-12.28,28.96H463l3.72-9.64l-8.44-19.32h4.44l6.12,14.92L474.52,693.75z"/>
				<path class="st2" d="M519.28,685.75v3.28h-9.32v24.72h-4v-24.72h-9.32v-3.28H519.28z"/>
				<path class="st2" d="M532.08,693.31c5.8,0,10.52,4.72,10.52,10.44c0,5.76-4.72,10.44-10.52,10.44
					c-5.76,0-10.48-4.64-10.48-10.44C521.6,697.99,526.32,693.31,532.08,693.31z M532.08,710.75c3.68,0,6.64-3.12,6.64-6.96
					c0-3.88-2.96-7.04-6.64-7.04c-3.64,0-6.6,3.16-6.6,7.04C525.48,707.63,528.44,710.75,532.08,710.75z"/>
				<path class="st2" d="M561.96,693.75h4.32v0.44l-7.32,8.76l3.4,5.16c1.16,1.64,1.72,2.68,3.52,2.68c0.44,0,1.72-0.04,2.6-0.76
					l1.32,2.6c-1.56,1.64-3.92,1.56-4.36,1.56c-3.84,0-5.12-2.6-6.32-4.24l-4.04-6.48v10.28h-3.88v-28.92h3.88v17.32L561.96,693.75z
					"/>
				<path class="st2" d="M594.2,710.47c-2.56,2.88-5.8,3.72-8.76,3.72c-6.96,0-11.28-4.68-11.28-10.36
					c0-5.84,4.56-10.52,10.76-10.52c5.28,0,10.2,3.4,10.2,10.8h-17.08c-0.12,3.88,3,6.64,7.44,6.64c2.4,0,4.56-0.8,6.56-2.52
					L594.2,710.47z M578.4,701.11h12.72c-1.08-3.64-3.92-4.4-6.12-4.4C582.64,696.71,579.72,697.63,578.4,701.11z"/>
				<path class="st2" d="M617.88,702.47c0-4.24-1.96-5.72-4.08-5.72c-2.08,0-6.44,1.4-6.44,7.72v9.28h-3.88v-20h3.88v4
					c0.84-2.84,3.44-4.44,6.72-4.44c4.32,0,7.68,2.72,7.68,9.16v11.28h-3.88V702.47z"/>
			</g>
		</g>
	</g>
</g>
<!-- button 2 -->

<animate 
xlink:href="#BorderShine_1_"
attributeName="opacity"
from="0"
to="1" 
dur="1.0s"
begin="1.0s;button1ShineOff.end+3"
fill="freeze"
repeat
id="button1ShineOn"/>

<animate 
xlink:href="#BorderShine_1_"
attributeName="opacity"
from="1"
to="0" 
dur="1.0s"
begin="button1ShineOn.end"
fill="freeze" 
id="button1ShineOff"/>

<!-- button 1 -->

<animate 
xlink:href="#BorderShine"
attributeName="opacity"
from="0"
to="1" 
dur="1.0s"
begin="1.0s;button2ShineOff.end+3"
fill="freeze"
repeat
id="button2ShineOn"/>

<animate 
xlink:href="#BorderShine"
attributeName="opacity"
from="1"
to="0" 
dur="1.0s"
begin="button2ShineOn.end"
fill="freeze" 
id="button2ShineOff"/>
</svg>
