<?xml version="1.0" encoding="utf-8"?>
<!-- Generator: Adobe Adobe Illustrator 24.2.0, SVG Export Plug-In . SVG Version: 6.00 Build 0)  -->
<svg version="1.1" xmlns="http://www.w3.org/2000/svg" xmlns:xlink="http://www.w3.org/1999/xlink" x="0px" y="0px"
	 viewBox="0 0 900 1300" style="enable-background:new 0 0 900 1300;" xml:space="preserve">
<style type="text/css">
	.st0{fill:#2C0078;}
	.st1{fill:#EDA514;}
	.st2{fill:#2C0078;stroke:#380A0A;stroke-width:0.8291;stroke-miterlimit:10;}
	.st3{fill:url(#SVGID_1_);}
	.st4{fill:url(#SVGID_2_);}
	.st5{fill:#370003;}
	.st6{fill:none;}
	.st7{opacity:0.8902;}
	.st8{opacity:0.9412;}
	.st9{fill:none;stroke:#370003;stroke-width:0.4087;stroke-miterlimit:10;}
	.st10{fill:none;stroke:#370003;stroke-width:0.3001;stroke-miterlimit:10;}
	.st11{fill:none;stroke:#A6720A;stroke-linejoin:round;stroke-miterlimit:10;}
	.st12{fill:none;stroke:#A6720A;stroke-miterlimit:10;}
	.st13{fill:url(#SVGID_3_);stroke:#000000;stroke-miterlimit:10;}
	.st14{fill:url(#SVGID_4_);stroke:#000000;stroke-miterlimit:10;}
	.st15{fill:url(#SVGID_5_);stroke:#000000;stroke-miterlimit:10;}
	.st16{fill:url(#SVGID_6_);stroke:#000000;stroke-miterlimit:10;}
	.st17{fill:url(#SVGID_7_);}
	.st18{fill:url(#SVGID_8_);}
	.st19{opacity:0.8392;}
	.st20{display:none;}
	.st21{display:inline;}
	.st22{fill:#42296E;}
	.st23{fill:#FFFFFF;}
	.st24{fill:none;stroke:#FFFFFF;stroke-width:2;stroke-miterlimit:10;}
	.st25{fill:none;stroke:#FFFFFF;stroke-width:3.7156;stroke-miterlimit:10;}
	.st26{fill:#C9C9C9;}
	.st27{opacity:0.502;fill:none;stroke:#FFFFFF;stroke-width:2;stroke-miterlimit:10;}
	.st28{fill:none;stroke:#FFFFFF;stroke-width:4;stroke-miterlimit:10;}
	.st29{fill:none;stroke:#FFFFFF;stroke-width:2.4957;stroke-miterlimit:10;}
	.st30{fill:none;stroke:#FFFFFF;stroke-width:3.5467;stroke-miterlimit:10;}
	.st31{fill:#B37B50;}
	.st32{fill:#380A0A;}
	.st33{fill:#A6720A;}
	.st34{fill:none;stroke:#380A0A;stroke-width:0.5304;stroke-miterlimit:10;}
	.st35{fill:#380A0A;stroke:#000000;stroke-width:0.5304;stroke-miterlimit:10;}
	.st36{fill:#B37B50;stroke:#380A0A;stroke-width:1.3576;stroke-miterlimit:10;}
	.st37{fill:#A6720A;stroke:#380A0A;stroke-width:2;stroke-linejoin:round;stroke-miterlimit:10;}
	.st38{fill:#A6720A;stroke:#380A0A;stroke-width:1.8889;stroke-linejoin:round;stroke-miterlimit:10;}
	.st39{fill:#A6720A;stroke:#380A0A;stroke-width:1.7778;stroke-linejoin:round;stroke-miterlimit:10;}
	.st40{fill:#A6720A;stroke:#380A0A;stroke-width:1.6667;stroke-linejoin:round;stroke-miterlimit:10;}
	.st41{fill:#A6720A;stroke:#380A0A;stroke-width:1.5556;stroke-linejoin:round;stroke-miterlimit:10;}
	.st42{fill:#A6720A;stroke:#380A0A;stroke-width:1.4444;stroke-linejoin:round;stroke-miterlimit:10;}
	.st43{fill:#A6720A;stroke:#380A0A;stroke-width:1.3333;stroke-linejoin:round;stroke-miterlimit:10;}
	.st44{fill:#A6720A;stroke:#380A0A;stroke-width:1.1111;stroke-linejoin:round;stroke-miterlimit:10;}
	.st45{fill:#A6720A;stroke:#380A0A;stroke-linejoin:round;stroke-miterlimit:10;}
	.st46{fill:#A6720A;stroke:#380A0A;stroke-width:0.7778;stroke-linejoin:round;stroke-miterlimit:10;}
	.st47{fill:#A6720A;stroke:#380A0A;stroke-width:0.3333;stroke-linejoin:round;stroke-miterlimit:10;}
	.st48{fill:#2C0078;stroke:#A6720A;stroke-width:2.2221;stroke-miterlimit:10;}
	.st49{opacity:0;fill:none;stroke:#EDA514;stroke-width:3;stroke-miterlimit:10;}
	.st50{fill:url(#BackgroundHorizontal_2_);}
	.st51{fill:none;stroke:#A6720A;stroke-width:2.0268;stroke-miterlimit:10;}
	.st52{opacity:0;fill:none;stroke:#EDA514;stroke-width:2.7363;stroke-miterlimit:10;}
	.st53{fill:none;stroke:#370003;stroke-width:0.5304;stroke-miterlimit:10;}
	.st54{fill:#8F853F;}
	.st55{fill:#852705;}
	.st56{fill:none;stroke:#370003;stroke-width:2.0268;stroke-miterlimit:10;}
	.st57{fill:#F9AF17;}
	.st58{fill:none;stroke:#852C08;stroke-miterlimit:10;}
	.st59{fill:#852D09;}
	.st60{fill:#B35095;}
	.st61{fill:none;stroke:#380A0A;stroke-width:0.4744;stroke-miterlimit:10;}
	.st62{fill:#380A0A;stroke:#000000;stroke-width:0.4744;stroke-miterlimit:10;}
	.st63{fill:#998F40;}
	.st64{fill:url(#BackgroundHorizontal_3_);}
</style>
<g id="CtmLogoBase">
</g>
<g id="TwitterOld">
</g>
<g id="Twitter">
</g>
<g id="General">
</g>
<g id="App">
	<!-- <rect x="-163.3" y="-170" class="st22" width="3690" height="1640"/> -->
	<g id="WelcomePage">
		<g id="LogoBase_58_">
			<g id="Ring1_207_">
				<g>
					<path class="st23" d="M352.96,405.31c0.02-10.34,1.57-20.55,4.76-30.35c1.59-4.88,3.3-9.01,5.52-13.38
						c1.14-2.26,2.37-4.47,3.69-6.63c0.28-0.47,0.57-0.94,0.86-1.4c0.18-0.28,0.35-0.56,0.53-0.83c0.37-0.59,0.12-0.18,0.04-0.06
						c0.72-1.1,1.46-2.18,2.23-3.25c1.46-2.05,3-4.04,4.61-5.96c0.35-0.42,0.71-0.83,1.06-1.25c0.71-0.83-0.53,0.58,0.21-0.23
						c0.22-0.24,0.44-0.49,0.66-0.73c0.81-0.89,1.63-1.77,2.46-2.63c1.75-1.8,3.57-3.52,5.44-5.2c0.81-0.73-0.6,0.51,0.23-0.21
						c0.17-0.14,0.33-0.28,0.5-0.43c0.5-0.42,1-0.85,1.51-1.26c1.01-0.83,2.05-1.64,3.09-2.43c0.87-0.66,1.76-1.3,2.65-1.93
						c0.54-0.38,1.08-0.75,1.62-1.12c0.23-0.15,0.46-0.3,0.68-0.46c0.14-0.09,0.27-0.18,0.41-0.27c-0.31,0.2-0.29,0.19,0.06-0.04
						c2.13-1.36,4.3-2.65,6.52-3.85c4.52-2.44,8.39-4.17,13.19-5.88c19.32-6.88,40.73-7.44,60.45-1.66
						c19.06,5.58,36.11,16.95,48.71,32.29c12.68,15.44,20.56,34.76,22.09,54.7c0.79,10.33,0.02,20.92-2.44,30.93
						c-2.42,9.86-6.03,18.55-11.23,27.13c-0.31,0.52-0.63,1.03-0.95,1.54c-0.15,0.23-0.29,0.46-0.44,0.69
						c-0.58,0.91,0.38-0.57-0.22,0.33c-0.73,1.09-1.47,2.18-2.24,3.24c-1.41,1.95-2.88,3.85-4.42,5.7c-0.42,0.5-0.85,1-1.27,1.5
						c0.49-0.57,0.11-0.13,0.01-0.01c-0.22,0.24-0.44,0.49-0.66,0.73c-0.88,0.97-1.78,1.93-2.69,2.86
						c-1.68,1.72-3.43,3.36-5.22,4.97c-0.81,0.73,0.6-0.51-0.23,0.21c-0.25,0.21-0.5,0.43-0.75,0.64c-0.42,0.35-0.84,0.7-1.26,1.05
						c-1.01,0.83-2.05,1.64-3.09,2.43c-0.96,0.73-1.93,1.43-2.92,2.12c-0.45,0.31-0.9,0.62-1.35,0.93
						c-0.27,0.18-0.55,0.37-0.82,0.55c-0.35,0.23-0.37,0.24-0.06,0.04c-0.18,0.12-0.37,0.24-0.55,0.36
						c-4.17,2.66-8.54,5.03-13.07,7.04c0.41-0.18-0.23,0.1-0.32,0.14c-0.25,0.11-0.51,0.22-0.76,0.33
						c-0.61,0.26-1.23,0.51-1.85,0.76c-1.14,0.45-2.28,0.88-3.43,1.29c-2.42,0.86-4.88,1.63-7.36,2.31
						c-4.83,1.31-9.71,2.21-14.72,2.75c-10.4,1.12-20.93,0.61-31.16-1.57c-19.45-4.15-37.32-14.19-51.03-28.59
						c-13.84-14.53-23.01-33.1-26.11-52.93C353.34,415.34,352.97,410.34,352.96,405.31c0-1.66-1.67-1.45-2.77-0.86
						c-1.31,0.7-3.16,2.45-3.15,4.1c0.04,21.18,6.58,41.89,18.91,59.13c11.86,16.58,28.79,29.36,47.96,36.27
						c20.23,7.29,42.68,7.81,63.3,1.77c20.36-5.96,38.51-18.33,51.98-34.66c13.51-16.39,21.87-36.87,23.48-58.06
						c1.61-21.15-3.46-42.4-14.46-60.52c-10.63-17.52-26.62-31.51-45.33-39.85c-19.37-8.64-41.46-10.87-62.2-6.47
						c-20.77,4.4-39.92,15.2-54.54,30.6c-14.68,15.47-24.59,35.1-27.89,56.2c-0.81,5.15-1.2,10.36-1.21,15.58
						c0,1.66,1.68,1.45,2.77,0.86C351.12,408.71,352.96,406.97,352.96,405.31z"/>
				</g>
			</g>
			<g id="Ring2_117_">
				<g>
					<path class="st23" d="M390.76,405.53c0.02-6.27,0.93-12.5,2.87-18.47c0.92-2.85,2-5.5,3.32-8.11c1.4-2.78,2.87-5.2,4.51-7.49
						c3.46-4.83,7.25-8.71,11.88-12.2c4.54-3.42,9.77-6.25,15.36-8.22c11.81-4.15,24.84-4.42,36.84-0.89
						c11.72,3.44,22.17,10.43,29.93,19.86c7.79,9.48,12.64,21.35,13.59,33.6c0.96,12.42-1.92,24.92-8.33,35.48
						c-0.79,1.31-1.25,2-2.19,3.31c-0.89,1.24-1.83,2.45-2.81,3.63c-0.15,0.18-0.66,0.77-0.57,0.67c0.11-0.13-0.47,0.53-0.59,0.65
						c-0.51,0.56-1.04,1.12-1.57,1.67c-1.07,1.09-2.17,2.15-3.32,3.15c0.38-0.33-0.23,0.19-0.34,0.29
						c-0.29,0.25-0.59,0.49-0.88,0.73c-0.59,0.48-1.2,0.95-1.81,1.41c-0.61,0.46-1.23,0.91-1.86,1.35
						c-0.27,0.19-0.54,0.37-0.81,0.56c-0.47,0.32-0.23,0.16-0.71,0.47c-2.43,1.54-5.15,3.02-7.65,4.14
						c-11.44,5.12-24.53,6.35-36.76,3.72c-11.99-2.57-22.98-8.78-31.42-17.67c-8.47-8.93-14.07-20.3-15.98-32.46
						C390.99,411.67,390.77,408.61,390.76,405.53c0-1.44-1.45-1.26-2.4-0.75c-1.13,0.61-2.74,2.13-2.73,3.56
						c0.04,13.17,4.06,26,11.71,36.73c7.38,10.36,17.97,18.33,29.95,22.6c12.64,4.52,26.66,4.77,39.51,0.96
						c12.82-3.81,24.22-11.68,32.68-21.98c8.41-10.23,13.66-23.01,14.69-36.22c1.03-13.22-2.12-26.46-8.99-37.78
						c-6.6-10.88-16.54-19.54-28.15-24.71c-12.16-5.42-25.97-6.71-38.96-3.92c-12.97,2.78-24.94,9.64-34.06,19.25
						c-9.26,9.76-15.53,22.09-17.62,35.4c-0.5,3.21-0.75,6.44-0.75,9.69c0,1.44,1.45,1.25,2.4,0.75
						C389.17,408.47,390.76,406.96,390.76,405.53z"/>
				</g>
			</g>
			<g id="Ring3_118_">
				<g>
					<path class="st23" d="M414.17,405.64c0.03-7.33,2.24-14.77,6.4-20.54c1.17-1.62,1.98-2.59,3.25-3.88
						c1.4-1.42,2.22-2.14,3.82-3.33c2.68-2,5.87-3.7,9.22-4.85c14.56-4.99,30.99,0.05,40.65,11.91
						c9.56,11.73,11.09,28.82,3.24,41.84c-1.72,2.86-3.95,5.47-6.4,7.61c-2.43,2.12-5.36,4.01-8.57,5.42
						c-6.99,3.05-14.94,3.73-22.37,2.07c-14.78-3.3-26.34-15.57-28.78-30.52C414.32,409.47,414.18,407.56,414.17,405.64
						c-0.01-1.33-1.34-1.16-2.21-0.69c-1.04,0.56-2.53,1.96-2.52,3.28c0.07,16.56,10.53,31.66,26.26,37.12
						c16.45,5.71,34.56-0.5,45.42-13.72c10.81-13.15,12.55-32.05,3.65-46.66c-4.11-6.75-10.31-12.09-17.53-15.3
						c-7.73-3.43-16.45-4.12-24.68-2.31c-16.59,3.66-29.9,17.96-32.62,34.67c-0.33,2.05-0.49,4.12-0.5,6.2
						c-0.01,1.33,1.34,1.16,2.21,0.69C412.7,408.35,414.16,406.96,414.17,405.64z"/>
				</g>
			</g>
			<g id="Ring4_112_">
				<circle class="st23" cx="450" cy="406.93" r="14.65"/>
			</g>
		</g>
		<g>
			<path class="st24" d="M164,781.97L164,781.97c0-23.25,18.85-42.09,42.09-42.09h487.81c23.25,0,42.09,18.85,42.09,42.09v0
				c0,23.25-18.85,42.09-42.09,42.09l-487.81,0C182.85,824.07,164,805.22,164,781.97z"/>
			<g>
				<path class="st23" d="M289.46,764.48c4.24,0,7.04,1.32,9.64,3.28l-2.04,3.84c-1.96-1.44-4.56-2.56-7.56-2.56
					c-6.36,0-10.08,4.44-10.08,9.88c0,5.44,3.72,9.88,10.08,9.88c3,0,5.6-1.08,7.56-2.56l2.04,3.88c-2.6,1.96-5.4,3.24-9.64,3.24
					c-9.48,0-15.28-6.64-15.28-14.44C274.18,771.12,279.98,764.48,289.46,764.48z"/>
				<path class="st23" d="M307.7,777.15c0.68-3.44,3.36-4.92,5.52-4.92c0.68,0,1.08,0.12,1.68,0.28v4.84
					c-0.76-0.28-1.68-0.4-2.32-0.4c-1.8,0-4.8,1-4.8,6.6v9.36h-4.92v-20.24h4.84V777.15z"/>
				<path class="st23" d="M338.34,772.68v20.24h-4.92v-3.04c-1.44,2.2-3.96,3.48-6.92,3.48c-6,0-9.92-4.72-9.92-10.64
					c0-5.72,3.76-10.48,9.96-10.48c2.72,0,5.24,1.12,6.88,3.44v-3H338.34z M327.5,789.23c3.36,0,6.04-2.28,6.04-6.28
					c0-3.92-2.52-6.6-6.16-6.6c-3.72,0-5.84,2.92-5.84,6.4C321.54,786.35,323.82,789.23,327.5,789.23z"/>
				<path class="st23" d="M363.34,789.47c-2.72,3.04-6.04,3.88-9.16,3.88c-7.28,0-11.64-4.72-11.64-10.48
					c0-5.92,4.68-10.64,11.08-10.64c5.48,0,10.64,3.44,10.64,11.24h-16.8c0,3.2,2.6,5.72,6.96,5.72c2.52,0,4.4-0.92,6.12-2.48
					L363.34,789.47z M347.7,780.15h11.52c-0.76-3.12-3.52-4-5.6-4C351.46,776.16,348.74,777.03,347.7,780.15z"/>
				<path class="st23" d="M374.02,772.68h6.04v3.76h-6.04v10.6c0,1.24,0.52,2.2,1.96,2.2c1.2,0,2-0.84,2-2.08
					c0-0.44-0.08-1.24-0.28-1.68h4.04c0.36,0.76,0.44,1.92,0.44,2.28c0,2.96-2.04,5.6-6.4,5.6c-3.36,0-6.68-1.44-6.68-7v-9.92h-3.16
					v-3.76h3.4l0.88-5.4h3.8V772.68z"/>
				<path class="st23" d="M404.82,789.47c-2.72,3.04-6.04,3.88-9.16,3.88c-7.28,0-11.64-4.72-11.64-10.48
					c0-5.92,4.68-10.64,11.08-10.64c5.48,0,10.64,3.44,10.64,11.24h-16.8c0,3.2,2.6,5.72,6.96,5.72c2.52,0,4.4-0.92,6.12-2.48
					L404.82,789.47z M389.18,780.15h11.52c-0.76-3.12-3.52-4-5.6-4C392.94,776.16,390.22,777.03,389.18,780.15z"/>
				<path class="st23" d="M440.22,772.68v20.24h-4.92v-3.04c-1.44,2.2-3.96,3.48-6.92,3.48c-6,0-9.92-4.72-9.92-10.64
					c0-5.72,3.76-10.48,9.96-10.48c2.72,0,5.24,1.12,6.88,3.44v-3H440.22z M429.38,789.23c3.36,0,6.04-2.28,6.04-6.28
					c0-3.92-2.52-6.6-6.16-6.6c-3.72,0-5.84,2.92-5.84,6.4C423.42,786.35,425.7,789.23,429.38,789.23z"/>
				<path class="st23" d="M470.34,792.59l-8-19.24l-1.68,19.56h-5.12l2.6-28h5.36l8.6,20.6l8.56-20.6h5.36l2.64,28h-5.12
					l-1.72-19.56l-8,19.24H470.34z"/>
				<path class="st23" d="M512.9,789.47c-2.72,3.04-6.04,3.88-9.16,3.88c-7.28,0-11.64-4.72-11.64-10.48
					c0-5.92,4.68-10.64,11.08-10.64c5.48,0,10.64,3.44,10.64,11.24h-16.8c0,3.2,2.6,5.72,6.96,5.72c2.52,0,4.4-0.92,6.12-2.48
					L512.9,789.47z M497.26,780.15h11.52c-0.76-3.12-3.52-4-5.6-4C501.02,776.16,498.3,777.03,497.26,780.15z"/>
				<path class="st23" d="M537.1,789.47c-2.72,3.04-6.04,3.88-9.16,3.88c-7.28,0-11.64-4.72-11.64-10.48
					c0-5.92,4.68-10.64,11.08-10.64c5.48,0,10.64,3.44,10.64,11.24h-16.8c0,3.2,2.6,5.72,6.96,5.72c2.52,0,4.4-0.92,6.12-2.48
					L537.1,789.47z M521.46,780.15h11.52c-0.76-3.12-3.52-4-5.6-4C525.22,776.16,522.5,777.03,521.46,780.15z"/>
				<path class="st23" d="M547.78,772.68h6.04v3.76h-6.04v10.6c0,1.24,0.52,2.2,1.96,2.2c1.2,0,2-0.84,2-2.08
					c0-0.44-0.08-1.24-0.28-1.68h4.04c0.36,0.76,0.44,1.92,0.44,2.28c0,2.96-2.04,5.6-6.4,5.6c-3.36,0-6.68-1.44-6.68-7v-9.92h-3.16
					v-3.76h3.4l0.88-5.4h3.8V772.68z"/>
				<path class="st23" d="M561.74,763.56c1.84,0,3.28,1.36,3.28,3.12s-1.44,3.08-3.28,3.08s-3.2-1.32-3.2-3.08
					S559.9,763.56,561.74,763.56z M559.26,792.91v-20.24h4.92v20.24H559.26z"/>
				<path class="st23" d="M569.86,772.68h4.92v3.4c1.28-2.64,3.68-3.84,6.56-3.84c5.04,0,7.48,3.64,7.48,9.48v11.2h-4.92v-11.16
					c0-3.52-1.48-5.36-3.92-5.36c-2.88,0-5.2,2.16-5.2,6.4v10.12h-4.92V772.68z"/>
				<path class="st23" d="M596.62,795.79c1.6,1.4,4.16,2.44,6.6,2.44c3.48,0,6.44-1.6,6.44-5.96v-2.36
					c-1.4,2.12-4.08,3.44-6.92,3.44c-6,0-9.92-4.72-9.92-10.64c0-5.72,3.76-10.48,9.96-10.48c2.72,0,5.24,1.12,6.88,3.44v-3h4.92
					v18.04c0,8.36-4.36,11.8-10.76,11.8c-4.4,0-7.16-1.24-9.16-2.88C595.34,798.35,595.98,797.07,596.62,795.79z M603.74,789.23
					c3.36,0,6.04-2.28,6.04-6.28c0-3.92-2.52-6.6-6.16-6.6c-3.72,0-5.84,2.92-5.84,6.4C597.78,786.35,600.06,789.23,603.74,789.23z"
					/>
			</g>
		</g>
		<g>
			<path class="st24" d="M164,950.97L164,950.97c0-23.25,18.85-42.09,42.09-42.09h487.81c23.25,0,42.09,18.85,42.09,42.09v0
				c0,23.25-18.85,42.09-42.09,42.09l-487.81,0C182.85,993.07,164,974.22,164,950.97z"/>
			<g>
				<path class="st23" d="M320.06,949.39c0,8.56-4.2,12.96-11.56,12.96c-7.76,0-10.68-5.2-10.68-9.96c0-1.16,0.4-3.04,1.08-4.04
					h4.76c-0.68,1.32-0.96,2.96-0.96,3.72c0,2.56,1.68,5.88,5.76,5.88c4.52,0,6.48-3.12,6.48-8.56v-15.48h5.12V949.39z"/>
				<path class="st23" d="M335.22,941.24c5.92,0,11,4.76,11,10.56c0,5.84-5.08,10.56-11,10.56c-5.84,0-10.96-4.68-10.96-10.56
					C324.26,945.95,329.38,941.24,335.22,941.24z M335.22,958.15c3.44,0,6.04-2.8,6.04-6.36c0-3.52-2.6-6.36-6.04-6.36
					c-3.4,0-6,2.8-6,6.36C329.22,955.35,331.82,958.15,335.22,958.15z"/>
				<path class="st23" d="M352.98,932.56c1.84,0,3.28,1.36,3.28,3.12s-1.44,3.08-3.28,3.08s-3.2-1.32-3.2-3.08
					S351.14,932.56,352.98,932.56z M350.5,961.91v-20.24h4.92v20.24H350.5z"/>
				<path class="st23" d="M361.1,941.68h4.92v3.4c1.28-2.64,3.68-3.84,6.56-3.84c5.04,0,7.48,3.64,7.48,9.48v11.2h-4.92v-11.16
					c0-3.52-1.48-5.36-3.92-5.36c-2.88,0-5.2,2.16-5.2,6.4v10.12h-4.92V941.68z"/>
				<path class="st23" d="M415.98,941.68v20.24h-4.92v-3.04c-1.44,2.2-3.96,3.48-6.92,3.48c-6,0-9.92-4.72-9.92-10.64
					c0-5.72,3.76-10.48,9.96-10.48c2.72,0,5.24,1.12,6.88,3.44v-3H415.98z M405.14,958.23c3.36,0,6.04-2.28,6.04-6.28
					c0-3.92-2.52-6.6-6.16-6.6c-3.72,0-5.84,2.92-5.84,6.4C399.18,955.35,401.46,958.23,405.14,958.23z"/>
				<path class="st23" d="M446.1,961.59l-8-19.24l-1.68,19.56h-5.12l2.6-28h5.36l8.6,20.6l8.56-20.6h5.36l2.64,28h-5.12l-1.72-19.56
					l-8,19.24H446.1z"/>
				<path class="st23" d="M488.66,958.47c-2.72,3.04-6.04,3.88-9.16,3.88c-7.28,0-11.64-4.72-11.64-10.48
					c0-5.92,4.68-10.64,11.08-10.64c5.48,0,10.64,3.44,10.64,11.24h-16.8c0,3.2,2.6,5.72,6.96,5.72c2.52,0,4.4-0.92,6.12-2.48
					L488.66,958.47z M473.02,949.15h11.52c-0.76-3.12-3.52-4-5.6-4C476.78,945.16,474.06,946.03,473.02,949.15z"/>
				<path class="st23" d="M512.86,958.47c-2.72,3.04-6.04,3.88-9.16,3.88c-7.28,0-11.64-4.72-11.64-10.48
					c0-5.92,4.68-10.64,11.08-10.64c5.48,0,10.64,3.44,10.64,11.24h-16.8c0,3.2,2.6,5.72,6.96,5.72c2.52,0,4.4-0.92,6.12-2.48
					L512.86,958.47z M497.22,949.15h11.52c-0.76-3.12-3.52-4-5.6-4C500.98,945.16,498.26,946.03,497.22,949.15z"/>
				<path class="st23" d="M523.54,941.68h6.04v3.76h-6.04v10.6c0,1.24,0.52,2.2,1.96,2.2c1.2,0,2-0.84,2-2.08
					c0-0.44-0.08-1.24-0.28-1.68h4.04c0.36,0.76,0.44,1.92,0.44,2.28c0,2.96-2.04,5.6-6.4,5.6c-3.36,0-6.68-1.44-6.68-7v-9.92h-3.16
					v-3.76h3.4l0.88-5.4h3.8V941.68z"/>
				<path class="st23" d="M537.5,932.56c1.84,0,3.28,1.36,3.28,3.12s-1.44,3.08-3.28,3.08s-3.2-1.32-3.2-3.08
					S535.66,932.56,537.5,932.56z M535.02,961.91v-20.24h4.92v20.24H535.02z"/>
				<path class="st23" d="M545.62,941.68h4.92v3.4c1.28-2.64,3.68-3.84,6.56-3.84c5.04,0,7.48,3.64,7.48,9.48v11.2h-4.92v-11.16
					c0-3.52-1.48-5.36-3.92-5.36c-2.88,0-5.2,2.16-5.2,6.4v10.12h-4.92V941.68z"/>
				<path class="st23" d="M572.38,964.79c1.6,1.4,4.16,2.44,6.6,2.44c3.48,0,6.44-1.6,6.44-5.96v-2.36
					c-1.4,2.12-4.08,3.44-6.92,3.44c-6,0-9.92-4.72-9.92-10.64c0-5.72,3.76-10.48,9.96-10.48c2.72,0,5.24,1.12,6.88,3.44v-3h4.92
					v18.04c0,8.36-4.36,11.8-10.76,11.8c-4.4,0-7.16-1.24-9.16-2.88C571.1,967.35,571.74,966.07,572.38,964.79z M579.5,958.23
					c3.36,0,6.04-2.28,6.04-6.28c0-3.92-2.52-6.6-6.16-6.6c-3.72,0-5.84,2.92-5.84,6.4C573.54,955.35,575.82,958.23,579.5,958.23z"
					/>
			</g>
		</g>
		<g>
			<path class="st23" d="M444.42,861.9c4.44,0,8.25,3.57,8.25,7.92c0,4.38-3.81,7.92-8.25,7.92c-4.38,0-8.22-3.51-8.22-7.92
				C436.2,865.44,440.04,861.9,444.42,861.9z M444.42,874.59c2.58,0,4.53-2.1,4.53-4.77c0-2.64-1.95-4.77-4.53-4.77
				c-2.55,0-4.5,2.1-4.5,4.77C439.92,872.49,441.87,874.59,444.42,874.59z"/>
			<path class="st23" d="M459.45,865.59c0.51-2.58,2.52-3.69,4.14-3.69c0.51,0,0.81,0.09,1.26,0.21v3.63
				c-0.57-0.21-1.26-0.3-1.74-0.3c-1.35,0-3.6,0.75-3.6,4.95v7.02h-3.69v-15.18h3.63V865.59z"/>
		</g>
		<g>
			<path class="st23" d="M309.22,545.45c4.08,0,6.84,1.2,9.24,3l-1.56,3c-1.84-1.36-4.84-2.4-7.68-2.4c-7,0-11.04,4.96-11.04,10.84
				s4.04,10.84,11.04,10.84c2.84,0,5.84-1.04,7.68-2.4l1.56,3c-2.4,1.8-5.16,3-9.24,3c-9.52,0-15.12-6.64-15.12-14.44
				S299.7,545.45,309.22,545.45z"/>
			<path class="st23" d="M326.54,558.41c0.68-3.16,2.88-4.96,5.36-4.96c0.72,0,1.28,0.2,1.84,0.44v3.8
				c-0.64-0.36-1.4-0.52-2.12-0.52c-1.32,0-5.08,0.64-5.08,9.16v7.56h-3.88v-20h3.88V558.41z"/>
			<path class="st23" d="M351.18,553.89h4.52l-12.28,28.96h-3.76l3.72-9.64l-8.44-19.32h4.44l6.12,14.92L351.18,553.89z"/>
			<path class="st23" d="M370.58,574.33c-2.68,0-5.32-0.92-7.24-3.64v12.16h-3.88v-28.96h3.88v3.2c1.92-2.72,4.56-3.64,7.24-3.64
				c6,0,9.92,4.72,9.92,10.44C380.5,569.61,376.58,574.33,370.58,574.33z M370.1,570.89c4.16,0,6.52-3.2,6.52-7c0-3.8-2.36-7-6.52-7
				c-4.04,0-6.8,2.96-6.84,7C363.3,567.93,366.06,570.89,370.1,570.89z"/>
			<path class="st23" d="M389.74,567.85c0,2.2,1.08,3.08,2.4,3.08c1.24,0,2.44-0.72,2.44-2.2c0-0.28-0.04-1.04-0.32-1.64
				c1.16,0,2.24,0,3.4,0c0.36,0.8,0.36,2.16,0.36,2.16c0,2.84-2.04,5.08-5.92,5.08c-3.16,0-6.24-1.64-6.24-6.76v-10.64h-3.28v-3.04
				h3.28l0.88-5.76h3v5.76h6.36v3.04h-6.36V567.85z"/>
			<path class="st23" d="M410.62,553.45c5.8,0,10.52,4.72,10.52,10.44c0,5.76-4.72,10.44-10.52,10.44
				c-5.76,0-10.48-4.64-10.48-10.44C400.14,558.13,404.86,553.45,410.62,553.45z M410.62,570.89c3.68,0,6.64-3.12,6.64-6.96
				c0-3.88-2.96-7.04-6.64-7.04c-3.64,0-6.6,3.16-6.6,7.04C404.02,567.77,406.98,570.89,410.62,570.89z"/>
			<path class="st23" d="M441.9,551.81l-1.92,22.08h-4.04l2.64-28h4.48l9.32,22.32l9.32-22.32h4.48l2.64,28h-4.04l-1.92-22.08
				l-9,21.72h-2.96L441.9,551.81z"/>
			<path class="st23" d="M492.82,570.61c-2.56,2.88-5.8,3.72-8.76,3.72c-6.96,0-11.28-4.68-11.28-10.36
				c0-5.84,4.56-10.52,10.76-10.52c5.28,0,10.2,3.4,10.2,10.8h-17.08c-0.12,3.88,3,6.64,7.44,6.64c2.4,0,4.56-0.8,6.56-2.52
				L492.82,570.61z M477.02,561.25h12.72c-1.08-3.64-3.92-4.4-6.12-4.4C481.26,556.85,478.34,557.77,477.02,561.25z"/>
			<path class="st23" d="M516.62,570.61c-2.56,2.88-5.8,3.72-8.76,3.72c-6.96,0-11.28-4.68-11.28-10.36
				c0-5.84,4.56-10.52,10.76-10.52c5.28,0,10.2,3.4,10.2,10.8h-17.08c-0.12,3.88,3,6.64,7.44,6.64c2.4,0,4.56-0.8,6.56-2.52
				L516.62,570.61z M500.82,561.25h12.72c-1.08-3.64-3.92-4.4-6.12-4.4C505.06,556.85,502.14,557.77,500.82,561.25z"/>
			<path class="st23" d="M526.58,567.85c0,2.2,1.08,3.08,2.4,3.08c1.24,0,2.44-0.72,2.44-2.2c0-0.28-0.04-1.04-0.32-1.64
				c1.16,0,2.24,0,3.4,0c0.36,0.8,0.36,2.16,0.36,2.16c0,2.84-2.04,5.08-5.92,5.08c-3.16,0-6.24-1.64-6.24-6.76v-10.64h-3.28v-3.04
				h3.28l0.88-5.76h3v5.76h6.36v3.04h-6.36V567.85z"/>
			<path class="st23" d="M554.62,551.81l-1.92,22.08h-4.04l2.64-28h4.48l9.32,22.32l9.32-22.32h4.48l2.64,28h-4.04l-1.92-22.08
				l-9,21.72h-2.96L554.62,551.81z"/>
			<path class="st23" d="M605.54,570.61c-2.56,2.88-5.8,3.72-8.76,3.72c-6.96,0-11.28-4.68-11.28-10.36
				c0-5.84,4.56-10.52,10.76-10.52c5.28,0,10.2,3.4,10.2,10.8h-17.08c-0.12,3.88,3,6.64,7.44,6.64c2.4,0,4.56-0.8,6.56-2.52
				L605.54,570.61z M589.74,561.25h12.72c-1.08-3.64-3.92-4.4-6.12-4.4C593.98,556.85,591.06,557.77,589.74,561.25z"/>
		</g>
		<g>
			<path class="st23" d="M244.46,623.8c-2.01,0-3.99-0.69-5.43-2.73v9.12h-2.91v-21.72h2.91v2.4c1.44-2.04,3.42-2.73,5.43-2.73
				c4.5,0,7.44,3.54,7.44,7.83C251.9,620.26,248.96,623.8,244.46,623.8z M244.1,621.22c3.12,0,4.89-2.4,4.89-5.25
				c0-2.85-1.77-5.25-4.89-5.25c-3.03,0-5.1,2.22-5.13,5.25C239,619,241.07,621.22,244.1,621.22z"/>
			<path class="st23" d="M258.32,611.86c0.51-2.37,2.16-3.72,4.02-3.72c0.54,0,0.96,0.15,1.38,0.33v2.85
				c-0.48-0.27-1.05-0.39-1.59-0.39c-0.99,0-3.81,0.48-3.81,6.87v5.67h-2.91v-15h2.91V611.86z"/>
			<path class="st23" d="M267.92,601.6c1.14,0,2.04,0.9,2.04,2.04c0,1.14-0.9,2.01-2.04,2.01s-2.01-0.87-2.01-2.01
				C265.91,602.5,266.78,601.6,267.92,601.6z M269.39,608.47h-2.91v15h2.91V608.47z"/>
			<path class="st23" d="M281.57,623.47h-3.3l-5.79-15h3.06l4.38,11.79l4.38-11.79h3.06L281.57,623.47z"/>
			<path class="st23" d="M296.15,608.14c2.01,0,3.99,0.69,5.43,2.73v-2.4h2.91v15h-2.91v-2.4c-1.44,2.04-3.42,2.73-5.43,2.73
				c-4.5,0-7.44-3.54-7.44-7.83C288.71,611.68,291.65,608.14,296.15,608.14z M296.51,610.72c-3.12,0-4.89,2.4-4.89,5.25
				c0,2.85,1.77,5.25,4.89,5.25c3.03,0,5.1-2.22,5.13-5.25C301.61,612.94,299.54,610.72,296.51,610.72z"/>
			<path class="st23" d="M312.74,618.94c0,1.65,0.81,2.31,1.8,2.31c0.93,0,1.83-0.54,1.83-1.65c0-0.21-0.03-0.78-0.24-1.23
				c0.87,0,1.68,0,2.55,0c0.27,0.6,0.27,1.62,0.27,1.62c0,2.13-1.53,3.81-4.44,3.81c-2.37,0-4.68-1.23-4.68-5.07v-7.98h-2.46v-2.28
				h2.46l0.66-4.32h2.25v4.32h4.77v2.28h-4.77V618.94z"/>
			<path class="st23" d="M335.57,621.01c-1.92,2.16-4.35,2.79-6.57,2.79c-5.22,0-8.46-3.51-8.46-7.77c0-4.38,3.42-7.89,8.07-7.89
				c3.96,0,7.65,2.55,7.65,8.1h-12.81c-0.09,2.91,2.25,4.98,5.58,4.98c1.8,0,3.42-0.6,4.92-1.89L335.57,621.01z M323.72,613.99h9.54
				c-0.81-2.73-2.94-3.3-4.59-3.3C326.9,610.69,324.71,611.38,323.72,613.99z"/>
			<path class="st23" d="M341.09,619.39c1.23,0,2.22,0.99,2.22,2.22c0,1.23-0.99,2.19-2.22,2.19c-1.23,0-2.19-0.96-2.19-2.19
				C338.9,620.38,339.86,619.39,341.09,619.39z"/>
			<path class="st23" d="M361.58,608.14c2.01,0,3.99,0.69,5.43,2.73v-9.09h2.91v21.69H367v-2.4c-1.44,2.04-3.42,2.73-5.43,2.73
				c-4.5,0-7.44-3.54-7.44-7.83C354.13,611.68,357.08,608.14,361.58,608.14z M361.93,610.72c-3.12,0-4.89,2.4-4.89,5.25
				c0,2.85,1.77,5.25,4.89,5.25c3.03,0,5.1-2.22,5.13-5.25C367.04,612.94,364.96,610.72,361.93,610.72z"/>
			<path class="st23" d="M376.07,601.6c1.14,0,2.04,0.9,2.04,2.04c0,1.14-0.9,2.01-2.04,2.01s-2.01-0.87-2.01-2.01
				C374.06,602.5,374.93,601.6,376.07,601.6z M377.54,608.47h-2.91v15h2.91V608.47z"/>
			<path class="st23" d="M385.15,611.86c0.51-2.37,2.16-3.72,4.02-3.72c0.54,0,0.96,0.15,1.38,0.33v2.85
				c-0.48-0.27-1.05-0.39-1.59-0.39c-0.99,0-3.81,0.48-3.81,6.87v5.67h-2.91v-15h2.91V611.86z"/>
			<path class="st23" d="M406.78,621.01c-1.92,2.16-4.35,2.79-6.57,2.79c-5.22,0-8.46-3.51-8.46-7.77c0-4.38,3.42-7.89,8.07-7.89
				c3.96,0,7.65,2.55,7.65,8.1h-12.81c-0.09,2.91,2.25,4.98,5.58,4.98c1.8,0,3.42-0.6,4.92-1.89L406.78,621.01z M394.93,613.99h9.54
				c-0.81-2.73-2.94-3.3-4.59-3.3C398.11,610.69,395.92,611.38,394.93,613.99z"/>
			<path class="st23" d="M418.06,608.14c1.35,0,3.36,0.33,5.37,1.83l-1.38,1.98c-1.59-1.2-3.48-1.23-3.87-1.23
				c-3.24,0-5.64,2.16-5.64,5.25c0,3.09,2.4,5.25,5.64,5.25c0.39,0,2.28-0.03,3.87-1.23l1.38,1.98c-2.01,1.5-4.02,1.83-5.37,1.83
				c-5.31,0-8.43-3.39-8.43-7.65C409.63,611.74,412.6,608.14,418.06,608.14z"/>
			<path class="st23" d="M430.21,618.94c0,1.65,0.81,2.31,1.8,2.31c0.93,0,1.83-0.54,1.83-1.65c0-0.21-0.03-0.78-0.24-1.23
				c0.87,0,1.68,0,2.55,0c0.27,0.6,0.27,1.62,0.27,1.62c0,2.13-1.53,3.81-4.44,3.81c-2.37,0-4.68-1.23-4.68-5.07v-7.98h-2.46v-2.28
				h2.46l0.66-4.32h2.25v4.32h4.77v2.28h-4.77V618.94z"/>
			<path class="st23" d="M455.41,623.8c-2.01,0-3.99-0.69-5.43-2.73v9.12h-2.91v-21.72h2.91v2.4c1.44-2.04,3.42-2.73,5.43-2.73
				c4.5,0,7.44,3.54,7.44,7.83C462.85,620.26,459.91,623.8,455.41,623.8z M455.05,621.22c3.12,0,4.89-2.4,4.89-5.25
				c0-2.85-1.77-5.25-4.89-5.25c-3.03,0-5.1,2.22-5.13,5.25C449.95,619,452.02,621.22,455.05,621.22z"/>
			<path class="st23" d="M472.69,608.14c2.01,0,3.99,0.69,5.43,2.73v-2.4h2.91v15h-2.91v-2.4c-1.44,2.04-3.42,2.73-5.43,2.73
				c-4.5,0-7.44-3.54-7.44-7.83C465.25,611.68,468.19,608.14,472.69,608.14z M473.05,610.72c-3.12,0-4.89,2.4-4.89,5.25
				c0,2.85,1.77,5.25,4.89,5.25c3.03,0,5.1-2.22,5.13-5.25C478.15,612.94,476.08,610.72,473.05,610.72z"/>
			<path class="st23" d="M496.06,608.47h3.39l-9.21,21.72h-2.82l2.79-7.23l-6.33-14.49h3.33l4.59,11.19L496.06,608.47z"/>
			<path class="st23" d="M502.3,619.39c1.23,0,2.22,0.99,2.22,2.22c0,1.23-0.99,2.19-2.22,2.19c-1.23,0-2.19-0.96-2.19-2.19
				C500.11,620.38,501.07,619.39,502.3,619.39z"/>
			<path class="st23" d="M523.03,623.47h-3.3l-5.79-15H517l4.38,11.79l4.38-11.79h3.06L523.03,623.47z"/>
			<path class="st23" d="M533.35,601.6c1.14,0,2.04,0.9,2.04,2.04c0,1.14-0.9,2.01-2.04,2.01s-2.01-0.87-2.01-2.01
				C531.34,602.5,532.21,601.6,533.35,601.6z M534.82,608.47h-2.91v15h2.91V608.47z"/>
			<path class="st23" d="M545.89,608.14c2.01,0,3.99,0.69,5.43,2.73v-9.09h2.91v21.69h-2.91v-2.4c-1.44,2.04-3.42,2.73-5.43,2.73
				c-4.5,0-7.44-3.54-7.44-7.83C538.45,611.68,541.39,608.14,545.89,608.14z M546.25,610.72c-3.12,0-4.89,2.4-4.89,5.25
				c0,2.85,1.77,5.25,4.89,5.25c3.03,0,5.1-2.22,5.13-5.25C551.35,612.94,549.28,610.72,546.25,610.72z"/>
			<path class="st23" d="M572.74,621.01c-1.92,2.16-4.35,2.79-6.57,2.79c-5.22,0-8.46-3.51-8.46-7.77c0-4.38,3.42-7.89,8.07-7.89
				c3.96,0,7.65,2.55,7.65,8.1h-12.81c-0.09,2.91,2.25,4.98,5.58,4.98c1.8,0,3.42-0.6,4.92-1.89L572.74,621.01z M560.89,613.99h9.54
				c-0.81-2.73-2.94-3.3-4.59-3.3C564.07,610.69,561.88,611.38,560.89,613.99z"/>
			<path class="st23" d="M583.42,608.14c4.35,0,7.89,3.54,7.89,7.83c0,4.32-3.54,7.83-7.89,7.83c-4.32,0-7.86-3.48-7.86-7.83
				C575.56,611.65,579.1,608.14,583.42,608.14z M583.42,621.22c2.76,0,4.98-2.34,4.98-5.22c0-2.91-2.22-5.28-4.98-5.28
				c-2.73,0-4.95,2.37-4.95,5.28C578.47,618.88,580.69,621.22,583.42,621.22z"/>
			<path class="st23" d="M610.03,608.14c1.35,0,3.36,0.33,5.37,1.83l-1.38,1.98c-1.59-1.2-3.48-1.23-3.87-1.23
				c-3.24,0-5.64,2.16-5.64,5.25c0,3.09,2.4,5.25,5.64,5.25c0.39,0,2.28-0.03,3.87-1.23l1.38,1.98c-2.01,1.5-4.02,1.83-5.37,1.83
				c-5.31,0-8.43-3.39-8.43-7.65C601.6,611.74,604.57,608.14,610.03,608.14z"/>
			<path class="st23" d="M629.35,615.01c0-3.18-1.47-4.29-3.06-4.29c-1.56,0-4.83,1.05-4.83,5.79v6.96h-2.91v-21.69h2.91v9.69
				c0.63-2.13,2.58-3.33,5.04-3.33c3.24,0,5.76,2.04,5.76,6.87v8.46h-2.91V615.01z"/>
			<path class="st23" d="M642.97,608.14c2.01,0,3.99,0.69,5.43,2.73v-2.4h2.91v15h-2.91v-2.4c-1.44,2.04-3.42,2.73-5.43,2.73
				c-4.5,0-7.44-3.54-7.44-7.83C635.53,611.68,638.47,608.14,642.97,608.14z M643.33,610.72c-3.12,0-4.89,2.4-4.89,5.25
				c0,2.85,1.77,5.25,4.89,5.25c3.03,0,5.1-2.22,5.13-5.25C648.43,612.94,646.36,610.72,643.33,610.72z"/>
			<path class="st23" d="M659.56,618.94c0,1.65,0.81,2.31,1.8,2.31c0.93,0,1.83-0.54,1.83-1.65c0-0.21-0.03-0.78-0.24-1.23
				c0.87,0,1.68,0,2.55,0c0.27,0.6,0.27,1.62,0.27,1.62c0,2.13-1.53,3.81-4.44,3.81c-2.37,0-4.68-1.23-4.68-5.07v-7.98h-2.46v-2.28
				h2.46l0.66-4.32h2.25v4.32h4.77v2.28h-4.77V618.94z"/>
		</g>
	</g>
</g>
<g id="Monies">
</g>
<g id="Texts">
</g>
<g id="LandingPageAndArtOld">
	<g id="LandingV2Sim">
	</g>
	<g id="LandingPageOld_1_">
	</g>
</g>
<g id="CtmSiteLandingPoster">
</g>
<g id="P3">
</g>
<g id="LandingArtOld">
</g>
<g id="LogoBaseRobiconFull">
</g>
<g id="LogobaseRobicon">
</g>
<g id="Safe">
</g>
</svg>
