<?xml version="1.0" encoding="utf-8"?>
<!-- Generator: Adobe Adobe Illustrator 24.2.0, SVG Export Plug-In . SVG Version: 6.00 Build 0)  -->
<svg version="1.1" xmlns="http://www.w3.org/2000/svg" xmlns:xlink="http://www.w3.org/1999/xlink" x="0px" y="0px"
	 viewBox="0 0 900 1300" style="enable-background:new 0 0 900 1300;" xml:space="preserve">
<style type="text/css">
	.st0{fill:#2C0078;}
	.st1{fill:#EDA514;}
	.st2{fill:#2C0078;stroke:#380A0A;stroke-width:0.8291;stroke-miterlimit:10;}
	.st3{fill:url(#SVGID_1_);}
	.st4{fill:url(#SVGID_2_);}
	.st5{fill:#370003;}
	.st6{fill:none;}
	.st7{opacity:0.8902;}
	.st8{opacity:0.9412;}
	.st9{fill:none;stroke:#370003;stroke-width:0.4087;stroke-miterlimit:10;}
	.st10{fill:none;stroke:#370003;stroke-width:0.3001;stroke-miterlimit:10;}
	.st11{fill:none;stroke:#A6720A;stroke-linejoin:round;stroke-miterlimit:10;}
	.st12{fill:none;stroke:#A6720A;stroke-miterlimit:10;}
	.st13{fill:url(#SVGID_3_);stroke:#000000;stroke-miterlimit:10;}
	.st14{fill:url(#SVGID_4_);stroke:#000000;stroke-miterlimit:10;}
	.st15{fill:url(#SVGID_5_);stroke:#000000;stroke-miterlimit:10;}
	.st16{fill:url(#SVGID_6_);stroke:#000000;stroke-miterlimit:10;}
	.st17{fill:url(#SVGID_7_);}
	.st18{fill:url(#SVGID_8_);}
	.st19{opacity:0.8392;}
	.st20{display:none;}
	.st21{display:inline;}
	.st22{fill:#164B94;}
	.st23{fill:#FFFFFF;}
	.st24{fill:none;stroke:#FFFFFF;stroke-width:2;stroke-miterlimit:10;}
	.st25{fill:none;stroke:#FFFFFF;stroke-width:3.7156;stroke-miterlimit:10;}
	.st26{fill:#C9C9C9;}
	.st27{opacity:0.502;fill:none;stroke:#FFFFFF;stroke-width:2;stroke-miterlimit:10;}
	.st28{fill:none;stroke:#FFFFFF;stroke-width:4;stroke-miterlimit:10;}
	.st29{fill:none;stroke:#FFFFFF;stroke-width:2.4957;stroke-miterlimit:10;}
	.st30{fill:none;stroke:#FFFFFF;stroke-width:3.5467;stroke-miterlimit:10;}
	.st31{fill:#B37B50;}
	.st32{fill:#380A0A;}
	.st33{fill:#A6720A;}
	.st34{fill:none;stroke:#380A0A;stroke-width:0.5304;stroke-miterlimit:10;}
	.st35{fill:#380A0A;stroke:#000000;stroke-width:0.5304;stroke-miterlimit:10;}
	.st36{fill:#B37B50;stroke:#380A0A;stroke-width:1.3576;stroke-miterlimit:10;}
	.st37{fill:#A6720A;stroke:#380A0A;stroke-width:2;stroke-linejoin:round;stroke-miterlimit:10;}
	.st38{fill:#A6720A;stroke:#380A0A;stroke-width:1.8889;stroke-linejoin:round;stroke-miterlimit:10;}
	.st39{fill:#A6720A;stroke:#380A0A;stroke-width:1.7778;stroke-linejoin:round;stroke-miterlimit:10;}
	.st40{fill:#A6720A;stroke:#380A0A;stroke-width:1.6667;stroke-linejoin:round;stroke-miterlimit:10;}
	.st41{fill:#A6720A;stroke:#380A0A;stroke-width:1.5556;stroke-linejoin:round;stroke-miterlimit:10;}
	.st42{fill:#A6720A;stroke:#380A0A;stroke-width:1.4444;stroke-linejoin:round;stroke-miterlimit:10;}
	.st43{fill:#A6720A;stroke:#380A0A;stroke-width:1.3333;stroke-linejoin:round;stroke-miterlimit:10;}
	.st44{fill:#A6720A;stroke:#380A0A;stroke-width:1.1111;stroke-linejoin:round;stroke-miterlimit:10;}
	.st45{fill:#A6720A;stroke:#380A0A;stroke-linejoin:round;stroke-miterlimit:10;}
	.st46{fill:#A6720A;stroke:#380A0A;stroke-width:0.7778;stroke-linejoin:round;stroke-miterlimit:10;}
	.st47{fill:#A6720A;stroke:#380A0A;stroke-width:0.3333;stroke-linejoin:round;stroke-miterlimit:10;}
	.st48{fill:#2C0078;stroke:#A6720A;stroke-width:2.2221;stroke-miterlimit:10;}
	.st49{opacity:0;fill:none;stroke:#EDA514;stroke-width:3;stroke-miterlimit:10;}
	.st50{fill:url(#BackgroundHorizontal_2_);}
	.st51{fill:none;stroke:#A6720A;stroke-width:2.0268;stroke-miterlimit:10;}
	.st52{opacity:0;fill:none;stroke:#EDA514;stroke-width:2.7363;stroke-miterlimit:10;}
	.st53{fill:none;stroke:#370003;stroke-width:0.5304;stroke-miterlimit:10;}
	.st54{fill:#8F853F;}
	.st55{fill:#852705;}
	.st56{fill:none;stroke:#370003;stroke-width:2.0268;stroke-miterlimit:10;}
	.st57{fill:#F9AF17;}
	.st58{fill:none;stroke:#852C08;stroke-miterlimit:10;}
	.st59{fill:#852D09;}
	.st60{fill:#B35095;}
	.st61{fill:none;stroke:#380A0A;stroke-width:0.4744;stroke-miterlimit:10;}
	.st62{fill:#380A0A;stroke:#000000;stroke-width:0.4744;stroke-miterlimit:10;}
	.st63{fill:#998F40;}
	.st64{fill:url(#BackgroundHorizontal_3_);}
</style>
<g id="CtmLogoBase">
</g>
<g id="TwitterOld">
</g>
<g id="Twitter">
</g>
<g id="General">
</g>
<g id="App">
	<!-- <rect x="-1267.41" y="-170" class="st22" width="3690" height="1640"/> -->
	<g id="CreatePage">
		<g>
			<path class="st30" d="M375.05,1036.16L375.05,1036.16c0-23.25,18.85-42.09,42.09-42.09h245.81c23.25,0,42.09,18.85,42.09,42.09v0
				c0,23.25-18.85,42.09-42.09,42.09H417.14C393.9,1078.25,375.05,1059.41,375.05,1036.16z"/>
			<g>
				<path class="st23" d="M496.17,1038.9c0.6,2.4,2.76,4.12,5.8,4.12c2.92,0,5.04-1.32,5.04-3.56c0-1.64-1.2-2.84-3.68-3.72
					l-3.6-1.24c-5.88-1.96-6.88-5.52-6.88-7.88c0-4.92,4.16-7.96,9.28-7.96c4.68,0,8,2.44,9.28,6.4l-4.32,1.8
					c-0.96-2.84-2.92-3.64-4.96-3.64c-2.28,0-4.16,1.12-4.16,3.32c0,0.96,0.28,2.4,3.32,3.48l3.6,1.32c5.44,1.72,7.16,5.16,7.2,7.92
					c0,5.4-4.6,8.28-10,8.28c-5.48,0-9.8-3.08-10.56-7.6L496.17,1038.9z"/>
				<path class="st23" d="M522.29,1026.86h6.04v3.76h-6.04v10.6c0,1.24,0.52,2.2,1.96,2.2c1.2,0,2-0.84,2-2.08
					c0-0.44-0.08-1.24-0.28-1.68h4.04c0.36,0.76,0.44,1.92,0.44,2.28c0,2.96-2.04,5.6-6.4,5.6c-3.36,0-6.68-1.44-6.68-7v-9.92h-3.16
					v-3.76h3.4l0.88-5.4h3.8V1026.86z"/>
				<path class="st23" d="M554.13,1026.86v20.24h-4.92v-3.04c-1.44,2.2-3.96,3.48-6.92,3.48c-6,0-9.92-4.72-9.92-10.64
					c0-5.72,3.76-10.48,9.96-10.48c2.72,0,5.24,1.12,6.88,3.44v-3H554.13z M543.29,1043.42c3.36,0,6.04-2.28,6.04-6.28
					c0-3.92-2.52-6.6-6.16-6.6c-3.72,0-5.84,2.92-5.84,6.4C537.33,1040.54,539.61,1043.42,543.29,1043.42z"/>
				<path class="st23" d="M564.57,1031.34c0.68-3.44,3.36-4.92,5.52-4.92c0.68,0,1.08,0.12,1.68,0.28v4.84
					c-0.76-0.28-1.68-0.4-2.32-0.4c-1.8,0-4.8,1-4.8,6.6v9.36h-4.92v-20.24h4.84V1031.34z"/>
				<path class="st23" d="M581.17,1026.86h6.04v3.76h-6.04v10.6c0,1.24,0.52,2.2,1.96,2.2c1.2,0,2-0.84,2-2.08
					c0-0.44-0.08-1.24-0.28-1.68h4.04c0.36,0.76,0.44,1.92,0.44,2.28c0,2.96-2.04,5.6-6.4,5.6c-3.36,0-6.68-1.44-6.68-7v-9.92h-3.16
					v-3.76h3.4l0.88-5.4h3.8V1026.86z"/>
			</g>
		</g>
		<g>
			<path class="st27" d="M280.38,506.21v-35.26c0-6.28,5.09-11.37,11.37-11.37h391.26c6.28,0,11.37,5.09,11.37,11.37v35.26
				c0,6.28-5.09,11.37-11.37,11.37H291.75C285.47,517.58,280.38,512.49,280.38,506.21z"/>
			<g id="LogoBase_35_">
				<g id="Ring1_151_">
					<g>
						<path class="st26" d="M159.14,479.48c0.07-15.14,9.5-28.92,23.93-33.84c14.47-4.94,30.86-0.08,40.5,11.72
							c9.67,11.82,11.07,28.99,3.18,42.11c-7.88,13.1-23.81,19.43-38.62,16.13c-14.64-3.27-26.13-15.48-28.53-30.28
							C159.29,483.38,159.15,481.43,159.14,479.48c-0.01-1.27-2.22,0.32-2.22,1.22c0.07,15.98,10.22,30.56,25.36,35.88
							c15.39,5.4,32.65,0.05,42.93-12.42c10.32-12.5,11.83-30.61,3.38-44.51c-8.4-13.81-25.04-20.72-40.77-17.25
							c-15.53,3.42-27.88,16.57-30.42,32.25c-0.32,2-0.48,4.02-0.49,6.05C156.92,481.96,159.14,480.37,159.14,479.48z"/>
					</g>
				</g>
				<g id="Ring2_92_">
					<g>
						<path class="st26" d="M173.32,479.56c0.07-9.34,5.85-17.76,14.84-20.64c8.85-2.83,18.73,0.27,24.54,7.46
							c5.84,7.21,6.71,17.66,1.93,25.66c-4.81,8.04-14.65,11.78-23.67,9.67C180.74,499.32,173.39,490.02,173.32,479.56
							c-0.01-1.1-1.93,0.28-1.92,1.05c0.07,10.04,6.45,19.17,16.03,22.39c9.69,3.26,20.42-0.31,26.78-8.16
							c6.29-7.77,7.26-18.9,2.09-27.5c-5.23-8.72-15.71-13.02-25.58-10.77c-11.04,2.51-19.23,12.75-19.32,24.05
							C171.38,481.71,173.31,480.33,173.32,479.56z"/>
					</g>
				</g>
				<g id="Ring3_92_">
					<g>
						<path class="st26" d="M182.09,479.6c0.07-5.73,3.55-10.79,9.13-12.42c5.36-1.57,11.26,0.45,14.71,4.78
							c3.48,4.36,4.05,10.69,1.16,15.51c-2.91,4.84-8.87,6.98-14.28,5.67C186.59,491.63,182.17,485.97,182.09,479.6
							c-0.01-1.02-1.78,0.26-1.78,0.97c0.08,6.35,4.09,12.1,10.21,14.04c6.09,1.93,12.73-0.42,16.7-5.31
							c3.98-4.89,4.68-11.89,1.41-17.34c-3.31-5.53-9.98-8.16-16.21-6.65c-6.91,1.68-12.03,8.16-12.12,15.25
							C180.31,481.58,182.09,480.31,182.09,479.6z"/>
					</g>
				</g>
				<g id="Ring4_95_">
					<circle class="st26" cx="195.53" cy="480.08" r="5.49"/>
				</g>
			</g>
			<g>
				<path class="st23" d="M301.02,423.13l-8-19.24l-1.68,19.56h-5.12l2.6-28h5.36l8.6,20.6l8.56-20.6h5.36l2.64,28h-5.12
					l-1.72-19.56l-8,19.24H301.02z"/>
				<path class="st23" d="M343.58,420.01c-2.72,3.04-6.04,3.88-9.16,3.88c-7.28,0-11.64-4.72-11.64-10.48
					c0-5.92,4.68-10.64,11.08-10.64c5.48,0,10.64,3.44,10.64,11.24h-16.8c0,3.2,2.6,5.72,6.96,5.72c2.52,0,4.4-0.92,6.12-2.48
					L343.58,420.01z M327.94,410.69h11.52c-0.76-3.12-3.52-4-5.6-4C331.7,406.69,328.98,407.57,327.94,410.69z"/>
				<path class="st23" d="M367.78,420.01c-2.72,3.04-6.04,3.88-9.16,3.88c-7.28,0-11.64-4.72-11.64-10.48
					c0-5.92,4.68-10.64,11.08-10.64c5.48,0,10.64,3.44,10.64,11.24h-16.8c0,3.2,2.6,5.72,6.96,5.72c2.52,0,4.4-0.92,6.12-2.48
					L367.78,420.01z M352.14,410.69h11.52c-0.76-3.12-3.52-4-5.6-4C355.9,406.69,353.18,407.57,352.14,410.69z"/>
				<path class="st23" d="M378.46,403.21h6.04v3.76h-6.04v10.6c0,1.24,0.52,2.2,1.96,2.2c1.2,0,2-0.84,2-2.08
					c0-0.44-0.08-1.24-0.28-1.68h4.04c0.36,0.76,0.44,1.92,0.44,2.28c0,2.96-2.04,5.6-6.4,5.6c-3.36,0-6.68-1.44-6.68-7v-9.92h-3.16
					v-3.76h3.4l0.88-5.4h3.8V403.21z"/>
				<path class="st23" d="M392.42,394.09c1.84,0,3.28,1.36,3.28,3.12s-1.44,3.08-3.28,3.08s-3.2-1.32-3.2-3.08
					S390.58,394.09,392.42,394.09z M389.94,423.45v-20.24h4.92v20.24H389.94z"/>
				<path class="st23" d="M400.54,403.21h4.92v3.4c1.28-2.64,3.68-3.84,6.56-3.84c5.04,0,7.48,3.64,7.48,9.48v11.2h-4.92v-11.16
					c0-3.52-1.48-5.36-3.92-5.36c-2.88,0-5.2,2.16-5.2,6.4v10.12h-4.92V403.21z"/>
				<path class="st23" d="M427.3,426.33c1.6,1.4,4.16,2.44,6.6,2.44c3.48,0,6.44-1.6,6.44-5.96v-2.36c-1.4,2.12-4.08,3.44-6.92,3.44
					c-6,0-9.92-4.72-9.92-10.64c0-5.72,3.76-10.48,9.96-10.48c2.72,0,5.24,1.12,6.88,3.44v-3h4.92v18.04
					c0,8.36-4.36,11.8-10.76,11.8c-4.4,0-7.16-1.24-9.16-2.88C426.02,428.89,426.66,427.61,427.3,426.33z M434.42,419.77
					c3.36,0,6.04-2.28,6.04-6.28c0-3.92-2.52-6.6-6.16-6.6c-3.72,0-5.84,2.92-5.84,6.4C428.46,416.89,430.74,419.77,434.42,419.77z"
					/>
				<path class="st23" d="M466.9,404.57v18.88h-5.12v-28h3.88l13.84,18.76v-18.76h5.12v28h-3.84L466.9,404.57z"/>
				<path class="st23" d="M511.1,403.21v20.24h-4.92v-3.04c-1.44,2.2-3.96,3.48-6.92,3.48c-6,0-9.92-4.72-9.92-10.64
					c0-5.72,3.76-10.48,9.96-10.48c2.72,0,5.24,1.12,6.88,3.44v-3H511.1z M500.26,419.77c3.36,0,6.04-2.28,6.04-6.28
					c0-3.92-2.52-6.6-6.16-6.6c-3.72,0-5.84,2.92-5.84,6.4C494.3,416.89,496.58,419.77,500.26,419.77z"/>
				<path class="st23" d="M529.94,412.29c0-3.52-1.4-5.36-3.76-5.36c-2.24,0-4.44,1.72-4.56,6.16v10.36h-4.92v-20.24h4.92v3.4
					c1.08-2.48,3.36-3.84,5.96-3.84c2.52,0,5,1,6.32,3.8c1.6-3.24,4.44-3.8,6.64-3.8c5.24,0,7.52,3.64,7.52,9.48v11.2h-4.92v-11.16
					c0-3.52-1.4-5.36-3.76-5.36c-2.24,0-4.44,1.72-4.56,6.16v10.36h-4.88V412.29z"/>
				<path class="st23" d="M572.78,420.01c-2.72,3.04-6.04,3.88-9.16,3.88c-7.28,0-11.64-4.72-11.64-10.48
					c0-5.92,4.68-10.64,11.08-10.64c5.48,0,10.64,3.44,10.64,11.24h-16.8c0,3.2,2.6,5.72,6.96,5.72c2.52,0,4.4-0.92,6.12-2.48
					L572.78,420.01z M557.14,410.69h11.52c-0.76-3.12-3.52-4-5.6-4C560.9,406.69,558.18,407.57,557.14,410.69z"/>
			</g>
		</g>
		<g>
			<path class="st23" d="M177.85,227.66c7.42,0,12.32,2.31,16.87,5.74l-3.57,6.72c-3.43-2.52-7.98-4.48-13.23-4.48
				c-11.13,0-17.64,7.77-17.64,17.29c0,9.52,6.51,17.29,17.64,17.29c5.25,0,9.8-1.89,13.23-4.48l3.57,6.79
				c-4.55,3.43-9.45,5.67-16.87,5.67c-16.59,0-26.74-11.62-26.74-25.27C151.1,239.28,161.25,227.66,177.85,227.66z"/>
			<path class="st23" d="M209.76,249.85c1.19-6.02,5.88-8.61,9.66-8.61c1.19,0,1.89,0.21,2.94,0.49v8.47
				c-1.33-0.49-2.94-0.7-4.06-0.7c-3.15,0-8.4,1.75-8.4,11.55v16.38h-8.61v-35.42h8.47V249.85z"/>
			<path class="st23" d="M261.43,271.42c-4.76,5.32-10.57,6.79-16.03,6.79c-12.74,0-20.37-8.26-20.37-18.34
				c0-10.36,8.19-18.62,19.39-18.62c9.59,0,18.62,6.02,18.62,19.67h-29.4c0,5.6,4.55,10.01,12.18,10.01c4.41,0,7.7-1.61,10.71-4.34
				L261.43,271.42z M234.05,255.11h20.16c-1.33-5.46-6.16-7-9.8-7C240.63,248.1,235.87,249.64,234.05,255.11z"/>
			<path class="st23" d="M305.59,242.01v35.42h-8.61v-5.32c-2.52,3.85-6.93,6.09-12.11,6.09c-10.5,0-17.36-8.26-17.36-18.62
				c0-10.01,6.58-18.34,17.43-18.34c4.76,0,9.17,1.96,12.04,6.02v-5.25H305.59z M286.62,271c5.88,0,10.57-3.99,10.57-10.99
				c0-6.86-4.41-11.55-10.78-11.55c-6.51,0-10.22,5.11-10.22,11.2C276.19,265.96,280.18,271,286.62,271z"/>
			<path class="st23" d="M326.03,242.01h10.57v6.58h-10.57v18.55c0,2.17,0.91,3.85,3.43,3.85c2.1,0,3.5-1.47,3.5-3.64
				c0-0.77-0.14-2.17-0.49-2.94h7.07c0.63,1.33,0.77,3.36,0.77,3.99c0,5.18-3.57,9.8-11.2,9.8c-5.88,0-11.69-2.52-11.69-12.25
				v-17.36h-5.53v-6.58h5.95l1.54-9.45h6.65V242.01z"/>
			<path class="st23" d="M379.93,271.42c-4.76,5.32-10.57,6.79-16.03,6.79c-12.74,0-20.37-8.26-20.37-18.34
				c0-10.36,8.19-18.62,19.39-18.62c9.59,0,18.62,6.02,18.62,19.67h-29.4c0,5.6,4.55,10.01,12.18,10.01c4.41,0,7.7-1.61,10.71-4.34
				L379.93,271.42z M352.56,255.11h20.16c-1.33-5.46-6.16-7-9.8-7C359.14,248.1,354.38,249.64,352.56,255.11z"/>
			<path class="st23" d="M441.88,242.01v35.42h-8.61v-5.32c-2.52,3.85-6.93,6.09-12.11,6.09c-10.5,0-17.36-8.26-17.36-18.62
				c0-10.01,6.58-18.34,17.43-18.34c4.76,0,9.17,1.96,12.04,6.02v-5.25H441.88z M422.91,271c5.88,0,10.57-3.99,10.57-10.99
				c0-6.86-4.41-11.55-10.78-11.55c-6.51,0-10.22,5.11-10.22,11.2C412.48,265.96,416.47,271,422.91,271z"/>
			<path class="st23" d="M494.59,276.88l-14-33.67l-2.94,34.23h-8.96l4.55-49.01h9.38l15.05,36.05l14.98-36.05h9.38l4.62,49.01
				h-8.96l-3.01-34.23l-14,33.67H494.59z"/>
			<path class="st23" d="M569.07,271.42c-4.76,5.32-10.57,6.79-16.03,6.79c-12.74,0-20.37-8.26-20.37-18.34
				c0-10.36,8.19-18.62,19.39-18.62c9.59,0,18.62,6.02,18.62,19.67h-29.4c0,5.6,4.55,10.01,12.18,10.01c4.41,0,7.7-1.61,10.71-4.34
				L569.07,271.42z M541.7,255.11h20.16c-1.33-5.46-6.16-7-9.8-7C548.28,248.1,543.52,249.64,541.7,255.11z"/>
			<path class="st23" d="M611.42,271.42c-4.76,5.32-10.57,6.79-16.03,6.79c-12.74,0-20.37-8.26-20.37-18.34
				c0-10.36,8.19-18.62,19.39-18.62c9.59,0,18.62,6.02,18.62,19.67h-29.4c0,5.6,4.55,10.01,12.18,10.01c4.41,0,7.7-1.61,10.71-4.34
				L611.42,271.42z M584.05,255.11h20.16c-1.33-5.46-6.16-7-9.8-7C590.63,248.1,585.87,249.64,584.05,255.11z"/>
			<path class="st23" d="M630.11,242.01h10.57v6.58h-10.57v18.55c0,2.17,0.91,3.85,3.43,3.85c2.1,0,3.5-1.47,3.5-3.64
				c0-0.77-0.14-2.17-0.49-2.94h7.07c0.63,1.33,0.77,3.36,0.77,3.99c0,5.18-3.57,9.8-11.2,9.8c-5.88,0-11.69-2.52-11.69-12.25
				v-17.36h-5.53v-6.58h5.95l1.54-9.45h6.65V242.01z"/>
			<path class="st23" d="M654.54,226.05c3.22,0,5.74,2.38,5.74,5.46s-2.52,5.39-5.74,5.39s-5.6-2.31-5.6-5.39
				S651.32,226.05,654.54,226.05z M650.2,277.44v-35.42h8.61v35.42H650.2z"/>
			<path class="st23" d="M668.75,242.01h8.61v5.95c2.24-4.62,6.44-6.72,11.48-6.72c8.82,0,13.09,6.37,13.09,16.59v19.6h-8.61v-19.53
				c0-6.16-2.59-9.38-6.86-9.38c-5.04,0-9.1,3.78-9.1,11.2v17.71h-8.61V242.01z"/>
			<path class="st23" d="M715.58,282.48c2.8,2.45,7.28,4.27,11.55,4.27c6.09,0,11.27-2.8,11.27-10.43v-4.13
				c-2.45,3.71-7.14,6.02-12.11,6.02c-10.5,0-17.36-8.26-17.36-18.62c0-10.01,6.58-18.34,17.43-18.34c4.76,0,9.17,1.96,12.04,6.02
				v-5.25h8.61v31.57c0,14.63-7.63,20.65-18.83,20.65c-7.7,0-12.53-2.17-16.03-5.04C713.34,286.96,714.46,284.72,715.58,282.48z
				 M728.04,271c5.88,0,10.57-3.99,10.57-10.99c0-6.86-4.41-11.55-10.78-11.55c-6.51,0-10.22,5.11-10.22,11.2
				C717.61,265.96,721.6,271,728.04,271z"/>
		</g>
		<g>
			<path class="st27" d="M280.01,688.04v-35.26c0-6.28,5.09-11.37,11.37-11.37h391.26c6.28,0,11.37,5.09,11.37,11.37v35.26
				c0,6.28-5.09,11.37-11.37,11.37H291.38C285.1,699.41,280.01,694.32,280.01,688.04z"/>
			<g>
				<path class="st23" d="M296.57,609.97l-8-19.24l-1.68,19.56h-5.12l2.6-28h5.36l8.6,20.6l8.56-20.6h5.36l2.64,28h-5.12
					l-1.72-19.56l-8,19.24H296.57z"/>
				<path class="st23" d="M339.13,606.85c-2.72,3.04-6.04,3.88-9.16,3.88c-7.28,0-11.64-4.72-11.64-10.48
					c0-5.92,4.68-10.64,11.08-10.64c5.48,0,10.64,3.44,10.64,11.24h-16.8c0,3.2,2.6,5.72,6.96,5.72c2.52,0,4.4-0.92,6.12-2.48
					L339.13,606.85z M323.5,597.53h11.52c-0.76-3.12-3.52-4-5.6-4C327.26,593.53,324.54,594.41,323.5,597.53z"/>
				<path class="st23" d="M363.33,606.85c-2.72,3.04-6.04,3.88-9.16,3.88c-7.28,0-11.64-4.72-11.64-10.48
					c0-5.92,4.68-10.64,11.08-10.64c5.48,0,10.64,3.44,10.64,11.24h-16.8c0,3.2,2.6,5.72,6.96,5.72c2.52,0,4.4-0.92,6.12-2.48
					L363.33,606.85z M347.7,597.53h11.52c-0.76-3.12-3.52-4-5.6-4C351.45,593.53,348.74,594.41,347.7,597.53z"/>
				<path class="st23" d="M374.02,590.05h6.04v3.76h-6.04v10.6c0,1.24,0.52,2.2,1.96,2.2c1.2,0,2-0.84,2-2.08
					c0-0.44-0.08-1.24-0.28-1.68h4.04c0.36,0.76,0.44,1.92,0.44,2.28c0,2.96-2.04,5.6-6.4,5.6c-3.36,0-6.68-1.44-6.68-7v-9.92h-3.16
					v-3.76h3.4l0.88-5.4h3.8V590.05z"/>
				<path class="st23" d="M387.98,580.93c1.84,0,3.28,1.36,3.28,3.12s-1.44,3.08-3.28,3.08s-3.2-1.32-3.2-3.08
					S386.14,580.93,387.98,580.93z M385.5,610.29v-20.24h4.92v20.24H385.5z"/>
				<path class="st23" d="M396.1,590.05h4.92v3.4c1.28-2.64,3.68-3.84,6.56-3.84c5.04,0,7.48,3.64,7.48,9.48v11.2h-4.92v-11.16
					c0-3.52-1.48-5.36-3.92-5.36c-2.88,0-5.2,2.16-5.2,6.4v10.12h-4.92V590.05z"/>
				<path class="st23" d="M422.86,613.17c1.6,1.4,4.16,2.44,6.6,2.44c3.48,0,6.44-1.6,6.44-5.96v-2.36
					c-1.4,2.12-4.08,3.44-6.92,3.44c-6,0-9.92-4.72-9.92-10.64c0-5.72,3.76-10.48,9.96-10.48c2.72,0,5.24,1.12,6.88,3.44v-3h4.92
					v18.04c0,8.36-4.36,11.8-10.76,11.8c-4.4,0-7.16-1.24-9.16-2.88C421.58,615.73,422.22,614.45,422.86,613.17z M429.97,606.61
					c3.36,0,6.04-2.28,6.04-6.28c0-3.92-2.52-6.6-6.16-6.6c-3.72,0-5.84,2.92-5.84,6.4C424.02,603.73,426.3,606.61,429.97,606.61z"
					/>
				<path class="st23" d="M462.89,590.05h4.92v3.76h-4.92v16.48h-5v-16.48h-3v-3.76h3v-1.36c0-6.2,3.64-7.72,7.04-7.72
					c4.36,0,6.24,2.64,6.24,5.56c0,0.12-0.04,0.72-0.2,1.12h-3.96c0.08-0.2,0.12-0.48,0.12-0.68c0-1.28-0.8-1.92-2-1.92
					c-1.24,0-2.24,0.96-2.24,2.88V590.05z"/>
				<path class="st23" d="M490.41,606.85c-2.72,3.04-6.04,3.88-9.16,3.88c-7.28,0-11.64-4.72-11.64-10.48
					c0-5.92,4.68-10.64,11.08-10.64c5.48,0,10.64,3.44,10.64,11.24h-16.8c0,3.2,2.6,5.72,6.96,5.72c2.52,0,4.4-0.92,6.12-2.48
					L490.41,606.85z M474.78,597.53h11.52c-0.76-3.12-3.52-4-5.6-4C478.54,593.53,475.82,594.41,474.78,597.53z"/>
				<path class="st23" d="M514.61,606.85c-2.72,3.04-6.04,3.88-9.16,3.88c-7.28,0-11.64-4.72-11.64-10.48
					c0-5.92,4.68-10.64,11.08-10.64c5.48,0,10.64,3.44,10.64,11.24h-16.8c0,3.2,2.6,5.72,6.96,5.72c2.52,0,4.4-0.92,6.12-2.48
					L514.61,606.85z M498.97,597.53h11.52c-0.76-3.12-3.52-4-5.6-4C502.73,593.53,500.01,594.41,498.97,597.53z"/>
				<path class="st23" d="M532.14,580.93c1.84,0,3.28,1.36,3.28,3.12s-1.44,3.08-3.28,3.08s-3.2-1.32-3.2-3.08
					S530.3,580.93,532.14,580.93z M529.66,610.29v-20.24h4.92v20.24H529.66z"/>
				<path class="st23" d="M540.26,590.05h4.92v3.4c1.28-2.64,3.68-3.84,6.56-3.84c5.04,0,7.48,3.64,7.48,9.48v11.2h-4.92v-11.16
					c0-3.52-1.48-5.36-3.92-5.36c-2.88,0-5.2,2.16-5.2,6.4v10.12h-4.92V590.05z"/>
				<path class="st23" d="M588.85,581.85c4.24,0,7.04,1.32,9.64,3.28l-2.04,3.84c-1.96-1.44-4.56-2.56-7.56-2.56
					c-6.36,0-10.08,4.44-10.08,9.88s3.72,9.88,10.08,9.88c3,0,5.6-1.08,7.56-2.56l2.04,3.88c-2.6,1.96-5.4,3.24-9.64,3.24
					c-9.48,0-15.28-6.64-15.28-14.44S579.37,581.85,588.85,581.85z"/>
				<path class="st23" d="M622.57,582.29v4.12h-8.64v23.88h-5.12v-23.88h-8.56v-4.12H622.57z"/>
				<path class="st23" d="M640.13,609.97l-8-19.24l-1.68,19.56h-5.12l2.6-28h5.36l8.6,20.6l8.56-20.6h5.36l2.64,28h-5.12
					l-1.72-19.56l-8,19.24H640.13z"/>
			</g>
			<g id="Token_19_">
				<g>
					<g>
						<g id="Token_21_">
							<g id="Ring1_172_">
								<g>
									<path class="st26" d="M233.4,674.81c-0.06,1.97-0.19,3.93-0.29,5.9c-0.09,1.86-0.64,3.3-1.99,4.65
										c-2.02,2.02-4.77,3.3-7.4,4.32c-3.57,1.37-7.33,2.27-11.09,2.91c-9.03,1.53-18.38,1.68-27.46,0.57
										c-6.87-0.84-14.46-2.26-20.36-6.11c-1.93-1.26-4.01-3.04-4.42-5.43c-0.35-2.05-0.41-4.28-0.47-6.36
										c-0.01-0.45-0.8,0.11-0.79,0.43c0.06,2.05,0.19,4.17,0.45,6.21c0.25,1.97,1.58,3.57,3.07,4.79
										c2.35,1.92,5.23,3.19,8.07,4.18c3.88,1.36,7.93,2.22,11.99,2.8c9.53,1.37,19.38,1.33,28.89-0.21
										c6.49-1.05,14-2.69,19.14-7.08c1.59-1.36,2.94-3.11,3.12-5.26c0.18-2.24,0.27-4.5,0.33-6.74
										C234.2,673.93,233.41,674.49,233.4,674.81L233.4,674.81z"/>
								</g>
							</g>
						</g>
						<g id="Token_20_">
							<g id="Ring1_169_">
								<g>
									<path class="st26" d="M233.08,677.31c-0.04,2.21-0.12,4.43-0.19,6.64c-0.05,1.75,0.19,3.78-0.71,5.37
										c-1.38,2.44-4.29,3.92-6.75,5.01c-3.89,1.72-8.08,2.77-12.26,3.5c-10.26,1.79-21.01,1.84-31.29,0.15
										c-4.19-0.69-8.37-1.68-12.31-3.29c-2.75-1.12-5.65-2.58-7.56-4.92c-1.59-1.95-1.41-3.71-1.48-6.11
										c-0.08-2.5-0.19-5-0.22-7.49c-0.01-0.77-1.34,0.19-1.34,0.73c0.03,2.34,0.13,4.68,0.21,7.02c0.06,1.96-0.16,4.09,0.82,5.86
										c1.38,2.49,4.05,4.11,6.53,5.32c3.83,1.87,8.02,3,12.19,3.81c10.63,2.06,21.83,2.16,32.52,0.46
										c4.42-0.7,8.86-1.73,13.01-3.44c2.89-1.19,5.83-2.73,7.92-5.12c1.61-1.84,1.94-3.68,2-6.02c0.08-2.73,0.19-5.47,0.23-8.2
										C234.43,675.82,233.09,676.77,233.08,677.31L233.08,677.31z"/>
								</g>
							</g>
						</g>
						<g>
							<g>
								<path class="st26" d="M172.21,664.96c-4.07,1.25-8.61,2.94-11.41,6.33c-1.72,2.08-2.38,4.82-1.06,7.27
									c1.37,2.55,3.98,4.26,6.47,5.58c3.95,2.1,8.33,3.39,12.69,4.31c10.89,2.3,22.47,2.36,33.4,0.29
									c4.4-0.84,8.76-2.03,12.84-3.9c2.9-1.33,5.89-3.09,7.84-5.68c1.74-2.31,2.11-5.13,0.47-7.62
									c-2.64-3.99-8.23-5.72-12.56-6.94c-0.55-0.15-1.59,1.15-1,1.31c3.9,1.09,8.22,2.5,11.18,5.41c1.77,1.74,2.8,4.26,1.61,6.62
									c-1.22,2.42-3.91,4-6.23,5.18c-3.59,1.82-7.51,3-11.43,3.87c-9.93,2.2-20.45,2.44-30.51,0.97
									c-4.33-0.63-8.63-1.6-12.74-3.11c-3.07-1.13-6.19-2.57-8.64-4.78c-1.92-1.72-3.47-4.18-2.47-6.82
									c0.64-1.7,2.15-2.92,3.65-3.85c2.3-1.43,4.88-2.37,7.47-3.16C172.3,666.07,173.11,664.68,172.21,664.96L172.21,664.96z"/>
							</g>
						</g>
						<g>
							<g>
								<path class="st26" d="M175.75,671.65c-1.5,1.01-2.52,2.07-2.37,3.98c0.1,1.29,0.92,2.36,1.88,3.18
									c3.39,2.9,8.45,3.91,12.73,4.52c5.98,0.86,12.17,0.82,18.13-0.18c4.04-0.68,8.65-1.75,11.84-4.51c1.04-0.9,2-2.11,2.08-3.54
									c0.14-2.5-2.36-4.13-4.28-5.16c-0.28-0.15-0.95,0.6-0.6,0.79c1.74,0.93,4.14,2.46,4.08,4.72c-0.03,1.28-0.93,2.27-1.88,3.01
									c-3.09,2.4-7.42,3.34-11.2,3.94c-5.16,0.83-10.48,0.93-15.68,0.37c-4.1-0.44-8.37-1.25-12.08-3.13
									c-1.34-0.68-2.77-1.58-3.61-2.87c-0.37-0.56-0.58-1.17-0.61-1.85c-0.05-1.38,0.66-2.02,1.74-2.75
									C176.31,671.92,176.32,671.27,175.75,671.65L175.75,671.65z"/>
							</g>
						</g>
						<g>
							<g>
								<path class="st26" d="M183.46,672.15c-1.66,1.14-2.23,2.96-0.68,4.5c1.95,1.94,5.2,2.61,7.8,3.03
									c3.79,0.61,7.74,0.63,11.54,0.04c2.64-0.41,5.56-1.06,7.73-2.72c0.71-0.55,1.41-1.27,1.64-2.17
									c0.4-1.52-0.81-2.66-1.97-3.41c-0.31-0.21-0.98,0.55-0.72,0.72c1.13,0.74,2.57,2.04,1.7,3.49
									c-0.64,1.05-2.05,1.64-3.14,2.07c-3.27,1.28-6.94,1.64-10.43,1.64c-3.5,0-7.16-0.37-10.45-1.65c-1.73-0.67-5.76-3.01-2.86-5
									C184.01,672.41,184.02,671.76,183.46,672.15L183.46,672.15z"/>
							</g>
						</g>
					</g>
				</g>
				<g>
					<g>
						<path class="st26" d="M202.14,612.18c-2.19-0.39-3.82-1.87-3.35-4.45c0.47-2.58,2.51-3.38,4.69-2.99
							c0.96,0.17,1.96,0.61,2.54,1.43c0.12,0.19,0.19,0.4,0.15,0.65c-0.08,0.45-0.49,0.71-0.92,0.63c-0.39-0.07-0.68-0.44-0.95-0.63
							c-0.31-0.22-0.65-0.34-1.11-0.42c-1.18-0.21-2.2,0.34-2.45,1.69c-0.24,1.35,0.52,2.24,1.7,2.45c0.58,0.1,1.18,0.11,1.75-0.1
							c0.18-0.06,0.35-0.07,0.5-0.05c0.48,0.09,0.78,0.6,0.7,1.03c-0.04,0.22-0.17,0.42-0.42,0.53
							C204.06,612.39,203.1,612.35,202.14,612.18z"/>
						<path class="st26" d="M214.06,610.72c-0.6-0.33-1.06-0.53-1.46-0.75c-0.51-0.27-0.57-0.78-0.33-1.14
							c0.28-0.41,0.63-0.48,1.07-0.27c0.89,0.41,1.58,0.76,2.4,1.33c0.79,0.54,1.37,1.04,2.07,1.73c0.35,0.33,0.41,0.69,0.13,1.09
							c-0.25,0.36-0.74,0.48-1.18,0.11c-0.34-0.3-0.7-0.65-1.22-1.09l-2.79,4.07c-0.28,0.42-0.85,0.44-1.21,0.19
							c-0.36-0.25-0.55-0.78-0.26-1.2L214.06,610.72z"/>
						<path class="st26" d="M224.66,624.93c0.65-0.36,0.85-0.85,0.55-1.39c-0.3-0.54-0.82-0.64-1.47-0.28l-3.27,1.79
							c-0.44,0.24-0.89,0.12-1.17-0.4c-0.27-0.49-0.13-0.94,0.31-1.18l3.27-1.79c0.65-0.36,0.85-0.85,0.55-1.39
							c-0.3-0.54-0.82-0.64-1.47-0.28l-3.27,1.79c-0.44,0.24-0.88,0.14-1.16-0.38c-0.28-0.52-0.14-0.96,0.3-1.2l3.27-1.79
							c1.92-1.05,3-0.42,3.81,1.06c0.36,0.66,0.46,1.34,0.11,2.06c0.79,0.09,1.31,0.54,1.67,1.2c0.84,1.54,0.59,2.82-1.16,3.78
							l-3.27,1.79c-0.44,0.24-0.89,0.12-1.17-0.4c-0.28-0.52-0.13-0.94,0.31-1.18L224.66,624.93z"/>
					</g>
					<g>
						<path class="st26" d="M190.16,662.51c2.17,0.49,3.74,2.03,3.16,4.59c-0.57,2.56-2.65,3.27-4.82,2.79
							c-0.95-0.21-1.93-0.69-2.48-1.54c-0.12-0.2-0.18-0.41-0.12-0.65c0.1-0.45,0.52-0.69,0.95-0.59c0.39,0.09,0.66,0.47,0.92,0.67
							c0.3,0.23,0.64,0.37,1.09,0.47c1.17,0.26,2.22-0.24,2.52-1.58c0.3-1.34-0.43-2.26-1.59-2.52c-0.57-0.13-1.18-0.16-1.76,0.02
							c-0.18,0.06-0.36,0.06-0.5,0.03c-0.48-0.11-0.75-0.63-0.65-1.06c0.05-0.21,0.19-0.41,0.44-0.51
							C188.25,662.21,189.2,662.29,190.16,662.51z"/>
						<path class="st26" d="M178.19,663.56c0.59,0.35,1.04,0.57,1.44,0.79c0.5,0.29,0.55,0.79,0.29,1.15
							c-0.29,0.4-0.65,0.46-1.07,0.24c-0.88-0.43-1.55-0.81-2.36-1.4c-0.77-0.56-1.34-1.08-2.01-1.8c-0.34-0.34-0.39-0.7-0.1-1.1
							c0.26-0.36,0.75-0.46,1.18-0.07c0.33,0.31,0.68,0.68,1.19,1.13l2.92-3.99c0.3-0.41,0.86-0.41,1.21-0.15
							c0.36,0.26,0.52,0.8,0.22,1.2L178.19,663.56z"/>
						<path class="st26" d="M168.05,649c-0.67,0.33-0.88,0.82-0.6,1.37c0.28,0.55,0.79,0.67,1.46,0.34l3.33-1.67
							c0.45-0.23,0.9-0.08,1.16,0.44c0.25,0.5,0.1,0.95-0.35,1.17l-3.33,1.67c-0.67,0.33-0.88,0.82-0.6,1.37
							c0.28,0.55,0.79,0.67,1.46,0.34l3.33-1.67c0.45-0.23,0.89-0.1,1.15,0.42c0.26,0.53,0.11,0.97-0.34,1.19l-3.33,1.67
							c-1.96,0.98-3.01,0.31-3.77-1.2c-0.34-0.68-0.41-1.36-0.03-2.06c-0.79-0.12-1.29-0.59-1.63-1.26
							c-0.78-1.57-0.48-2.84,1.3-3.73l3.33-1.67c0.45-0.23,0.9-0.08,1.16,0.44c0.26,0.53,0.1,0.95-0.35,1.17L168.05,649z"/>
					</g>
					<g id="LogoBase_38_">
						<g id="Ring1_157_">
							<g>
								<path class="st26" d="M159.74,636.82c0.07-15.09,9.52-28.87,23.88-33.82c14.42-4.97,30.77-0.19,40.39,11.6
									c9.61,11.77,10.95,28.86,3.07,41.9c-7.88,13.04-23.71,19.46-38.5,16.18c-14.59-3.23-26.03-15.39-28.38-30.15
									C159.88,640.64,159.74,638.73,159.74,636.82c0-0.98-1.71,0.25-1.7,0.93c0.07,15.83,10.19,30.28,25.22,35.46
									c15.05,5.19,31.94,0.01,41.98-12.19c10.14-12.31,11.56-30.15,3.24-43.8c-8.26-13.55-24.63-20.41-40.1-17.02
									c-15.22,3.33-27.33,16.13-29.85,31.49c-0.33,2-0.48,4.02-0.49,6.05C158.03,638.73,159.73,637.51,159.74,636.82z"/>
							</g>
						</g>
						<g id="Ring2_93_">
							<g>
								<path class="st26" d="M173.91,636.82c0.07-9.28,5.83-17.68,14.76-20.55c8.74-2.82,18.52,0.18,24.32,7.26
									c5.89,7.19,6.78,17.7,1.94,25.68c-4.83,7.96-14.59,11.69-23.57,9.57C181.24,656.39,173.99,647.17,173.91,636.82
									c-0.01-0.98-1.71,0.25-1.7,0.93c0.07,9.9,6.35,18.9,15.78,22.1c9.5,3.22,20.05-0.2,26.33-7.87
									c6.3-7.69,7.25-18.78,2.08-27.32c-5.19-8.56-15.53-12.78-25.25-10.55c-10.85,2.49-18.86,12.54-18.94,23.64
									C172.2,638.73,173.91,637.51,173.91,636.82z"/>
							</g>
						</g>
						<g id="Ring3_93_">
							<g>
								<path class="st26" d="M182.67,636.82c0.07-5.66,3.51-10.68,9.02-12.32c5.28-1.56,11.1,0.37,14.55,4.61
									c3.54,4.35,4.13,10.75,1.17,15.57c-2.92,4.76-8.82,6.84-14.17,5.53C187.1,648.71,182.75,643.11,182.67,636.82
									c-0.01-0.98-1.71,0.25-1.7,0.93c0.08,6.25,4.02,11.93,10.04,13.87c6.04,1.94,12.62-0.38,16.56-5.23
									c3.95-4.86,4.59-11.83,1.32-17.21c-3.3-5.42-9.89-7.98-16.01-6.47c-6.8,1.68-11.82,8.06-11.91,15.05
									C180.96,638.72,182.66,637.51,182.67,636.82z"/>
							</g>
						</g>
						<g id="Ring4_96_">
							<circle class="st26" cx="196" cy="637.29" r="5.44"/>
						</g>
					</g>
				</g>
			</g>
		</g>
		<g>
			<path class="st27" d="M280.42,869.06V833.8c0-6.28,5.09-11.37,11.37-11.37h391.26c6.28,0,11.37,5.09,11.37,11.37v35.26
				c0,6.28-5.09,11.37-11.37,11.37H291.79C285.51,880.43,280.42,875.34,280.42,869.06z"/>
			<g>
				<path class="st23" d="M297.58,782.45l-8-19.24l-1.68,19.56h-5.12l2.6-28h5.36l8.6,20.6l8.56-20.6h5.36l2.64,28h-5.12
					l-1.72-19.56l-8,19.24H297.58z"/>
				<path class="st23" d="M340.13,779.33c-2.72,3.04-6.04,3.88-9.16,3.88c-7.28,0-11.64-4.72-11.64-10.48
					c0-5.92,4.68-10.64,11.08-10.64c5.48,0,10.64,3.44,10.64,11.24h-16.8c0,3.2,2.6,5.72,6.96,5.72c2.52,0,4.4-0.92,6.12-2.48
					L340.13,779.33z M324.5,770.01h11.52c-0.76-3.12-3.52-4-5.6-4C328.26,766.01,325.54,766.89,324.5,770.01z"/>
				<path class="st23" d="M364.33,779.33c-2.72,3.04-6.04,3.88-9.16,3.88c-7.28,0-11.64-4.72-11.64-10.48
					c0-5.92,4.68-10.64,11.08-10.64c5.48,0,10.64,3.44,10.64,11.24h-16.8c0,3.2,2.6,5.72,6.96,5.72c2.52,0,4.4-0.92,6.12-2.48
					L364.33,779.33z M348.7,770.01h11.52c-0.76-3.12-3.52-4-5.6-4C352.46,766.01,349.74,766.89,348.7,770.01z"/>
				<path class="st23" d="M375.02,762.53h6.04v3.76h-6.04v10.6c0,1.24,0.52,2.2,1.96,2.2c1.2,0,2-0.84,2-2.08
					c0-0.44-0.08-1.24-0.28-1.68h4.04c0.36,0.76,0.44,1.92,0.44,2.28c0,2.96-2.04,5.6-6.4,5.6c-3.36,0-6.68-1.44-6.68-7v-9.92h-3.16
					v-3.76h3.4l0.88-5.4h3.8V762.53z"/>
				<path class="st23" d="M388.98,753.41c1.84,0,3.28,1.36,3.28,3.12s-1.44,3.08-3.28,3.08s-3.2-1.32-3.2-3.08
					S387.14,753.41,388.98,753.41z M386.5,782.77v-20.24h4.92v20.24H386.5z"/>
				<path class="st23" d="M397.1,762.53h4.92v3.4c1.28-2.64,3.68-3.84,6.56-3.84c5.04,0,7.48,3.64,7.48,9.48v11.2h-4.92v-11.16
					c0-3.52-1.48-5.36-3.92-5.36c-2.88,0-5.2,2.16-5.2,6.4v10.12h-4.92V762.53z"/>
				<path class="st23" d="M423.86,785.65c1.6,1.4,4.16,2.44,6.6,2.44c3.48,0,6.44-1.6,6.44-5.96v-2.36
					c-1.4,2.12-4.08,3.44-6.92,3.44c-6,0-9.92-4.72-9.92-10.64c0-5.72,3.76-10.48,9.96-10.48c2.72,0,5.24,1.12,6.88,3.44v-3h4.92
					v18.04c0,8.36-4.36,11.8-10.76,11.8c-4.4,0-7.16-1.24-9.16-2.88C422.58,788.21,423.22,786.93,423.86,785.65z M430.98,779.09
					c3.36,0,6.04-2.28,6.04-6.28c0-3.92-2.52-6.6-6.16-6.6c-3.72,0-5.84,2.92-5.84,6.4C425.02,776.21,427.3,779.09,430.98,779.09z"
					/>
				<path class="st23" d="M477.97,753.85v28.92h-4.92v-3.04c-1.48,2.2-4,3.48-6.96,3.48c-5.96,0-9.88-4.72-9.88-10.64
					c0-5.72,3.72-10.48,9.92-10.48c2.72,0,5.24,1.12,6.92,3.44v-11.68H477.97z M467.13,779.09c3.36,0,6-2.28,6-6.28
					c0-3.92-2.48-6.6-6.16-6.6c-3.72,0-5.8,2.92-5.8,6.4C461.17,776.21,463.46,779.09,467.13,779.09z"/>
				<path class="st23" d="M502.25,782.77h-4.92v-3.4c-1.28,2.64-3.64,3.84-6.52,3.84c-5.04,0-7.52-3.64-7.52-9.48v-11.2h4.92v11.16
					c0,3.28,1.28,5.2,3.92,5.2c2.28,0,5.2-1.88,5.2-7.6v-8.76h4.92V782.77z"/>
				<path class="st23" d="M512.69,767.01c0.68-3.44,3.36-4.92,5.52-4.92c0.68,0,1.08,0.12,1.68,0.28v4.84
					c-0.76-0.28-1.68-0.4-2.32-0.4c-1.8,0-4.8,1-4.8,6.6v9.36h-4.92v-20.24h4.84V767.01z"/>
				<path class="st23" d="M543.33,762.53v20.24h-4.92v-3.04c-1.44,2.2-3.96,3.48-6.92,3.48c-6,0-9.92-4.72-9.92-10.64
					c0-5.72,3.76-10.48,9.96-10.48c2.72,0,5.24,1.12,6.88,3.44v-3H543.33z M532.49,779.09c3.36,0,6.04-2.28,6.04-6.28
					c0-3.92-2.52-6.6-6.16-6.6c-3.72,0-5.84,2.92-5.84,6.4C526.53,776.21,528.82,779.09,532.49,779.09z"/>
				<path class="st23" d="M555.01,762.53h6.04v3.76h-6.04v10.6c0,1.24,0.52,2.2,1.96,2.2c1.2,0,2-0.84,2-2.08
					c0-0.44-0.08-1.24-0.28-1.68h4.04c0.36,0.76,0.44,1.92,0.44,2.28c0,2.96-2.04,5.6-6.4,5.6c-3.36,0-6.68-1.44-6.68-7v-9.92h-3.16
					v-3.76h3.4l0.88-5.4h3.8V762.53z"/>
				<path class="st23" d="M568.97,753.41c1.84,0,3.28,1.36,3.28,3.12s-1.44,3.08-3.28,3.08s-3.2-1.32-3.2-3.08
					S567.13,753.41,568.97,753.41z M566.49,782.77v-20.24h4.92v20.24H566.49z"/>
				<path class="st23" d="M586.65,762.09c5.92,0,11,4.76,11,10.56c0,5.84-5.08,10.56-11,10.56c-5.84,0-10.96-4.68-10.96-10.56
					C575.69,766.81,580.81,762.09,586.65,762.09z M586.65,779.01c3.44,0,6.04-2.8,6.04-6.36c0-3.52-2.6-6.36-6.04-6.36
					c-3.4,0-6,2.8-6,6.36C580.66,776.21,583.25,779.01,586.65,779.01z"/>
				<path class="st23" d="M601.85,762.53h4.92v3.4c1.28-2.64,3.68-3.84,6.56-3.84c5.04,0,7.48,3.64,7.48,9.48v11.2h-4.92v-11.16
					c0-3.52-1.48-5.36-3.92-5.36c-2.88,0-5.2,2.16-5.2,6.4v10.12h-4.92V762.53z"/>
			</g>
		</g>
		<g>
			<g id="Lock_13_">
				<g>
					<g>
						<g>
							<path class="st26" d="M177.5,1004.01c1.42-5.64,1.53-11.51,2.44-17.24c0.76-4.82,2.06-10.93,6.87-13.32
								c5.03-2.5,11.83-1.29,15.81,2.58c3.84,3.73,5.5,9.21,6.54,14.32c1.05,5.16,1.2,10.44,2.16,15.6
								c0.16,0.86,2.15-0.64,1.99-1.51c-0.89-4.8-1.05-9.7-1.94-14.5c-1-5.41-2.64-11.24-6.53-15.32
								c-4.09-4.29-10.77-5.51-16.3-3.54c-5.66,2.01-8.56,7.39-9.86,12.93c-1.6,6.79-1.39,13.88-3.09,20.65
								C175.22,1006.05,177.3,1004.81,177.5,1004.01L177.5,1004.01z"/>
						</g>
					</g>
					<g>
						<g>
							<path class="st26" d="M188.99,1000.06c0-3.67,0.05-7.35,0.45-11c0.19-1.77,0.46-3.55,0.96-5.26
								c0.32-1.08,0.72-2.52,1.62-3.27c1.79-1.49,4.09,0.78,4.94,2.23c1.57,2.64,2.15,5.89,2.58,8.88c0.47,3.28,0.66,6.61,0.67,9.93
								c0,1.04,1.81-0.26,1.81-0.99c0-3.19-0.19-6.38-0.6-9.54c-0.44-3.35-1.06-6.97-2.84-9.9c-1.34-2.21-3.8-3.66-6.29-2.25
								c-2.84,1.62-3.75,5.39-4.27,8.35c-0.81,4.54-0.84,9.21-0.84,13.81C187.18,1002.09,188.99,1000.79,188.99,1000.06
								L188.99,1000.06z"/>
						</g>
					</g>
				</g>
				<g id="LogoBase_34_">
					<g id="Ring1_150_">
						<g>
							<path class="st26" d="M158.03,1038.36c0.07-15.14,9.5-28.92,23.93-33.84c14.47-4.94,30.86-0.08,40.5,11.72
								c9.67,11.82,11.07,28.99,3.18,42.11c-7.88,13.1-23.81,19.43-38.62,16.13c-14.64-3.27-26.13-15.48-28.53-30.28
								C158.18,1042.26,158.04,1040.31,158.03,1038.36c-0.01-1.27-2.22,0.32-2.22,1.22c0.07,15.98,10.22,30.56,25.36,35.88
								c15.39,5.4,32.65,0.05,42.93-12.42c10.32-12.5,11.83-30.61,3.38-44.51c-8.4-13.81-25.04-20.72-40.77-17.25
								c-15.53,3.42-27.88,16.57-30.42,32.25c-0.32,2-0.48,4.02-0.49,6.05C155.81,1040.84,158.03,1039.25,158.03,1038.36z"/>
						</g>
					</g>
					<g id="Ring2_91_">
						<g>
							<path class="st26" d="M172.21,1038.44c0.07-9.34,5.85-17.76,14.84-20.64c8.85-2.83,18.73,0.27,24.54,7.46
								c5.84,7.21,6.71,17.66,1.93,25.66c-4.81,8.04-14.65,11.78-23.67,9.67C179.64,1058.21,172.28,1048.9,172.21,1038.44
								c-0.01-1.1-1.93,0.28-1.92,1.05c0.07,10.04,6.45,19.17,16.03,22.39c9.69,3.26,20.42-0.31,26.78-8.16
								c6.29-7.77,7.26-18.9,2.09-27.5c-5.23-8.72-15.71-13.02-25.58-10.77c-11.04,2.51-19.23,12.75-19.32,24.05
								C170.27,1040.59,172.2,1039.22,172.21,1038.44z"/>
						</g>
					</g>
					<g id="Ring3_91_">
						<g>
							<path class="st26" d="M180.98,1038.48c0.07-5.73,3.55-10.79,9.13-12.42c5.36-1.57,11.26,0.45,14.71,4.78
								c3.48,4.36,4.05,10.69,1.16,15.51c-2.91,4.84-8.87,6.98-14.28,5.67C185.48,1050.51,181.06,1044.85,180.98,1038.48
								c-0.01-1.02-1.78,0.26-1.78,0.97c0.08,6.35,4.09,12.1,10.21,14.04c6.09,1.93,12.73-0.42,16.7-5.31
								c3.98-4.89,4.68-11.89,1.41-17.34c-3.31-5.53-9.98-8.16-16.21-6.65c-6.91,1.68-12.03,8.16-12.12,15.25
								C179.2,1040.46,180.98,1039.2,180.98,1038.48z"/>
						</g>
					</g>
					<g id="Ring4_94_">
						<circle class="st26" cx="194.42" cy="1038.97" r="5.49"/>
					</g>
				</g>
			</g>
			<g id="Cam_8_">
				<g>
					<g>
						<path class="st26" d="M282.26,1059.89c0.54,2.1,0.75,4.4-0.15,6.44c-0.68,1.55-1.95,2.69-3.38,3.54
							c-3.15,1.86-6.81,2.61-10.32,3.51c-1.9,0.49-6.22,1.54-5.06,4.41c0.85,2.1,3.96,2.83,5.91,3.25c2.24,0.48,4.93,0.99,7.21,0.58
							c2.53-0.45,4.94-1.65,7.27-2.67c2.71-1.18,5.44-2.46,8.31-3.22c6.1-1.62,10.99,3.2,16.22,5.41c1.55,0.65,3.3,0.37,4.93,0.22
							c2.41-0.21,4.85-0.53,7.19-1.19c1.81-0.5,3.97-1.32,4.91-3.09c0.59-1.1,0.33-2.12-0.71-2.74c-1.13-0.68-2.5-0.97-3.77-1.3
							c-1.78-0.47-3.57-0.93-5.29-1.58c-3.76-1.43-6.98-3.97-7.54-8.18c-0.17-1.29-0.07-2.6,0.12-3.88c0.08-0.54-0.57-0.4-0.85-0.26
							c-0.46,0.22-0.89,0.74-0.96,1.26c-0.65,4.23,0.4,8.32,4.02,10.86c2.91,2.04,6.43,2.83,9.8,3.74c1.05,0.28,2.41,0.53,3.26,1.25
							c1.02,0.87-0.1,1.38-0.98,1.73c-2.17,0.86-4.57,1.18-6.88,1.44c-1.55,0.17-3.52,0.59-5.08,0.23
							c-1.02-0.23-1.99-0.84-2.89-1.35c-1.28-0.71-2.54-1.46-3.83-2.15c-2.58-1.37-5.51-2.75-8.52-2.6
							c-2.5,0.12-4.99,1.19-7.27,2.13c-2.66,1.1-5.26,2.35-7.96,3.35c-2.2,0.82-4.05,0.97-6.39,0.71c-2.45-0.27-5.49-0.68-7.51-2.22
							c-0.35-0.27-0.71-0.59-0.91-1c-0.09-0.18-0.09-0.46-0.18-0.62c-0.14-0.23,0.1-0.12-0.02-0.12c0.07,0-0.52,0.36-0.2,0.32
							c-0.23,0.03,0.32-0.16,0.3-0.15c1.2-0.55,2.57-0.8,3.84-1.12c6.63-1.66,15.8-4.49,15.62-12.93c-0.02-1.14-0.21-2.26-0.49-3.35
							C283.84,1057.75,282.06,1059.13,282.26,1059.89L282.26,1059.89z"/>
					</g>
				</g>
				<g id="LogoBase_39_">
					<g id="Ring1_159_">
						<g>
							<path class="st26" d="M259.31,1022.91c0.07-15.14,9.5-28.92,23.93-33.84c14.47-4.94,30.86-0.08,40.5,11.72
								c9.67,11.82,11.07,28.99,3.18,42.11c-7.88,13.1-23.81,19.43-38.62,16.13c-14.64-3.27-26.13-15.48-28.53-30.28
								C259.46,1026.81,259.32,1024.86,259.31,1022.91c-0.01-1.27-2.22,0.32-2.22,1.22c0.07,15.98,10.22,30.56,25.36,35.88
								c15.39,5.4,32.65,0.05,42.93-12.42c10.32-12.5,11.83-30.61,3.38-44.51c-8.4-13.81-25.04-20.72-40.77-17.25
								c-15.53,3.42-27.88,16.57-30.42,32.25c-0.32,2-0.48,4.02-0.49,6.05C257.08,1025.39,259.3,1023.8,259.31,1022.91z"/>
						</g>
					</g>
					<g id="Ring2_94_">
						<g>
							<path class="st26" d="M273.48,1022.99c0.07-9.34,5.85-17.76,14.84-20.64c8.85-2.83,18.73,0.27,24.54,7.46
								c5.84,7.21,6.71,17.66,1.93,25.66c-4.81,8.04-14.65,11.78-23.67,9.67C280.91,1042.75,273.56,1033.45,273.48,1022.99
								c-0.01-1.1-1.93,0.28-1.92,1.05c0.07,10.04,6.45,19.17,16.03,22.39c9.69,3.26,20.42-0.31,26.78-8.16
								c6.29-7.77,7.26-18.9,2.09-27.5c-5.23-8.72-15.71-13.02-25.58-10.77c-11.04,2.51-19.23,12.75-19.32,24.05
								C271.55,1025.14,273.48,1023.77,273.48,1022.99z"/>
						</g>
					</g>
					<g id="Ring3_94_">
						<g>
							<path class="st26" d="M282.26,1023.03c0.07-5.73,3.55-10.79,9.13-12.42c5.36-1.57,11.26,0.45,14.71,4.78
								c3.48,4.36,4.05,10.69,1.16,15.51c-2.91,4.84-8.87,6.98-14.28,5.67C286.76,1035.06,282.34,1029.4,282.26,1023.03
								c-0.01-1.02-1.78,0.26-1.78,0.97c0.08,6.35,4.09,12.1,10.21,14.04c6.09,1.93,12.73-0.42,16.7-5.31
								c3.98-4.89,4.68-11.89,1.41-17.34c-3.31-5.53-9.98-8.16-16.21-6.65c-6.91,1.68-12.03,8.16-12.12,15.25
								C280.47,1025.01,282.25,1023.75,282.26,1023.03z"/>
						</g>
					</g>
					<g id="Ring4_97_">
						<circle class="st26" cx="295.7" cy="1023.52" r="5.49"/>
					</g>
				</g>
			</g>
		</g>
	</g>
	<g>
		<circle class="st28" cx="782.84" cy="127.17" r="31"/>
		<line class="st29" x1="767.84" y1="112.17" x2="797.84" y2="142.17"/>
		<line class="st29" x1="767.84" y1="142.17" x2="797.84" y2="112.17"/>
	</g>
</g>
<g id="Monies">
</g>
<g id="Texts">
</g>
<g id="LandingPageAndArtOld">
	<g id="LandingV2Sim">
	</g>
	<g id="LandingPageOld_1_">
	</g>
</g>
<g id="CtmSiteLandingPoster">
</g>
<g id="P3">
</g>
<g id="LandingArtOld">
</g>
<g id="LogoBaseRobiconFull">
</g>
<g id="LogobaseRobicon">
</g>
<g id="Safe">
</g>
</svg>
