<?xml version="1.0" encoding="utf-8"?>
<!-- Generator: Adobe Adobe Illustrator 24.2.0, SVG Export Plug-In . SVG Version: 6.00 Build 0)  -->
<svg version="1.1" xmlns="http://www.w3.org/2000/svg" xmlns:xlink="http://www.w3.org/1999/xlink" x="0px" y="0px"
	 viewBox="0 0 210 50" style="enable-background:new 0 0 210 50;" xml:space="preserve">
<style type="text/css">
	.st0{fill:#2C0078;}
	.st1{fill:#EDA514;}
	.st2{fill:#2C0078;stroke:#380A0A;stroke-width:0.8291;stroke-miterlimit:10;}
	.st3{fill:url(#SVGID_1_);}
	.st4{fill:url(#SVGID_2_);}
	.st5{fill:#370003;}
	.st6{fill:none;}
	.st7{opacity:0.8902;}
	.st8{opacity:0.9412;}
	.st9{fill:none;stroke:#370003;stroke-width:0.4087;stroke-miterlimit:10;}
	.st10{fill:none;stroke:#370003;stroke-width:0.3001;stroke-miterlimit:10;}
	.st11{fill:none;stroke:#A6720A;stroke-linejoin:round;stroke-miterlimit:10;}
	.st12{fill:none;stroke:#A6720A;stroke-miterlimit:10;}
	.st13{fill:url(#SVGID_3_);stroke:#000000;stroke-miterlimit:10;}
	.st14{fill:url(#SVGID_4_);stroke:#000000;stroke-miterlimit:10;}
	.st15{fill:url(#SVGID_5_);stroke:#000000;stroke-miterlimit:10;}
	.st16{fill:url(#SVGID_6_);stroke:#000000;stroke-miterlimit:10;}
	.st17{fill:url(#SVGID_7_);}
	.st18{fill:url(#SVGID_8_);}
	.st19{opacity:0.8392;}
	.st20{display:none;}
	.st21{display:inline;}
	.st22{fill:#B37B50;}
	.st23{fill:#380A0A;}
	.st24{fill:#A6720A;}
	.st25{fill:none;stroke:#380A0A;stroke-width:0.5304;stroke-miterlimit:10;}
	.st26{fill:#380A0A;stroke:#000000;stroke-width:0.5304;stroke-miterlimit:10;}
	.st27{fill:#B37B50;stroke:#380A0A;stroke-width:1.3576;stroke-miterlimit:10;}
	.st28{fill:#A6720A;stroke:#380A0A;stroke-width:2;stroke-linejoin:round;stroke-miterlimit:10;}
	.st29{fill:#A6720A;stroke:#380A0A;stroke-width:1.8889;stroke-linejoin:round;stroke-miterlimit:10;}
	.st30{fill:#A6720A;stroke:#380A0A;stroke-width:1.7778;stroke-linejoin:round;stroke-miterlimit:10;}
	.st31{fill:#A6720A;stroke:#380A0A;stroke-width:1.6667;stroke-linejoin:round;stroke-miterlimit:10;}
	.st32{fill:#A6720A;stroke:#380A0A;stroke-width:1.5556;stroke-linejoin:round;stroke-miterlimit:10;}
	.st33{fill:#A6720A;stroke:#380A0A;stroke-width:1.4444;stroke-linejoin:round;stroke-miterlimit:10;}
	.st34{fill:#A6720A;stroke:#380A0A;stroke-width:1.3333;stroke-linejoin:round;stroke-miterlimit:10;}
	.st35{fill:#A6720A;stroke:#380A0A;stroke-width:1.1111;stroke-linejoin:round;stroke-miterlimit:10;}
	.st36{fill:#A6720A;stroke:#380A0A;stroke-linejoin:round;stroke-miterlimit:10;}
	.st37{fill:#A6720A;stroke:#380A0A;stroke-width:0.7778;stroke-linejoin:round;stroke-miterlimit:10;}
	.st38{fill:#A6720A;stroke:#380A0A;stroke-width:0.3333;stroke-linejoin:round;stroke-miterlimit:10;}
	.st39{fill:#2C0078;stroke:#A6720A;stroke-width:2.2221;stroke-miterlimit:10;}
	.st40{opacity:0;fill:none;stroke:#EDA514;stroke-width:3;stroke-miterlimit:10;}
	.st41{fill:url(#BackgroundHorizontal_2_);}
	.st42{fill:none;stroke:#A6720A;stroke-width:2.0268;stroke-miterlimit:10;}
	.st43{opacity:0;fill:none;stroke:#EDA514;stroke-width:2.7363;stroke-miterlimit:10;}
	.st44{fill:none;stroke:#370003;stroke-width:0.5304;stroke-miterlimit:10;}
	.st45{fill:#8F853F;}
	.st46{fill:#852705;}
	.st47{fill:none;stroke:#370003;stroke-width:2.0268;stroke-miterlimit:10;}
	.st48{fill:#F9AF17;}
	.st49{fill:none;stroke:#852C08;stroke-miterlimit:10;}
	.st50{fill:#852D09;}
	.st51{fill:#B35095;}
	.st52{fill:none;stroke:#380A0A;stroke-width:0.4744;stroke-miterlimit:10;}
	.st53{fill:#380A0A;stroke:#000000;stroke-width:0.4744;stroke-miterlimit:10;}
	.st54{fill:#998F40;}
	.st55{fill:url(#BackgroundHorizontal_3_);}
</style>
<g id="CtmLogoBase">
</g>
<g id="TwitterOld">
</g>
<g id="Twitter">
</g>
<g id="General">
	<g>
		<rect x="9.2" y="4.3" class="st6" width="191.61" height="54.57"/>
		<path class="st1" d="M24.41,22.45c0.12-0.12,0.15-0.15,0.21-0.15c0.06,0,0.15,0.06,0.15,0.15c0,0.06-0.09,0.18-0.18,0.3
			C22.73,25.09,16.31,31,11.24,31C9.56,31,8,30.01,8,28.03c0-4.65,6.78-9.93,11.13-9.93c0.96,0,1.47,0.6,1.47,1.26
			c0,0.9-0.78,1.74-1.02,1.74c-0.15,0-0.27-0.09-0.27-0.24c0-0.21,0.54-0.69,0.54-1.44c0-0.33-0.24-0.6-0.63-0.6
			c-2.82,0-8.67,5.22-8.67,9.36c0,1.14,0.57,1.74,1.59,1.74C16.37,29.92,22.61,24.31,24.41,22.45z"/>
		<path class="st1" d="M25.46,16.75c0.36,0,1.47,1.05,1.47,2.58c0,1.47-0.51,2.97-0.51,2.97c1.32-2.07,4.77-6.69,8.01-6.69
			c0.99,0,1.47,0.45,1.47,0.87c0,0.27-0.66,1.17-0.93,1.17c-0.36,0-0.36-0.6-1.44-0.6c-2.94,0-6.12,4.71-7.56,7.14
			c-1.41,2.4-2.25,4.83-2.49,5.22c-0.24,0.39-1.5,0.78-1.68,0.78c-0.18,0-0.45-0.09-0.45-0.42c0-0.33,0.99-2.49,2.31-5.58
			s1.77-4.41,1.77-5.58c0-1.14-0.27-1.35-0.27-1.56C25.16,16.9,25.31,16.75,25.46,16.75z"/>
		<path class="st1" d="M38,16.87c0.42,0,1.32,1.05,1.32,2.31c0,2.46-3.78,7.41-3.78,9.57c0,0.63,0.36,0.96,0.96,0.96
			c1.35,0,4.83-3.42,6.12-5.49c0.45-0.78,1.53-2.73,1.86-3.27c0.21-0.33,1.38-0.84,1.65-0.84c0.3,0,0.45,0.09,0.45,0.42
			s-0.99,2.64-2.52,6.54c-0.96,2.43-2.22,5.22-3.63,7.86c0.78-0.06,1.53-0.09,2.28-0.09c3.57,0,5.13,1.38,5.13,2.01
			c0,0.48-0.45,0.96-0.96,0.96c-0.48,0-1.02-2.37-4.47-2.37c-0.75,0-1.56,0.03-2.34,0.12c-3,5.4-6.75,10.14-10.5,10.14
			c-2.22,0-3.39-1.41-3.39-2.88c0-3.72,5.94-6.51,11.82-7.56c1.68-3.03,3.12-6.36,4.17-9.27c-2.43,2.46-4.35,4.53-6.51,4.53
			c-1.32,0-2.25-0.96-2.25-2.13c0-3.21,4.71-7.23,4.71-10.29c0-0.63-0.3-0.87-0.3-1.05C37.82,16.96,37.91,16.87,38,16.87z
			 M37.64,35.89c-5.55,1.08-10.8,3.81-10.8,6.72c0,1.32,0.78,2.1,2.01,2.1C31.7,44.71,34.94,40.75,37.64,35.89z"/>
		<path class="st1" d="M52.19,15.07c0.3,0,1.38,0.72,1.38,2.07c0,3.84-3.21,10.89-3.21,10.89s7.65-9.3,10.83-9.3
			c0.99,0,1.62,1.02,1.62,2.01c0,2.88-5.46,9.93-9.93,9.93c-1.02,0-1.8-0.33-1.8-0.6s0.42-0.75,0.75-0.75s0.84,0.63,1.56,0.63
			c3,0,7.38-6.78,7.38-9.72c0-0.33-0.18-0.45-0.39-0.45c-1.44,0-7.41,5.52-10.5,10.05c-4.83,9.96-8.76,14.19-10.5,14.19
			c-0.21,0-0.48-0.12-0.48-0.39s0.54,0.06,1.62-0.87c2.37-2.04,5.28-9.24,7.68-14.7c2.22-5.07,4.35-10.05,4.35-11.64
			c0-0.78-0.57-0.93-0.57-1.17C51.98,15.16,52.04,15.07,52.19,15.07z"/>
		<path class="st1" d="M73.4,27.82c0,0.93,0.45,1.53,1.17,1.53c2.49,0,7.41-4.95,7.41-9.81c0-1.71-1.08-2.04-1.08-2.31
			c0-0.3,0.63-0.75,1.11-0.75c0.6,0,1.59,1.05,1.59,2.46c0,4.56-5.55,11.16-9.63,11.16c-1.77,0-2.55-1.32-2.55-2.64
			c0-4.59,6.15-8.52,7.47-8.7c-0.9-0.27-3.93-1.35-8.22-0.78l-0.66,1.26c-2.67,5.19-4.2,8.49-4.2,11.76c0,2.16,0.96,3.03,0.96,3.3
			c0,0.15-0.15,0.33-0.36,0.33s-2.07-1.77-2.07-4.29c0-3.12,1.56-7.11,4.14-12.03c-1.53,0.27-1.92,0.42-2.07,0.42
			c-0.18,0-0.3-0.18-0.3-0.33s0.42-0.48,2.76-0.87c2.28-4.23,4.89-7.71,5.67-8.28c0.81-0.57,1.65-0.78,1.86-0.78
			c0.15,0,0.27,0.15,0.27,0.3c0,0.45-2.67,3.3-5.61,8.49c4.17-0.36,8.91,0.81,8.91,1.47C79.97,19.45,73.4,22.66,73.4,27.82z"/>
		<path class="st1" d="M120.59,22.45c0.09-0.12,0.12-0.15,0.18-0.15s0.15,0.06,0.15,0.15c0,0.06-0.06,0.18-0.15,0.3
			c-1.65,2.52-5.16,6.96-8.25,6.96c-1.8,0-3.24-0.99-3.24-3.15c0-1.86,1.26-4.11,1.26-4.56c0-0.21-0.12-0.3-0.27-0.3
			c-0.93,0-5.1,3.9-6.18,5.46c-1.11,1.59-1.89,2.64-2.58,2.64c-0.3,0-0.57-0.24-0.57-0.54c0-0.27,1.17-2.58,2.4-4.95
			c1.23-2.37,2.34-4.5,2.34-5.31c0-0.36-0.15-0.48-0.45-0.48c-1.32,0-6.69,5.82-9,8.67c-2.49,3.06-3.12,4.56-3.81,4.56
			c-0.24,0-0.54-0.21-0.54-0.57s4.17-9.21,4.17-11.58c0-1.23-0.57-1.26-0.57-1.47c0-0.15,0.18-0.24,0.39-0.24
			c0.75,0,2.1,0.9,2.1,2.88c0,1.95-1.95,5.73-1.95,5.73s6.93-8.76,9.6-8.76c1.08,0,1.68,0.9,1.68,1.71c0,1.56-1.86,5.25-1.98,5.46
			c0.24-0.24,4.02-4.14,5.7-4.14c0.84,0,1.32,0.45,1.32,1.38c0,0.72-0.69,2.4-0.69,4.32c0,1.62,0.51,2.25,1.62,2.25
			C115.49,28.72,118.79,25,120.59,22.45z"/>
		<path class="st1" d="M132.92,22.45c0.12-0.12,0.18-0.18,0.24-0.18c0.06,0,0.15,0.06,0.15,0.15c0,0.06-0.09,0.21-0.18,0.33
			c-1.92,2.58-8.04,7.65-12.03,7.65c-1.65,0-3.3-0.84-3.3-2.7c0-4.11,7.2-9.69,9.99-9.69c0.69,0,1.11,0.6,1.11,1.17
			c0,1.92-4.32,5.07-7.95,5.94c-0.51,0.93-0.84,1.83-0.84,2.55c0,1.29,0.75,1.71,1.59,1.71C125.72,29.38,130.82,24.88,132.92,22.45z
			 M121.28,24.55c3.27-1.17,6.96-3.78,6.96-5.55c0-0.18-0.15-0.33-0.3-0.33C126.5,18.67,123.11,21.7,121.28,24.55z"/>
		<path class="st1" d="M145.25,22.45c0.12-0.12,0.18-0.18,0.24-0.18c0.06,0,0.15,0.06,0.15,0.15c0,0.06-0.09,0.21-0.18,0.33
			c-1.92,2.58-8.04,7.65-12.03,7.65c-1.65,0-3.3-0.84-3.3-2.7c0-4.11,7.2-9.69,9.99-9.69c0.69,0,1.11,0.6,1.11,1.17
			c0,1.92-4.32,5.07-7.95,5.94c-0.51,0.93-0.84,1.83-0.84,2.55c0,1.29,0.75,1.71,1.59,1.71C138.05,29.38,143.15,24.88,145.25,22.45z
			 M133.61,24.55c3.27-1.17,6.96-3.78,6.96-5.55c0-0.18-0.15-0.33-0.3-0.33C138.83,18.67,135.44,21.7,133.61,24.55z"/>
		<path class="st1" d="M160.7,13.39c0,0.72-2.19,2.07-7.32,2.28c-1.05,0.06-1.92,0.09-2.7,0.15c-0.6,1.05-1.26,2.16-1.89,3.42
			c-2.67,5.19-4.2,8.49-4.2,11.76c0,2.34,0.96,3.03,0.96,3.3c0,0.15-0.12,0.27-0.27,0.27c-0.21,0-2.16-1.71-2.16-4.23
			c0-3.21,1.62-7.29,4.32-12.39c0.33-0.66,0.69-1.29,1.05-1.92c-2.58,0.27-2.73,0.57-2.91,0.54c-0.12-0.03-0.27-0.24-0.27-0.33
			c0-0.57,1.68-0.81,3.63-0.96c1.89-3.18,3.72-5.58,4.38-6.03c0.81-0.57,1.65-0.78,1.86-0.78c0.15,0,0.27,0.15,0.27,0.3
			c0,0.39-1.95,2.52-4.35,6.39c0.81-0.06,1.56-0.09,2.19-0.15c5.97-0.54,6.84-2.19,7.05-2.19C160.52,12.82,160.7,13.15,160.7,13.39z
			"/>
		<path class="st1" d="M186.89,22.45c0.09-0.12,0.12-0.15,0.18-0.15c0.06,0,0.15,0.06,0.15,0.15c0,0.06-0.06,0.18-0.15,0.3
			c-1.65,2.52-5.16,6.96-8.25,6.96c-1.8,0-3.24-0.99-3.24-3.15c0-1.86,1.26-4.11,1.26-4.56c0-0.21-0.12-0.3-0.27-0.3
			c-0.93,0-5.1,3.9-6.18,5.46c-1.11,1.59-1.89,2.64-2.58,2.64c-0.3,0-0.57-0.24-0.57-0.54c0-0.27,1.17-2.58,2.4-4.95
			c1.23-2.37,2.34-4.5,2.34-5.31c0-0.36-0.15-0.48-0.45-0.48c-1.32,0-6.69,5.82-9,8.67c-2.49,3.06-3.12,4.56-3.81,4.56
			c-0.24,0-0.54-0.21-0.54-0.57s4.17-9.21,4.17-11.58c0-1.23-0.57-1.26-0.57-1.47c0-0.15,0.18-0.24,0.39-0.24
			c0.75,0,2.1,0.9,2.1,2.88c0,1.95-1.95,5.73-1.95,5.73s6.93-8.76,9.6-8.76c1.08,0,1.68,0.9,1.68,1.71c0,1.56-1.86,5.25-1.98,5.46
			c0.24-0.24,4.02-4.14,5.7-4.14c0.84,0,1.32,0.45,1.32,1.38c0,0.72-0.69,2.4-0.69,4.32c0,1.62,0.51,2.25,1.62,2.25
			C181.79,28.72,185.09,25,186.89,22.45z"/>
		<path class="st1" d="M199.22,22.45c0.12-0.12,0.18-0.18,0.24-0.18c0.06,0,0.15,0.06,0.15,0.15c0,0.06-0.09,0.21-0.18,0.33
			c-1.92,2.58-8.04,7.65-12.03,7.65c-1.65,0-3.3-0.84-3.3-2.7c0-4.11,7.2-9.69,9.99-9.69c0.69,0,1.11,0.6,1.11,1.17
			c0,1.92-4.32,5.07-7.95,5.94c-0.51,0.93-0.84,1.83-0.84,2.55c0,1.29,0.75,1.71,1.59,1.71C192.02,29.38,197.12,24.88,199.22,22.45z
			 M187.58,24.55c3.27-1.17,6.96-3.78,6.96-5.55c0-0.18-0.15-0.33-0.3-0.33C192.8,18.67,189.41,21.7,187.58,24.55z"/>
	</g>
</g>
<g id="Monies">
</g>
<g id="Texts">
</g>
<g id="LandingPageAndArtOld">
	<g id="LandingV2Sim">
	</g>
	<g id="LandingPageOld_1_">
	</g>
</g>
<g id="CtmSiteLandingPoster">
</g>
<g id="P3">
</g>
<g id="LandingArtOld">
</g>
<g id="LogoBaseRobiconFull">
</g>
<g id="LogobaseRobicon">
</g>
<g id="Safe">
</g>
</svg>
